<?xml version="1.0" encoding="utf-8" standalone="no"?>
<!DOCTYPE svg PUBLIC "-//W3C//DTD SVG 1.1//EN"
  "http://www.w3.org/Graphics/SVG/1.1/DTD/svg11.dtd">
<svg xmlns:xlink="http://www.w3.org/1999/xlink" width="423.690937pt" height="424.273594pt" viewBox="0 0 423.690937 424.273594" xmlns="http://www.w3.org/2000/svg" version="1.1">
 <metadata>
  <rdf:RDF xmlns:dc="http://purl.org/dc/elements/1.1/" xmlns:cc="http://creativecommons.org/ns#" xmlns:rdf="http://www.w3.org/1999/02/22-rdf-syntax-ns#">
   <cc:Work>
    <dc:type rdf:resource="http://purl.org/dc/dcmitype/StillImage"/>
    <dc:date>2023-05-10T11:42:43.037990</dc:date>
    <dc:format>image/svg+xml</dc:format>
    <dc:creator>
     <cc:Agent>
      <dc:title>Matplotlib v3.5.2, https://matplotlib.org/</dc:title>
     </cc:Agent>
    </dc:creator>
   </cc:Work>
  </rdf:RDF>
 </metadata>
 <defs>
  <style type="text/css">*{stroke-linejoin: round; stroke-linecap: butt}</style>
 </defs>
 <g id="figure_1">
  <g id="patch_1">
   <path d="M 0 424.273594 
L 423.690937 424.273594 
L 423.690937 0 
L 0 0 
z
" style="fill: #ffffff"/>
  </g>
  <g id="axes_1">
   <g id="patch_2">
    <path d="M 41.490469 174.439375 
L 413.710469 174.439375 
L 413.710469 21.935625 
L 41.490469 21.935625 
z
" style="fill: #eaeaf2"/>
   </g>
   <g id="matplotlib.axis_1">
    <g id="xtick_1">
     <g id="line2d_1">
      <path d="M 41.490469 174.439375 
L 41.490469 21.935625 
" clip-path="url(#p20bd45aea7)" style="fill: none; stroke: #ffffff; stroke-width: 0.8; stroke-linecap: round"/>
     </g>
     <g id="text_1">
      <!-- −6 -->
      <g style="fill: #262626" transform="translate(35.789688 188.597187)scale(0.1 -0.1)">
       <defs>
        <path id="ArialMT-2212" d="M 3381 1997 
L 356 1997 
L 356 2522 
L 3381 2522 
L 3381 1997 
z
" transform="scale(0.015625)"/>
        <path id="ArialMT-36" d="M 3184 3459 
L 2625 3416 
Q 2550 3747 2413 3897 
Q 2184 4138 1850 4138 
Q 1581 4138 1378 3988 
Q 1113 3794 959 3422 
Q 806 3050 800 2363 
Q 1003 2672 1297 2822 
Q 1591 2972 1913 2972 
Q 2475 2972 2870 2558 
Q 3266 2144 3266 1488 
Q 3266 1056 3080 686 
Q 2894 316 2569 119 
Q 2244 -78 1831 -78 
Q 1128 -78 684 439 
Q 241 956 241 2144 
Q 241 3472 731 4075 
Q 1159 4600 1884 4600 
Q 2425 4600 2770 4297 
Q 3116 3994 3184 3459 
z
M 888 1484 
Q 888 1194 1011 928 
Q 1134 663 1356 523 
Q 1578 384 1822 384 
Q 2178 384 2434 671 
Q 2691 959 2691 1453 
Q 2691 1928 2437 2201 
Q 2184 2475 1800 2475 
Q 1419 2475 1153 2201 
Q 888 1928 888 1484 
z
" transform="scale(0.015625)"/>
       </defs>
       <use xlink:href="#ArialMT-2212"/>
       <use xlink:href="#ArialMT-36" x="58.398438"/>
      </g>
     </g>
    </g>
    <g id="xtick_2">
     <g id="line2d_2">
      <path d="M 103.527135 174.439375 
L 103.527135 21.935625 
" clip-path="url(#p20bd45aea7)" style="fill: none; stroke: #ffffff; stroke-width: 0.8; stroke-linecap: round"/>
     </g>
     <g id="text_2">
      <!-- −4 -->
      <g style="fill: #262626" transform="translate(97.826354 188.597187)scale(0.1 -0.1)">
       <defs>
        <path id="ArialMT-34" d="M 2069 0 
L 2069 1097 
L 81 1097 
L 81 1613 
L 2172 4581 
L 2631 4581 
L 2631 1613 
L 3250 1613 
L 3250 1097 
L 2631 1097 
L 2631 0 
L 2069 0 
z
M 2069 1613 
L 2069 3678 
L 634 1613 
L 2069 1613 
z
" transform="scale(0.015625)"/>
       </defs>
       <use xlink:href="#ArialMT-2212"/>
       <use xlink:href="#ArialMT-34" x="58.398438"/>
      </g>
     </g>
    </g>
    <g id="xtick_3">
     <g id="line2d_3">
      <path d="M 165.563802 174.439375 
L 165.563802 21.935625 
" clip-path="url(#p20bd45aea7)" style="fill: none; stroke: #ffffff; stroke-width: 0.8; stroke-linecap: round"/>
     </g>
     <g id="text_3">
      <!-- −2 -->
      <g style="fill: #262626" transform="translate(159.863021 188.597187)scale(0.1 -0.1)">
       <defs>
        <path id="ArialMT-32" d="M 3222 541 
L 3222 0 
L 194 0 
Q 188 203 259 391 
Q 375 700 629 1000 
Q 884 1300 1366 1694 
Q 2113 2306 2375 2664 
Q 2638 3022 2638 3341 
Q 2638 3675 2398 3904 
Q 2159 4134 1775 4134 
Q 1369 4134 1125 3890 
Q 881 3647 878 3216 
L 300 3275 
Q 359 3922 746 4261 
Q 1134 4600 1788 4600 
Q 2447 4600 2831 4234 
Q 3216 3869 3216 3328 
Q 3216 3053 3103 2787 
Q 2991 2522 2730 2228 
Q 2469 1934 1863 1422 
Q 1356 997 1212 845 
Q 1069 694 975 541 
L 3222 541 
z
" transform="scale(0.015625)"/>
       </defs>
       <use xlink:href="#ArialMT-2212"/>
       <use xlink:href="#ArialMT-32" x="58.398438"/>
      </g>
     </g>
    </g>
    <g id="xtick_4">
     <g id="line2d_4">
      <path d="M 227.600469 174.439375 
L 227.600469 21.935625 
" clip-path="url(#p20bd45aea7)" style="fill: none; stroke: #ffffff; stroke-width: 0.8; stroke-linecap: round"/>
     </g>
     <g id="text_4">
      <!-- 0 -->
      <g style="fill: #262626" transform="translate(224.82 188.597187)scale(0.1 -0.1)">
       <defs>
        <path id="ArialMT-30" d="M 266 2259 
Q 266 3072 433 3567 
Q 600 4063 929 4331 
Q 1259 4600 1759 4600 
Q 2128 4600 2406 4451 
Q 2684 4303 2865 4023 
Q 3047 3744 3150 3342 
Q 3253 2941 3253 2259 
Q 3253 1453 3087 958 
Q 2922 463 2592 192 
Q 2263 -78 1759 -78 
Q 1097 -78 719 397 
Q 266 969 266 2259 
z
M 844 2259 
Q 844 1131 1108 757 
Q 1372 384 1759 384 
Q 2147 384 2411 759 
Q 2675 1134 2675 2259 
Q 2675 3391 2411 3762 
Q 2147 4134 1753 4134 
Q 1366 4134 1134 3806 
Q 844 3388 844 2259 
z
" transform="scale(0.015625)"/>
       </defs>
       <use xlink:href="#ArialMT-30"/>
      </g>
     </g>
    </g>
    <g id="xtick_5">
     <g id="line2d_5">
      <path d="M 289.637135 174.439375 
L 289.637135 21.935625 
" clip-path="url(#p20bd45aea7)" style="fill: none; stroke: #ffffff; stroke-width: 0.8; stroke-linecap: round"/>
     </g>
     <g id="text_5">
      <!-- 2 -->
      <g style="fill: #262626" transform="translate(286.856667 188.597187)scale(0.1 -0.1)">
       <use xlink:href="#ArialMT-32"/>
      </g>
     </g>
    </g>
    <g id="xtick_6">
     <g id="line2d_6">
      <path d="M 351.673802 174.439375 
L 351.673802 21.935625 
" clip-path="url(#p20bd45aea7)" style="fill: none; stroke: #ffffff; stroke-width: 0.8; stroke-linecap: round"/>
     </g>
     <g id="text_6">
      <!-- 4 -->
      <g style="fill: #262626" transform="translate(348.893333 188.597187)scale(0.1 -0.1)">
       <use xlink:href="#ArialMT-34"/>
      </g>
     </g>
    </g>
    <g id="xtick_7">
     <g id="line2d_7">
      <path d="M 413.710469 174.439375 
L 413.710469 21.935625 
" clip-path="url(#p20bd45aea7)" style="fill: none; stroke: #ffffff; stroke-width: 0.8; stroke-linecap: round"/>
     </g>
     <g id="text_7">
      <!-- 6 -->
      <g style="fill: #262626" transform="translate(410.93 188.597187)scale(0.1 -0.1)">
       <use xlink:href="#ArialMT-36"/>
      </g>
     </g>
    </g>
    <g id="text_8">
     <!-- $x$ -->
     <g style="fill: #262626" transform="translate(223.700469 203.889844)scale(0.13 -0.13)">
      <defs>
       <path id="DejaVuSans-Oblique-78" d="M 3841 3500 
L 2234 1784 
L 3219 0 
L 2559 0 
L 1819 1388 
L 531 0 
L -166 0 
L 1556 1844 
L 641 3500 
L 1300 3500 
L 1972 2234 
L 3144 3500 
L 3841 3500 
z
" transform="scale(0.015625)"/>
      </defs>
      <use xlink:href="#DejaVuSans-Oblique-78" transform="translate(0 0.3125)"/>
     </g>
    </g>
   </g>
   <g id="matplotlib.axis_2">
    <g id="ytick_1">
     <g id="line2d_8">
      <path d="M 41.490469 174.439375 
L 413.710469 174.439375 
" clip-path="url(#p20bd45aea7)" style="fill: none; stroke: #ffffff; stroke-width: 0.8; stroke-linecap: round"/>
     </g>
     <g id="text_9">
      <!-- −3 -->
      <g style="fill: #262626" transform="translate(23.088906 178.018281)scale(0.1 -0.1)">
       <defs>
        <path id="ArialMT-33" d="M 269 1209 
L 831 1284 
Q 928 806 1161 595 
Q 1394 384 1728 384 
Q 2125 384 2398 659 
Q 2672 934 2672 1341 
Q 2672 1728 2419 1979 
Q 2166 2231 1775 2231 
Q 1616 2231 1378 2169 
L 1441 2663 
Q 1497 2656 1531 2656 
Q 1891 2656 2178 2843 
Q 2466 3031 2466 3422 
Q 2466 3731 2256 3934 
Q 2047 4138 1716 4138 
Q 1388 4138 1169 3931 
Q 950 3725 888 3313 
L 325 3413 
Q 428 3978 793 4289 
Q 1159 4600 1703 4600 
Q 2078 4600 2393 4439 
Q 2709 4278 2876 4000 
Q 3044 3722 3044 3409 
Q 3044 3113 2884 2869 
Q 2725 2625 2413 2481 
Q 2819 2388 3044 2092 
Q 3269 1797 3269 1353 
Q 3269 753 2831 336 
Q 2394 -81 1725 -81 
Q 1122 -81 723 278 
Q 325 638 269 1209 
z
" transform="scale(0.015625)"/>
       </defs>
       <use xlink:href="#ArialMT-2212"/>
       <use xlink:href="#ArialMT-33" x="58.398438"/>
      </g>
     </g>
    </g>
    <g id="ytick_2">
     <g id="line2d_9">
      <path d="M 41.490469 149.022083 
L 413.710469 149.022083 
" clip-path="url(#p20bd45aea7)" style="fill: none; stroke: #ffffff; stroke-width: 0.8; stroke-linecap: round"/>
     </g>
     <g id="text_10">
      <!-- −2 -->
      <g style="fill: #262626" transform="translate(23.088906 152.60099)scale(0.1 -0.1)">
       <use xlink:href="#ArialMT-2212"/>
       <use xlink:href="#ArialMT-32" x="58.398438"/>
      </g>
     </g>
    </g>
    <g id="ytick_3">
     <g id="line2d_10">
      <path d="M 41.490469 123.604792 
L 413.710469 123.604792 
" clip-path="url(#p20bd45aea7)" style="fill: none; stroke: #ffffff; stroke-width: 0.8; stroke-linecap: round"/>
     </g>
     <g id="text_11">
      <!-- −1 -->
      <g style="fill: #262626" transform="translate(23.088906 127.183698)scale(0.1 -0.1)">
       <defs>
        <path id="ArialMT-31" d="M 2384 0 
L 1822 0 
L 1822 3584 
Q 1619 3391 1289 3197 
Q 959 3003 697 2906 
L 697 3450 
Q 1169 3672 1522 3987 
Q 1875 4303 2022 4600 
L 2384 4600 
L 2384 0 
z
" transform="scale(0.015625)"/>
       </defs>
       <use xlink:href="#ArialMT-2212"/>
       <use xlink:href="#ArialMT-31" x="58.398438"/>
      </g>
     </g>
    </g>
    <g id="ytick_4">
     <g id="line2d_11">
      <path d="M 41.490469 98.1875 
L 413.710469 98.1875 
" clip-path="url(#p20bd45aea7)" style="fill: none; stroke: #ffffff; stroke-width: 0.8; stroke-linecap: round"/>
     </g>
     <g id="text_12">
      <!-- 0 -->
      <g style="fill: #262626" transform="translate(28.929531 101.766406)scale(0.1 -0.1)">
       <use xlink:href="#ArialMT-30"/>
      </g>
     </g>
    </g>
    <g id="ytick_5">
     <g id="line2d_12">
      <path d="M 41.490469 72.770208 
L 413.710469 72.770208 
" clip-path="url(#p20bd45aea7)" style="fill: none; stroke: #ffffff; stroke-width: 0.8; stroke-linecap: round"/>
     </g>
     <g id="text_13">
      <!-- 1 -->
      <g style="fill: #262626" transform="translate(28.929531 76.349115)scale(0.1 -0.1)">
       <use xlink:href="#ArialMT-31"/>
      </g>
     </g>
    </g>
    <g id="ytick_6">
     <g id="line2d_13">
      <path d="M 41.490469 47.352917 
L 413.710469 47.352917 
" clip-path="url(#p20bd45aea7)" style="fill: none; stroke: #ffffff; stroke-width: 0.8; stroke-linecap: round"/>
     </g>
     <g id="text_14">
      <!-- 2 -->
      <g style="fill: #262626" transform="translate(28.929531 50.931823)scale(0.1 -0.1)">
       <use xlink:href="#ArialMT-32"/>
      </g>
     </g>
    </g>
    <g id="ytick_7">
     <g id="line2d_14">
      <path d="M 41.490469 21.935625 
L 413.710469 21.935625 
" clip-path="url(#p20bd45aea7)" style="fill: none; stroke: #ffffff; stroke-width: 0.8; stroke-linecap: round"/>
     </g>
     <g id="text_15">
      <!-- 3 -->
      <g style="fill: #262626" transform="translate(28.929531 25.514531)scale(0.1 -0.1)">
       <use xlink:href="#ArialMT-33"/>
      </g>
     </g>
    </g>
    <g id="text_16">
     <!-- $y$ -->
     <g style="fill: #262626" transform="translate(16.358906 102.0875)rotate(-90)scale(0.13 -0.13)">
      <defs>
       <path id="DejaVuSans-Oblique-79" d="M 1588 -325 
Q 1188 -997 936 -1164 
Q 684 -1331 294 -1331 
L -159 -1331 
L -63 -850 
L 269 -850 
Q 509 -850 678 -719 
Q 847 -588 1056 -206 
L 1234 128 
L 459 3500 
L 1069 3500 
L 1650 819 
L 3256 3500 
L 3859 3500 
L 1588 -325 
z
" transform="scale(0.015625)"/>
      </defs>
      <use xlink:href="#DejaVuSans-Oblique-79" transform="translate(0 0.3125)"/>
     </g>
    </g>
   </g>
   <g id="PolyCollection_1">
    <defs>
     <path id="m27aa56dc46" d="M 41.490469 -377.239302 
L 41.490469 -275.60428 
L 46.520469 -275.816758 
L 51.550469 -276.140421 
L 56.580469 -276.625808 
L 61.610469 -277.342366 
L 66.640469 -278.381417 
L 71.670469 -279.855274 
L 76.700469 -281.889217 
L 81.730469 -284.60371 
L 86.760469 -288.086515 
L 91.790469 -292.357993 
L 96.820469 -297.336542 
L 101.850469 -302.813685 
L 106.880469 -308.448508 
L 111.910469 -313.788715 
L 116.940469 -318.320563 
L 121.970469 -321.543245 
L 127.000469 -323.056403 
L 132.030469 -322.64416 
L 137.060469 -320.337063 
L 142.090469 -316.435746 
L 147.120469 -311.486851 
L 152.150469 -306.211449 
L 157.180469 -301.39679 
L 162.210469 -297.770827 
L 167.240469 -295.883553 
L 172.270469 -296.01846 
L 177.300469 -298.151535 
L 182.330469 -299.915331 
L 187.360469 -297.277614 
L 192.390469 -295.27274 
L 197.420469 -294.405197 
L 202.450469 -295.08884 
L 207.480469 -297.557603 
L 212.510469 -301.807189 
L 217.540469 -307.580168 
L 222.570469 -314.399097 
L 227.600469 -321.643054 
L 232.630469 -328.653886 
L 237.660469 -333.52851 
L 242.690469 -336.169727 
L 247.720469 -339.562343 
L 252.750469 -343.389982 
L 257.780469 -346.984716 
L 262.810469 -347.594959 
L 267.840469 -347.914994 
L 272.870469 -348.18883 
L 277.900469 -348.474727 
L 282.930469 -348.63645 
L 287.960469 -348.395874 
L 292.990469 -347.432644 
L 298.020469 -345.502689 
L 303.050469 -342.541548 
L 308.080469 -338.722608 
L 313.110469 -334.45315 
L 318.140469 -330.30876 
L 323.170469 -326.923542 
L 328.200469 -322.696215 
L 333.230469 -316.556188 
L 338.260469 -309.840951 
L 343.290469 -302.882036 
L 348.320469 -296.078476 
L 353.350469 -289.823594 
L 358.380469 -284.437775 
L 363.410469 -280.121962 
L 368.440469 -276.939569 
L 373.470469 -274.826585 
L 378.500469 -273.623223 
L 383.530469 -273.11668 
L 388.560469 -273.084028 
L 393.590469 -273.32631 
L 398.620469 -273.688898 
L 403.650469 -274.067606 
L 408.680469 -274.403734 
L 413.710469 -274.672997 
L 413.710469 -376.25468 
L 413.710469 -376.25468 
L 408.680469 -375.870351 
L 403.650469 -375.294333 
L 398.620469 -374.446319 
L 393.590469 -373.222573 
L 388.560469 -371.498269 
L 383.530469 -369.138138 
L 378.500469 -366.018034 
L 373.470469 -362.057087 
L 368.440469 -357.255904 
L 363.410469 -351.732057 
L 358.380469 -345.74167 
L 353.350469 -339.676377 
L 348.320469 -334.028918 
L 343.290469 -329.327635 
L 338.260469 -326.048859 
L 333.230469 -324.524242 
L 328.200469 -324.864897 
L 323.170469 -328.057534 
L 318.140469 -332.595109 
L 313.110469 -336.412078 
L 308.080469 -339.70916 
L 303.050469 -342.706305 
L 298.020469 -345.558601 
L 292.990469 -348.291706 
L 287.960469 -350.777653 
L 282.930469 -352.760552 
L 277.900469 -353.926791 
L 272.870469 -354.000478 
L 267.840469 -352.836448 
L 262.810469 -350.483005 
L 257.780469 -347.194764 
L 252.750469 -345.721307 
L 247.720469 -343.428381 
L 242.690469 -339.831298 
L 237.660469 -334.851153 
L 232.630469 -331.740174 
L 227.600469 -330.668326 
L 222.570469 -329.971516 
L 217.540469 -329.183944 
L 212.510469 -327.825555 
L 207.480469 -325.517248 
L 202.450469 -322.076655 
L 197.420469 -317.574643 
L 192.390469 -312.340913 
L 187.360469 -306.917084 
L 182.330469 -301.965647 
L 177.300469 -302.693292 
L 172.270469 -305.226559 
L 167.240469 -307.308371 
L 162.210469 -308.941784 
L 157.180469 -310.326624 
L 152.150469 -311.805169 
L 147.120469 -313.77876 
L 142.090469 -316.613689 
L 137.060469 -320.556824 
L 132.030469 -325.678701 
L 127.000469 -331.854992 
L 121.970469 -338.788188 
L 116.940469 -346.062228 
L 111.910469 -353.216133 
L 106.880469 -359.819851 
L 101.850469 -365.53684 
L 96.820469 -370.162685 
L 91.790469 -373.635538 
L 86.760469 -376.020704 
L 81.730469 -377.476671 
L 76.700469 -378.212504 
L 71.670469 -378.446536 
L 66.640469 -378.374119 
L 61.610469 -378.148573 
L 56.580469 -377.875445 
L 51.550469 -377.617024 
L 46.520469 -377.402478 
L 41.490469 -377.239302 
z
" style="stroke: #ff0000; stroke-opacity: 0.15"/>
    </defs>
    <g clip-path="url(#p20bd45aea7)">
     <use xlink:href="#m27aa56dc46" x="0" y="424.273594" style="fill: #ff0000; fill-opacity: 0.15; stroke: #ff0000; stroke-opacity: 0.15"/>
    </g>
   </g>
   <g id="line2d_15">
    <path d="M 41.490469 91.085515 
L 46.520469 87.238456 
L 51.550469 83.678688 
L 56.580469 80.499617 
L 61.610469 77.784659 
L 66.640469 75.60505 
L 71.670469 74.017982 
L 76.700469 73.065098 
L 81.730469 72.771401 
L 86.760469 73.144596 
L 91.790469 74.174892 
L 96.820469 75.835254 
L 101.850469 78.082117 
L 106.880469 80.856525 
L 111.910469 84.08568 
L 116.940469 87.684852 
L 121.970469 91.559604 
L 127.000469 95.608264 
L 132.030469 99.724602 
L 137.060469 103.800607 
L 142.090469 107.72933 
L 147.120469 111.407685 
L 152.150469 114.739156 
L 157.180469 117.636328 
L 162.210469 120.023182 
L 167.240469 121.83709 
L 172.270469 123.030457 
L 177.300469 123.57197 
L 182.330469 123.447419 
L 187.360469 122.660074 
L 192.390469 121.230593 
L 197.420469 119.196485 
L 202.450469 116.611122 
L 207.480469 113.542342 
L 212.510469 110.070666 
L 217.540469 106.287188 
L 222.570469 102.291182 
L 227.600469 98.1875 
L 232.630469 94.083818 
L 237.660469 90.087812 
L 242.690469 86.304334 
L 247.720469 82.832658 
L 252.750469 79.763878 
L 257.780469 77.178515 
L 262.810469 75.144407 
L 267.840469 73.714926 
L 272.870469 72.927581 
L 277.900469 72.80303 
L 282.930469 73.344543 
L 287.960469 74.53791 
L 292.990469 76.351818 
L 298.020469 78.738672 
L 303.050469 81.635844 
L 308.080469 84.967315 
L 313.110469 88.64567 
L 318.140469 92.574393 
L 323.170469 96.650398 
L 328.200469 100.766736 
L 333.230469 104.815396 
L 338.260469 108.690148 
L 343.290469 112.28932 
L 348.320469 115.518475 
L 353.350469 118.292883 
L 358.380469 120.539746 
L 363.410469 122.200108 
L 368.440469 123.230404 
L 373.470469 123.603599 
L 378.500469 123.309902 
L 383.530469 122.357018 
L 388.560469 120.76995 
L 393.590469 118.590341 
L 398.620469 115.875383 
L 403.650469 112.696312 
L 408.680469 109.136544 
L 413.710469 105.289485 
" clip-path="url(#p20bd45aea7)" style="fill: none; stroke-dasharray: 5.55,2.4; stroke-dashoffset: 0; stroke: #0000ff; stroke-width: 1.5"/>
   </g>
   <g id="line2d_16">
    <path d="M 41.490469 97.851803 
L 46.520469 97.663976 
L 51.550469 97.394871 
L 56.580469 97.022967 
L 61.610469 96.528125 
L 66.640469 95.895826 
L 71.670469 95.122689 
L 76.700469 94.222733 
L 81.730469 93.233404 
L 86.760469 92.219984 
L 91.790469 91.276828 
L 96.820469 90.52398 
L 101.850469 90.098331 
L 106.880469 90.139414 
L 111.910469 90.771169 
L 116.940469 92.082198 
L 121.970469 94.107878 
L 127.000469 96.817897 
L 132.030469 100.112163 
L 137.060469 103.82665 
L 142.090469 107.748876 
L 147.120469 111.640788 
L 152.150469 115.265285 
L 157.180469 118.411887 
L 162.210469 120.917288 
L 167.240469 122.677632 
L 172.270469 123.651085 
L 177.300469 123.85118 
L 182.330469 123.333105 
L 187.360469 122.176245 
L 192.390469 120.466767 
L 197.420469 118.283674 
L 202.450469 115.690846 
L 207.480469 112.736168 
L 212.510469 109.457222 
L 217.540469 105.891537 
L 222.570469 102.088287 
L 227.600469 98.117904 
L 232.630469 94.076564 
L 237.660469 90.083762 
L 242.690469 86.273082 
L 247.720469 82.778232 
L 252.750469 79.717949 
L 257.780469 77.183853 
L 262.810469 75.234612 
L 267.840469 73.897873 
L 272.870469 73.17894 
L 277.900469 73.072835 
L 282.930469 73.575093 
L 287.960469 74.68683 
L 292.990469 76.411419 
L 298.020469 78.742949 
L 303.050469 81.649667 
L 308.080469 85.05771 
L 313.110469 88.84098 
L 318.140469 92.821659 
L 323.170469 96.783056 
L 328.200469 100.493038 
L 333.230469 103.733379 
L 338.260469 106.328689 
L 343.290469 108.168758 
L 348.320469 109.219897 
L 353.350469 109.523608 
L 358.380469 109.183871 
L 363.410469 108.346584 
L 368.440469 107.175858 
L 373.470469 105.831758 
L 378.500469 104.452965 
L 383.530469 103.146185 
L 388.560469 101.982445 
L 393.590469 100.999152 
L 398.620469 100.205985 
L 403.650469 99.592624 
L 408.680469 99.136551 
L 413.710469 98.809755 
" clip-path="url(#p20bd45aea7)" style="fill: none; stroke: #ff0000; stroke-width: 2; stroke-linecap: round"/>
   </g>
   <g id="line2d_17">
    <defs>
     <path id="m7a655612d9" d="M 0 3 
C 0.795609 3 1.55874 2.683901 2.12132 2.12132 
C 2.683901 1.55874 3 0.795609 3 0 
C 3 -0.795609 2.683901 -1.55874 2.12132 -2.12132 
C 1.55874 -2.683901 0.795609 -3 0 -3 
C -0.795609 -3 -1.55874 -2.683901 -2.12132 -2.12132 
C -2.683901 -1.55874 -3 -0.795609 -3 0 
C -3 0.795609 -2.683901 1.55874 -2.12132 2.12132 
C -1.55874 2.683901 -0.795609 3 0 3 
z
" style="stroke: #000000"/>
    </defs>
    <g clip-path="url(#p20bd45aea7)">
     <use xlink:href="#m7a655612d9" x="138.087036" y="104.617813" style="stroke: #000000"/>
     <use xlink:href="#m7a655612d9" x="300.561839" y="80.143139" style="stroke: #000000"/>
     <use xlink:href="#m7a655612d9" x="257.396123" y="77.357388" style="stroke: #000000"/>
     <use xlink:href="#m7a655612d9" x="235.903727" y="91.464545" style="stroke: #000000"/>
     <use xlink:href="#m7a655612d9" x="325.3436" y="98.430181" style="stroke: #000000"/>
     <use xlink:href="#m7a655612d9" x="299.214905" y="79.383071" style="stroke: #000000"/>
     <use xlink:href="#m7a655612d9" x="141.164751" y="107.022108" style="stroke: #000000"/>
     <use xlink:href="#m7a655612d9" x="180.879927" y="123.551819" style="stroke: #000000"/>
    </g>
   </g>
   <g id="patch_3">
    <path d="M 41.490469 174.439375 
L 41.490469 21.935625 
" style="fill: none; stroke: #ffffff; stroke-width: 0.8; stroke-linejoin: miter; stroke-linecap: square"/>
   </g>
   <g id="patch_4">
    <path d="M 413.710469 174.439375 
L 413.710469 21.935625 
" style="fill: none; stroke: #ffffff; stroke-width: 0.8; stroke-linejoin: miter; stroke-linecap: square"/>
   </g>
   <g id="patch_5">
    <path d="M 41.490469 174.439375 
L 413.710469 174.439375 
" style="fill: none; stroke: #ffffff; stroke-width: 0.8; stroke-linejoin: miter; stroke-linecap: square"/>
   </g>
   <g id="patch_6">
    <path d="M 41.490469 21.935625 
L 413.710469 21.935625 
" style="fill: none; stroke: #ffffff; stroke-width: 0.8; stroke-linejoin: miter; stroke-linecap: square"/>
   </g>
   <g id="text_17">
    <!-- Distribution of posterior and prior data -->
    <g style="fill: #262626" transform="translate(127.222344 15.935625)scale(0.12 -0.12)">
     <defs>
      <path id="ArialMT-44" d="M 494 0 
L 494 4581 
L 2072 4581 
Q 2606 4581 2888 4516 
Q 3281 4425 3559 4188 
Q 3922 3881 4101 3404 
Q 4281 2928 4281 2316 
Q 4281 1794 4159 1391 
Q 4038 988 3847 723 
Q 3656 459 3429 307 
Q 3203 156 2883 78 
Q 2563 0 2147 0 
L 494 0 
z
M 1100 541 
L 2078 541 
Q 2531 541 2789 625 
Q 3047 709 3200 863 
Q 3416 1078 3536 1442 
Q 3656 1806 3656 2325 
Q 3656 3044 3420 3430 
Q 3184 3816 2847 3947 
Q 2603 4041 2063 4041 
L 1100 4041 
L 1100 541 
z
" transform="scale(0.015625)"/>
      <path id="ArialMT-69" d="M 425 3934 
L 425 4581 
L 988 4581 
L 988 3934 
L 425 3934 
z
M 425 0 
L 425 3319 
L 988 3319 
L 988 0 
L 425 0 
z
" transform="scale(0.015625)"/>
      <path id="ArialMT-73" d="M 197 991 
L 753 1078 
Q 800 744 1014 566 
Q 1228 388 1613 388 
Q 2000 388 2187 545 
Q 2375 703 2375 916 
Q 2375 1106 2209 1216 
Q 2094 1291 1634 1406 
Q 1016 1563 777 1677 
Q 538 1791 414 1992 
Q 291 2194 291 2438 
Q 291 2659 392 2848 
Q 494 3038 669 3163 
Q 800 3259 1026 3326 
Q 1253 3394 1513 3394 
Q 1903 3394 2198 3281 
Q 2494 3169 2634 2976 
Q 2775 2784 2828 2463 
L 2278 2388 
Q 2241 2644 2061 2787 
Q 1881 2931 1553 2931 
Q 1166 2931 1000 2803 
Q 834 2675 834 2503 
Q 834 2394 903 2306 
Q 972 2216 1119 2156 
Q 1203 2125 1616 2013 
Q 2213 1853 2448 1751 
Q 2684 1650 2818 1456 
Q 2953 1263 2953 975 
Q 2953 694 2789 445 
Q 2625 197 2315 61 
Q 2006 -75 1616 -75 
Q 969 -75 630 194 
Q 291 463 197 991 
z
" transform="scale(0.015625)"/>
      <path id="ArialMT-74" d="M 1650 503 
L 1731 6 
Q 1494 -44 1306 -44 
Q 1000 -44 831 53 
Q 663 150 594 308 
Q 525 466 525 972 
L 525 2881 
L 113 2881 
L 113 3319 
L 525 3319 
L 525 4141 
L 1084 4478 
L 1084 3319 
L 1650 3319 
L 1650 2881 
L 1084 2881 
L 1084 941 
Q 1084 700 1114 631 
Q 1144 563 1211 522 
Q 1278 481 1403 481 
Q 1497 481 1650 503 
z
" transform="scale(0.015625)"/>
      <path id="ArialMT-72" d="M 416 0 
L 416 3319 
L 922 3319 
L 922 2816 
Q 1116 3169 1280 3281 
Q 1444 3394 1641 3394 
Q 1925 3394 2219 3213 
L 2025 2691 
Q 1819 2813 1613 2813 
Q 1428 2813 1281 2702 
Q 1134 2591 1072 2394 
Q 978 2094 978 1738 
L 978 0 
L 416 0 
z
" transform="scale(0.015625)"/>
      <path id="ArialMT-62" d="M 941 0 
L 419 0 
L 419 4581 
L 981 4581 
L 981 2947 
Q 1338 3394 1891 3394 
Q 2197 3394 2470 3270 
Q 2744 3147 2920 2923 
Q 3097 2700 3197 2384 
Q 3297 2069 3297 1709 
Q 3297 856 2875 390 
Q 2453 -75 1863 -75 
Q 1275 -75 941 416 
L 941 0 
z
M 934 1684 
Q 934 1088 1097 822 
Q 1363 388 1816 388 
Q 2184 388 2453 708 
Q 2722 1028 2722 1663 
Q 2722 2313 2464 2622 
Q 2206 2931 1841 2931 
Q 1472 2931 1203 2611 
Q 934 2291 934 1684 
z
" transform="scale(0.015625)"/>
      <path id="ArialMT-75" d="M 2597 0 
L 2597 488 
Q 2209 -75 1544 -75 
Q 1250 -75 995 37 
Q 741 150 617 320 
Q 494 491 444 738 
Q 409 903 409 1263 
L 409 3319 
L 972 3319 
L 972 1478 
Q 972 1038 1006 884 
Q 1059 663 1231 536 
Q 1403 409 1656 409 
Q 1909 409 2131 539 
Q 2353 669 2445 892 
Q 2538 1116 2538 1541 
L 2538 3319 
L 3100 3319 
L 3100 0 
L 2597 0 
z
" transform="scale(0.015625)"/>
      <path id="ArialMT-6f" d="M 213 1659 
Q 213 2581 725 3025 
Q 1153 3394 1769 3394 
Q 2453 3394 2887 2945 
Q 3322 2497 3322 1706 
Q 3322 1066 3130 698 
Q 2938 331 2570 128 
Q 2203 -75 1769 -75 
Q 1072 -75 642 372 
Q 213 819 213 1659 
z
M 791 1659 
Q 791 1022 1069 705 
Q 1347 388 1769 388 
Q 2188 388 2466 706 
Q 2744 1025 2744 1678 
Q 2744 2294 2464 2611 
Q 2184 2928 1769 2928 
Q 1347 2928 1069 2612 
Q 791 2297 791 1659 
z
" transform="scale(0.015625)"/>
      <path id="ArialMT-6e" d="M 422 0 
L 422 3319 
L 928 3319 
L 928 2847 
Q 1294 3394 1984 3394 
Q 2284 3394 2536 3286 
Q 2788 3178 2913 3003 
Q 3038 2828 3088 2588 
Q 3119 2431 3119 2041 
L 3119 0 
L 2556 0 
L 2556 2019 
Q 2556 2363 2490 2533 
Q 2425 2703 2258 2804 
Q 2091 2906 1866 2906 
Q 1506 2906 1245 2678 
Q 984 2450 984 1813 
L 984 0 
L 422 0 
z
" transform="scale(0.015625)"/>
      <path id="ArialMT-20" transform="scale(0.015625)"/>
      <path id="ArialMT-66" d="M 556 0 
L 556 2881 
L 59 2881 
L 59 3319 
L 556 3319 
L 556 3672 
Q 556 4006 616 4169 
Q 697 4388 901 4523 
Q 1106 4659 1475 4659 
Q 1713 4659 2000 4603 
L 1916 4113 
Q 1741 4144 1584 4144 
Q 1328 4144 1222 4034 
Q 1116 3925 1116 3625 
L 1116 3319 
L 1763 3319 
L 1763 2881 
L 1116 2881 
L 1116 0 
L 556 0 
z
" transform="scale(0.015625)"/>
      <path id="ArialMT-70" d="M 422 -1272 
L 422 3319 
L 934 3319 
L 934 2888 
Q 1116 3141 1344 3267 
Q 1572 3394 1897 3394 
Q 2322 3394 2647 3175 
Q 2972 2956 3137 2557 
Q 3303 2159 3303 1684 
Q 3303 1175 3120 767 
Q 2938 359 2589 142 
Q 2241 -75 1856 -75 
Q 1575 -75 1351 44 
Q 1128 163 984 344 
L 984 -1272 
L 422 -1272 
z
M 931 1641 
Q 931 1000 1190 694 
Q 1450 388 1819 388 
Q 2194 388 2461 705 
Q 2728 1022 2728 1688 
Q 2728 2322 2467 2637 
Q 2206 2953 1844 2953 
Q 1484 2953 1207 2617 
Q 931 2281 931 1641 
z
" transform="scale(0.015625)"/>
      <path id="ArialMT-65" d="M 2694 1069 
L 3275 997 
Q 3138 488 2766 206 
Q 2394 -75 1816 -75 
Q 1088 -75 661 373 
Q 234 822 234 1631 
Q 234 2469 665 2931 
Q 1097 3394 1784 3394 
Q 2450 3394 2872 2941 
Q 3294 2488 3294 1666 
Q 3294 1616 3291 1516 
L 816 1516 
Q 847 969 1125 678 
Q 1403 388 1819 388 
Q 2128 388 2347 550 
Q 2566 713 2694 1069 
z
M 847 1978 
L 2700 1978 
Q 2663 2397 2488 2606 
Q 2219 2931 1791 2931 
Q 1403 2931 1139 2672 
Q 875 2413 847 1978 
z
" transform="scale(0.015625)"/>
      <path id="ArialMT-61" d="M 2588 409 
Q 2275 144 1986 34 
Q 1697 -75 1366 -75 
Q 819 -75 525 192 
Q 231 459 231 875 
Q 231 1119 342 1320 
Q 453 1522 633 1644 
Q 813 1766 1038 1828 
Q 1203 1872 1538 1913 
Q 2219 1994 2541 2106 
Q 2544 2222 2544 2253 
Q 2544 2597 2384 2738 
Q 2169 2928 1744 2928 
Q 1347 2928 1158 2789 
Q 969 2650 878 2297 
L 328 2372 
Q 403 2725 575 2942 
Q 747 3159 1072 3276 
Q 1397 3394 1825 3394 
Q 2250 3394 2515 3294 
Q 2781 3194 2906 3042 
Q 3031 2891 3081 2659 
Q 3109 2516 3109 2141 
L 3109 1391 
Q 3109 606 3145 398 
Q 3181 191 3288 0 
L 2700 0 
Q 2613 175 2588 409 
z
M 2541 1666 
Q 2234 1541 1622 1453 
Q 1275 1403 1131 1340 
Q 988 1278 909 1158 
Q 831 1038 831 891 
Q 831 666 1001 516 
Q 1172 366 1500 366 
Q 1825 366 2078 508 
Q 2331 650 2450 897 
Q 2541 1088 2541 1459 
L 2541 1666 
z
" transform="scale(0.015625)"/>
      <path id="ArialMT-64" d="M 2575 0 
L 2575 419 
Q 2259 -75 1647 -75 
Q 1250 -75 917 144 
Q 584 363 401 755 
Q 219 1147 219 1656 
Q 219 2153 384 2558 
Q 550 2963 881 3178 
Q 1213 3394 1622 3394 
Q 1922 3394 2156 3267 
Q 2391 3141 2538 2938 
L 2538 4581 
L 3097 4581 
L 3097 0 
L 2575 0 
z
M 797 1656 
Q 797 1019 1065 703 
Q 1334 388 1700 388 
Q 2069 388 2326 689 
Q 2584 991 2584 1609 
Q 2584 2291 2321 2609 
Q 2059 2928 1675 2928 
Q 1300 2928 1048 2622 
Q 797 2316 797 1656 
z
" transform="scale(0.015625)"/>
     </defs>
     <use xlink:href="#ArialMT-44"/>
     <use xlink:href="#ArialMT-69" x="72.216797"/>
     <use xlink:href="#ArialMT-73" x="94.433594"/>
     <use xlink:href="#ArialMT-74" x="144.433594"/>
     <use xlink:href="#ArialMT-72" x="172.216797"/>
     <use xlink:href="#ArialMT-69" x="205.517578"/>
     <use xlink:href="#ArialMT-62" x="227.734375"/>
     <use xlink:href="#ArialMT-75" x="283.349609"/>
     <use xlink:href="#ArialMT-74" x="338.964844"/>
     <use xlink:href="#ArialMT-69" x="366.748047"/>
     <use xlink:href="#ArialMT-6f" x="388.964844"/>
     <use xlink:href="#ArialMT-6e" x="444.580078"/>
     <use xlink:href="#ArialMT-20" x="500.195312"/>
     <use xlink:href="#ArialMT-6f" x="527.978516"/>
     <use xlink:href="#ArialMT-66" x="583.59375"/>
     <use xlink:href="#ArialMT-20" x="611.376953"/>
     <use xlink:href="#ArialMT-70" x="639.160156"/>
     <use xlink:href="#ArialMT-6f" x="694.775391"/>
     <use xlink:href="#ArialMT-73" x="750.390625"/>
     <use xlink:href="#ArialMT-74" x="800.390625"/>
     <use xlink:href="#ArialMT-65" x="828.173828"/>
     <use xlink:href="#ArialMT-72" x="883.789062"/>
     <use xlink:href="#ArialMT-69" x="917.089844"/>
     <use xlink:href="#ArialMT-6f" x="939.306641"/>
     <use xlink:href="#ArialMT-72" x="994.921875"/>
     <use xlink:href="#ArialMT-20" x="1028.222656"/>
     <use xlink:href="#ArialMT-61" x="1056.005859"/>
     <use xlink:href="#ArialMT-6e" x="1111.621094"/>
     <use xlink:href="#ArialMT-64" x="1167.236328"/>
     <use xlink:href="#ArialMT-20" x="1222.851562"/>
     <use xlink:href="#ArialMT-70" x="1250.634766"/>
     <use xlink:href="#ArialMT-72" x="1306.25"/>
     <use xlink:href="#ArialMT-69" x="1339.550781"/>
     <use xlink:href="#ArialMT-6f" x="1361.767578"/>
     <use xlink:href="#ArialMT-72" x="1417.382812"/>
     <use xlink:href="#ArialMT-20" x="1450.683594"/>
     <use xlink:href="#ArialMT-64" x="1478.466797"/>
     <use xlink:href="#ArialMT-61" x="1534.082031"/>
     <use xlink:href="#ArialMT-74" x="1589.697266"/>
     <use xlink:href="#ArialMT-61" x="1617.480469"/>
    </g>
   </g>
   <g id="legend_1">
    <g id="patch_7">
     <path d="M 340.410469 90.03875 
L 406.710469 90.03875 
Q 408.710469 90.03875 408.710469 88.03875 
L 408.710469 28.935625 
Q 408.710469 26.935625 406.710469 26.935625 
L 340.410469 26.935625 
Q 338.410469 26.935625 338.410469 28.935625 
L 338.410469 88.03875 
Q 338.410469 90.03875 340.410469 90.03875 
z
" style="fill: #eaeaf2; opacity: 0.8; stroke: #cccccc; stroke-linejoin: miter"/>
    </g>
    <g id="line2d_18">
     <path d="M 342.410469 34.593437 
L 352.410469 34.593437 
L 362.410469 34.593437 
" style="fill: none; stroke-dasharray: 5.55,2.4; stroke-dashoffset: 0; stroke: #0000ff; stroke-width: 1.5"/>
    </g>
    <g id="text_18">
     <!-- $sin(x)$ -->
     <g style="fill: #262626" transform="translate(370.410469 38.093437)scale(0.1 -0.1)">
      <defs>
       <path id="DejaVuSans-Oblique-73" d="M 3200 3397 
L 3091 2853 
Q 2863 2978 2609 3040 
Q 2356 3103 2088 3103 
Q 1634 3103 1373 2948 
Q 1113 2794 1113 2528 
Q 1113 2219 1719 2053 
Q 1766 2041 1788 2034 
L 1972 1978 
Q 2547 1819 2739 1644 
Q 2931 1469 2931 1166 
Q 2931 609 2489 259 
Q 2047 -91 1331 -91 
Q 1053 -91 747 -37 
Q 441 16 72 128 
L 184 722 
Q 500 559 806 475 
Q 1113 391 1394 391 
Q 1816 391 2080 572 
Q 2344 753 2344 1031 
Q 2344 1331 1650 1516 
L 1591 1531 
L 1394 1581 
Q 956 1697 753 1886 
Q 550 2075 550 2369 
Q 550 2928 970 3256 
Q 1391 3584 2113 3584 
Q 2397 3584 2667 3537 
Q 2938 3491 3200 3397 
z
" transform="scale(0.015625)"/>
       <path id="DejaVuSans-Oblique-69" d="M 1172 4863 
L 1747 4863 
L 1606 4134 
L 1031 4134 
L 1172 4863 
z
M 909 3500 
L 1484 3500 
L 800 0 
L 225 0 
L 909 3500 
z
" transform="scale(0.015625)"/>
       <path id="DejaVuSans-Oblique-6e" d="M 3566 2113 
L 3156 0 
L 2578 0 
L 2988 2091 
Q 3016 2238 3031 2350 
Q 3047 2463 3047 2528 
Q 3047 2791 2881 2937 
Q 2716 3084 2419 3084 
Q 1956 3084 1622 2776 
Q 1288 2469 1184 1941 
L 800 0 
L 225 0 
L 903 3500 
L 1478 3500 
L 1363 2950 
Q 1603 3253 1940 3418 
Q 2278 3584 2650 3584 
Q 3113 3584 3367 3334 
Q 3622 3084 3622 2631 
Q 3622 2519 3608 2391 
Q 3594 2263 3566 2113 
z
" transform="scale(0.015625)"/>
       <path id="DejaVuSans-28" d="M 1984 4856 
Q 1566 4138 1362 3434 
Q 1159 2731 1159 2009 
Q 1159 1288 1364 580 
Q 1569 -128 1984 -844 
L 1484 -844 
Q 1016 -109 783 600 
Q 550 1309 550 2009 
Q 550 2706 781 3412 
Q 1013 4119 1484 4856 
L 1984 4856 
z
" transform="scale(0.015625)"/>
       <path id="DejaVuSans-29" d="M 513 4856 
L 1013 4856 
Q 1481 4119 1714 3412 
Q 1947 2706 1947 2009 
Q 1947 1309 1714 600 
Q 1481 -109 1013 -844 
L 513 -844 
Q 928 -128 1133 580 
Q 1338 1288 1338 2009 
Q 1338 2731 1133 3434 
Q 928 4138 513 4856 
z
" transform="scale(0.015625)"/>
      </defs>
      <use xlink:href="#DejaVuSans-Oblique-73" transform="translate(0 0.015625)"/>
      <use xlink:href="#DejaVuSans-Oblique-69" transform="translate(52.099609 0.015625)"/>
      <use xlink:href="#DejaVuSans-Oblique-6e" transform="translate(79.882812 0.015625)"/>
      <use xlink:href="#DejaVuSans-28" transform="translate(143.261719 0.015625)"/>
      <use xlink:href="#DejaVuSans-Oblique-78" transform="translate(182.275391 0.015625)"/>
      <use xlink:href="#DejaVuSans-29" transform="translate(241.455078 0.015625)"/>
     </g>
    </g>
    <g id="patch_8">
     <path d="M 342.410469 52.580938 
L 362.410469 52.580938 
L 362.410469 45.580938 
L 342.410469 45.580938 
z
" style="fill: #ff0000; fill-opacity: 0.15; stroke: #ff0000; stroke-opacity: 0.15; stroke-linejoin: miter"/>
    </g>
    <g id="text_19">
     <!-- $2\sigma_{2|1}$ -->
     <g style="fill: #262626" transform="translate(370.410469 52.580938)scale(0.1 -0.1)">
      <defs>
       <path id="DejaVuSans-32" d="M 1228 531 
L 3431 531 
L 3431 0 
L 469 0 
L 469 531 
Q 828 903 1448 1529 
Q 2069 2156 2228 2338 
Q 2531 2678 2651 2914 
Q 2772 3150 2772 3378 
Q 2772 3750 2511 3984 
Q 2250 4219 1831 4219 
Q 1534 4219 1204 4116 
Q 875 4013 500 3803 
L 500 4441 
Q 881 4594 1212 4672 
Q 1544 4750 1819 4750 
Q 2544 4750 2975 4387 
Q 3406 4025 3406 3419 
Q 3406 3131 3298 2873 
Q 3191 2616 2906 2266 
Q 2828 2175 2409 1742 
Q 1991 1309 1228 531 
z
" transform="scale(0.015625)"/>
       <path id="DejaVuSans-Oblique-3c3" d="M 2219 3044 
Q 1744 3044 1422 2700 
Q 1081 2341 969 1747 
Q 844 1119 1044 756 
Q 1241 397 1706 397 
Q 2166 397 2503 759 
Q 2844 1122 2966 1747 
Q 3075 2319 2881 2700 
Q 2700 3044 2219 3044 
z
M 2309 3503 
L 4219 3500 
L 4106 2925 
L 3463 2925 
Q 3706 2438 3575 1747 
Q 3406 888 2884 400 
Q 2359 -91 1609 -91 
Q 856 -91 525 400 
Q 194 888 363 1747 
Q 528 2609 1050 3097 
Q 1484 3503 2309 3503 
z
" transform="scale(0.015625)"/>
       <path id="DejaVuSans-7c" d="M 1344 4891 
L 1344 -1509 
L 813 -1509 
L 813 4891 
L 1344 4891 
z
" transform="scale(0.015625)"/>
       <path id="DejaVuSans-31" d="M 794 531 
L 1825 531 
L 1825 4091 
L 703 3866 
L 703 4441 
L 1819 4666 
L 2450 4666 
L 2450 531 
L 3481 531 
L 3481 0 
L 794 0 
L 794 531 
z
" transform="scale(0.015625)"/>
      </defs>
      <use xlink:href="#DejaVuSans-32" transform="translate(0 0.78125)"/>
      <use xlink:href="#DejaVuSans-Oblique-3c3" transform="translate(63.623047 0.78125)"/>
      <use xlink:href="#DejaVuSans-32" transform="translate(127.001953 -15.625)scale(0.7)"/>
      <use xlink:href="#DejaVuSans-7c" transform="translate(171.538086 -15.625)scale(0.7)"/>
      <use xlink:href="#DejaVuSans-31" transform="translate(195.12207 -15.625)scale(0.7)"/>
     </g>
    </g>
    <g id="line2d_19">
     <path d="M 342.410469 64.53875 
L 352.410469 64.53875 
L 362.410469 64.53875 
" style="fill: none; stroke: #ff0000; stroke-width: 2; stroke-linecap: round"/>
    </g>
    <g id="text_20">
     <!-- $\mu_{2|1}$ -->
     <g style="fill: #262626" transform="translate(370.410469 68.03875)scale(0.1 -0.1)">
      <defs>
       <path id="DejaVuSans-Oblique-3bc" d="M -84 -1331 
L 856 3500 
L 1434 3500 
L 1009 1322 
Q 997 1256 987 1175 
Q 978 1094 978 1013 
Q 978 722 1161 565 
Q 1344 409 1684 409 
Q 2147 409 2431 671 
Q 2716 934 2816 1459 
L 3213 3500 
L 3788 3500 
L 3266 809 
Q 3253 750 3248 706 
Q 3244 663 3244 628 
Q 3244 531 3283 486 
Q 3322 441 3406 441 
Q 3438 441 3492 456 
Q 3547 472 3647 513 
L 3559 50 
Q 3422 -19 3297 -55 
Q 3172 -91 3053 -91 
Q 2847 -91 2730 40 
Q 2613 172 2613 403 
Q 2438 153 2195 31 
Q 1953 -91 1625 -91 
Q 1334 -91 1117 43 
Q 900 178 831 397 
L 494 -1331 
L -84 -1331 
z
" transform="scale(0.015625)"/>
      </defs>
      <use xlink:href="#DejaVuSans-Oblique-3bc" transform="translate(0 0.3125)"/>
      <use xlink:href="#DejaVuSans-32" transform="translate(63.623047 -16.09375)scale(0.7)"/>
      <use xlink:href="#DejaVuSans-7c" transform="translate(108.15918 -16.09375)scale(0.7)"/>
      <use xlink:href="#DejaVuSans-31" transform="translate(131.743164 -16.09375)scale(0.7)"/>
     </g>
    </g>
    <g id="line2d_20">
     <g>
      <use xlink:href="#m7a655612d9" x="352.410469" y="80.43875" style="stroke: #000000"/>
     </g>
    </g>
    <g id="text_21">
     <!-- $(x_1, y_1)$ -->
     <g style="fill: #262626" transform="translate(370.410469 83.93875)scale(0.1 -0.1)">
      <defs>
       <path id="DejaVuSans-2c" d="M 750 794 
L 1409 794 
L 1409 256 
L 897 -744 
L 494 -744 
L 750 256 
L 750 794 
z
" transform="scale(0.015625)"/>
      </defs>
      <use xlink:href="#DejaVuSans-28" transform="translate(0 0.125)"/>
      <use xlink:href="#DejaVuSans-Oblique-78" transform="translate(39.013672 0.125)"/>
      <use xlink:href="#DejaVuSans-31" transform="translate(98.193359 -16.28125)scale(0.7)"/>
      <use xlink:href="#DejaVuSans-2c" transform="translate(145.463867 0.125)"/>
      <use xlink:href="#DejaVuSans-Oblique-79" transform="translate(196.733398 0.125)"/>
      <use xlink:href="#DejaVuSans-31" transform="translate(255.913086 -16.28125)scale(0.7)"/>
      <use xlink:href="#DejaVuSans-29" transform="translate(303.183594 0.125)"/>
     </g>
    </g>
   </g>
  </g>
  <g id="axes_2">
   <g id="patch_9">
    <path d="M 41.490469 385.039375 
L 413.710469 385.039375 
L 413.710469 232.535625 
L 41.490469 232.535625 
z
" style="fill: #eaeaf2"/>
   </g>
   <g id="matplotlib.axis_3">
    <g id="xtick_8">
     <g id="line2d_21">
      <path d="M 41.490469 385.039375 
L 41.490469 232.535625 
" clip-path="url(#p8c8b9e473a)" style="fill: none; stroke: #ffffff; stroke-width: 0.8; stroke-linecap: round"/>
     </g>
     <g id="text_22">
      <!-- −6 -->
      <g style="fill: #262626" transform="translate(35.789688 399.197187)scale(0.1 -0.1)">
       <use xlink:href="#ArialMT-2212"/>
       <use xlink:href="#ArialMT-36" x="58.398438"/>
      </g>
     </g>
    </g>
    <g id="xtick_9">
     <g id="line2d_22">
      <path d="M 103.527135 385.039375 
L 103.527135 232.535625 
" clip-path="url(#p8c8b9e473a)" style="fill: none; stroke: #ffffff; stroke-width: 0.8; stroke-linecap: round"/>
     </g>
     <g id="text_23">
      <!-- −4 -->
      <g style="fill: #262626" transform="translate(97.826354 399.197187)scale(0.1 -0.1)">
       <use xlink:href="#ArialMT-2212"/>
       <use xlink:href="#ArialMT-34" x="58.398438"/>
      </g>
     </g>
    </g>
    <g id="xtick_10">
     <g id="line2d_23">
      <path d="M 165.563802 385.039375 
L 165.563802 232.535625 
" clip-path="url(#p8c8b9e473a)" style="fill: none; stroke: #ffffff; stroke-width: 0.8; stroke-linecap: round"/>
     </g>
     <g id="text_24">
      <!-- −2 -->
      <g style="fill: #262626" transform="translate(159.863021 399.197187)scale(0.1 -0.1)">
       <use xlink:href="#ArialMT-2212"/>
       <use xlink:href="#ArialMT-32" x="58.398438"/>
      </g>
     </g>
    </g>
    <g id="xtick_11">
     <g id="line2d_24">
      <path d="M 227.600469 385.039375 
L 227.600469 232.535625 
" clip-path="url(#p8c8b9e473a)" style="fill: none; stroke: #ffffff; stroke-width: 0.8; stroke-linecap: round"/>
     </g>
     <g id="text_25">
      <!-- 0 -->
      <g style="fill: #262626" transform="translate(224.82 399.197187)scale(0.1 -0.1)">
       <use xlink:href="#ArialMT-30"/>
      </g>
     </g>
    </g>
    <g id="xtick_12">
     <g id="line2d_25">
      <path d="M 289.637135 385.039375 
L 289.637135 232.535625 
" clip-path="url(#p8c8b9e473a)" style="fill: none; stroke: #ffffff; stroke-width: 0.8; stroke-linecap: round"/>
     </g>
     <g id="text_26">
      <!-- 2 -->
      <g style="fill: #262626" transform="translate(286.856667 399.197187)scale(0.1 -0.1)">
       <use xlink:href="#ArialMT-32"/>
      </g>
     </g>
    </g>
    <g id="xtick_13">
     <g id="line2d_26">
      <path d="M 351.673802 385.039375 
L 351.673802 232.535625 
" clip-path="url(#p8c8b9e473a)" style="fill: none; stroke: #ffffff; stroke-width: 0.8; stroke-linecap: round"/>
     </g>
     <g id="text_27">
      <!-- 4 -->
      <g style="fill: #262626" transform="translate(348.893333 399.197187)scale(0.1 -0.1)">
       <use xlink:href="#ArialMT-34"/>
      </g>
     </g>
    </g>
    <g id="xtick_14">
     <g id="line2d_27">
      <path d="M 413.710469 385.039375 
L 413.710469 232.535625 
" clip-path="url(#p8c8b9e473a)" style="fill: none; stroke: #ffffff; stroke-width: 0.8; stroke-linecap: round"/>
     </g>
     <g id="text_28">
      <!-- 6 -->
      <g style="fill: #262626" transform="translate(410.93 399.197187)scale(0.1 -0.1)">
       <use xlink:href="#ArialMT-36"/>
      </g>
     </g>
    </g>
    <g id="text_29">
     <!-- $x$ -->
     <g style="fill: #262626" transform="translate(223.700469 414.489844)scale(0.13 -0.13)">
      <use xlink:href="#DejaVuSans-Oblique-78" transform="translate(0 0.3125)"/>
     </g>
    </g>
   </g>
   <g id="matplotlib.axis_4">
    <g id="ytick_8">
     <g id="line2d_28">
      <path d="M 41.490469 357.259165 
L 413.710469 357.259165 
" clip-path="url(#p8c8b9e473a)" style="fill: none; stroke: #ffffff; stroke-width: 0.8; stroke-linecap: round"/>
     </g>
     <g id="text_30">
      <!-- −2 -->
      <g style="fill: #262626" transform="translate(23.088906 360.838071)scale(0.1 -0.1)">
       <use xlink:href="#ArialMT-2212"/>
       <use xlink:href="#ArialMT-32" x="58.398438"/>
      </g>
     </g>
    </g>
    <g id="ytick_9">
     <g id="line2d_29">
      <path d="M 41.490469 320.785824 
L 413.710469 320.785824 
" clip-path="url(#p8c8b9e473a)" style="fill: none; stroke: #ffffff; stroke-width: 0.8; stroke-linecap: round"/>
     </g>
     <g id="text_31">
      <!-- −1 -->
      <g style="fill: #262626" transform="translate(23.088906 324.364731)scale(0.1 -0.1)">
       <use xlink:href="#ArialMT-2212"/>
       <use xlink:href="#ArialMT-31" x="58.398438"/>
      </g>
     </g>
    </g>
    <g id="ytick_10">
     <g id="line2d_30">
      <path d="M 41.490469 284.312484 
L 413.710469 284.312484 
" clip-path="url(#p8c8b9e473a)" style="fill: none; stroke: #ffffff; stroke-width: 0.8; stroke-linecap: round"/>
     </g>
     <g id="text_32">
      <!-- 0 -->
      <g style="fill: #262626" transform="translate(28.929531 287.89139)scale(0.1 -0.1)">
       <use xlink:href="#ArialMT-30"/>
      </g>
     </g>
    </g>
    <g id="ytick_11">
     <g id="line2d_31">
      <path d="M 41.490469 247.839143 
L 413.710469 247.839143 
" clip-path="url(#p8c8b9e473a)" style="fill: none; stroke: #ffffff; stroke-width: 0.8; stroke-linecap: round"/>
     </g>
     <g id="text_33">
      <!-- 1 -->
      <g style="fill: #262626" transform="translate(28.929531 251.418049)scale(0.1 -0.1)">
       <use xlink:href="#ArialMT-31"/>
      </g>
     </g>
    </g>
    <g id="text_34">
     <!-- $y$ -->
     <g style="fill: #262626" transform="translate(16.358906 312.6875)rotate(-90)scale(0.13 -0.13)">
      <use xlink:href="#DejaVuSans-Oblique-79" transform="translate(0 0.3125)"/>
     </g>
    </g>
   </g>
   <g id="line2d_32">
    <path d="M 41.490469 301.34157 
L 46.520469 304.127092 
L 51.550469 306.908611 
L 56.580469 309.197444 
L 61.610469 310.581697 
L 66.640469 310.746817 
L 71.670469 309.515698 
L 76.700469 306.893119 
L 81.730469 303.085898 
L 86.760469 298.477568 
L 91.790469 293.559431 
L 96.820469 288.842248 
L 101.850469 284.780999 
L 106.880469 281.734372 
L 111.910469 279.958723 
L 116.940469 279.618013 
L 121.970469 280.787252 
L 127.000469 283.438464 
L 132.030469 287.416768 
L 137.060469 292.426762 
L 142.090469 298.048614 
L 147.120469 303.789696 
L 152.150469 309.160227 
L 157.180469 313.750156 
L 162.210469 317.28491 
L 167.240469 319.647311 
L 172.270469 320.865348 
L 177.300469 321.073725 
L 182.330469 320.459557 
L 187.360469 319.202301 
L 192.390469 317.418541 
L 197.420469 315.125242 
L 202.450469 312.236308 
L 207.480469 308.601679 
L 212.510469 304.083582 
L 217.540469 298.645549 
L 222.570469 292.417273 
L 227.600469 285.702073 
L 232.630469 278.916078 
L 237.660469 272.480159 
L 242.690469 266.710362 
L 247.720469 261.755596 
L 252.750469 257.609026 
L 257.780469 254.183338 
L 262.810469 251.408717 
L 267.840469 249.303321 
L 272.870469 247.982633 
L 277.900469 247.607536 
L 282.930469 248.301748 
L 287.960469 250.083284 
L 292.990469 252.844992 
L 298.020469 256.393406 
L 303.050469 260.526311 
L 308.080469 265.111383 
L 313.110469 270.128672 
L 318.140469 275.65583 
L 323.170469 281.800156 
L 328.200469 288.603378 
L 333.230469 295.956552 
L 338.260469 303.559131 
L 343.290469 310.940558 
L 348.320469 317.541033 
L 353.350469 322.827488 
L 358.380469 326.409156 
L 363.410469 328.118384 
L 368.440469 328.035534 
L 373.470469 326.456445 
L 378.500469 323.818535 
L 383.530469 320.610932 
L 388.560469 317.292453 
L 393.590469 314.232268 
L 398.620469 311.677281 
L 403.650469 309.74239 
L 408.680469 308.416434 
L 413.710469 307.577032 
" clip-path="url(#p8c8b9e473a)" style="fill: none; stroke: #1f77b4; stroke-width: 1.5; stroke-linecap: round"/>
   </g>
   <g id="line2d_33">
    <path d="M 41.490469 278.571123 
L 46.520469 268.856842 
L 51.550469 260.911329 
L 56.580469 255.400011 
L 61.610469 252.64089 
L 66.640469 252.54396 
L 71.670469 254.635254 
L 76.700469 258.164192 
L 81.730469 262.268166 
L 86.760469 266.153196 
L 91.790469 269.248888 
L 96.820469 271.307196 
L 101.850469 272.429858 
L 106.880469 273.022744 
L 111.910469 273.684756 
L 116.940469 275.048133 
L 121.970469 277.599337 
L 127.000469 281.52386 
L 132.030469 286.625227 
L 137.060469 292.358119 
L 142.090469 297.982804 
L 147.120469 302.801962 
L 152.150469 306.400684 
L 157.180469 308.797934 
L 162.210469 310.443797 
L 167.240469 312.053387 
L 172.270469 314.331936 
L 177.300469 317.688508 
L 182.330469 322.040307 
L 187.360469 326.775699 
L 192.390469 330.888055 
L 197.420469 333.236775 
L 202.450469 332.854929 
L 207.480469 329.213536 
L 212.510469 322.369496 
L 217.540469 312.959641 
L 222.570469 302.046968 
L 227.600469 290.865578 
L 232.630469 280.538058 
L 237.660469 271.845006 
L 242.690469 265.10883 
L 247.720469 260.216773 
L 252.750469 256.763176 
L 257.780469 254.253104 
L 262.810469 252.293202 
L 267.840469 250.706874 
L 272.870469 249.545544 
L 277.900469 249.010645 
L 282.930469 249.333928 
L 287.960469 250.672606 
L 292.990469 253.058389 
L 298.020469 256.407539 
L 303.050469 260.569073 
L 308.080469 265.375969 
L 313.110469 270.672341 
L 318.140469 276.31075 
L 323.170469 282.133221 
L 328.200469 287.956904 
L 333.230469 293.578645 
L 338.260469 298.798766 
L 343.290469 303.452965 
L 348.320469 307.438422 
L 353.350469 310.725023 
L 358.380469 313.349965 
L 363.410469 315.397985 
L 368.440469 316.969391 
L 373.470469 318.136819 
L 378.500469 318.893619 
L 383.530469 319.103631 
L 388.560469 318.470673 
L 393.590469 316.550068 
L 398.620469 312.818827 
L 403.650469 306.803948 
L 408.680469 298.244625 
L 413.710469 287.243084 
" clip-path="url(#p8c8b9e473a)" style="fill: none; stroke: #ff7f0e; stroke-width: 1.5; stroke-linecap: round"/>
   </g>
   <g id="line2d_34">
    <path d="M 41.490469 378.107386 
L 46.520469 375.851164 
L 51.550469 371.281216 
L 56.580469 364.152518 
L 61.610469 354.533193 
L 66.640469 342.847852 
L 71.670469 329.850232 
L 76.700469 316.520515 
L 81.730469 303.904648 
L 86.760469 292.933007 
L 91.790469 284.265807 
L 96.820469 278.207211 
L 101.850469 274.709529 
L 106.880469 273.460159 
L 111.910469 274.017388 
L 116.940469 275.947353 
L 121.970469 278.918125 
L 127.000469 282.726529 
L 132.030469 287.260373 
L 137.060469 292.422015 
L 142.090469 298.050004 
L 147.120469 303.871683 
L 152.150469 309.504619 
L 157.180469 314.506142 
L 162.210469 318.45452 
L 167.240469 321.036119 
L 172.270469 322.111353 
L 177.300469 321.737951 
L 182.330469 320.142141 
L 187.360469 317.644743 
L 192.390469 314.56515 
L 197.420469 311.13583 
L 202.450469 307.457587 
L 207.480469 303.5103 
L 212.510469 299.210945 
L 217.540469 294.490405 
L 222.570469 289.353872 
L 227.600469 283.900194 
L 232.630469 278.298295 
L 237.660469 272.741062 
L 242.690469 267.405816 
L 247.720469 262.441175 
L 252.750469 257.979363 
L 257.780469 254.155149 
L 262.810469 251.109878 
L 267.840469 248.972681 
L 272.870469 247.830172 
L 277.900469 247.706259 
L 282.930469 248.566914 
L 287.960469 250.346767 
L 292.990469 252.978442 
L 298.020469 256.404412 
L 303.050469 260.564811 
L 308.080469 265.372629 
L 313.110469 270.696083 
L 318.140469 276.360385 
L 323.170469 282.16394 
L 328.200469 287.890685 
L 333.230469 293.30162 
L 338.260469 298.105371 
L 343.290469 301.928642 
L 348.320469 304.318178 
L 353.350469 304.797047 
L 358.380469 302.972873 
L 363.410469 298.667142 
L 368.440469 292.018491 
L 373.470469 283.517567 
L 378.500469 273.954251 
L 383.530469 264.287948 
L 388.560469 255.475119 
L 393.590469 248.29755 
L 398.620469 243.230166 
L 403.650469 240.374367 
L 408.680469 239.467614 
L 413.710469 239.965697 
" clip-path="url(#p8c8b9e473a)" style="fill: none; stroke: #2ca02c; stroke-width: 1.5; stroke-linecap: round"/>
   </g>
   <g id="line2d_35">
    <path d="M 41.490469 317.314106 
L 46.520469 316.974228 
L 51.550469 314.425789 
L 56.580469 309.650037 
L 61.610469 302.905658 
L 66.640469 294.70637 
L 71.670469 285.753071 
L 76.700469 276.835215 
L 81.730469 268.721177 
L 86.760469 262.059827 
L 91.790469 257.31353 
L 96.820469 254.733976 
L 101.850469 254.377877 
L 106.880469 256.145096 
L 111.910469 259.815593 
L 116.940469 265.06855 
L 121.970469 271.484332 
L 127.000469 278.54769 
L 132.030469 285.677329 
L 137.060469 292.296923 
L 142.090469 297.94045 
L 147.120469 302.360895 
L 152.150469 305.599334 
L 157.180469 307.977849 
L 162.210469 310.003064 
L 167.240469 312.199628 
L 172.270469 314.921692 
L 177.300469 318.204471 
L 182.330469 321.710382 
L 187.360469 324.795328 
L 192.390469 326.679353 
L 197.420469 326.667305 
L 202.450469 324.345392 
L 207.480469 319.688418 
L 212.510469 313.047714 
L 217.540469 305.036314 
L 222.570469 296.364618 
L 227.600469 287.690504 
L 232.630469 279.52882 
L 237.660469 272.229409 
L 242.690469 265.999968 
L 247.720469 260.937929 
L 252.750469 257.047416 
L 257.780469 254.242236 
L 262.810469 252.355379 
L 267.840469 251.17615 
L 272.870469 250.517577 
L 277.900469 250.291886 
L 282.930469 250.557619 
L 287.960469 251.508565 
L 292.990469 253.399345 
L 298.020469 256.431805 
L 303.050469 260.645299 
L 308.080469 265.852612 
L 313.110469 271.645071 
L 318.140469 277.463368 
L 323.170469 282.708446 
L 328.200469 286.856389 
L 333.230469 289.5443 
L 338.260469 290.60762 
L 343.290469 290.066518 
L 348.320469 288.07481 
L 353.350469 284.854762 
L 358.380469 280.643214 
L 363.410469 275.668435 
L 368.440469 270.164635 
L 373.470469 264.416298 
L 378.500469 258.811651 
L 383.530469 253.878399 
L 388.560469 250.277578 
L 393.590469 248.742936 
L 398.620469 249.970464 
L 403.650469 254.48058 
L 408.680469 262.487439 
L 413.710469 273.81119 
" clip-path="url(#p8c8b9e473a)" style="fill: none; stroke: #d62728; stroke-width: 1.5; stroke-linecap: round"/>
   </g>
   <g id="line2d_36">
    <path d="M 41.490469 272.875999 
L 46.520469 279.624441 
L 51.550469 287.287112 
L 56.580469 295.183187 
L 61.610469 302.521693 
L 66.640469 308.498416 
L 71.670469 312.414245 
L 76.700469 313.794467 
L 81.730469 312.48374 
L 86.760469 308.694424 
L 91.790469 302.995428 
L 96.820469 296.240201 
L 101.850469 289.443092 
L 106.880469 283.621633 
L 111.910469 279.629447 
L 116.940469 278.010027 
L 121.970469 278.903762 
L 127.000469 282.034928 
L 132.030469 286.789737 
L 137.060469 292.372098 
L 142.090469 297.997991 
L 147.120469 303.072747 
L 152.150469 307.29696 
L 157.180469 310.669608 
L 162.210469 313.393401 
L 167.240469 315.723472 
L 172.270469 317.820363 
L 177.300469 319.662288 
L 182.330469 321.04316 
L 187.360469 321.64566 
L 192.390469 321.150223 
L 197.420469 319.333733 
L 202.450469 316.125484 
L 207.480469 311.612753 
L 212.510469 306.009309 
L 217.540469 299.6088 
L 222.570469 292.740491 
L 227.600469 285.734767 
L 232.630469 278.897527 
L 237.660469 272.490329 
L 242.690469 266.715256 
L 247.720469 261.706319 
L 252.750469 257.529998 
L 257.780469 254.196179 
L 262.810469 251.678163 
L 267.840469 249.938122 
L 272.870469 248.952159 
L 277.900469 248.727741 
L 282.930469 249.306828 
L 287.960469 250.75155 
L 292.990469 253.115905 
L 298.020469 256.412845 
L 303.050469 260.588493 
L 308.080469 265.510717 
L 313.110469 270.971417 
L 318.140469 276.694653 
L 323.170469 282.342225 
L 328.200469 287.514531 
L 333.230469 291.753996 
L 338.260469 294.565224 
L 343.290469 295.465185 
L 348.320469 294.067739 
L 353.350469 290.192254 
L 358.380469 283.970206 
L 363.410469 275.91318 
L 368.440469 266.905779 
L 373.470469 258.102081 
L 378.500469 250.732819 
L 383.530469 245.864233 
L 388.560469 244.174396 
L 393.590469 245.815138 
L 398.620469 250.40327 
L 403.650469 257.1415 
L 408.680469 265.025984 
L 413.710469 273.072223 
" clip-path="url(#p8c8b9e473a)" style="fill: none; stroke: #9467bd; stroke-width: 1.5; stroke-linecap: round"/>
   </g>
   <g id="patch_10">
    <path d="M 41.490469 385.039375 
L 41.490469 232.535625 
" style="fill: none; stroke: #ffffff; stroke-width: 0.8; stroke-linejoin: miter; stroke-linecap: square"/>
   </g>
   <g id="patch_11">
    <path d="M 413.710469 385.039375 
L 413.710469 232.535625 
" style="fill: none; stroke: #ffffff; stroke-width: 0.8; stroke-linejoin: miter; stroke-linecap: square"/>
   </g>
   <g id="patch_12">
    <path d="M 41.490469 385.039375 
L 413.710469 385.039375 
" style="fill: none; stroke: #ffffff; stroke-width: 0.8; stroke-linejoin: miter; stroke-linecap: square"/>
   </g>
   <g id="patch_13">
    <path d="M 41.490469 232.535625 
L 413.710469 232.535625 
" style="fill: none; stroke: #ffffff; stroke-width: 0.8; stroke-linejoin: miter; stroke-linecap: square"/>
   </g>
   <g id="text_35">
    <!-- 5 different function realizations from posterior -->
    <g style="fill: #262626" transform="translate(107.655781 226.535625)scale(0.12 -0.12)">
     <defs>
      <path id="ArialMT-35" d="M 266 1200 
L 856 1250 
Q 922 819 1161 601 
Q 1400 384 1738 384 
Q 2144 384 2425 690 
Q 2706 997 2706 1503 
Q 2706 1984 2436 2262 
Q 2166 2541 1728 2541 
Q 1456 2541 1237 2417 
Q 1019 2294 894 2097 
L 366 2166 
L 809 4519 
L 3088 4519 
L 3088 3981 
L 1259 3981 
L 1013 2750 
Q 1425 3038 1878 3038 
Q 2478 3038 2890 2622 
Q 3303 2206 3303 1553 
Q 3303 931 2941 478 
Q 2500 -78 1738 -78 
Q 1113 -78 717 272 
Q 322 622 266 1200 
z
" transform="scale(0.015625)"/>
      <path id="ArialMT-63" d="M 2588 1216 
L 3141 1144 
Q 3050 572 2676 248 
Q 2303 -75 1759 -75 
Q 1078 -75 664 370 
Q 250 816 250 1647 
Q 250 2184 428 2587 
Q 606 2991 970 3192 
Q 1334 3394 1763 3394 
Q 2303 3394 2647 3120 
Q 2991 2847 3088 2344 
L 2541 2259 
Q 2463 2594 2264 2762 
Q 2066 2931 1784 2931 
Q 1359 2931 1093 2626 
Q 828 2322 828 1663 
Q 828 994 1084 691 
Q 1341 388 1753 388 
Q 2084 388 2306 591 
Q 2528 794 2588 1216 
z
" transform="scale(0.015625)"/>
      <path id="ArialMT-6c" d="M 409 0 
L 409 4581 
L 972 4581 
L 972 0 
L 409 0 
z
" transform="scale(0.015625)"/>
      <path id="ArialMT-7a" d="M 125 0 
L 125 456 
L 2238 2881 
Q 1878 2863 1603 2863 
L 250 2863 
L 250 3319 
L 2963 3319 
L 2963 2947 
L 1166 841 
L 819 456 
Q 1197 484 1528 484 
L 3063 484 
L 3063 0 
L 125 0 
z
" transform="scale(0.015625)"/>
      <path id="ArialMT-6d" d="M 422 0 
L 422 3319 
L 925 3319 
L 925 2853 
Q 1081 3097 1340 3245 
Q 1600 3394 1931 3394 
Q 2300 3394 2536 3241 
Q 2772 3088 2869 2813 
Q 3263 3394 3894 3394 
Q 4388 3394 4653 3120 
Q 4919 2847 4919 2278 
L 4919 0 
L 4359 0 
L 4359 2091 
Q 4359 2428 4304 2576 
Q 4250 2725 4106 2815 
Q 3963 2906 3769 2906 
Q 3419 2906 3187 2673 
Q 2956 2441 2956 1928 
L 2956 0 
L 2394 0 
L 2394 2156 
Q 2394 2531 2256 2718 
Q 2119 2906 1806 2906 
Q 1569 2906 1367 2781 
Q 1166 2656 1075 2415 
Q 984 2175 984 1722 
L 984 0 
L 422 0 
z
" transform="scale(0.015625)"/>
     </defs>
     <use xlink:href="#ArialMT-35"/>
     <use xlink:href="#ArialMT-20" x="55.615234"/>
     <use xlink:href="#ArialMT-64" x="83.398438"/>
     <use xlink:href="#ArialMT-69" x="139.013672"/>
     <use xlink:href="#ArialMT-66" x="161.230469"/>
     <use xlink:href="#ArialMT-66" x="187.263672"/>
     <use xlink:href="#ArialMT-65" x="215.046875"/>
     <use xlink:href="#ArialMT-72" x="270.662109"/>
     <use xlink:href="#ArialMT-65" x="303.962891"/>
     <use xlink:href="#ArialMT-6e" x="359.578125"/>
     <use xlink:href="#ArialMT-74" x="415.193359"/>
     <use xlink:href="#ArialMT-20" x="442.976562"/>
     <use xlink:href="#ArialMT-66" x="470.759766"/>
     <use xlink:href="#ArialMT-75" x="498.542969"/>
     <use xlink:href="#ArialMT-6e" x="554.158203"/>
     <use xlink:href="#ArialMT-63" x="609.773438"/>
     <use xlink:href="#ArialMT-74" x="659.773438"/>
     <use xlink:href="#ArialMT-69" x="687.556641"/>
     <use xlink:href="#ArialMT-6f" x="709.773438"/>
     <use xlink:href="#ArialMT-6e" x="765.388672"/>
     <use xlink:href="#ArialMT-20" x="821.003906"/>
     <use xlink:href="#ArialMT-72" x="848.787109"/>
     <use xlink:href="#ArialMT-65" x="882.087891"/>
     <use xlink:href="#ArialMT-61" x="937.703125"/>
     <use xlink:href="#ArialMT-6c" x="993.318359"/>
     <use xlink:href="#ArialMT-69" x="1015.535156"/>
     <use xlink:href="#ArialMT-7a" x="1037.751953"/>
     <use xlink:href="#ArialMT-61" x="1087.751953"/>
     <use xlink:href="#ArialMT-74" x="1143.367188"/>
     <use xlink:href="#ArialMT-69" x="1171.150391"/>
     <use xlink:href="#ArialMT-6f" x="1193.367188"/>
     <use xlink:href="#ArialMT-6e" x="1248.982422"/>
     <use xlink:href="#ArialMT-73" x="1304.597656"/>
     <use xlink:href="#ArialMT-20" x="1354.597656"/>
     <use xlink:href="#ArialMT-66" x="1382.380859"/>
     <use xlink:href="#ArialMT-72" x="1410.164062"/>
     <use xlink:href="#ArialMT-6f" x="1443.464844"/>
     <use xlink:href="#ArialMT-6d" x="1499.080078"/>
     <use xlink:href="#ArialMT-20" x="1582.380859"/>
     <use xlink:href="#ArialMT-70" x="1610.164062"/>
     <use xlink:href="#ArialMT-6f" x="1665.779297"/>
     <use xlink:href="#ArialMT-73" x="1721.394531"/>
     <use xlink:href="#ArialMT-74" x="1771.394531"/>
     <use xlink:href="#ArialMT-65" x="1799.177734"/>
     <use xlink:href="#ArialMT-72" x="1854.792969"/>
     <use xlink:href="#ArialMT-69" x="1888.09375"/>
     <use xlink:href="#ArialMT-6f" x="1910.310547"/>
     <use xlink:href="#ArialMT-72" x="1965.925781"/>
    </g>
   </g>
  </g>
 </g>
 <defs>
  <clipPath id="p20bd45aea7">
   <rect x="41.490469" y="21.935625" width="372.22" height="152.50375"/>
  </clipPath>
  <clipPath id="p8c8b9e473a">
   <rect x="41.490469" y="232.535625" width="372.22" height="152.50375"/>
  </clipPath>
 </defs>
</svg>