<?xml version="1.0" encoding="utf-8" standalone="no"?>
<!DOCTYPE svg PUBLIC "-//W3C//DTD SVG 1.1//EN"
  "http://www.w3.org/Graphics/SVG/1.1/DTD/svg11.dtd">
<!-- Created with matplotlib (https://matplotlib.org/) -->
<svg height="424.273594pt" version="1.1" viewBox="0 0 423.690937 424.273594" width="423.690937pt" xmlns="http://www.w3.org/2000/svg" xmlns:xlink="http://www.w3.org/1999/xlink">
 <metadata>
  <rdf:RDF xmlns:cc="http://creativecommons.org/ns#" xmlns:dc="http://purl.org/dc/elements/1.1/" xmlns:rdf="http://www.w3.org/1999/02/22-rdf-syntax-ns#">
   <cc:Work>
    <dc:type rdf:resource="http://purl.org/dc/dcmitype/StillImage"/>
    <dc:date>2023-01-19T18:19:20.871438</dc:date>
    <dc:format>image/svg+xml</dc:format>
    <dc:creator>
     <cc:Agent>
      <dc:title>Matplotlib v3.3.4, https://matplotlib.org/</dc:title>
     </cc:Agent>
    </dc:creator>
   </cc:Work>
  </rdf:RDF>
 </metadata>
 <defs>
  <style type="text/css">*{stroke-linecap:butt;stroke-linejoin:round;}</style>
 </defs>
 <g id="figure_1">
  <g id="patch_1">
   <path d="M 0 424.273594 
L 423.690937 424.273594 
L 423.690937 0 
L 0 0 
z
" style="fill:#ffffff;"/>
  </g>
  <g id="axes_1">
   <g id="patch_2">
    <path d="M 41.490469 174.439375 
L 413.710469 174.439375 
L 413.710469 21.935625 
L 41.490469 21.935625 
z
" style="fill:#eaeaf2;"/>
   </g>
   <g id="matplotlib.axis_1">
    <g id="xtick_1">
     <g id="line2d_1">
      <path clip-path="url(#p48a23ac912)" d="M 41.490469 174.439375 
L 41.490469 21.935625 
" style="fill:none;stroke:#ffffff;stroke-linecap:round;stroke-width:0.8;"/>
     </g>
     <g id="text_1">
      <!-- −6 -->
      <g style="fill:#262626;" transform="translate(35.789688 188.597187)scale(0.1 -0.1)">
       <defs>
        <path d="M 52.828125 31.203125 
L 5.5625 31.203125 
L 5.5625 39.40625 
L 52.828125 39.40625 
z
" id="ArialMT-8722"/>
        <path d="M 49.75 54.046875 
L 41.015625 53.375 
Q 39.84375 58.546875 37.703125 60.890625 
Q 34.125 64.65625 28.90625 64.65625 
Q 24.703125 64.65625 21.53125 62.3125 
Q 17.390625 59.28125 14.984375 53.46875 
Q 12.59375 47.65625 12.5 36.921875 
Q 15.671875 41.75 20.265625 44.09375 
Q 24.859375 46.4375 29.890625 46.4375 
Q 38.671875 46.4375 44.84375 39.96875 
Q 51.03125 33.5 51.03125 23.25 
Q 51.03125 16.5 48.125 10.71875 
Q 45.21875 4.9375 40.140625 1.859375 
Q 35.0625 -1.21875 28.609375 -1.21875 
Q 17.625 -1.21875 10.6875 6.859375 
Q 3.765625 14.9375 3.765625 33.5 
Q 3.765625 54.25 11.421875 63.671875 
Q 18.109375 71.875 29.4375 71.875 
Q 37.890625 71.875 43.28125 67.140625 
Q 48.6875 62.40625 49.75 54.046875 
z
M 13.875 23.1875 
Q 13.875 18.65625 15.796875 14.5 
Q 17.71875 10.359375 21.1875 8.171875 
Q 24.65625 6 28.46875 6 
Q 34.03125 6 38.03125 10.484375 
Q 42.046875 14.984375 42.046875 22.703125 
Q 42.046875 30.125 38.078125 34.390625 
Q 34.125 38.671875 28.125 38.671875 
Q 22.171875 38.671875 18.015625 34.390625 
Q 13.875 30.125 13.875 23.1875 
z
" id="ArialMT-54"/>
       </defs>
       <use xlink:href="#ArialMT-8722"/>
       <use x="58.398438" xlink:href="#ArialMT-54"/>
      </g>
     </g>
    </g>
    <g id="xtick_2">
     <g id="line2d_2">
      <path clip-path="url(#p48a23ac912)" d="M 103.527135 174.439375 
L 103.527135 21.935625 
" style="fill:none;stroke:#ffffff;stroke-linecap:round;stroke-width:0.8;"/>
     </g>
     <g id="text_2">
      <!-- −4 -->
      <g style="fill:#262626;" transform="translate(97.826354 188.597187)scale(0.1 -0.1)">
       <defs>
        <path d="M 32.328125 0 
L 32.328125 17.140625 
L 1.265625 17.140625 
L 1.265625 25.203125 
L 33.9375 71.578125 
L 41.109375 71.578125 
L 41.109375 25.203125 
L 50.78125 25.203125 
L 50.78125 17.140625 
L 41.109375 17.140625 
L 41.109375 0 
z
M 32.328125 25.203125 
L 32.328125 57.46875 
L 9.90625 25.203125 
z
" id="ArialMT-52"/>
       </defs>
       <use xlink:href="#ArialMT-8722"/>
       <use x="58.398438" xlink:href="#ArialMT-52"/>
      </g>
     </g>
    </g>
    <g id="xtick_3">
     <g id="line2d_3">
      <path clip-path="url(#p48a23ac912)" d="M 165.563802 174.439375 
L 165.563802 21.935625 
" style="fill:none;stroke:#ffffff;stroke-linecap:round;stroke-width:0.8;"/>
     </g>
     <g id="text_3">
      <!-- −2 -->
      <g style="fill:#262626;" transform="translate(159.863021 188.597187)scale(0.1 -0.1)">
       <defs>
        <path d="M 50.34375 8.453125 
L 50.34375 0 
L 3.03125 0 
Q 2.9375 3.171875 4.046875 6.109375 
Q 5.859375 10.9375 9.828125 15.625 
Q 13.8125 20.3125 21.34375 26.46875 
Q 33.015625 36.03125 37.109375 41.625 
Q 41.21875 47.21875 41.21875 52.203125 
Q 41.21875 57.421875 37.46875 61 
Q 33.734375 64.59375 27.734375 64.59375 
Q 21.390625 64.59375 17.578125 60.78125 
Q 13.765625 56.984375 13.71875 50.25 
L 4.6875 51.171875 
Q 5.609375 61.28125 11.65625 66.578125 
Q 17.71875 71.875 27.9375 71.875 
Q 38.234375 71.875 44.234375 66.15625 
Q 50.25 60.453125 50.25 52 
Q 50.25 47.703125 48.484375 43.546875 
Q 46.734375 39.40625 42.65625 34.8125 
Q 38.578125 30.21875 29.109375 22.21875 
Q 21.1875 15.578125 18.9375 13.203125 
Q 16.703125 10.84375 15.234375 8.453125 
z
" id="ArialMT-50"/>
       </defs>
       <use xlink:href="#ArialMT-8722"/>
       <use x="58.398438" xlink:href="#ArialMT-50"/>
      </g>
     </g>
    </g>
    <g id="xtick_4">
     <g id="line2d_4">
      <path clip-path="url(#p48a23ac912)" d="M 227.600469 174.439375 
L 227.600469 21.935625 
" style="fill:none;stroke:#ffffff;stroke-linecap:round;stroke-width:0.8;"/>
     </g>
     <g id="text_4">
      <!-- 0 -->
      <g style="fill:#262626;" transform="translate(224.82 188.597187)scale(0.1 -0.1)">
       <defs>
        <path d="M 4.15625 35.296875 
Q 4.15625 48 6.765625 55.734375 
Q 9.375 63.484375 14.515625 67.671875 
Q 19.671875 71.875 27.484375 71.875 
Q 33.25 71.875 37.59375 69.546875 
Q 41.9375 67.234375 44.765625 62.859375 
Q 47.609375 58.5 49.21875 52.21875 
Q 50.828125 45.953125 50.828125 35.296875 
Q 50.828125 22.703125 48.234375 14.96875 
Q 45.65625 7.234375 40.5 3 
Q 35.359375 -1.21875 27.484375 -1.21875 
Q 17.140625 -1.21875 11.234375 6.203125 
Q 4.15625 15.140625 4.15625 35.296875 
z
M 13.1875 35.296875 
Q 13.1875 17.671875 17.3125 11.828125 
Q 21.4375 6 27.484375 6 
Q 33.546875 6 37.671875 11.859375 
Q 41.796875 17.71875 41.796875 35.296875 
Q 41.796875 52.984375 37.671875 58.78125 
Q 33.546875 64.59375 27.390625 64.59375 
Q 21.34375 64.59375 17.71875 59.46875 
Q 13.1875 52.9375 13.1875 35.296875 
z
" id="ArialMT-48"/>
       </defs>
       <use xlink:href="#ArialMT-48"/>
      </g>
     </g>
    </g>
    <g id="xtick_5">
     <g id="line2d_5">
      <path clip-path="url(#p48a23ac912)" d="M 289.637135 174.439375 
L 289.637135 21.935625 
" style="fill:none;stroke:#ffffff;stroke-linecap:round;stroke-width:0.8;"/>
     </g>
     <g id="text_5">
      <!-- 2 -->
      <g style="fill:#262626;" transform="translate(286.856667 188.597187)scale(0.1 -0.1)">
       <use xlink:href="#ArialMT-50"/>
      </g>
     </g>
    </g>
    <g id="xtick_6">
     <g id="line2d_6">
      <path clip-path="url(#p48a23ac912)" d="M 351.673802 174.439375 
L 351.673802 21.935625 
" style="fill:none;stroke:#ffffff;stroke-linecap:round;stroke-width:0.8;"/>
     </g>
     <g id="text_6">
      <!-- 4 -->
      <g style="fill:#262626;" transform="translate(348.893333 188.597187)scale(0.1 -0.1)">
       <use xlink:href="#ArialMT-52"/>
      </g>
     </g>
    </g>
    <g id="xtick_7">
     <g id="line2d_7">
      <path clip-path="url(#p48a23ac912)" d="M 413.710469 174.439375 
L 413.710469 21.935625 
" style="fill:none;stroke:#ffffff;stroke-linecap:round;stroke-width:0.8;"/>
     </g>
     <g id="text_7">
      <!-- 6 -->
      <g style="fill:#262626;" transform="translate(410.93 188.597187)scale(0.1 -0.1)">
       <use xlink:href="#ArialMT-54"/>
      </g>
     </g>
    </g>
    <g id="text_8">
     <!-- $x$ -->
     <g style="fill:#262626;" transform="translate(223.700469 203.889844)scale(0.13 -0.13)">
      <defs>
       <path d="M 60.015625 54.6875 
L 34.90625 27.875 
L 50.296875 0 
L 39.984375 0 
L 28.421875 21.6875 
L 8.296875 0 
L -2.59375 0 
L 24.3125 28.8125 
L 10.015625 54.6875 
L 20.3125 54.6875 
L 30.8125 34.90625 
L 49.125 54.6875 
z
" id="DejaVuSans-Oblique-120"/>
      </defs>
      <use transform="translate(0 0.3125)" xlink:href="#DejaVuSans-Oblique-120"/>
     </g>
    </g>
   </g>
   <g id="matplotlib.axis_2">
    <g id="ytick_1">
     <g id="line2d_8">
      <path clip-path="url(#p48a23ac912)" d="M 41.490469 174.439375 
L 413.710469 174.439375 
" style="fill:none;stroke:#ffffff;stroke-linecap:round;stroke-width:0.8;"/>
     </g>
     <g id="text_9">
      <!-- −3 -->
      <g style="fill:#262626;" transform="translate(23.088906 178.018281)scale(0.1 -0.1)">
       <defs>
        <path d="M 4.203125 18.890625 
L 12.984375 20.0625 
Q 14.5 12.59375 18.140625 9.296875 
Q 21.78125 6 27 6 
Q 33.203125 6 37.46875 10.296875 
Q 41.75 14.59375 41.75 20.953125 
Q 41.75 27 37.796875 30.921875 
Q 33.84375 34.859375 27.734375 34.859375 
Q 25.25 34.859375 21.53125 33.890625 
L 22.515625 41.609375 
Q 23.390625 41.5 23.921875 41.5 
Q 29.546875 41.5 34.03125 44.421875 
Q 38.53125 47.359375 38.53125 53.46875 
Q 38.53125 58.296875 35.25 61.46875 
Q 31.984375 64.65625 26.8125 64.65625 
Q 21.6875 64.65625 18.265625 61.421875 
Q 14.84375 58.203125 13.875 51.765625 
L 5.078125 53.328125 
Q 6.6875 62.15625 12.390625 67.015625 
Q 18.109375 71.875 26.609375 71.875 
Q 32.46875 71.875 37.390625 69.359375 
Q 42.328125 66.84375 44.9375 62.5 
Q 47.5625 58.15625 47.5625 53.265625 
Q 47.5625 48.640625 45.0625 44.828125 
Q 42.578125 41.015625 37.703125 38.765625 
Q 44.046875 37.3125 47.5625 32.6875 
Q 51.078125 28.078125 51.078125 21.140625 
Q 51.078125 11.765625 44.234375 5.25 
Q 37.40625 -1.265625 26.953125 -1.265625 
Q 17.53125 -1.265625 11.296875 4.34375 
Q 5.078125 9.96875 4.203125 18.890625 
z
" id="ArialMT-51"/>
       </defs>
       <use xlink:href="#ArialMT-8722"/>
       <use x="58.398438" xlink:href="#ArialMT-51"/>
      </g>
     </g>
    </g>
    <g id="ytick_2">
     <g id="line2d_9">
      <path clip-path="url(#p48a23ac912)" d="M 41.490469 149.022083 
L 413.710469 149.022083 
" style="fill:none;stroke:#ffffff;stroke-linecap:round;stroke-width:0.8;"/>
     </g>
     <g id="text_10">
      <!-- −2 -->
      <g style="fill:#262626;" transform="translate(23.088906 152.60099)scale(0.1 -0.1)">
       <use xlink:href="#ArialMT-8722"/>
       <use x="58.398438" xlink:href="#ArialMT-50"/>
      </g>
     </g>
    </g>
    <g id="ytick_3">
     <g id="line2d_10">
      <path clip-path="url(#p48a23ac912)" d="M 41.490469 123.604792 
L 413.710469 123.604792 
" style="fill:none;stroke:#ffffff;stroke-linecap:round;stroke-width:0.8;"/>
     </g>
     <g id="text_11">
      <!-- −1 -->
      <g style="fill:#262626;" transform="translate(23.088906 127.183698)scale(0.1 -0.1)">
       <defs>
        <path d="M 37.25 0 
L 28.46875 0 
L 28.46875 56 
Q 25.296875 52.984375 20.140625 49.953125 
Q 14.984375 46.921875 10.890625 45.40625 
L 10.890625 53.90625 
Q 18.265625 57.375 23.78125 62.296875 
Q 29.296875 67.234375 31.59375 71.875 
L 37.25 71.875 
z
" id="ArialMT-49"/>
       </defs>
       <use xlink:href="#ArialMT-8722"/>
       <use x="58.398438" xlink:href="#ArialMT-49"/>
      </g>
     </g>
    </g>
    <g id="ytick_4">
     <g id="line2d_11">
      <path clip-path="url(#p48a23ac912)" d="M 41.490469 98.1875 
L 413.710469 98.1875 
" style="fill:none;stroke:#ffffff;stroke-linecap:round;stroke-width:0.8;"/>
     </g>
     <g id="text_12">
      <!-- 0 -->
      <g style="fill:#262626;" transform="translate(28.929531 101.766406)scale(0.1 -0.1)">
       <use xlink:href="#ArialMT-48"/>
      </g>
     </g>
    </g>
    <g id="ytick_5">
     <g id="line2d_12">
      <path clip-path="url(#p48a23ac912)" d="M 41.490469 72.770208 
L 413.710469 72.770208 
" style="fill:none;stroke:#ffffff;stroke-linecap:round;stroke-width:0.8;"/>
     </g>
     <g id="text_13">
      <!-- 1 -->
      <g style="fill:#262626;" transform="translate(28.929531 76.349115)scale(0.1 -0.1)">
       <use xlink:href="#ArialMT-49"/>
      </g>
     </g>
    </g>
    <g id="ytick_6">
     <g id="line2d_13">
      <path clip-path="url(#p48a23ac912)" d="M 41.490469 47.352917 
L 413.710469 47.352917 
" style="fill:none;stroke:#ffffff;stroke-linecap:round;stroke-width:0.8;"/>
     </g>
     <g id="text_14">
      <!-- 2 -->
      <g style="fill:#262626;" transform="translate(28.929531 50.931823)scale(0.1 -0.1)">
       <use xlink:href="#ArialMT-50"/>
      </g>
     </g>
    </g>
    <g id="ytick_7">
     <g id="line2d_14">
      <path clip-path="url(#p48a23ac912)" d="M 41.490469 21.935625 
L 413.710469 21.935625 
" style="fill:none;stroke:#ffffff;stroke-linecap:round;stroke-width:0.8;"/>
     </g>
     <g id="text_15">
      <!-- 3 -->
      <g style="fill:#262626;" transform="translate(28.929531 25.514531)scale(0.1 -0.1)">
       <use xlink:href="#ArialMT-51"/>
      </g>
     </g>
    </g>
    <g id="text_16">
     <!-- $y$ -->
     <g style="fill:#262626;" transform="translate(16.358906 102.0875)rotate(-90)scale(0.13 -0.13)">
      <defs>
       <path d="M 24.8125 -5.078125 
Q 18.5625 -15.578125 14.625 -18.1875 
Q 10.6875 -20.796875 4.59375 -20.796875 
L -2.484375 -20.796875 
L -0.984375 -13.28125 
L 4.203125 -13.28125 
Q 7.953125 -13.28125 10.59375 -11.234375 
Q 13.234375 -9.1875 16.5 -3.21875 
L 19.28125 2 
L 7.171875 54.6875 
L 16.703125 54.6875 
L 25.78125 12.796875 
L 50.875 54.6875 
L 60.296875 54.6875 
z
" id="DejaVuSans-Oblique-121"/>
      </defs>
      <use transform="translate(0 0.3125)" xlink:href="#DejaVuSans-Oblique-121"/>
     </g>
    </g>
   </g>
   <g id="PolyCollection_1">
    <defs>
     <path d="M 41.490469 -378.200848 
L 41.490469 -276.790311 
L 46.520469 -277.5651 
L 51.550469 -278.668768 
L 56.580469 -280.210683 
L 61.610469 -282.317726 
L 66.640469 -285.123178 
L 71.670469 -288.746184 
L 76.700469 -293.262228 
L 81.730469 -298.66836 
L 86.760469 -304.850199 
L 91.790469 -311.559874 
L 96.820469 -318.414084 
L 101.850469 -324.919023 
L 106.880469 -330.523875 
L 111.910469 -334.697852 
L 116.940469 -336.308469 
L 121.970469 -329.618183 
L 127.000469 -323.858366 
L 132.030469 -319.183592 
L 137.060469 -315.563398 
L 142.090469 -312.808837 
L 147.120469 -310.6387 
L 152.150469 -308.767636 
L 157.180469 -306.241968 
L 162.210469 -303.182273 
L 167.240469 -301.236264 
L 172.270469 -300.266204 
L 177.300469 -300.086461 
L 182.330469 -300.537513 
L 187.360469 -301.527983 
L 192.390469 -303.035512 
L 197.420469 -305.074207 
L 202.450469 -307.649248 
L 207.480469 -310.722526 
L 212.510469 -314.199098 
L 217.540469 -317.985049 
L 222.570469 -321.960061 
L 227.600469 -326.08449 
L 232.630469 -329.916296 
L 237.660469 -333.092255 
L 242.690469 -335.165339 
L 247.720469 -335.726958 
L 252.750469 -334.504827 
L 257.780469 -331.433025 
L 262.810469 -326.677226 
L 267.840469 -320.609199 
L 272.870469 -313.740505 
L 277.900469 -306.636411 
L 282.930469 -299.834168 
L 287.960469 -293.784824 
L 292.990469 -288.827322 
L 298.020469 -285.19199 
L 303.050469 -283.021764 
L 308.080469 -282.39652 
L 313.110469 -283.34898 
L 318.140469 -285.867542 
L 323.170469 -289.888554 
L 328.200469 -295.28493 
L 333.230469 -301.858771 
L 338.260469 -309.343546 
L 343.290469 -309.775643 
L 348.320469 -301.932043 
L 353.350469 -294.878427 
L 358.380469 -288.813682 
L 363.410469 -283.851597 
L 368.440469 -280.014517 
L 373.470469 -277.239951 
L 378.500469 -275.398085 
L 383.530469 -274.316291 
L 388.560469 -273.805778 
L 393.590469 -273.685658 
L 398.620469 -273.800773 
L 403.650469 -274.031433 
L 408.680469 -274.29525 
L 413.710469 -274.542917 
L 413.710469 -376.004468 
L 413.710469 -376.004468 
L 408.680469 -375.531199 
L 403.650469 -374.842103 
L 398.620469 -373.853167 
L 393.590469 -372.458465 
L 388.560469 -370.532903 
L 383.530469 -367.940765 
L 378.500469 -364.550667 
L 373.470469 -360.255781 
L 368.440469 -354.996427 
L 363.410469 -348.780834 
L 358.380469 -341.699649 
L 353.350469 -333.930489 
L 348.320469 -325.730615 
L 343.290469 -317.418011 
L 338.260469 -318.144122 
L 333.230469 -326.734521 
L 328.200469 -335.23856 
L 323.170469 -343.372756 
L 318.140469 -350.8997 
L 313.110469 -357.635961 
L 308.080469 -363.445715 
L 303.050469 -368.223868 
L 298.020469 -371.876749 
L 292.990469 -374.310359 
L 287.960469 -375.434038 
L 282.930469 -375.181367 
L 277.900469 -373.542261 
L 272.870469 -370.594111 
L 267.840469 -366.5181 
L 262.810469 -361.590512 
L 257.780469 -356.146892 
L 252.750469 -350.526573 
L 247.720469 -345.013139 
L 242.690469 -339.78942 
L 237.660469 -334.921998 
L 232.630469 -330.380511 
L 227.600469 -326.088316 
L 222.570469 -322.012368 
L 217.540469 -317.988167 
L 212.510469 -314.205974 
L 207.480469 -310.741887 
L 202.450469 -307.678102 
L 197.420469 -305.080437 
L 192.390469 -303.051333 
L 187.360469 -301.705864 
L 182.330469 -301.128512 
L 177.300469 -301.32652 
L 172.270469 -302.205203 
L 167.240469 -303.581679 
L 162.210469 -305.237075 
L 157.180469 -306.990456 
L 152.150469 -310.422651 
L 147.120469 -315.539171 
L 142.090469 -321.196461 
L 137.060469 -326.82696 
L 132.030469 -331.776225 
L 127.000469 -335.415567 
L 121.970469 -337.253383 
L 116.940469 -337.018492 
L 111.910469 -343.60793 
L 106.880469 -351.084284 
L 101.850469 -358.271013 
L 96.820469 -364.74554 
L 91.790469 -370.191589 
L 86.760469 -374.434828 
L 81.730469 -377.448622 
L 76.700469 -379.333735 
L 71.670469 -380.280545 
L 66.640469 -380.524225 
L 61.610469 -380.302708 
L 56.580469 -379.824636 
L 51.550469 -379.250877 
L 46.520469 -378.689458 
L 41.490469 -378.200848 
z
" id="m39a5d7fd7e" style="stroke:#ff0000;stroke-opacity:0.15;"/>
    </defs>
    <g clip-path="url(#p48a23ac912)">
     <use style="fill:#ff0000;fill-opacity:0.15;stroke:#ff0000;stroke-opacity:0.15;" x="0" xlink:href="#m39a5d7fd7e" y="424.273594"/>
    </g>
   </g>
   <g id="line2d_15">
    <path clip-path="url(#p48a23ac912)" d="M 41.490469 91.085515 
L 46.520469 87.238456 
L 51.550469 83.678688 
L 56.580469 80.499617 
L 61.610469 77.784659 
L 66.640469 75.60505 
L 71.670469 74.017982 
L 76.700469 73.065098 
L 81.730469 72.771401 
L 86.760469 73.144596 
L 91.790469 74.174892 
L 96.820469 75.835254 
L 101.850469 78.082117 
L 106.880469 80.856525 
L 111.910469 84.08568 
L 116.940469 87.684852 
L 121.970469 91.559604 
L 127.000469 95.608264 
L 132.030469 99.724602 
L 137.060469 103.800607 
L 142.090469 107.72933 
L 147.120469 111.407685 
L 152.150469 114.739156 
L 157.180469 117.636328 
L 162.210469 120.023182 
L 167.240469 121.83709 
L 172.270469 123.030457 
L 177.300469 123.57197 
L 182.330469 123.447419 
L 187.360469 122.660074 
L 192.390469 121.230593 
L 197.420469 119.196485 
L 202.450469 116.611122 
L 207.480469 113.542342 
L 212.510469 110.070666 
L 217.540469 106.287188 
L 222.570469 102.291182 
L 227.600469 98.1875 
L 232.630469 94.083818 
L 237.660469 90.087812 
L 242.690469 86.304334 
L 247.720469 82.832658 
L 252.750469 79.763878 
L 257.780469 77.178515 
L 262.810469 75.144407 
L 267.840469 73.714926 
L 272.870469 72.927581 
L 277.900469 72.80303 
L 282.930469 73.344543 
L 287.960469 74.53791 
L 292.990469 76.351818 
L 298.020469 78.738672 
L 303.050469 81.635844 
L 308.080469 84.967315 
L 313.110469 88.64567 
L 318.140469 92.574393 
L 323.170469 96.650398 
L 328.200469 100.766736 
L 333.230469 104.815396 
L 338.260469 108.690148 
L 343.290469 112.28932 
L 348.320469 115.518475 
L 353.350469 118.292883 
L 358.380469 120.539746 
L 363.410469 122.200108 
L 368.440469 123.230404 
L 373.470469 123.603599 
L 378.500469 123.309902 
L 383.530469 122.357018 
L 388.560469 120.76995 
L 393.590469 118.590341 
L 398.620469 115.875383 
L 403.650469 112.696312 
L 408.680469 109.136544 
L 413.710469 105.289485 
" style="fill:none;stroke:#0000ff;stroke-dasharray:5.55,2.4;stroke-dashoffset:0;stroke-width:1.5;"/>
   </g>
   <g id="line2d_16">
    <path clip-path="url(#p48a23ac912)" d="M 41.490469 96.778014 
L 46.520469 96.146315 
L 51.550469 95.313771 
L 56.580469 94.255934 
L 61.610469 92.963377 
L 66.640469 91.449893 
L 71.670469 89.760229 
L 76.700469 87.975612 
L 81.730469 86.215103 
L 86.760469 84.63108 
L 91.790469 83.397862 
L 96.820469 82.693782 
L 101.850469 82.678576 
L 106.880469 83.469515 
L 111.910469 85.120703 
L 116.940469 87.610113 
L 121.970469 90.837811 
L 127.000469 94.636628 
L 132.030469 98.793685 
L 137.060469 103.078415 
L 142.090469 107.270945 
L 147.120469 111.184658 
L 152.150469 114.67845 
L 157.180469 117.657382 
L 162.210469 120.06392 
L 167.240469 121.864623 
L 172.270469 123.037891 
L 177.300469 123.567103 
L 182.330469 123.440582 
L 187.360469 122.65667 
L 192.390469 121.230171 
L 197.420469 119.196272 
L 202.450469 116.609918 
L 207.480469 113.541387 
L 212.510469 110.071058 
L 217.540469 106.286986 
L 222.570469 102.287379 
L 227.600469 98.187191 
L 232.630469 94.12519 
L 237.660469 90.266467 
L 242.690469 86.796214 
L 247.720469 83.903545 
L 252.750469 81.757894 
L 257.780469 80.483635 
L 262.810469 80.139725 
L 267.840469 80.709944 
L 272.870469 82.106286 
L 277.900469 84.184258 
L 282.930469 86.765826 
L 287.960469 89.664163 
L 292.990469 92.704753 
L 298.020469 95.739224 
L 303.050469 98.650778 
L 308.080469 101.352476 
L 313.110469 103.781123 
L 318.140469 105.889973 
L 323.170469 107.642939 
L 328.200469 109.011849 
L 333.230469 109.976948 
L 338.260469 110.52976 
L 343.290469 110.676767 
L 348.320469 110.442265 
L 353.350469 109.869136 
L 358.380469 109.016928 
L 363.410469 107.957378 
L 368.440469 106.768122 
L 373.470469 105.525728 
L 378.500469 104.299218 
L 383.530469 103.145066 
L 388.560469 102.104253 
L 393.590469 101.201532 
L 398.620469 100.446624 
L 403.650469 99.836826 
L 408.680469 99.360369 
L 413.710469 98.999901 
" style="fill:none;stroke:#ff0000;stroke-linecap:round;stroke-width:2;"/>
   </g>
   <g id="line2d_17">
    <defs>
     <path d="M 0 3 
C 0.795609 3 1.55874 2.683901 2.12132 2.12132 
C 2.683901 1.55874 3 0.795609 3 0 
C 3 -0.795609 2.683901 -1.55874 2.12132 -2.12132 
C 1.55874 -2.683901 0.795609 -3 0 -3 
C -0.795609 -3 -1.55874 -2.683901 -2.12132 -2.12132 
C -2.683901 -1.55874 -3 -0.795609 -3 0 
C -3 0.795609 -2.683901 1.55874 -2.12132 2.12132 
C -1.55874 2.683901 -0.795609 3 0 3 
z
" id="mdc6f7bfb31" style="stroke:#000000;"/>
    </defs>
    <g clip-path="url(#p48a23ac912)">
     <use style="stroke:#000000;" x="340.95382" xlink:href="#mdc6f7bfb31" y="110.657837"/>
     <use style="stroke:#000000;" x="227.700012" xlink:href="#mdc6f7bfb31" y="98.105932"/>
     <use style="stroke:#000000;" x="210.907428" xlink:href="#mdc6f7bfb31" y="111.21546"/>
     <use style="stroke:#000000;" x="217.103767" xlink:href="#mdc6f7bfb31" y="106.625564"/>
     <use style="stroke:#000000;" x="155.360687" xlink:href="#mdc6f7bfb31" y="116.643373"/>
     <use style="stroke:#000000;" x="195.020591" xlink:href="#mdc6f7bfb31" y="120.239381"/>
     <use style="stroke:#000000;" x="195.295062" xlink:href="#mdc6f7bfb31" y="120.126678"/>
     <use style="stroke:#000000;" x="116.518859" xlink:href="#mdc6f7bfb31" y="87.371227"/>
    </g>
   </g>
   <g id="patch_3">
    <path d="M 41.490469 174.439375 
L 41.490469 21.935625 
" style="fill:none;stroke:#ffffff;stroke-linecap:square;stroke-linejoin:miter;stroke-width:0.8;"/>
   </g>
   <g id="patch_4">
    <path d="M 413.710469 174.439375 
L 413.710469 21.935625 
" style="fill:none;stroke:#ffffff;stroke-linecap:square;stroke-linejoin:miter;stroke-width:0.8;"/>
   </g>
   <g id="patch_5">
    <path d="M 41.490469 174.439375 
L 413.710469 174.439375 
" style="fill:none;stroke:#ffffff;stroke-linecap:square;stroke-linejoin:miter;stroke-width:0.8;"/>
   </g>
   <g id="patch_6">
    <path d="M 41.490469 21.935625 
L 413.710469 21.935625 
" style="fill:none;stroke:#ffffff;stroke-linecap:square;stroke-linejoin:miter;stroke-width:0.8;"/>
   </g>
   <g id="text_17">
    <!-- Distribution of posterior and prior data. -->
    <g style="fill:#262626;" transform="translate(125.555469 15.935625)scale(0.12 -0.12)">
     <defs>
      <path d="M 7.71875 0 
L 7.71875 71.578125 
L 32.375 71.578125 
Q 40.71875 71.578125 45.125 70.5625 
Q 51.265625 69.140625 55.609375 65.4375 
Q 61.28125 60.640625 64.078125 53.1875 
Q 66.890625 45.75 66.890625 36.1875 
Q 66.890625 28.03125 64.984375 21.734375 
Q 63.09375 15.4375 60.109375 11.296875 
Q 57.125 7.171875 53.578125 4.796875 
Q 50.046875 2.4375 45.046875 1.21875 
Q 40.046875 0 33.546875 0 
z
M 17.1875 8.453125 
L 32.46875 8.453125 
Q 39.546875 8.453125 43.578125 9.765625 
Q 47.609375 11.078125 50 13.484375 
Q 53.375 16.84375 55.25 22.53125 
Q 57.125 28.21875 57.125 36.328125 
Q 57.125 47.5625 53.4375 53.59375 
Q 49.75 59.625 44.484375 61.671875 
Q 40.671875 63.140625 32.234375 63.140625 
L 17.1875 63.140625 
z
" id="ArialMT-68"/>
      <path d="M 6.640625 61.46875 
L 6.640625 71.578125 
L 15.4375 71.578125 
L 15.4375 61.46875 
z
M 6.640625 0 
L 6.640625 51.859375 
L 15.4375 51.859375 
L 15.4375 0 
z
" id="ArialMT-105"/>
      <path d="M 3.078125 15.484375 
L 11.765625 16.84375 
Q 12.5 11.625 15.84375 8.84375 
Q 19.1875 6.0625 25.203125 6.0625 
Q 31.25 6.0625 34.171875 8.515625 
Q 37.109375 10.984375 37.109375 14.3125 
Q 37.109375 17.28125 34.515625 19 
Q 32.71875 20.171875 25.53125 21.96875 
Q 15.875 24.421875 12.140625 26.203125 
Q 8.40625 27.984375 6.46875 31.125 
Q 4.546875 34.28125 4.546875 38.09375 
Q 4.546875 41.546875 6.125 44.5 
Q 7.71875 47.46875 10.453125 49.421875 
Q 12.5 50.921875 16.03125 51.96875 
Q 19.578125 53.03125 23.640625 53.03125 
Q 29.734375 53.03125 34.34375 51.265625 
Q 38.96875 49.515625 41.15625 46.5 
Q 43.359375 43.5 44.1875 38.484375 
L 35.59375 37.3125 
Q 35.015625 41.3125 32.203125 43.546875 
Q 29.390625 45.796875 24.265625 45.796875 
Q 18.21875 45.796875 15.625 43.796875 
Q 13.03125 41.796875 13.03125 39.109375 
Q 13.03125 37.40625 14.109375 36.03125 
Q 15.1875 34.625 17.484375 33.6875 
Q 18.796875 33.203125 25.25 31.453125 
Q 34.578125 28.953125 38.25 27.359375 
Q 41.9375 25.78125 44.03125 22.75 
Q 46.140625 19.734375 46.140625 15.234375 
Q 46.140625 10.84375 43.578125 6.953125 
Q 41.015625 3.078125 36.171875 0.953125 
Q 31.34375 -1.171875 25.25 -1.171875 
Q 15.140625 -1.171875 9.84375 3.03125 
Q 4.546875 7.234375 3.078125 15.484375 
z
" id="ArialMT-115"/>
      <path d="M 25.78125 7.859375 
L 27.046875 0.09375 
Q 23.34375 -0.6875 20.40625 -0.6875 
Q 15.625 -0.6875 12.984375 0.828125 
Q 10.359375 2.34375 9.28125 4.8125 
Q 8.203125 7.28125 8.203125 15.1875 
L 8.203125 45.015625 
L 1.765625 45.015625 
L 1.765625 51.859375 
L 8.203125 51.859375 
L 8.203125 64.703125 
L 16.9375 69.96875 
L 16.9375 51.859375 
L 25.78125 51.859375 
L 25.78125 45.015625 
L 16.9375 45.015625 
L 16.9375 14.703125 
Q 16.9375 10.9375 17.40625 9.859375 
Q 17.875 8.796875 18.921875 8.15625 
Q 19.96875 7.515625 21.921875 7.515625 
Q 23.390625 7.515625 25.78125 7.859375 
z
" id="ArialMT-116"/>
      <path d="M 6.5 0 
L 6.5 51.859375 
L 14.40625 51.859375 
L 14.40625 44 
Q 17.4375 49.515625 20 51.265625 
Q 22.5625 53.03125 25.640625 53.03125 
Q 30.078125 53.03125 34.671875 50.203125 
L 31.640625 42.046875 
Q 28.421875 43.953125 25.203125 43.953125 
Q 22.3125 43.953125 20.015625 42.21875 
Q 17.71875 40.484375 16.75 37.40625 
Q 15.28125 32.71875 15.28125 27.15625 
L 15.28125 0 
z
" id="ArialMT-114"/>
      <path d="M 14.703125 0 
L 6.546875 0 
L 6.546875 71.578125 
L 15.328125 71.578125 
L 15.328125 46.046875 
Q 20.90625 53.03125 29.546875 53.03125 
Q 34.328125 53.03125 38.59375 51.09375 
Q 42.875 49.171875 45.625 45.671875 
Q 48.390625 42.1875 49.953125 37.25 
Q 51.515625 32.328125 51.515625 26.703125 
Q 51.515625 13.375 44.921875 6.09375 
Q 38.328125 -1.171875 29.109375 -1.171875 
Q 19.921875 -1.171875 14.703125 6.5 
z
M 14.59375 26.3125 
Q 14.59375 17 17.140625 12.84375 
Q 21.296875 6.0625 28.375 6.0625 
Q 34.125 6.0625 38.328125 11.0625 
Q 42.53125 16.0625 42.53125 25.984375 
Q 42.53125 36.140625 38.5 40.96875 
Q 34.46875 45.796875 28.765625 45.796875 
Q 23 45.796875 18.796875 40.796875 
Q 14.59375 35.796875 14.59375 26.3125 
z
" id="ArialMT-98"/>
      <path d="M 40.578125 0 
L 40.578125 7.625 
Q 34.515625 -1.171875 24.125 -1.171875 
Q 19.53125 -1.171875 15.546875 0.578125 
Q 11.578125 2.34375 9.640625 5 
Q 7.71875 7.671875 6.9375 11.53125 
Q 6.390625 14.109375 6.390625 19.734375 
L 6.390625 51.859375 
L 15.1875 51.859375 
L 15.1875 23.09375 
Q 15.1875 16.21875 15.71875 13.8125 
Q 16.546875 10.359375 19.234375 8.375 
Q 21.921875 6.390625 25.875 6.390625 
Q 29.828125 6.390625 33.296875 8.421875 
Q 36.765625 10.453125 38.203125 13.9375 
Q 39.65625 17.4375 39.65625 24.078125 
L 39.65625 51.859375 
L 48.4375 51.859375 
L 48.4375 0 
z
" id="ArialMT-117"/>
      <path d="M 3.328125 25.921875 
Q 3.328125 40.328125 11.328125 47.265625 
Q 18.015625 53.03125 27.640625 53.03125 
Q 38.328125 53.03125 45.109375 46.015625 
Q 51.90625 39.015625 51.90625 26.65625 
Q 51.90625 16.65625 48.90625 10.90625 
Q 45.90625 5.171875 40.15625 2 
Q 34.421875 -1.171875 27.640625 -1.171875 
Q 16.75 -1.171875 10.03125 5.8125 
Q 3.328125 12.796875 3.328125 25.921875 
z
M 12.359375 25.921875 
Q 12.359375 15.96875 16.703125 11.015625 
Q 21.046875 6.0625 27.640625 6.0625 
Q 34.1875 6.0625 38.53125 11.03125 
Q 42.875 16.015625 42.875 26.21875 
Q 42.875 35.84375 38.5 40.796875 
Q 34.125 45.75 27.640625 45.75 
Q 21.046875 45.75 16.703125 40.8125 
Q 12.359375 35.890625 12.359375 25.921875 
z
" id="ArialMT-111"/>
      <path d="M 6.59375 0 
L 6.59375 51.859375 
L 14.5 51.859375 
L 14.5 44.484375 
Q 20.21875 53.03125 31 53.03125 
Q 35.6875 53.03125 39.625 51.34375 
Q 43.5625 49.65625 45.515625 46.921875 
Q 47.46875 44.1875 48.25 40.4375 
Q 48.734375 37.984375 48.734375 31.890625 
L 48.734375 0 
L 39.9375 0 
L 39.9375 31.546875 
Q 39.9375 36.921875 38.90625 39.578125 
Q 37.890625 42.234375 35.28125 43.8125 
Q 32.671875 45.40625 29.15625 45.40625 
Q 23.53125 45.40625 19.453125 41.84375 
Q 15.375 38.28125 15.375 28.328125 
L 15.375 0 
z
" id="ArialMT-110"/>
      <path id="ArialMT-32"/>
      <path d="M 8.6875 0 
L 8.6875 45.015625 
L 0.921875 45.015625 
L 0.921875 51.859375 
L 8.6875 51.859375 
L 8.6875 57.375 
Q 8.6875 62.59375 9.625 65.140625 
Q 10.890625 68.5625 14.078125 70.671875 
Q 17.28125 72.796875 23.046875 72.796875 
Q 26.765625 72.796875 31.25 71.921875 
L 29.9375 64.265625 
Q 27.203125 64.75 24.75 64.75 
Q 20.75 64.75 19.09375 63.03125 
Q 17.4375 61.328125 17.4375 56.640625 
L 17.4375 51.859375 
L 27.546875 51.859375 
L 27.546875 45.015625 
L 17.4375 45.015625 
L 17.4375 0 
z
" id="ArialMT-102"/>
      <path d="M 6.59375 -19.875 
L 6.59375 51.859375 
L 14.59375 51.859375 
L 14.59375 45.125 
Q 17.4375 49.078125 21 51.046875 
Q 24.5625 53.03125 29.640625 53.03125 
Q 36.28125 53.03125 41.359375 49.609375 
Q 46.4375 46.1875 49.015625 39.953125 
Q 51.609375 33.734375 51.609375 26.3125 
Q 51.609375 18.359375 48.75 11.984375 
Q 45.90625 5.609375 40.453125 2.21875 
Q 35.015625 -1.171875 29 -1.171875 
Q 24.609375 -1.171875 21.109375 0.6875 
Q 17.625 2.546875 15.375 5.375 
L 15.375 -19.875 
z
M 14.546875 25.640625 
Q 14.546875 15.625 18.59375 10.84375 
Q 22.65625 6.0625 28.421875 6.0625 
Q 34.28125 6.0625 38.453125 11.015625 
Q 42.625 15.96875 42.625 26.375 
Q 42.625 36.28125 38.546875 41.203125 
Q 34.46875 46.140625 28.8125 46.140625 
Q 23.1875 46.140625 18.859375 40.890625 
Q 14.546875 35.640625 14.546875 25.640625 
z
" id="ArialMT-112"/>
      <path d="M 42.09375 16.703125 
L 51.171875 15.578125 
Q 49.03125 7.625 43.21875 3.21875 
Q 37.40625 -1.171875 28.375 -1.171875 
Q 17 -1.171875 10.328125 5.828125 
Q 3.65625 12.84375 3.65625 25.484375 
Q 3.65625 38.578125 10.390625 45.796875 
Q 17.140625 53.03125 27.875 53.03125 
Q 38.28125 53.03125 44.875 45.953125 
Q 51.46875 38.875 51.46875 26.03125 
Q 51.46875 25.25 51.421875 23.6875 
L 12.75 23.6875 
Q 13.234375 15.140625 17.578125 10.59375 
Q 21.921875 6.0625 28.421875 6.0625 
Q 33.25 6.0625 36.671875 8.59375 
Q 40.09375 11.140625 42.09375 16.703125 
z
M 13.234375 30.90625 
L 42.1875 30.90625 
Q 41.609375 37.453125 38.875 40.71875 
Q 34.671875 45.796875 27.984375 45.796875 
Q 21.921875 45.796875 17.796875 41.75 
Q 13.671875 37.703125 13.234375 30.90625 
z
" id="ArialMT-101"/>
      <path d="M 40.4375 6.390625 
Q 35.546875 2.25 31.03125 0.53125 
Q 26.515625 -1.171875 21.34375 -1.171875 
Q 12.796875 -1.171875 8.203125 3 
Q 3.609375 7.171875 3.609375 13.671875 
Q 3.609375 17.484375 5.34375 20.625 
Q 7.078125 23.78125 9.890625 25.6875 
Q 12.703125 27.59375 16.21875 28.5625 
Q 18.796875 29.25 24.03125 29.890625 
Q 34.671875 31.15625 39.703125 32.90625 
Q 39.75 34.71875 39.75 35.203125 
Q 39.75 40.578125 37.25 42.78125 
Q 33.890625 45.75 27.25 45.75 
Q 21.046875 45.75 18.09375 43.578125 
Q 15.140625 41.40625 13.71875 35.890625 
L 5.125 37.0625 
Q 6.296875 42.578125 8.984375 45.96875 
Q 11.671875 49.359375 16.75 51.1875 
Q 21.828125 53.03125 28.515625 53.03125 
Q 35.15625 53.03125 39.296875 51.46875 
Q 43.453125 49.90625 45.40625 47.53125 
Q 47.359375 45.171875 48.140625 41.546875 
Q 48.578125 39.3125 48.578125 33.453125 
L 48.578125 21.734375 
Q 48.578125 9.46875 49.140625 6.21875 
Q 49.703125 2.984375 51.375 0 
L 42.1875 0 
Q 40.828125 2.734375 40.4375 6.390625 
z
M 39.703125 26.03125 
Q 34.90625 24.078125 25.34375 22.703125 
Q 19.921875 21.921875 17.671875 20.9375 
Q 15.4375 19.96875 14.203125 18.09375 
Q 12.984375 16.21875 12.984375 13.921875 
Q 12.984375 10.40625 15.640625 8.0625 
Q 18.3125 5.71875 23.4375 5.71875 
Q 28.515625 5.71875 32.46875 7.9375 
Q 36.421875 10.15625 38.28125 14.015625 
Q 39.703125 17 39.703125 22.796875 
z
" id="ArialMT-97"/>
      <path d="M 40.234375 0 
L 40.234375 6.546875 
Q 35.296875 -1.171875 25.734375 -1.171875 
Q 19.53125 -1.171875 14.328125 2.25 
Q 9.125 5.671875 6.265625 11.796875 
Q 3.421875 17.921875 3.421875 25.875 
Q 3.421875 33.640625 6 39.96875 
Q 8.59375 46.296875 13.765625 49.65625 
Q 18.953125 53.03125 25.34375 53.03125 
Q 30.03125 53.03125 33.6875 51.046875 
Q 37.359375 49.078125 39.65625 45.90625 
L 39.65625 71.578125 
L 48.390625 71.578125 
L 48.390625 0 
z
M 12.453125 25.875 
Q 12.453125 15.921875 16.640625 10.984375 
Q 20.84375 6.0625 26.5625 6.0625 
Q 32.328125 6.0625 36.34375 10.765625 
Q 40.375 15.484375 40.375 25.140625 
Q 40.375 35.796875 36.265625 40.765625 
Q 32.171875 45.75 26.171875 45.75 
Q 20.3125 45.75 16.375 40.96875 
Q 12.453125 36.1875 12.453125 25.875 
z
" id="ArialMT-100"/>
      <path d="M 9.078125 0 
L 9.078125 10.015625 
L 19.09375 10.015625 
L 19.09375 0 
z
" id="ArialMT-46"/>
     </defs>
     <use xlink:href="#ArialMT-68"/>
     <use x="72.216797" xlink:href="#ArialMT-105"/>
     <use x="94.433594" xlink:href="#ArialMT-115"/>
     <use x="144.433594" xlink:href="#ArialMT-116"/>
     <use x="172.216797" xlink:href="#ArialMT-114"/>
     <use x="205.517578" xlink:href="#ArialMT-105"/>
     <use x="227.734375" xlink:href="#ArialMT-98"/>
     <use x="283.349609" xlink:href="#ArialMT-117"/>
     <use x="338.964844" xlink:href="#ArialMT-116"/>
     <use x="366.748047" xlink:href="#ArialMT-105"/>
     <use x="388.964844" xlink:href="#ArialMT-111"/>
     <use x="444.580078" xlink:href="#ArialMT-110"/>
     <use x="500.195312" xlink:href="#ArialMT-32"/>
     <use x="527.978516" xlink:href="#ArialMT-111"/>
     <use x="583.59375" xlink:href="#ArialMT-102"/>
     <use x="611.376953" xlink:href="#ArialMT-32"/>
     <use x="639.160156" xlink:href="#ArialMT-112"/>
     <use x="694.775391" xlink:href="#ArialMT-111"/>
     <use x="750.390625" xlink:href="#ArialMT-115"/>
     <use x="800.390625" xlink:href="#ArialMT-116"/>
     <use x="828.173828" xlink:href="#ArialMT-101"/>
     <use x="883.789062" xlink:href="#ArialMT-114"/>
     <use x="917.089844" xlink:href="#ArialMT-105"/>
     <use x="939.306641" xlink:href="#ArialMT-111"/>
     <use x="994.921875" xlink:href="#ArialMT-114"/>
     <use x="1028.222656" xlink:href="#ArialMT-32"/>
     <use x="1056.005859" xlink:href="#ArialMT-97"/>
     <use x="1111.621094" xlink:href="#ArialMT-110"/>
     <use x="1167.236328" xlink:href="#ArialMT-100"/>
     <use x="1222.851562" xlink:href="#ArialMT-32"/>
     <use x="1250.634766" xlink:href="#ArialMT-112"/>
     <use x="1306.25" xlink:href="#ArialMT-114"/>
     <use x="1339.550781" xlink:href="#ArialMT-105"/>
     <use x="1361.767578" xlink:href="#ArialMT-111"/>
     <use x="1417.382812" xlink:href="#ArialMT-114"/>
     <use x="1450.683594" xlink:href="#ArialMT-32"/>
     <use x="1478.466797" xlink:href="#ArialMT-100"/>
     <use x="1534.082031" xlink:href="#ArialMT-97"/>
     <use x="1589.697266" xlink:href="#ArialMT-116"/>
     <use x="1617.480469" xlink:href="#ArialMT-97"/>
     <use x="1673.095703" xlink:href="#ArialMT-46"/>
    </g>
   </g>
   <g id="legend_1">
    <g id="patch_7">
     <path d="M 340.410469 90.03875 
L 406.710469 90.03875 
Q 408.710469 90.03875 408.710469 88.03875 
L 408.710469 28.935625 
Q 408.710469 26.935625 406.710469 26.935625 
L 340.410469 26.935625 
Q 338.410469 26.935625 338.410469 28.935625 
L 338.410469 88.03875 
Q 338.410469 90.03875 340.410469 90.03875 
z
" style="fill:#eaeaf2;opacity:0.8;stroke:#cccccc;stroke-linejoin:miter;"/>
    </g>
    <g id="line2d_18">
     <path d="M 342.410469 34.593437 
L 362.410469 34.593437 
" style="fill:none;stroke:#0000ff;stroke-dasharray:5.55,2.4;stroke-dashoffset:0;stroke-width:1.5;"/>
    </g>
    <g id="line2d_19"/>
    <g id="text_18">
     <!-- $sin(x)$ -->
     <g style="fill:#262626;" transform="translate(370.410469 38.093437)scale(0.1 -0.1)">
      <defs>
       <path d="M 50 53.078125 
L 48.296875 44.578125 
Q 44.734375 46.53125 40.765625 47.5 
Q 36.8125 48.484375 32.625 48.484375 
Q 25.53125 48.484375 21.453125 46.0625 
Q 17.390625 43.65625 17.390625 39.5 
Q 17.390625 34.671875 26.859375 32.078125 
Q 27.59375 31.890625 27.9375 31.78125 
L 30.8125 30.90625 
Q 39.796875 28.421875 42.796875 25.6875 
Q 45.796875 22.953125 45.796875 18.21875 
Q 45.796875 9.515625 38.890625 4.046875 
Q 31.984375 -1.421875 20.796875 -1.421875 
Q 16.453125 -1.421875 11.671875 -0.578125 
Q 6.890625 0.25 1.125 2 
L 2.875 11.28125 
Q 7.8125 8.734375 12.59375 7.421875 
Q 17.390625 6.109375 21.78125 6.109375 
Q 28.375 6.109375 32.5 8.9375 
Q 36.625 11.765625 36.625 16.109375 
Q 36.625 20.796875 25.78125 23.6875 
L 24.859375 23.921875 
L 21.78125 24.703125 
Q 14.9375 26.515625 11.765625 29.46875 
Q 8.59375 32.421875 8.59375 37.015625 
Q 8.59375 45.75 15.15625 50.875 
Q 21.734375 56 33.015625 56 
Q 37.453125 56 41.671875 55.265625 
Q 45.90625 54.546875 50 53.078125 
z
" id="DejaVuSans-Oblique-115"/>
       <path d="M 18.3125 75.984375 
L 27.296875 75.984375 
L 25.09375 64.59375 
L 16.109375 64.59375 
z
M 14.203125 54.6875 
L 23.1875 54.6875 
L 12.5 0 
L 3.515625 0 
z
" id="DejaVuSans-Oblique-105"/>
       <path d="M 55.71875 33.015625 
L 49.3125 0 
L 40.28125 0 
L 46.6875 32.671875 
Q 47.125 34.96875 47.359375 36.71875 
Q 47.609375 38.484375 47.609375 39.5 
Q 47.609375 43.609375 45.015625 45.890625 
Q 42.4375 48.1875 37.796875 48.1875 
Q 30.5625 48.1875 25.34375 43.375 
Q 20.125 38.578125 18.5 30.328125 
L 12.5 0 
L 3.515625 0 
L 14.109375 54.6875 
L 23.09375 54.6875 
L 21.296875 46.09375 
Q 25.046875 50.828125 30.3125 53.40625 
Q 35.59375 56 41.40625 56 
Q 48.640625 56 52.609375 52.09375 
Q 56.59375 48.1875 56.59375 41.109375 
Q 56.59375 39.359375 56.375 37.359375 
Q 56.15625 35.359375 55.71875 33.015625 
z
" id="DejaVuSans-Oblique-110"/>
       <path d="M 31 75.875 
Q 24.46875 64.65625 21.28125 53.65625 
Q 18.109375 42.671875 18.109375 31.390625 
Q 18.109375 20.125 21.3125 9.0625 
Q 24.515625 -2 31 -13.1875 
L 23.1875 -13.1875 
Q 15.875 -1.703125 12.234375 9.375 
Q 8.59375 20.453125 8.59375 31.390625 
Q 8.59375 42.28125 12.203125 53.3125 
Q 15.828125 64.359375 23.1875 75.875 
z
" id="DejaVuSans-40"/>
       <path d="M 8.015625 75.875 
L 15.828125 75.875 
Q 23.140625 64.359375 26.78125 53.3125 
Q 30.421875 42.28125 30.421875 31.390625 
Q 30.421875 20.453125 26.78125 9.375 
Q 23.140625 -1.703125 15.828125 -13.1875 
L 8.015625 -13.1875 
Q 14.5 -2 17.703125 9.0625 
Q 20.90625 20.125 20.90625 31.390625 
Q 20.90625 42.671875 17.703125 53.65625 
Q 14.5 64.65625 8.015625 75.875 
z
" id="DejaVuSans-41"/>
      </defs>
      <use transform="translate(0 0.015625)" xlink:href="#DejaVuSans-Oblique-115"/>
      <use transform="translate(52.099609 0.015625)" xlink:href="#DejaVuSans-Oblique-105"/>
      <use transform="translate(79.882812 0.015625)" xlink:href="#DejaVuSans-Oblique-110"/>
      <use transform="translate(143.261719 0.015625)" xlink:href="#DejaVuSans-40"/>
      <use transform="translate(182.275391 0.015625)" xlink:href="#DejaVuSans-Oblique-120"/>
      <use transform="translate(241.455078 0.015625)" xlink:href="#DejaVuSans-41"/>
     </g>
    </g>
    <g id="line2d_20">
     <path d="M 342.410469 48.73875 
L 362.410469 48.73875 
" style="fill:none;stroke:#ff0000;stroke-linecap:round;stroke-width:2;"/>
    </g>
    <g id="line2d_21"/>
    <g id="text_19">
     <!-- $\mu_{2|1}$ -->
     <g style="fill:#262626;" transform="translate(370.410469 52.23875)scale(0.1 -0.1)">
      <defs>
       <path d="M -1.3125 -20.796875 
L 13.375 54.6875 
L 22.40625 54.6875 
L 15.765625 20.65625 
Q 15.578125 19.625 15.421875 18.359375 
Q 15.28125 17.09375 15.28125 15.828125 
Q 15.28125 11.28125 18.140625 8.828125 
Q 21 6.390625 26.3125 6.390625 
Q 33.546875 6.390625 37.984375 10.484375 
Q 42.4375 14.59375 44 22.796875 
L 50.203125 54.6875 
L 59.1875 54.6875 
L 51.03125 12.640625 
Q 50.828125 11.71875 50.75 11.03125 
Q 50.6875 10.359375 50.6875 9.8125 
Q 50.6875 8.296875 51.296875 7.59375 
Q 51.90625 6.890625 53.21875 6.890625 
Q 53.71875 6.890625 54.5625 7.125 
Q 55.421875 7.375 56.984375 8.015625 
L 55.609375 0.78125 
Q 53.46875 -0.296875 51.515625 -0.859375 
Q 49.5625 -1.421875 47.703125 -1.421875 
Q 44.484375 -1.421875 42.65625 0.625 
Q 40.828125 2.6875 40.828125 6.296875 
Q 38.09375 2.390625 34.296875 0.484375 
Q 30.515625 -1.421875 25.390625 -1.421875 
Q 20.84375 -1.421875 17.453125 0.671875 
Q 14.0625 2.78125 12.984375 6.203125 
L 7.71875 -20.796875 
z
" id="DejaVuSans-Oblique-956"/>
       <path d="M 19.1875 8.296875 
L 53.609375 8.296875 
L 53.609375 0 
L 7.328125 0 
L 7.328125 8.296875 
Q 12.9375 14.109375 22.625 23.890625 
Q 32.328125 33.6875 34.8125 36.53125 
Q 39.546875 41.84375 41.421875 45.53125 
Q 43.3125 49.21875 43.3125 52.78125 
Q 43.3125 58.59375 39.234375 62.25 
Q 35.15625 65.921875 28.609375 65.921875 
Q 23.96875 65.921875 18.8125 64.3125 
Q 13.671875 62.703125 7.8125 59.421875 
L 7.8125 69.390625 
Q 13.765625 71.78125 18.9375 73 
Q 24.125 74.21875 28.421875 74.21875 
Q 39.75 74.21875 46.484375 68.546875 
Q 53.21875 62.890625 53.21875 53.421875 
Q 53.21875 48.921875 51.53125 44.890625 
Q 49.859375 40.875 45.40625 35.40625 
Q 44.1875 33.984375 37.640625 27.21875 
Q 31.109375 20.453125 19.1875 8.296875 
z
" id="DejaVuSans-50"/>
       <path d="M 21 76.421875 
L 21 -23.578125 
L 12.703125 -23.578125 
L 12.703125 76.421875 
z
" id="DejaVuSans-124"/>
       <path d="M 12.40625 8.296875 
L 28.515625 8.296875 
L 28.515625 63.921875 
L 10.984375 60.40625 
L 10.984375 69.390625 
L 28.421875 72.90625 
L 38.28125 72.90625 
L 38.28125 8.296875 
L 54.390625 8.296875 
L 54.390625 0 
L 12.40625 0 
z
" id="DejaVuSans-49"/>
      </defs>
      <use transform="translate(0 0.3125)" xlink:href="#DejaVuSans-Oblique-956"/>
      <use transform="translate(63.623047 -16.09375)scale(0.7)" xlink:href="#DejaVuSans-50"/>
      <use transform="translate(108.15918 -16.09375)scale(0.7)" xlink:href="#DejaVuSans-124"/>
      <use transform="translate(131.743164 -16.09375)scale(0.7)" xlink:href="#DejaVuSans-49"/>
     </g>
    </g>
    <g id="line2d_22"/>
    <g id="line2d_23">
     <g>
      <use style="stroke:#000000;" x="352.410469" xlink:href="#mdc6f7bfb31" y="64.63875"/>
     </g>
    </g>
    <g id="text_20">
     <!-- $(x_1, y_1)$ -->
     <g style="fill:#262626;" transform="translate(370.410469 68.13875)scale(0.1 -0.1)">
      <defs>
       <path d="M 11.71875 12.40625 
L 22.015625 12.40625 
L 22.015625 4 
L 14.015625 -11.625 
L 7.71875 -11.625 
L 11.71875 4 
z
" id="DejaVuSans-44"/>
      </defs>
      <use transform="translate(0 0.125)" xlink:href="#DejaVuSans-40"/>
      <use transform="translate(39.013672 0.125)" xlink:href="#DejaVuSans-Oblique-120"/>
      <use transform="translate(98.193359 -16.28125)scale(0.7)" xlink:href="#DejaVuSans-49"/>
      <use transform="translate(145.463867 0.125)" xlink:href="#DejaVuSans-44"/>
      <use transform="translate(196.733398 0.125)" xlink:href="#DejaVuSans-Oblique-121"/>
      <use transform="translate(255.913086 -16.28125)scale(0.7)" xlink:href="#DejaVuSans-49"/>
      <use transform="translate(303.183594 0.125)" xlink:href="#DejaVuSans-41"/>
     </g>
    </g>
    <g id="patch_8">
     <path d="M 342.410469 82.73875 
L 362.410469 82.73875 
L 362.410469 75.73875 
L 342.410469 75.73875 
z
" style="fill:#ff0000;opacity:0.15;stroke:#ff0000;stroke-linejoin:miter;"/>
    </g>
    <g id="text_21">
     <!-- $2 \sigma_{2|1}$ -->
     <g style="fill:#262626;" transform="translate(370.410469 82.73875)scale(0.1 -0.1)">
      <defs>
       <path d="M 34.671875 47.5625 
Q 27.25 47.5625 22.21875 42.1875 
Q 16.890625 36.578125 15.140625 27.296875 
Q 13.1875 17.484375 16.3125 11.8125 
Q 19.390625 6.203125 26.65625 6.203125 
Q 33.84375 6.203125 39.109375 11.859375 
Q 44.4375 17.53125 46.34375 27.296875 
Q 48.046875 36.234375 45.015625 42.1875 
Q 42.1875 47.5625 34.671875 47.5625 
z
M 36.078125 54.734375 
L 65.921875 54.6875 
L 64.15625 45.703125 
L 54.109375 45.703125 
Q 57.90625 38.09375 55.859375 27.296875 
Q 53.21875 13.875 45.0625 6.25 
Q 36.859375 -1.421875 25.140625 -1.421875 
Q 13.375 -1.421875 8.203125 6.25 
Q 3.03125 13.875 5.671875 27.296875 
Q 8.25 40.765625 16.40625 48.390625 
Q 23.1875 54.734375 36.078125 54.734375 
z
" id="DejaVuSans-Oblique-963"/>
      </defs>
      <use transform="translate(0 0.78125)" xlink:href="#DejaVuSans-50"/>
      <use transform="translate(63.623047 0.78125)" xlink:href="#DejaVuSans-Oblique-963"/>
      <use transform="translate(127.001953 -15.625)scale(0.7)" xlink:href="#DejaVuSans-50"/>
      <use transform="translate(171.538086 -15.625)scale(0.7)" xlink:href="#DejaVuSans-124"/>
      <use transform="translate(195.12207 -15.625)scale(0.7)" xlink:href="#DejaVuSans-49"/>
     </g>
    </g>
   </g>
  </g>
  <g id="axes_2">
   <g id="patch_9">
    <path d="M 41.490469 385.039375 
L 413.710469 385.039375 
L 413.710469 232.535625 
L 41.490469 232.535625 
z
" style="fill:#eaeaf2;"/>
   </g>
   <g id="matplotlib.axis_3">
    <g id="xtick_8">
     <g id="line2d_24">
      <path clip-path="url(#p64fe98a3cc)" d="M 41.490469 385.039375 
L 41.490469 232.535625 
" style="fill:none;stroke:#ffffff;stroke-linecap:round;stroke-width:0.8;"/>
     </g>
     <g id="text_22">
      <!-- −6 -->
      <g style="fill:#262626;" transform="translate(35.789688 399.197187)scale(0.1 -0.1)">
       <use xlink:href="#ArialMT-8722"/>
       <use x="58.398438" xlink:href="#ArialMT-54"/>
      </g>
     </g>
    </g>
    <g id="xtick_9">
     <g id="line2d_25">
      <path clip-path="url(#p64fe98a3cc)" d="M 103.527135 385.039375 
L 103.527135 232.535625 
" style="fill:none;stroke:#ffffff;stroke-linecap:round;stroke-width:0.8;"/>
     </g>
     <g id="text_23">
      <!-- −4 -->
      <g style="fill:#262626;" transform="translate(97.826354 399.197187)scale(0.1 -0.1)">
       <use xlink:href="#ArialMT-8722"/>
       <use x="58.398438" xlink:href="#ArialMT-52"/>
      </g>
     </g>
    </g>
    <g id="xtick_10">
     <g id="line2d_26">
      <path clip-path="url(#p64fe98a3cc)" d="M 165.563802 385.039375 
L 165.563802 232.535625 
" style="fill:none;stroke:#ffffff;stroke-linecap:round;stroke-width:0.8;"/>
     </g>
     <g id="text_24">
      <!-- −2 -->
      <g style="fill:#262626;" transform="translate(159.863021 399.197187)scale(0.1 -0.1)">
       <use xlink:href="#ArialMT-8722"/>
       <use x="58.398438" xlink:href="#ArialMT-50"/>
      </g>
     </g>
    </g>
    <g id="xtick_11">
     <g id="line2d_27">
      <path clip-path="url(#p64fe98a3cc)" d="M 227.600469 385.039375 
L 227.600469 232.535625 
" style="fill:none;stroke:#ffffff;stroke-linecap:round;stroke-width:0.8;"/>
     </g>
     <g id="text_25">
      <!-- 0 -->
      <g style="fill:#262626;" transform="translate(224.82 399.197187)scale(0.1 -0.1)">
       <use xlink:href="#ArialMT-48"/>
      </g>
     </g>
    </g>
    <g id="xtick_12">
     <g id="line2d_28">
      <path clip-path="url(#p64fe98a3cc)" d="M 289.637135 385.039375 
L 289.637135 232.535625 
" style="fill:none;stroke:#ffffff;stroke-linecap:round;stroke-width:0.8;"/>
     </g>
     <g id="text_26">
      <!-- 2 -->
      <g style="fill:#262626;" transform="translate(286.856667 399.197187)scale(0.1 -0.1)">
       <use xlink:href="#ArialMT-50"/>
      </g>
     </g>
    </g>
    <g id="xtick_13">
     <g id="line2d_29">
      <path clip-path="url(#p64fe98a3cc)" d="M 351.673802 385.039375 
L 351.673802 232.535625 
" style="fill:none;stroke:#ffffff;stroke-linecap:round;stroke-width:0.8;"/>
     </g>
     <g id="text_27">
      <!-- 4 -->
      <g style="fill:#262626;" transform="translate(348.893333 399.197187)scale(0.1 -0.1)">
       <use xlink:href="#ArialMT-52"/>
      </g>
     </g>
    </g>
    <g id="xtick_14">
     <g id="line2d_30">
      <path clip-path="url(#p64fe98a3cc)" d="M 413.710469 385.039375 
L 413.710469 232.535625 
" style="fill:none;stroke:#ffffff;stroke-linecap:round;stroke-width:0.8;"/>
     </g>
     <g id="text_28">
      <!-- 6 -->
      <g style="fill:#262626;" transform="translate(410.93 399.197187)scale(0.1 -0.1)">
       <use xlink:href="#ArialMT-54"/>
      </g>
     </g>
    </g>
    <g id="text_29">
     <!-- $x$ -->
     <g style="fill:#262626;" transform="translate(223.700469 414.489844)scale(0.13 -0.13)">
      <use transform="translate(0 0.3125)" xlink:href="#DejaVuSans-Oblique-120"/>
     </g>
    </g>
   </g>
   <g id="matplotlib.axis_4">
    <g id="ytick_8">
     <g id="line2d_31">
      <path clip-path="url(#p64fe98a3cc)" d="M 41.490469 370.81147 
L 413.710469 370.81147 
" style="fill:none;stroke:#ffffff;stroke-linecap:round;stroke-width:0.8;"/>
     </g>
     <g id="text_30">
      <!-- −2 -->
      <g style="fill:#262626;" transform="translate(23.088906 374.390376)scale(0.1 -0.1)">
       <use xlink:href="#ArialMT-8722"/>
       <use x="58.398438" xlink:href="#ArialMT-50"/>
      </g>
     </g>
    </g>
    <g id="ytick_9">
     <g id="line2d_32">
      <path clip-path="url(#p64fe98a3cc)" d="M 41.490469 329.78047 
L 413.710469 329.78047 
" style="fill:none;stroke:#ffffff;stroke-linecap:round;stroke-width:0.8;"/>
     </g>
     <g id="text_31">
      <!-- −1 -->
      <g style="fill:#262626;" transform="translate(23.088906 333.359376)scale(0.1 -0.1)">
       <use xlink:href="#ArialMT-8722"/>
       <use x="58.398438" xlink:href="#ArialMT-49"/>
      </g>
     </g>
    </g>
    <g id="ytick_10">
     <g id="line2d_33">
      <path clip-path="url(#p64fe98a3cc)" d="M 41.490469 288.749469 
L 413.710469 288.749469 
" style="fill:none;stroke:#ffffff;stroke-linecap:round;stroke-width:0.8;"/>
     </g>
     <g id="text_32">
      <!-- 0 -->
      <g style="fill:#262626;" transform="translate(28.929531 292.328376)scale(0.1 -0.1)">
       <use xlink:href="#ArialMT-48"/>
      </g>
     </g>
    </g>
    <g id="ytick_11">
     <g id="line2d_34">
      <path clip-path="url(#p64fe98a3cc)" d="M 41.490469 247.718469 
L 413.710469 247.718469 
" style="fill:none;stroke:#ffffff;stroke-linecap:round;stroke-width:0.8;"/>
     </g>
     <g id="text_33">
      <!-- 1 -->
      <g style="fill:#262626;" transform="translate(28.929531 251.297376)scale(0.1 -0.1)">
       <use xlink:href="#ArialMT-49"/>
      </g>
     </g>
    </g>
    <g id="text_34">
     <!-- $y$ -->
     <g style="fill:#262626;" transform="translate(16.358906 312.6875)rotate(-90)scale(0.13 -0.13)">
      <use transform="translate(0 0.3125)" xlink:href="#DejaVuSans-Oblique-121"/>
     </g>
    </g>
   </g>
   <g id="line2d_35">
    <path clip-path="url(#p64fe98a3cc)" d="M 41.490469 315.313061 
L 46.520469 322.391517 
L 51.550469 328.681921 
L 56.580469 333.429524 
L 61.610469 335.960952 
L 66.640469 335.775181 
L 71.670469 332.624409 
L 76.700469 326.579817 
L 81.730469 318.070262 
L 86.760469 307.876607 
L 91.790469 297.065636 
L 96.820469 286.858539 
L 101.850469 278.447455 
L 106.880469 272.794006 
L 111.910469 270.45723 
L 116.940469 271.498245 
L 121.970469 275.492114 
L 127.000469 281.64764 
L 132.030469 289.002599 
L 137.060469 296.637395 
L 142.090469 303.845174 
L 147.120469 310.212874 
L 152.150469 315.601405 
L 157.180469 320.049249 
L 162.210469 323.648453 
L 167.240469 326.445759 
L 172.270469 328.401945 
L 177.300469 329.413235 
L 182.330469 329.36852 
L 187.360469 328.206664 
L 192.390469 325.943497 
L 197.420469 322.662495 
L 202.450469 318.483226 
L 207.480469 313.532078 
L 212.510469 307.933939 
L 217.540469 301.824174 
L 222.570469 295.365552 
L 227.600469 288.748988 
L 232.630469 282.169683 
L 237.660469 275.789658 
L 242.690469 269.712236 
L 247.720469 263.994569 
L 252.750469 258.705216 
L 257.780469 254.007146 
L 262.810469 250.224303 
L 267.840469 247.847715 
L 272.870469 247.456541 
L 277.900469 249.564633 
L 282.930469 254.438006 
L 287.960469 261.947442 
L 292.990469 271.514645 
L 298.020469 282.18045 
L 303.050469 292.781719 
L 308.080469 302.185329 
L 313.110469 309.50877 
L 318.140469 314.263974 
L 323.170469 316.390909 
L 328.200469 316.186799 
L 333.230469 314.169575 
L 338.260469 310.927774 
L 343.290469 307.00097 
L 348.320469 302.811997 
L 353.350469 298.647631 
L 358.380469 294.66966 
L 363.410469 290.93734 
L 368.440469 287.431329 
L 373.470469 284.079591 
L 378.500469 280.788749 
L 383.530469 277.478969 
L 388.560469 274.110727 
L 393.590469 270.686772 
L 398.620469 267.218911 
L 403.650469 263.666521 
L 408.680469 259.87447 
L 413.710469 255.549746 
" style="fill:none;stroke:#1f77b4;stroke-linecap:round;stroke-width:1.5;"/>
   </g>
   <g id="line2d_36">
    <path clip-path="url(#p64fe98a3cc)" d="M 41.490469 378.107386 
L 46.520469 374.094143 
L 51.550469 368.661217 
L 56.580469 361.17435 
L 61.610469 351.307567 
L 66.640469 339.197906 
L 71.670469 325.467977 
L 76.700469 311.115244 
L 81.730469 297.308977 
L 86.760469 285.160998 
L 91.790469 275.536582 
L 96.820469 268.948668 
L 101.850469 265.543391 
L 106.880469 265.154362 
L 111.910469 267.389279 
L 116.940469 271.717573 
L 121.970469 277.543861 
L 127.000469 284.267394 
L 132.030469 291.333713 
L 137.060469 298.280261 
L 142.090469 304.769893 
L 147.120469 310.601357 
L 152.150469 315.690176 
L 157.180469 320.023908 
L 162.210469 323.606959 
L 167.240469 326.415358 
L 172.270469 328.378227 
L 177.300469 329.39084 
L 182.330469 329.350621 
L 187.360469 328.197981 
L 192.390469 325.942335 
L 197.420469 322.66185 
L 202.450469 318.479235 
L 207.480469 313.528651 
L 212.510469 307.935394 
L 217.540469 301.823344 
L 222.570469 295.34945 
L 227.600469 288.747637 
L 232.630469 282.352954 
L 237.660469 276.583925 
L 242.690469 271.878829 
L 247.720469 268.605365 
L 252.750469 266.978379 
L 257.780469 267.016972 
L 262.810469 268.554235 
L 267.840469 271.288804 
L 272.870469 274.852049 
L 277.900469 278.86553 
L 282.930469 282.977581 
L 287.960469 286.884498 
L 292.990469 290.349435 
L 298.020469 293.226371 
L 303.050469 295.483492 
L 308.080469 297.210423 
L 313.110469 298.595815 
L 318.140469 299.875693 
L 323.170469 301.270308 
L 328.200469 302.93721 
L 333.230469 304.962572 
L 338.260469 307.393315 
L 343.290469 310.288399 
L 348.320469 313.752328 
L 353.350469 317.918006 
L 358.380469 322.870088 
L 363.410469 328.534419 
L 368.440469 334.585681 
L 373.470469 340.428209 
L 378.500469 345.278471 
L 383.530469 348.332904 
L 388.560469 348.963815 
L 393.590469 346.871492 
L 398.620469 342.141474 
L 403.650469 335.200824 
L 408.680469 326.711621 
L 413.710469 317.4588 
" style="fill:none;stroke:#ff7f0e;stroke-linecap:round;stroke-width:1.5;"/>
   </g>
   <g id="line2d_37">
    <path clip-path="url(#p64fe98a3cc)" d="M 41.490469 256.839659 
L 46.520469 270.16912 
L 51.550469 283.525254 
L 56.580469 296.152359 
L 61.610469 307.083999 
L 66.640469 315.273642 
L 71.670469 319.810755 
L 76.700469 320.165656 
L 81.730469 316.386313 
L 86.760469 309.175215 
L 91.790469 299.805876 
L 96.820469 289.888644 
L 101.850469 281.047166 
L 106.880469 274.598714 
L 111.910469 271.329458 
L 116.940469 271.419717 
L 121.970469 274.519859 
L 127.000469 279.928863 
L 132.030469 286.803771 
L 137.060469 294.33598 
L 142.090469 301.858935 
L 147.120469 308.885634 
L 152.150469 315.096316 
L 157.180469 320.30278 
L 162.210469 324.409779 
L 167.240469 327.383348 
L 172.270469 329.227803 
L 177.300469 329.969436 
L 182.330469 329.644696 
L 187.360469 328.292364 
L 192.390469 325.951255 
L 197.420469 322.665587 
L 202.450469 318.497551 
L 207.480469 313.541597 
L 212.510469 307.930612 
L 217.540469 301.825602 
L 222.570469 295.388635 
L 227.600469 288.750535 
L 232.630469 281.994428 
L 237.660469 275.17211 
L 242.690469 268.358036 
L 247.720469 261.723786 
L 252.750469 255.601559 
L 257.780469 250.502353 
L 262.810469 247.066749 
L 267.840469 245.949416 
L 272.870469 247.662578 
L 277.900469 252.421072 
L 282.930469 260.036207 
L 287.960469 269.89504 
L 292.990469 281.039052 
L 298.020469 292.326267 
L 303.050469 302.634308 
L 308.080469 311.048536 
L 313.110469 316.986006 
L 318.140469 320.231526 
L 323.170469 320.894949 
L 328.200469 319.324258 
L 333.230469 316.015012 
L 338.260469 311.542145 
L 343.290469 306.515497 
L 348.320469 301.541202 
L 353.350469 297.167795 
L 358.380469 293.809758 
L 363.410469 291.662543 
L 368.440469 290.639151 
L 373.470469 290.359976 
L 378.500469 290.213642 
L 383.530469 289.482602 
L 388.560469 287.503968 
L 393.590469 283.822073 
L 398.620469 278.290723 
L 403.650469 271.09938 
L 408.680469 262.722 
L 413.710469 253.810736 
" style="fill:none;stroke:#2ca02c;stroke-linecap:round;stroke-width:1.5;"/>
   </g>
   <g id="line2d_38">
    <path clip-path="url(#p64fe98a3cc)" d="M 41.490469 327.34086 
L 46.520469 320.407306 
L 51.550469 313.642563 
L 56.580469 307.252825 
L 61.610469 301.379199 
L 66.640469 296.106263 
L 71.670469 291.460143 
L 76.700469 287.401055 
L 81.730469 283.827418 
L 86.760469 280.607132 
L 91.790469 277.637687 
L 96.820469 274.917104 
L 101.850469 272.594929 
L 106.880469 270.974758 
L 111.910469 270.457193 
L 116.940469 271.436189 
L 121.970469 274.180699 
L 127.000469 278.739333 
L 132.030469 284.897549 
L 137.060469 292.199635 
L 142.090469 300.028321 
L 147.120469 307.719982 
L 152.150469 314.683582 
L 157.180469 320.492651 
L 162.210469 324.926613 
L 167.240469 327.954916 
L 172.270469 329.675426 
L 177.300469 330.234411 
L 182.330469 329.75867 
L 187.360469 328.322489 
L 192.390469 325.953532 
L 197.420469 322.666341 
L 202.450469 318.500168 
L 207.480469 313.54283 
L 212.510469 307.930325 
L 217.540469 301.825665 
L 222.570469 295.388693 
L 227.600469 288.750479 
L 232.630469 282.00384 
L 237.660469 275.214347 
L 242.690469 268.449635 
L 247.720469 261.816925 
L 252.750469 255.495391 
L 257.780469 249.749908 
L 262.810469 244.918348 
L 267.840469 241.373239 
L 272.870469 239.467614 
L 277.900469 239.479335 
L 282.930469 241.566639 
L 287.960469 245.740798 
L 292.990469 251.854157 
L 298.020469 259.597781 
L 303.050469 268.505214 
L 308.080469 277.966121 
L 313.110469 287.260986 
L 318.140469 295.629313 
L 323.170469 302.375156 
L 328.200469 306.99609 
L 333.230469 309.302318 
L 338.260469 309.48186 
L 343.290469 308.075213 
L 348.320469 305.849924 
L 353.350469 303.603881 
L 358.380469 301.9588 
L 363.410469 301.215741 
L 368.440469 301.324727 
L 373.470469 301.977047 
L 378.500469 302.780605 
L 383.530469 303.447151 
L 388.560469 303.91931 
L 393.590469 304.393757 
L 398.620469 305.24061 
L 403.650469 306.857769 
L 408.680469 309.517824 
L 413.710469 313.259422 
" style="fill:none;stroke:#d62728;stroke-linecap:round;stroke-width:1.5;"/>
   </g>
   <g id="line2d_39">
    <path clip-path="url(#p64fe98a3cc)" d="M 41.490469 364.749407 
L 46.520469 361.288384 
L 51.550469 354.646957 
L 56.580469 345.001521 
L 61.610469 332.868779 
L 66.640469 319.042447 
L 71.670469 304.504628 
L 76.700469 290.32965 
L 81.730469 277.585396 
L 86.760469 267.229544 
L 91.790469 260.000736 
L 96.820469 256.31615 
L 101.850469 256.199976 
L 106.880469 259.27201 
L 111.910469 264.815683 
L 116.940469 271.921167 
L 121.970469 279.670622 
L 127.000469 287.312831 
L 132.030469 294.374414 
L 137.060469 300.676989 
L 142.090469 306.265007 
L 147.120469 311.282229 
L 152.150469 315.849169 
L 157.180469 319.985822 
L 162.210469 323.597513 
L 167.240469 326.513338 
L 172.270469 328.547465 
L 177.300469 329.553473 
L 182.330469 329.452682 
L 187.360469 328.235579 
L 192.390469 325.946212 
L 197.420469 322.663579 
L 202.450469 318.488014 
L 207.480469 313.534962 
L 212.510469 307.933059 
L 217.540469 301.824431 
L 222.570469 295.367867 
L 227.600469 288.748928 
L 232.630469 282.200519 
L 237.660469 276.032645 
L 242.690469 270.660755 
L 247.720469 266.613632 
L 252.750469 264.498367 
L 257.780469 264.907613 
L 262.810469 268.273549 
L 267.840469 274.70048 
L 272.870469 283.830928 
L 277.900469 294.805209 
L 282.930469 306.353085 
L 287.960469 317.012757 
L 292.990469 325.42455 
L 298.020469 330.616444 
L 303.050469 332.200486 
L 308.080469 330.431157 
L 313.110469 326.122453 
L 318.140469 320.459124 
L 323.170469 314.756047 
L 328.200469 310.218532 
L 333.230469 307.744712 
L 338.260469 307.798222 
L 343.290469 310.367933 
L 348.320469 315.018664 
L 353.350469 321.019654 
L 358.380469 327.518863 
L 363.410469 333.718554 
L 368.440469 339.008544 
L 373.470469 343.029416 
L 378.500469 345.662351 
L 383.530469 346.964676 
L 388.560469 347.082179 
L 393.590469 346.168584 
L 398.620469 344.332482 
L 403.650469 341.619224 
L 408.680469 338.023964 
L 413.710469 333.524753 
" style="fill:none;stroke:#9467bd;stroke-linecap:round;stroke-width:1.5;"/>
   </g>
   <g id="patch_10">
    <path d="M 41.490469 385.039375 
L 41.490469 232.535625 
" style="fill:none;stroke:#ffffff;stroke-linecap:square;stroke-linejoin:miter;stroke-width:0.8;"/>
   </g>
   <g id="patch_11">
    <path d="M 413.710469 385.039375 
L 413.710469 232.535625 
" style="fill:none;stroke:#ffffff;stroke-linecap:square;stroke-linejoin:miter;stroke-width:0.8;"/>
   </g>
   <g id="patch_12">
    <path d="M 41.490469 385.039375 
L 413.710469 385.039375 
" style="fill:none;stroke:#ffffff;stroke-linecap:square;stroke-linejoin:miter;stroke-width:0.8;"/>
   </g>
   <g id="patch_13">
    <path d="M 41.490469 232.535625 
L 413.710469 232.535625 
" style="fill:none;stroke:#ffffff;stroke-linecap:square;stroke-linejoin:miter;stroke-width:0.8;"/>
   </g>
   <g id="text_35">
    <!-- 5 different function realizations from posterior -->
    <g style="fill:#262626;" transform="translate(107.655781 226.535625)scale(0.12 -0.12)">
     <defs>
      <path d="M 4.15625 18.75 
L 13.375 19.53125 
Q 14.40625 12.796875 18.140625 9.390625 
Q 21.875 6 27.15625 6 
Q 33.5 6 37.890625 10.78125 
Q 42.28125 15.578125 42.28125 23.484375 
Q 42.28125 31 38.0625 35.34375 
Q 33.84375 39.703125 27 39.703125 
Q 22.75 39.703125 19.328125 37.765625 
Q 15.921875 35.84375 13.96875 32.765625 
L 5.71875 33.84375 
L 12.640625 70.609375 
L 48.25 70.609375 
L 48.25 62.203125 
L 19.671875 62.203125 
L 15.828125 42.96875 
Q 22.265625 47.46875 29.34375 47.46875 
Q 38.71875 47.46875 45.15625 40.96875 
Q 51.609375 34.46875 51.609375 24.265625 
Q 51.609375 14.546875 45.953125 7.46875 
Q 39.0625 -1.21875 27.15625 -1.21875 
Q 17.390625 -1.21875 11.203125 4.25 
Q 5.03125 9.71875 4.15625 18.75 
z
" id="ArialMT-53"/>
      <path d="M 40.4375 19 
L 49.078125 17.875 
Q 47.65625 8.9375 41.8125 3.875 
Q 35.984375 -1.171875 27.484375 -1.171875 
Q 16.84375 -1.171875 10.375 5.78125 
Q 3.90625 12.75 3.90625 25.734375 
Q 3.90625 34.125 6.6875 40.421875 
Q 9.46875 46.734375 15.15625 49.875 
Q 20.84375 53.03125 27.546875 53.03125 
Q 35.984375 53.03125 41.359375 48.75 
Q 46.734375 44.484375 48.25 36.625 
L 39.703125 35.296875 
Q 38.484375 40.53125 35.375 43.15625 
Q 32.28125 45.796875 27.875 45.796875 
Q 21.234375 45.796875 17.078125 41.03125 
Q 12.9375 36.28125 12.9375 25.984375 
Q 12.9375 15.53125 16.9375 10.796875 
Q 20.953125 6.0625 27.390625 6.0625 
Q 32.5625 6.0625 36.03125 9.234375 
Q 39.5 12.40625 40.4375 19 
z
" id="ArialMT-99"/>
      <path d="M 6.390625 0 
L 6.390625 71.578125 
L 15.1875 71.578125 
L 15.1875 0 
z
" id="ArialMT-108"/>
      <path d="M 1.953125 0 
L 1.953125 7.125 
L 34.96875 45.015625 
Q 29.34375 44.734375 25.046875 44.734375 
L 3.90625 44.734375 
L 3.90625 51.859375 
L 46.296875 51.859375 
L 46.296875 46.046875 
L 18.21875 13.140625 
L 12.796875 7.125 
Q 18.703125 7.5625 23.875 7.5625 
L 47.859375 7.5625 
L 47.859375 0 
z
" id="ArialMT-122"/>
      <path d="M 6.59375 0 
L 6.59375 51.859375 
L 14.453125 51.859375 
L 14.453125 44.578125 
Q 16.890625 48.390625 20.9375 50.703125 
Q 25 53.03125 30.171875 53.03125 
Q 35.9375 53.03125 39.625 50.640625 
Q 43.3125 48.25 44.828125 43.953125 
Q 50.984375 53.03125 60.84375 53.03125 
Q 68.5625 53.03125 72.703125 48.75 
Q 76.859375 44.484375 76.859375 35.59375 
L 76.859375 0 
L 68.109375 0 
L 68.109375 32.671875 
Q 68.109375 37.9375 67.25 40.25 
Q 66.40625 42.578125 64.15625 43.984375 
Q 61.921875 45.40625 58.890625 45.40625 
Q 53.421875 45.40625 49.796875 41.765625 
Q 46.1875 38.140625 46.1875 30.125 
L 46.1875 0 
L 37.40625 0 
L 37.40625 33.6875 
Q 37.40625 39.546875 35.25 42.46875 
Q 33.109375 45.40625 28.21875 45.40625 
Q 24.515625 45.40625 21.359375 43.453125 
Q 18.21875 41.5 16.796875 37.734375 
Q 15.375 33.984375 15.375 26.90625 
L 15.375 0 
z
" id="ArialMT-109"/>
     </defs>
     <use xlink:href="#ArialMT-53"/>
     <use x="55.615234" xlink:href="#ArialMT-32"/>
     <use x="83.398438" xlink:href="#ArialMT-100"/>
     <use x="139.013672" xlink:href="#ArialMT-105"/>
     <use x="161.230469" xlink:href="#ArialMT-102"/>
     <use x="187.263672" xlink:href="#ArialMT-102"/>
     <use x="215.046875" xlink:href="#ArialMT-101"/>
     <use x="270.662109" xlink:href="#ArialMT-114"/>
     <use x="303.962891" xlink:href="#ArialMT-101"/>
     <use x="359.578125" xlink:href="#ArialMT-110"/>
     <use x="415.193359" xlink:href="#ArialMT-116"/>
     <use x="442.976562" xlink:href="#ArialMT-32"/>
     <use x="470.759766" xlink:href="#ArialMT-102"/>
     <use x="498.542969" xlink:href="#ArialMT-117"/>
     <use x="554.158203" xlink:href="#ArialMT-110"/>
     <use x="609.773438" xlink:href="#ArialMT-99"/>
     <use x="659.773438" xlink:href="#ArialMT-116"/>
     <use x="687.556641" xlink:href="#ArialMT-105"/>
     <use x="709.773438" xlink:href="#ArialMT-111"/>
     <use x="765.388672" xlink:href="#ArialMT-110"/>
     <use x="821.003906" xlink:href="#ArialMT-32"/>
     <use x="848.787109" xlink:href="#ArialMT-114"/>
     <use x="882.087891" xlink:href="#ArialMT-101"/>
     <use x="937.703125" xlink:href="#ArialMT-97"/>
     <use x="993.318359" xlink:href="#ArialMT-108"/>
     <use x="1015.535156" xlink:href="#ArialMT-105"/>
     <use x="1037.751953" xlink:href="#ArialMT-122"/>
     <use x="1087.751953" xlink:href="#ArialMT-97"/>
     <use x="1143.367188" xlink:href="#ArialMT-116"/>
     <use x="1171.150391" xlink:href="#ArialMT-105"/>
     <use x="1193.367188" xlink:href="#ArialMT-111"/>
     <use x="1248.982422" xlink:href="#ArialMT-110"/>
     <use x="1304.597656" xlink:href="#ArialMT-115"/>
     <use x="1354.597656" xlink:href="#ArialMT-32"/>
     <use x="1382.380859" xlink:href="#ArialMT-102"/>
     <use x="1410.164062" xlink:href="#ArialMT-114"/>
     <use x="1443.464844" xlink:href="#ArialMT-111"/>
     <use x="1499.080078" xlink:href="#ArialMT-109"/>
     <use x="1582.380859" xlink:href="#ArialMT-32"/>
     <use x="1610.164062" xlink:href="#ArialMT-112"/>
     <use x="1665.779297" xlink:href="#ArialMT-111"/>
     <use x="1721.394531" xlink:href="#ArialMT-115"/>
     <use x="1771.394531" xlink:href="#ArialMT-116"/>
     <use x="1799.177734" xlink:href="#ArialMT-101"/>
     <use x="1854.792969" xlink:href="#ArialMT-114"/>
     <use x="1888.09375" xlink:href="#ArialMT-105"/>
     <use x="1910.310547" xlink:href="#ArialMT-111"/>
     <use x="1965.925781" xlink:href="#ArialMT-114"/>
    </g>
   </g>
  </g>
 </g>
 <defs>
  <clipPath id="p48a23ac912">
   <rect height="152.50375" width="372.22" x="41.490469" y="21.935625"/>
  </clipPath>
  <clipPath id="p64fe98a3cc">
   <rect height="152.50375" width="372.22" x="41.490469" y="232.535625"/>
  </clipPath>
 </defs>
</svg>