<?xml version="1.0" encoding="utf-8" standalone="no"?>
<!DOCTYPE svg PUBLIC "-//W3C//DTD SVG 1.1//EN"
  "http://www.w3.org/Graphics/SVG/1.1/DTD/svg11.dtd">
<!-- Created with matplotlib (https://matplotlib.org/) -->
<svg height="421.980688pt" version="1.1" viewBox="0 0 709.615625 421.980688" width="709.615625pt" xmlns="http://www.w3.org/2000/svg" xmlns:xlink="http://www.w3.org/1999/xlink">
 <metadata>
  <rdf:RDF xmlns:cc="http://creativecommons.org/ns#" xmlns:dc="http://purl.org/dc/elements/1.1/" xmlns:rdf="http://www.w3.org/1999/02/22-rdf-syntax-ns#">
   <cc:Work>
    <dc:type rdf:resource="http://purl.org/dc/dcmitype/StillImage"/>
    <dc:date>2023-01-19T18:05:36.434583</dc:date>
    <dc:format>image/svg+xml</dc:format>
    <dc:creator>
     <cc:Agent>
      <dc:title>Matplotlib v3.3.4, https://matplotlib.org/</dc:title>
     </cc:Agent>
    </dc:creator>
   </cc:Work>
  </rdf:RDF>
 </metadata>
 <defs>
  <style type="text/css">*{stroke-linecap:butt;stroke-linejoin:round;}</style>
 </defs>
 <g id="figure_1">
  <g id="patch_1">
   <path d="M 0 421.980688 
L 709.615625 421.980688 
L 709.615625 0 
L 0 0 
z
" style="fill:#ffffff;"/>
  </g>
  <g id="axes_1">
   <g id="patch_2">
    <path d="M 50.680625 382.285375 
L 695.465625 382.285375 
L 695.465625 34.657125 
L 50.680625 34.657125 
z
" style="fill:#eaeaf2;"/>
   </g>
   <g id="matplotlib.axis_1">
    <g id="xtick_1">
     <g id="line2d_1">
      <path clip-path="url(#pdd23e80cfc)" d="M 50.680625 382.285375 
L 50.680625 34.657125 
" style="fill:none;stroke:#ffffff;stroke-linecap:round;stroke-width:0.8;"/>
     </g>
     <g id="text_1">
      <!-- 0.0 -->
      <g style="fill:#262626;" transform="translate(43.730625 396.443188)scale(0.1 -0.1)">
       <defs>
        <path d="M 4.15625 35.296875 
Q 4.15625 48 6.765625 55.734375 
Q 9.375 63.484375 14.515625 67.671875 
Q 19.671875 71.875 27.484375 71.875 
Q 33.25 71.875 37.59375 69.546875 
Q 41.9375 67.234375 44.765625 62.859375 
Q 47.609375 58.5 49.21875 52.21875 
Q 50.828125 45.953125 50.828125 35.296875 
Q 50.828125 22.703125 48.234375 14.96875 
Q 45.65625 7.234375 40.5 3 
Q 35.359375 -1.21875 27.484375 -1.21875 
Q 17.140625 -1.21875 11.234375 6.203125 
Q 4.15625 15.140625 4.15625 35.296875 
z
M 13.1875 35.296875 
Q 13.1875 17.671875 17.3125 11.828125 
Q 21.4375 6 27.484375 6 
Q 33.546875 6 37.671875 11.859375 
Q 41.796875 17.71875 41.796875 35.296875 
Q 41.796875 52.984375 37.671875 58.78125 
Q 33.546875 64.59375 27.390625 64.59375 
Q 21.34375 64.59375 17.71875 59.46875 
Q 13.1875 52.9375 13.1875 35.296875 
z
" id="ArialMT-48"/>
        <path d="M 9.078125 0 
L 9.078125 10.015625 
L 19.09375 10.015625 
L 19.09375 0 
z
" id="ArialMT-46"/>
       </defs>
       <use xlink:href="#ArialMT-48"/>
       <use x="55.615234" xlink:href="#ArialMT-46"/>
       <use x="83.398438" xlink:href="#ArialMT-48"/>
      </g>
     </g>
    </g>
    <g id="xtick_2">
     <g id="line2d_2">
      <path clip-path="url(#pdd23e80cfc)" d="M 179.637625 382.285375 
L 179.637625 34.657125 
" style="fill:none;stroke:#ffffff;stroke-linecap:round;stroke-width:0.8;"/>
     </g>
     <g id="text_2">
      <!-- 0.2 -->
      <g style="fill:#262626;" transform="translate(172.687625 396.443188)scale(0.1 -0.1)">
       <defs>
        <path d="M 50.34375 8.453125 
L 50.34375 0 
L 3.03125 0 
Q 2.9375 3.171875 4.046875 6.109375 
Q 5.859375 10.9375 9.828125 15.625 
Q 13.8125 20.3125 21.34375 26.46875 
Q 33.015625 36.03125 37.109375 41.625 
Q 41.21875 47.21875 41.21875 52.203125 
Q 41.21875 57.421875 37.46875 61 
Q 33.734375 64.59375 27.734375 64.59375 
Q 21.390625 64.59375 17.578125 60.78125 
Q 13.765625 56.984375 13.71875 50.25 
L 4.6875 51.171875 
Q 5.609375 61.28125 11.65625 66.578125 
Q 17.71875 71.875 27.9375 71.875 
Q 38.234375 71.875 44.234375 66.15625 
Q 50.25 60.453125 50.25 52 
Q 50.25 47.703125 48.484375 43.546875 
Q 46.734375 39.40625 42.65625 34.8125 
Q 38.578125 30.21875 29.109375 22.21875 
Q 21.1875 15.578125 18.9375 13.203125 
Q 16.703125 10.84375 15.234375 8.453125 
z
" id="ArialMT-50"/>
       </defs>
       <use xlink:href="#ArialMT-48"/>
       <use x="55.615234" xlink:href="#ArialMT-46"/>
       <use x="83.398438" xlink:href="#ArialMT-50"/>
      </g>
     </g>
    </g>
    <g id="xtick_3">
     <g id="line2d_3">
      <path clip-path="url(#pdd23e80cfc)" d="M 308.594625 382.285375 
L 308.594625 34.657125 
" style="fill:none;stroke:#ffffff;stroke-linecap:round;stroke-width:0.8;"/>
     </g>
     <g id="text_3">
      <!-- 0.4 -->
      <g style="fill:#262626;" transform="translate(301.644625 396.443188)scale(0.1 -0.1)">
       <defs>
        <path d="M 32.328125 0 
L 32.328125 17.140625 
L 1.265625 17.140625 
L 1.265625 25.203125 
L 33.9375 71.578125 
L 41.109375 71.578125 
L 41.109375 25.203125 
L 50.78125 25.203125 
L 50.78125 17.140625 
L 41.109375 17.140625 
L 41.109375 0 
z
M 32.328125 25.203125 
L 32.328125 57.46875 
L 9.90625 25.203125 
z
" id="ArialMT-52"/>
       </defs>
       <use xlink:href="#ArialMT-48"/>
       <use x="55.615234" xlink:href="#ArialMT-46"/>
       <use x="83.398438" xlink:href="#ArialMT-52"/>
      </g>
     </g>
    </g>
    <g id="xtick_4">
     <g id="line2d_4">
      <path clip-path="url(#pdd23e80cfc)" d="M 437.551625 382.285375 
L 437.551625 34.657125 
" style="fill:none;stroke:#ffffff;stroke-linecap:round;stroke-width:0.8;"/>
     </g>
     <g id="text_4">
      <!-- 0.6 -->
      <g style="fill:#262626;" transform="translate(430.601625 396.443188)scale(0.1 -0.1)">
       <defs>
        <path d="M 49.75 54.046875 
L 41.015625 53.375 
Q 39.84375 58.546875 37.703125 60.890625 
Q 34.125 64.65625 28.90625 64.65625 
Q 24.703125 64.65625 21.53125 62.3125 
Q 17.390625 59.28125 14.984375 53.46875 
Q 12.59375 47.65625 12.5 36.921875 
Q 15.671875 41.75 20.265625 44.09375 
Q 24.859375 46.4375 29.890625 46.4375 
Q 38.671875 46.4375 44.84375 39.96875 
Q 51.03125 33.5 51.03125 23.25 
Q 51.03125 16.5 48.125 10.71875 
Q 45.21875 4.9375 40.140625 1.859375 
Q 35.0625 -1.21875 28.609375 -1.21875 
Q 17.625 -1.21875 10.6875 6.859375 
Q 3.765625 14.9375 3.765625 33.5 
Q 3.765625 54.25 11.421875 63.671875 
Q 18.109375 71.875 29.4375 71.875 
Q 37.890625 71.875 43.28125 67.140625 
Q 48.6875 62.40625 49.75 54.046875 
z
M 13.875 23.1875 
Q 13.875 18.65625 15.796875 14.5 
Q 17.71875 10.359375 21.1875 8.171875 
Q 24.65625 6 28.46875 6 
Q 34.03125 6 38.03125 10.484375 
Q 42.046875 14.984375 42.046875 22.703125 
Q 42.046875 30.125 38.078125 34.390625 
Q 34.125 38.671875 28.125 38.671875 
Q 22.171875 38.671875 18.015625 34.390625 
Q 13.875 30.125 13.875 23.1875 
z
" id="ArialMT-54"/>
       </defs>
       <use xlink:href="#ArialMT-48"/>
       <use x="55.615234" xlink:href="#ArialMT-46"/>
       <use x="83.398438" xlink:href="#ArialMT-54"/>
      </g>
     </g>
    </g>
    <g id="xtick_5">
     <g id="line2d_5">
      <path clip-path="url(#pdd23e80cfc)" d="M 566.508625 382.285375 
L 566.508625 34.657125 
" style="fill:none;stroke:#ffffff;stroke-linecap:round;stroke-width:0.8;"/>
     </g>
     <g id="text_5">
      <!-- 0.8 -->
      <g style="fill:#262626;" transform="translate(559.558625 396.443188)scale(0.1 -0.1)">
       <defs>
        <path d="M 17.671875 38.8125 
Q 12.203125 40.828125 9.5625 44.53125 
Q 6.9375 48.25 6.9375 53.421875 
Q 6.9375 61.234375 12.546875 66.546875 
Q 18.171875 71.875 27.484375 71.875 
Q 36.859375 71.875 42.578125 66.421875 
Q 48.296875 60.984375 48.296875 53.171875 
Q 48.296875 48.1875 45.671875 44.5 
Q 43.0625 40.828125 37.75 38.8125 
Q 44.34375 36.671875 47.78125 31.875 
Q 51.21875 27.09375 51.21875 20.453125 
Q 51.21875 11.28125 44.71875 5.03125 
Q 38.234375 -1.21875 27.640625 -1.21875 
Q 17.046875 -1.21875 10.546875 5.046875 
Q 4.046875 11.328125 4.046875 20.703125 
Q 4.046875 27.6875 7.59375 32.390625 
Q 11.140625 37.109375 17.671875 38.8125 
z
M 15.921875 53.71875 
Q 15.921875 48.640625 19.1875 45.40625 
Q 22.46875 42.1875 27.6875 42.1875 
Q 32.765625 42.1875 36.015625 45.375 
Q 39.265625 48.578125 39.265625 53.21875 
Q 39.265625 58.0625 35.90625 61.359375 
Q 32.5625 64.65625 27.59375 64.65625 
Q 22.5625 64.65625 19.234375 61.421875 
Q 15.921875 58.203125 15.921875 53.71875 
z
M 13.09375 20.65625 
Q 13.09375 16.890625 14.875 13.375 
Q 16.65625 9.859375 20.171875 7.921875 
Q 23.6875 6 27.734375 6 
Q 34.03125 6 38.125 10.046875 
Q 42.234375 14.109375 42.234375 20.359375 
Q 42.234375 26.703125 38.015625 30.859375 
Q 33.796875 35.015625 27.4375 35.015625 
Q 21.234375 35.015625 17.15625 30.90625 
Q 13.09375 26.8125 13.09375 20.65625 
z
" id="ArialMT-56"/>
       </defs>
       <use xlink:href="#ArialMT-48"/>
       <use x="55.615234" xlink:href="#ArialMT-46"/>
       <use x="83.398438" xlink:href="#ArialMT-56"/>
      </g>
     </g>
    </g>
    <g id="xtick_6">
     <g id="line2d_6">
      <path clip-path="url(#pdd23e80cfc)" d="M 695.465625 382.285375 
L 695.465625 34.657125 
" style="fill:none;stroke:#ffffff;stroke-linecap:round;stroke-width:0.8;"/>
     </g>
     <g id="text_6">
      <!-- 1.0 -->
      <g style="fill:#262626;" transform="translate(688.515625 396.443188)scale(0.1 -0.1)">
       <defs>
        <path d="M 37.25 0 
L 28.46875 0 
L 28.46875 56 
Q 25.296875 52.984375 20.140625 49.953125 
Q 14.984375 46.921875 10.890625 45.40625 
L 10.890625 53.90625 
Q 18.265625 57.375 23.78125 62.296875 
Q 29.296875 67.234375 31.59375 71.875 
L 37.25 71.875 
z
" id="ArialMT-49"/>
       </defs>
       <use xlink:href="#ArialMT-49"/>
       <use x="55.615234" xlink:href="#ArialMT-46"/>
       <use x="83.398438" xlink:href="#ArialMT-48"/>
      </g>
     </g>
    </g>
    <g id="text_7">
     <!-- $t$ (time) -->
     <g style="fill:#262626;" transform="translate(352.078125 411.920688)scale(0.13 -0.13)">
      <defs>
       <path d="M 42.28125 54.6875 
L 40.921875 47.703125 
L 23 47.703125 
L 17.1875 18.015625 
Q 16.890625 16.359375 16.75 15.234375 
Q 16.609375 14.109375 16.609375 13.484375 
Q 16.609375 10.359375 18.484375 8.9375 
Q 20.359375 7.515625 24.515625 7.515625 
L 33.59375 7.515625 
L 32.078125 0 
L 23.484375 0 
Q 15.484375 0 11.546875 3.125 
Q 7.625 6.25 7.625 12.59375 
Q 7.625 13.71875 7.765625 15.0625 
Q 7.90625 16.40625 8.203125 18.015625 
L 14.015625 47.703125 
L 6.390625 47.703125 
L 7.8125 54.6875 
L 15.28125 54.6875 
L 18.3125 70.21875 
L 27.296875 70.21875 
L 24.3125 54.6875 
z
" id="DejaVuSans-Oblique-116"/>
       <path id="ArialMT-32"/>
       <path d="M 23.390625 -21.046875 
Q 16.109375 -11.859375 11.078125 0.4375 
Q 6.0625 12.75 6.0625 25.921875 
Q 6.0625 37.546875 9.8125 48.1875 
Q 14.203125 60.546875 23.390625 72.796875 
L 29.6875 72.796875 
Q 23.78125 62.640625 21.875 58.296875 
Q 18.890625 51.5625 17.1875 44.234375 
Q 15.09375 35.109375 15.09375 25.875 
Q 15.09375 2.390625 29.6875 -21.046875 
z
" id="ArialMT-40"/>
       <path d="M 25.78125 7.859375 
L 27.046875 0.09375 
Q 23.34375 -0.6875 20.40625 -0.6875 
Q 15.625 -0.6875 12.984375 0.828125 
Q 10.359375 2.34375 9.28125 4.8125 
Q 8.203125 7.28125 8.203125 15.1875 
L 8.203125 45.015625 
L 1.765625 45.015625 
L 1.765625 51.859375 
L 8.203125 51.859375 
L 8.203125 64.703125 
L 16.9375 69.96875 
L 16.9375 51.859375 
L 25.78125 51.859375 
L 25.78125 45.015625 
L 16.9375 45.015625 
L 16.9375 14.703125 
Q 16.9375 10.9375 17.40625 9.859375 
Q 17.875 8.796875 18.921875 8.15625 
Q 19.96875 7.515625 21.921875 7.515625 
Q 23.390625 7.515625 25.78125 7.859375 
z
" id="ArialMT-116"/>
       <path d="M 6.640625 61.46875 
L 6.640625 71.578125 
L 15.4375 71.578125 
L 15.4375 61.46875 
z
M 6.640625 0 
L 6.640625 51.859375 
L 15.4375 51.859375 
L 15.4375 0 
z
" id="ArialMT-105"/>
       <path d="M 6.59375 0 
L 6.59375 51.859375 
L 14.453125 51.859375 
L 14.453125 44.578125 
Q 16.890625 48.390625 20.9375 50.703125 
Q 25 53.03125 30.171875 53.03125 
Q 35.9375 53.03125 39.625 50.640625 
Q 43.3125 48.25 44.828125 43.953125 
Q 50.984375 53.03125 60.84375 53.03125 
Q 68.5625 53.03125 72.703125 48.75 
Q 76.859375 44.484375 76.859375 35.59375 
L 76.859375 0 
L 68.109375 0 
L 68.109375 32.671875 
Q 68.109375 37.9375 67.25 40.25 
Q 66.40625 42.578125 64.15625 43.984375 
Q 61.921875 45.40625 58.890625 45.40625 
Q 53.421875 45.40625 49.796875 41.765625 
Q 46.1875 38.140625 46.1875 30.125 
L 46.1875 0 
L 37.40625 0 
L 37.40625 33.6875 
Q 37.40625 39.546875 35.25 42.46875 
Q 33.109375 45.40625 28.21875 45.40625 
Q 24.515625 45.40625 21.359375 43.453125 
Q 18.21875 41.5 16.796875 37.734375 
Q 15.375 33.984375 15.375 26.90625 
L 15.375 0 
z
" id="ArialMT-109"/>
       <path d="M 42.09375 16.703125 
L 51.171875 15.578125 
Q 49.03125 7.625 43.21875 3.21875 
Q 37.40625 -1.171875 28.375 -1.171875 
Q 17 -1.171875 10.328125 5.828125 
Q 3.65625 12.84375 3.65625 25.484375 
Q 3.65625 38.578125 10.390625 45.796875 
Q 17.140625 53.03125 27.875 53.03125 
Q 38.28125 53.03125 44.875 45.953125 
Q 51.46875 38.875 51.46875 26.03125 
Q 51.46875 25.25 51.421875 23.6875 
L 12.75 23.6875 
Q 13.234375 15.140625 17.578125 10.59375 
Q 21.921875 6.0625 28.421875 6.0625 
Q 33.25 6.0625 36.671875 8.59375 
Q 40.09375 11.140625 42.09375 16.703125 
z
M 13.234375 30.90625 
L 42.1875 30.90625 
Q 41.609375 37.453125 38.875 40.71875 
Q 34.671875 45.796875 27.984375 45.796875 
Q 21.921875 45.796875 17.796875 41.75 
Q 13.671875 37.703125 13.234375 30.90625 
z
" id="ArialMT-101"/>
       <path d="M 12.359375 -21.046875 
L 6.0625 -21.046875 
Q 20.65625 2.390625 20.65625 25.875 
Q 20.65625 35.0625 18.5625 44.09375 
Q 16.890625 51.421875 13.921875 58.15625 
Q 12.015625 62.546875 6.0625 72.796875 
L 12.359375 72.796875 
Q 21.53125 60.546875 25.921875 48.1875 
Q 29.6875 37.546875 29.6875 25.921875 
Q 29.6875 12.75 24.625 0.4375 
Q 19.578125 -11.859375 12.359375 -21.046875 
z
" id="ArialMT-41"/>
      </defs>
      <use transform="translate(0 0.203125)" xlink:href="#DejaVuSans-Oblique-116"/>
      <use transform="translate(39.208984 0.203125)" xlink:href="#ArialMT-32"/>
      <use transform="translate(66.992188 0.203125)" xlink:href="#ArialMT-40"/>
      <use transform="translate(100.292969 0.203125)" xlink:href="#ArialMT-116"/>
      <use transform="translate(128.076172 0.203125)" xlink:href="#ArialMT-105"/>
      <use transform="translate(150.292969 0.203125)" xlink:href="#ArialMT-109"/>
      <use transform="translate(233.59375 0.203125)" xlink:href="#ArialMT-101"/>
      <use transform="translate(289.208984 0.203125)" xlink:href="#ArialMT-41"/>
     </g>
    </g>
   </g>
   <g id="matplotlib.axis_2">
    <g id="ytick_1">
     <g id="line2d_7">
      <path clip-path="url(#pdd23e80cfc)" d="M 50.680625 353.423923 
L 695.465625 353.423923 
" style="fill:none;stroke:#ffffff;stroke-linecap:round;stroke-width:0.8;"/>
     </g>
     <g id="text_8">
      <!-- −1.0 -->
      <g style="fill:#262626;" transform="translate(23.94 357.002829)scale(0.1 -0.1)">
       <defs>
        <path d="M 52.828125 31.203125 
L 5.5625 31.203125 
L 5.5625 39.40625 
L 52.828125 39.40625 
z
" id="ArialMT-8722"/>
       </defs>
       <use xlink:href="#ArialMT-8722"/>
       <use x="58.398438" xlink:href="#ArialMT-49"/>
       <use x="114.013672" xlink:href="#ArialMT-46"/>
       <use x="141.796875" xlink:href="#ArialMT-48"/>
      </g>
     </g>
    </g>
    <g id="ytick_2">
     <g id="line2d_8">
      <path clip-path="url(#pdd23e80cfc)" d="M 50.680625 285.520916 
L 695.465625 285.520916 
" style="fill:none;stroke:#ffffff;stroke-linecap:round;stroke-width:0.8;"/>
     </g>
     <g id="text_9">
      <!-- −0.5 -->
      <g style="fill:#262626;" transform="translate(23.94 289.099822)scale(0.1 -0.1)">
       <defs>
        <path d="M 4.15625 18.75 
L 13.375 19.53125 
Q 14.40625 12.796875 18.140625 9.390625 
Q 21.875 6 27.15625 6 
Q 33.5 6 37.890625 10.78125 
Q 42.28125 15.578125 42.28125 23.484375 
Q 42.28125 31 38.0625 35.34375 
Q 33.84375 39.703125 27 39.703125 
Q 22.75 39.703125 19.328125 37.765625 
Q 15.921875 35.84375 13.96875 32.765625 
L 5.71875 33.84375 
L 12.640625 70.609375 
L 48.25 70.609375 
L 48.25 62.203125 
L 19.671875 62.203125 
L 15.828125 42.96875 
Q 22.265625 47.46875 29.34375 47.46875 
Q 38.71875 47.46875 45.15625 40.96875 
Q 51.609375 34.46875 51.609375 24.265625 
Q 51.609375 14.546875 45.953125 7.46875 
Q 39.0625 -1.21875 27.15625 -1.21875 
Q 17.390625 -1.21875 11.203125 4.25 
Q 5.03125 9.71875 4.15625 18.75 
z
" id="ArialMT-53"/>
       </defs>
       <use xlink:href="#ArialMT-8722"/>
       <use x="58.398438" xlink:href="#ArialMT-48"/>
       <use x="114.013672" xlink:href="#ArialMT-46"/>
       <use x="141.796875" xlink:href="#ArialMT-53"/>
      </g>
     </g>
    </g>
    <g id="ytick_3">
     <g id="line2d_9">
      <path clip-path="url(#pdd23e80cfc)" d="M 50.680625 217.617909 
L 695.465625 217.617909 
" style="fill:none;stroke:#ffffff;stroke-linecap:round;stroke-width:0.8;"/>
     </g>
     <g id="text_10">
      <!-- 0.0 -->
      <g style="fill:#262626;" transform="translate(29.780625 221.196815)scale(0.1 -0.1)">
       <use xlink:href="#ArialMT-48"/>
       <use x="55.615234" xlink:href="#ArialMT-46"/>
       <use x="83.398438" xlink:href="#ArialMT-48"/>
      </g>
     </g>
    </g>
    <g id="ytick_4">
     <g id="line2d_10">
      <path clip-path="url(#pdd23e80cfc)" d="M 50.680625 149.714902 
L 695.465625 149.714902 
" style="fill:none;stroke:#ffffff;stroke-linecap:round;stroke-width:0.8;"/>
     </g>
     <g id="text_11">
      <!-- 0.5 -->
      <g style="fill:#262626;" transform="translate(29.780625 153.293809)scale(0.1 -0.1)">
       <use xlink:href="#ArialMT-48"/>
       <use x="55.615234" xlink:href="#ArialMT-46"/>
       <use x="83.398438" xlink:href="#ArialMT-53"/>
      </g>
     </g>
    </g>
    <g id="ytick_5">
     <g id="line2d_11">
      <path clip-path="url(#pdd23e80cfc)" d="M 50.680625 81.811895 
L 695.465625 81.811895 
" style="fill:none;stroke:#ffffff;stroke-linecap:round;stroke-width:0.8;"/>
     </g>
     <g id="text_12">
      <!-- 1.0 -->
      <g style="fill:#262626;" transform="translate(29.780625 85.390802)scale(0.1 -0.1)">
       <use xlink:href="#ArialMT-49"/>
       <use x="55.615234" xlink:href="#ArialMT-46"/>
       <use x="83.398438" xlink:href="#ArialMT-48"/>
      </g>
     </g>
    </g>
    <g id="text_13">
     <!-- $d$ (position) -->
     <g style="fill:#262626;" transform="translate(17.08 241.16625)rotate(-90)scale(0.13 -0.13)">
      <defs>
       <path d="M 41.796875 8.203125 
Q 38.1875 3.46875 33.25 1.015625 
Q 28.328125 -1.421875 22.3125 -1.421875 
Q 14.109375 -1.421875 9.34375 4.171875 
Q 4.59375 9.765625 4.59375 19.484375 
Q 4.59375 27.59375 7.46875 34.9375 
Q 10.359375 42.28125 15.828125 48.09375 
Q 19.4375 51.953125 23.96875 53.96875 
Q 28.515625 56 33.5 56 
Q 38.765625 56 42.796875 53.453125 
Q 46.828125 50.921875 49.03125 46.1875 
L 54.890625 75.984375 
L 63.921875 75.984375 
L 49.125 0 
L 40.09375 0 
z
M 13.921875 21.09375 
Q 13.921875 14.015625 17.109375 10.0625 
Q 20.3125 6.109375 25.984375 6.109375 
Q 30.171875 6.109375 33.765625 8.125 
Q 37.359375 10.15625 40.09375 14.109375 
Q 42.96875 18.21875 44.625 23.578125 
Q 46.296875 28.953125 46.296875 34.1875 
Q 46.296875 40.96875 43.09375 44.765625 
Q 39.890625 48.578125 34.28125 48.578125 
Q 30.03125 48.578125 26.359375 46.578125 
Q 22.703125 44.578125 20.125 40.828125 
Q 17.28125 36.765625 15.59375 31.390625 
Q 13.921875 26.03125 13.921875 21.09375 
z
" id="DejaVuSans-Oblique-100"/>
       <path d="M 6.59375 -19.875 
L 6.59375 51.859375 
L 14.59375 51.859375 
L 14.59375 45.125 
Q 17.4375 49.078125 21 51.046875 
Q 24.5625 53.03125 29.640625 53.03125 
Q 36.28125 53.03125 41.359375 49.609375 
Q 46.4375 46.1875 49.015625 39.953125 
Q 51.609375 33.734375 51.609375 26.3125 
Q 51.609375 18.359375 48.75 11.984375 
Q 45.90625 5.609375 40.453125 2.21875 
Q 35.015625 -1.171875 29 -1.171875 
Q 24.609375 -1.171875 21.109375 0.6875 
Q 17.625 2.546875 15.375 5.375 
L 15.375 -19.875 
z
M 14.546875 25.640625 
Q 14.546875 15.625 18.59375 10.84375 
Q 22.65625 6.0625 28.421875 6.0625 
Q 34.28125 6.0625 38.453125 11.015625 
Q 42.625 15.96875 42.625 26.375 
Q 42.625 36.28125 38.546875 41.203125 
Q 34.46875 46.140625 28.8125 46.140625 
Q 23.1875 46.140625 18.859375 40.890625 
Q 14.546875 35.640625 14.546875 25.640625 
z
" id="ArialMT-112"/>
       <path d="M 3.328125 25.921875 
Q 3.328125 40.328125 11.328125 47.265625 
Q 18.015625 53.03125 27.640625 53.03125 
Q 38.328125 53.03125 45.109375 46.015625 
Q 51.90625 39.015625 51.90625 26.65625 
Q 51.90625 16.65625 48.90625 10.90625 
Q 45.90625 5.171875 40.15625 2 
Q 34.421875 -1.171875 27.640625 -1.171875 
Q 16.75 -1.171875 10.03125 5.8125 
Q 3.328125 12.796875 3.328125 25.921875 
z
M 12.359375 25.921875 
Q 12.359375 15.96875 16.703125 11.015625 
Q 21.046875 6.0625 27.640625 6.0625 
Q 34.1875 6.0625 38.53125 11.03125 
Q 42.875 16.015625 42.875 26.21875 
Q 42.875 35.84375 38.5 40.796875 
Q 34.125 45.75 27.640625 45.75 
Q 21.046875 45.75 16.703125 40.8125 
Q 12.359375 35.890625 12.359375 25.921875 
z
" id="ArialMT-111"/>
       <path d="M 3.078125 15.484375 
L 11.765625 16.84375 
Q 12.5 11.625 15.84375 8.84375 
Q 19.1875 6.0625 25.203125 6.0625 
Q 31.25 6.0625 34.171875 8.515625 
Q 37.109375 10.984375 37.109375 14.3125 
Q 37.109375 17.28125 34.515625 19 
Q 32.71875 20.171875 25.53125 21.96875 
Q 15.875 24.421875 12.140625 26.203125 
Q 8.40625 27.984375 6.46875 31.125 
Q 4.546875 34.28125 4.546875 38.09375 
Q 4.546875 41.546875 6.125 44.5 
Q 7.71875 47.46875 10.453125 49.421875 
Q 12.5 50.921875 16.03125 51.96875 
Q 19.578125 53.03125 23.640625 53.03125 
Q 29.734375 53.03125 34.34375 51.265625 
Q 38.96875 49.515625 41.15625 46.5 
Q 43.359375 43.5 44.1875 38.484375 
L 35.59375 37.3125 
Q 35.015625 41.3125 32.203125 43.546875 
Q 29.390625 45.796875 24.265625 45.796875 
Q 18.21875 45.796875 15.625 43.796875 
Q 13.03125 41.796875 13.03125 39.109375 
Q 13.03125 37.40625 14.109375 36.03125 
Q 15.1875 34.625 17.484375 33.6875 
Q 18.796875 33.203125 25.25 31.453125 
Q 34.578125 28.953125 38.25 27.359375 
Q 41.9375 25.78125 44.03125 22.75 
Q 46.140625 19.734375 46.140625 15.234375 
Q 46.140625 10.84375 43.578125 6.953125 
Q 41.015625 3.078125 36.171875 0.953125 
Q 31.34375 -1.171875 25.25 -1.171875 
Q 15.140625 -1.171875 9.84375 3.03125 
Q 4.546875 7.234375 3.078125 15.484375 
z
" id="ArialMT-115"/>
       <path d="M 6.59375 0 
L 6.59375 51.859375 
L 14.5 51.859375 
L 14.5 44.484375 
Q 20.21875 53.03125 31 53.03125 
Q 35.6875 53.03125 39.625 51.34375 
Q 43.5625 49.65625 45.515625 46.921875 
Q 47.46875 44.1875 48.25 40.4375 
Q 48.734375 37.984375 48.734375 31.890625 
L 48.734375 0 
L 39.9375 0 
L 39.9375 31.546875 
Q 39.9375 36.921875 38.90625 39.578125 
Q 37.890625 42.234375 35.28125 43.8125 
Q 32.671875 45.40625 29.15625 45.40625 
Q 23.53125 45.40625 19.453125 41.84375 
Q 15.375 38.28125 15.375 28.328125 
L 15.375 0 
z
" id="ArialMT-110"/>
      </defs>
      <use transform="translate(0 0.015625)" xlink:href="#DejaVuSans-Oblique-100"/>
      <use transform="translate(63.476562 0.015625)" xlink:href="#ArialMT-32"/>
      <use transform="translate(91.259766 0.015625)" xlink:href="#ArialMT-40"/>
      <use transform="translate(124.560547 0.015625)" xlink:href="#ArialMT-112"/>
      <use transform="translate(180.175781 0.015625)" xlink:href="#ArialMT-111"/>
      <use transform="translate(235.791016 0.015625)" xlink:href="#ArialMT-115"/>
      <use transform="translate(285.791016 0.015625)" xlink:href="#ArialMT-105"/>
      <use transform="translate(308.007812 0.015625)" xlink:href="#ArialMT-116"/>
      <use transform="translate(335.791016 0.015625)" xlink:href="#ArialMT-105"/>
      <use transform="translate(358.007812 0.015625)" xlink:href="#ArialMT-111"/>
      <use transform="translate(413.623047 0.015625)" xlink:href="#ArialMT-110"/>
      <use transform="translate(469.238281 0.015625)" xlink:href="#ArialMT-41"/>
     </g>
    </g>
   </g>
   <g id="line2d_12">
    <path clip-path="url(#pdd23e80cfc)" d="M 50.680625 205.412018 
L 59.277758 214.055453 
L 67.874892 226.886061 
L 76.472025 226.938978 
L 85.069158 229.607733 
L 93.666292 236.715041 
L 102.263425 225.794622 
L 110.860558 210.813977 
L 119.457692 209.427622 
L 128.054825 186.257693 
L 136.651958 204.161122 
L 145.249092 207.197998 
L 153.846225 218.438867 
L 162.443358 247.709013 
L 171.040492 249.005573 
L 179.637625 250.914759 
L 188.234758 227.181555 
L 196.831892 217.289464 
L 205.429025 233.350279 
L 214.026158 204.275275 
L 222.623292 185.127601 
L 231.220425 175.99942 
L 239.817558 179.551036 
L 248.414692 194.596509 
L 257.011825 200.43328 
L 265.608958 183.360038 
L 274.206092 153.806846 
L 282.803225 129.60643 
L 291.400358 137.272336 
L 299.997492 154.829647 
L 308.594625 152.620336 
L 317.191758 180.352167 
L 325.788892 175.284403 
L 334.386025 177.599037 
L 342.983158 184.907202 
L 351.580292 209.914582 
L 360.177425 201.860548 
L 368.774558 210.214111 
L 377.371692 228.560194 
L 385.968825 273.601654 
L 394.565958 274.033129 
L 403.163092 246.241517 
L 411.760225 220.190434 
L 420.357358 227.358402 
L 428.954492 236.802007 
L 437.551625 229.450911 
L 446.148758 245.107119 
L 454.745892 240.374561 
L 463.343025 228.361252 
L 471.940158 209.121065 
L 480.537292 210.691634 
L 489.134425 213.885549 
L 497.731558 227.653658 
L 506.328692 240.620405 
L 514.925825 244.17194 
L 523.522958 238.411088 
L 532.120092 224.084685 
L 540.717225 236.679758 
L 549.314358 213.272121 
L 557.911492 217.523753 
L 566.508625 217.858825 
L 575.105758 229.576245 
L 583.702892 267.592036 
L 592.300025 253.728854 
L 600.897158 242.174016 
L 609.494292 246.585662 
L 618.091425 245.535145 
L 626.688558 237.44443 
L 635.285692 261.947536 
L 643.882825 270.24389 
L 652.479958 257.788607 
L 661.077092 277.457781 
L 669.674225 272.854344 
L 678.271358 294.127619 
L 686.868492 286.813285 
" style="fill:none;stroke:#1f77b4;stroke-linecap:round;stroke-width:1.5;"/>
   </g>
   <g id="line2d_13">
    <path clip-path="url(#pdd23e80cfc)" d="M 50.680625 218.176822 
L 59.277758 243.504556 
L 67.874892 225.239664 
L 76.472025 236.759182 
L 85.069158 249.465178 
L 93.666292 246.319947 
L 102.263425 228.307558 
L 110.860558 244.237196 
L 119.457692 243.269962 
L 128.054825 236.545464 
L 136.651958 225.676509 
L 145.249092 222.909636 
L 153.846225 228.665194 
L 162.443358 241.643073 
L 171.040492 240.292205 
L 179.637625 257.104982 
L 188.234758 302.916221 
L 196.831892 296.070296 
L 205.429025 281.895217 
L 214.026158 318.949608 
L 222.623292 334.783728 
L 231.220425 325.074443 
L 239.817558 292.809771 
L 248.414692 292.483694 
L 257.011825 303.899892 
L 265.608958 306.767988 
L 274.206092 285.207825 
L 282.803225 295.33753 
L 291.400358 307.870082 
L 299.997492 315.440238 
L 308.594625 330.389887 
L 317.191758 328.466229 
L 325.788892 302.988788 
L 334.386025 297.922412 
L 342.983158 301.8797 
L 351.580292 306.455747 
L 360.177425 330.968967 
L 368.774558 317.120456 
L 377.371692 318.341062 
L 385.968825 321.171263 
L 394.565958 271.098458 
L 403.163092 266.413556 
L 411.760225 278.202788 
L 420.357358 284.888727 
L 428.954492 266.879344 
L 437.551625 265.103091 
L 446.148758 287.657487 
L 454.745892 273.242573 
L 463.343025 283.720093 
L 471.940158 254.343922 
L 480.537292 237.407118 
L 489.134425 244.421809 
L 497.731558 224.333515 
L 506.328692 223.269437 
L 514.925825 209.896643 
L 523.522958 202.295292 
L 532.120092 215.567457 
L 540.717225 225.659302 
L 549.314358 209.507943 
L 557.911492 214.757731 
L 566.508625 221.087556 
L 575.105758 236.065337 
L 583.702892 229.422657 
L 592.300025 197.079115 
L 600.897158 213.819662 
L 609.494292 213.439864 
L 618.091425 191.294088 
L 626.688558 192.542987 
L 635.285692 185.449106 
L 643.882825 202.109059 
L 652.479958 195.39255 
L 661.077092 198.327258 
L 669.674225 182.869505 
L 678.271358 164.249478 
L 686.868492 123.641164 
" style="fill:none;stroke:#ff7f0e;stroke-linecap:round;stroke-width:1.5;"/>
   </g>
   <g id="line2d_14">
    <path clip-path="url(#pdd23e80cfc)" d="M 50.680625 208.528376 
L 59.277758 203.419392 
L 67.874892 200.371149 
L 76.472025 205.909336 
L 85.069158 200.601392 
L 93.666292 205.233737 
L 102.263425 202.592012 
L 110.860558 181.93007 
L 119.457692 197.714195 
L 128.054825 179.839158 
L 136.651958 159.184781 
L 145.249092 161.036276 
L 153.846225 194.310202 
L 162.443358 203.84178 
L 171.040492 183.502924 
L 179.637625 183.86153 
L 188.234758 199.532116 
L 196.831892 207.447758 
L 205.429025 194.265551 
L 214.026158 185.691934 
L 222.623292 189.438754 
L 231.220425 195.191121 
L 239.817558 201.334487 
L 248.414692 215.799288 
L 257.011825 190.46773 
L 265.608958 195.522207 
L 274.206092 176.435302 
L 282.803225 152.578742 
L 291.400358 136.923702 
L 299.997492 143.692168 
L 308.594625 137.361063 
L 317.191758 137.740488 
L 325.788892 151.911913 
L 334.386025 146.825464 
L 342.983158 165.314609 
L 351.580292 146.689982 
L 360.177425 153.975891 
L 368.774558 150.8214 
L 377.371692 146.379014 
L 385.968825 150.439039 
L 394.565958 141.238784 
L 403.163092 148.685999 
L 411.760225 135.022726 
L 420.357358 156.129744 
L 428.954492 154.147919 
L 437.551625 123.74255 
L 446.148758 139.429274 
L 454.745892 150.05735 
L 463.343025 141.99849 
L 471.940158 139.182373 
L 480.537292 133.683958 
L 489.134425 126.012756 
L 497.731558 116.059354 
L 506.328692 98.657565 
L 514.925825 92.230982 
L 523.522958 96.014271 
L 532.120092 85.467288 
L 540.717225 55.674237 
L 549.314358 57.754136 
L 557.911492 73.036245 
L 566.508625 55.675529 
L 575.105758 57.563289 
L 583.702892 91.634067 
L 592.300025 78.3452 
L 600.897158 86.739964 
L 609.494292 88.159664 
L 618.091425 82.953706 
L 626.688558 79.96638 
L 635.285692 68.841091 
L 643.882825 75.670183 
L 652.479958 67.6239 
L 661.077092 71.693988 
L 669.674225 60.108311 
L 678.271358 50.458409 
L 686.868492 65.127517 
" style="fill:none;stroke:#2ca02c;stroke-linecap:round;stroke-width:1.5;"/>
   </g>
   <g id="line2d_15">
    <path clip-path="url(#pdd23e80cfc)" d="M 50.680625 200.588051 
L 59.277758 208.992776 
L 67.874892 196.321195 
L 76.472025 190.561569 
L 85.069158 161.736041 
L 93.666292 165.240329 
L 102.263425 170.71815 
L 110.860558 171.022679 
L 119.457692 175.777001 
L 128.054825 163.23269 
L 136.651958 188.57891 
L 145.249092 205.10226 
L 153.846225 221.847041 
L 162.443358 206.944766 
L 171.040492 180.119735 
L 179.637625 181.757658 
L 188.234758 184.405041 
L 196.831892 183.306516 
L 205.429025 165.086489 
L 214.026158 179.628803 
L 222.623292 175.890813 
L 231.220425 160.598225 
L 239.817558 152.740302 
L 248.414692 149.767373 
L 257.011825 134.069441 
L 265.608958 176.460253 
L 274.206092 165.830133 
L 282.803225 176.087039 
L 291.400358 204.794159 
L 299.997492 196.777721 
L 308.594625 175.236657 
L 317.191758 177.392059 
L 325.788892 162.449531 
L 334.386025 137.166545 
L 342.983158 116.546677 
L 351.580292 90.829528 
L 360.177425 79.191835 
L 368.774558 78.00892 
L 377.371692 103.130192 
L 385.968825 106.988827 
L 394.565958 120.212222 
L 403.163092 86.168524 
L 411.760225 88.926682 
L 420.357358 86.994643 
L 428.954492 78.346509 
L 437.551625 77.662756 
L 446.148758 51.081766 
L 454.745892 60.84586 
L 463.343025 57.794117 
L 471.940158 69.437191 
L 480.537292 90.13716 
L 489.134425 99.730634 
L 497.731558 100.311428 
L 506.328692 107.043542 
L 514.925825 117.901761 
L 523.522958 139.954967 
L 532.120092 141.25819 
L 540.717225 164.854504 
L 549.314358 152.935665 
L 557.911492 151.642884 
L 566.508625 174.499518 
L 575.105758 179.348389 
L 583.702892 191.143351 
L 592.300025 186.138207 
L 600.897158 165.117896 
L 609.494292 194.523465 
L 618.091425 192.71968 
L 626.688558 195.230807 
L 635.285692 184.703169 
L 643.882825 181.35992 
L 652.479958 193.151948 
L 661.077092 198.155201 
L 669.674225 210.638103 
L 678.271358 193.764667 
L 686.868492 193.430468 
" style="fill:none;stroke:#d62728;stroke-linecap:round;stroke-width:1.5;"/>
   </g>
   <g id="line2d_16">
    <path clip-path="url(#pdd23e80cfc)" d="M 50.680625 187.804335 
L 59.277758 188.755589 
L 67.874892 199.864489 
L 76.472025 223.601844 
L 85.069158 251.877828 
L 93.666292 276.7195 
L 102.263425 272.530546 
L 110.860558 264.552961 
L 119.457692 289.348446 
L 128.054825 275.312878 
L 136.651958 282.888014 
L 145.249092 280.586075 
L 153.846225 255.303992 
L 162.443358 241.240182 
L 171.040492 245.451153 
L 179.637625 259.426408 
L 188.234758 293.170161 
L 196.831892 304.447584 
L 205.429025 307.758428 
L 214.026158 323.238912 
L 222.623292 325.297221 
L 231.220425 324.092066 
L 239.817558 327.618152 
L 248.414692 337.811185 
L 257.011825 335.166422 
L 265.608958 328.236118 
L 274.206092 345.335241 
L 282.803225 323.209666 
L 291.400358 324.755678 
L 299.997492 324.460088 
L 308.594625 313.354203 
L 317.191758 309.697018 
L 325.788892 294.75038 
L 334.386025 290.247834 
L 342.983158 299.851788 
L 351.580292 294.18286 
L 360.177425 312.118234 
L 368.774558 310.415852 
L 377.371692 310.936949 
L 385.968825 314.20054 
L 394.565958 316.216204 
L 403.163092 345.726472 
L 411.760225 354.331317 
L 420.357358 352.875367 
L 428.954492 350.368575 
L 437.551625 366.484091 
L 446.148758 346.635858 
L 454.745892 360.218803 
L 463.343025 345.016233 
L 471.940158 338.317173 
L 480.537292 348.451004 
L 489.134425 320.611418 
L 497.731558 339.329467 
L 506.328692 324.915725 
L 514.925825 309.225066 
L 523.522958 319.741415 
L 532.120092 297.905432 
L 540.717225 301.826543 
L 549.314358 297.299386 
L 557.911492 293.217142 
L 566.508625 295.323308 
L 575.105758 282.608596 
L 583.702892 270.16548 
L 592.300025 297.585133 
L 600.897158 277.131085 
L 609.494292 303.201499 
L 618.091425 287.009598 
L 626.688558 269.34114 
L 635.285692 286.44916 
L 643.882825 292.891356 
L 652.479958 310.230494 
L 661.077092 313.600784 
L 669.674225 318.431232 
L 678.271358 306.204964 
L 686.868492 285.657321 
" style="fill:none;stroke:#9467bd;stroke-linecap:round;stroke-width:1.5;"/>
   </g>
   <g id="patch_3">
    <path d="M 50.680625 382.285375 
L 50.680625 34.657125 
" style="fill:none;stroke:#ffffff;stroke-linecap:square;stroke-linejoin:miter;stroke-width:0.8;"/>
   </g>
   <g id="patch_4">
    <path d="M 695.465625 382.285375 
L 695.465625 34.657125 
" style="fill:none;stroke:#ffffff;stroke-linecap:square;stroke-linejoin:miter;stroke-width:0.8;"/>
   </g>
   <g id="patch_5">
    <path d="M 50.680625 382.285375 
L 695.465625 382.285375 
" style="fill:none;stroke:#ffffff;stroke-linecap:square;stroke-linejoin:miter;stroke-width:0.8;"/>
   </g>
   <g id="patch_6">
    <path d="M 50.680625 34.657125 
L 695.465625 34.657125 
" style="fill:none;stroke:#ffffff;stroke-linecap:square;stroke-linejoin:miter;stroke-width:0.8;"/>
   </g>
   <g id="text_14">
    <!-- Brownian motion process -->
    <g style="fill:#262626;" transform="translate(305.711875 15.789375)scale(0.12 -0.12)">
     <defs>
      <path d="M 7.328125 0 
L 7.328125 71.578125 
L 34.1875 71.578125 
Q 42.390625 71.578125 47.34375 69.40625 
Q 52.296875 67.234375 55.09375 62.71875 
Q 57.90625 58.203125 57.90625 53.265625 
Q 57.90625 48.6875 55.421875 44.625 
Q 52.9375 40.578125 47.90625 38.09375 
Q 54.390625 36.1875 57.875 31.59375 
Q 61.375 27 61.375 20.75 
Q 61.375 15.71875 59.25 11.390625 
Q 57.125 7.078125 54 4.734375 
Q 50.875 2.390625 46.15625 1.1875 
Q 41.453125 0 34.625 0 
z
M 16.796875 41.5 
L 32.28125 41.5 
Q 38.578125 41.5 41.3125 42.328125 
Q 44.921875 43.40625 46.75 45.890625 
Q 48.578125 48.390625 48.578125 52.15625 
Q 48.578125 55.71875 46.875 58.421875 
Q 45.171875 61.140625 41.984375 62.140625 
Q 38.8125 63.140625 31.109375 63.140625 
L 16.796875 63.140625 
z
M 16.796875 8.453125 
L 34.625 8.453125 
Q 39.203125 8.453125 41.0625 8.796875 
Q 44.34375 9.375 46.53125 10.734375 
Q 48.734375 12.109375 50.140625 14.71875 
Q 51.5625 17.328125 51.5625 20.75 
Q 51.5625 24.75 49.515625 27.703125 
Q 47.46875 30.671875 43.828125 31.859375 
Q 40.1875 33.0625 33.34375 33.0625 
L 16.796875 33.0625 
z
" id="ArialMT-66"/>
      <path d="M 6.5 0 
L 6.5 51.859375 
L 14.40625 51.859375 
L 14.40625 44 
Q 17.4375 49.515625 20 51.265625 
Q 22.5625 53.03125 25.640625 53.03125 
Q 30.078125 53.03125 34.671875 50.203125 
L 31.640625 42.046875 
Q 28.421875 43.953125 25.203125 43.953125 
Q 22.3125 43.953125 20.015625 42.21875 
Q 17.71875 40.484375 16.75 37.40625 
Q 15.28125 32.71875 15.28125 27.15625 
L 15.28125 0 
z
" id="ArialMT-114"/>
      <path d="M 16.15625 0 
L 0.296875 51.859375 
L 9.375 51.859375 
L 17.625 21.921875 
L 20.703125 10.796875 
Q 20.90625 11.625 23.390625 21.484375 
L 31.640625 51.859375 
L 40.671875 51.859375 
L 48.4375 21.78125 
L 51.03125 11.859375 
L 54 21.875 
L 62.890625 51.859375 
L 71.4375 51.859375 
L 55.21875 0 
L 46.09375 0 
L 37.84375 31.0625 
L 35.84375 39.890625 
L 25.34375 0 
z
" id="ArialMT-119"/>
      <path d="M 40.4375 6.390625 
Q 35.546875 2.25 31.03125 0.53125 
Q 26.515625 -1.171875 21.34375 -1.171875 
Q 12.796875 -1.171875 8.203125 3 
Q 3.609375 7.171875 3.609375 13.671875 
Q 3.609375 17.484375 5.34375 20.625 
Q 7.078125 23.78125 9.890625 25.6875 
Q 12.703125 27.59375 16.21875 28.5625 
Q 18.796875 29.25 24.03125 29.890625 
Q 34.671875 31.15625 39.703125 32.90625 
Q 39.75 34.71875 39.75 35.203125 
Q 39.75 40.578125 37.25 42.78125 
Q 33.890625 45.75 27.25 45.75 
Q 21.046875 45.75 18.09375 43.578125 
Q 15.140625 41.40625 13.71875 35.890625 
L 5.125 37.0625 
Q 6.296875 42.578125 8.984375 45.96875 
Q 11.671875 49.359375 16.75 51.1875 
Q 21.828125 53.03125 28.515625 53.03125 
Q 35.15625 53.03125 39.296875 51.46875 
Q 43.453125 49.90625 45.40625 47.53125 
Q 47.359375 45.171875 48.140625 41.546875 
Q 48.578125 39.3125 48.578125 33.453125 
L 48.578125 21.734375 
Q 48.578125 9.46875 49.140625 6.21875 
Q 49.703125 2.984375 51.375 0 
L 42.1875 0 
Q 40.828125 2.734375 40.4375 6.390625 
z
M 39.703125 26.03125 
Q 34.90625 24.078125 25.34375 22.703125 
Q 19.921875 21.921875 17.671875 20.9375 
Q 15.4375 19.96875 14.203125 18.09375 
Q 12.984375 16.21875 12.984375 13.921875 
Q 12.984375 10.40625 15.640625 8.0625 
Q 18.3125 5.71875 23.4375 5.71875 
Q 28.515625 5.71875 32.46875 7.9375 
Q 36.421875 10.15625 38.28125 14.015625 
Q 39.703125 17 39.703125 22.796875 
z
" id="ArialMT-97"/>
      <path d="M 40.4375 19 
L 49.078125 17.875 
Q 47.65625 8.9375 41.8125 3.875 
Q 35.984375 -1.171875 27.484375 -1.171875 
Q 16.84375 -1.171875 10.375 5.78125 
Q 3.90625 12.75 3.90625 25.734375 
Q 3.90625 34.125 6.6875 40.421875 
Q 9.46875 46.734375 15.15625 49.875 
Q 20.84375 53.03125 27.546875 53.03125 
Q 35.984375 53.03125 41.359375 48.75 
Q 46.734375 44.484375 48.25 36.625 
L 39.703125 35.296875 
Q 38.484375 40.53125 35.375 43.15625 
Q 32.28125 45.796875 27.875 45.796875 
Q 21.234375 45.796875 17.078125 41.03125 
Q 12.9375 36.28125 12.9375 25.984375 
Q 12.9375 15.53125 16.9375 10.796875 
Q 20.953125 6.0625 27.390625 6.0625 
Q 32.5625 6.0625 36.03125 9.234375 
Q 39.5 12.40625 40.4375 19 
z
" id="ArialMT-99"/>
     </defs>
     <use xlink:href="#ArialMT-66"/>
     <use x="66.699219" xlink:href="#ArialMT-114"/>
     <use x="100" xlink:href="#ArialMT-111"/>
     <use x="155.615234" xlink:href="#ArialMT-119"/>
     <use x="227.832031" xlink:href="#ArialMT-110"/>
     <use x="283.447266" xlink:href="#ArialMT-105"/>
     <use x="305.664062" xlink:href="#ArialMT-97"/>
     <use x="361.279297" xlink:href="#ArialMT-110"/>
     <use x="416.894531" xlink:href="#ArialMT-32"/>
     <use x="444.677734" xlink:href="#ArialMT-109"/>
     <use x="527.978516" xlink:href="#ArialMT-111"/>
     <use x="583.59375" xlink:href="#ArialMT-116"/>
     <use x="611.376953" xlink:href="#ArialMT-105"/>
     <use x="633.59375" xlink:href="#ArialMT-111"/>
     <use x="689.208984" xlink:href="#ArialMT-110"/>
     <use x="744.824219" xlink:href="#ArialMT-32"/>
     <use x="772.607422" xlink:href="#ArialMT-112"/>
     <use x="828.222656" xlink:href="#ArialMT-114"/>
     <use x="861.523438" xlink:href="#ArialMT-111"/>
     <use x="917.138672" xlink:href="#ArialMT-99"/>
     <use x="967.138672" xlink:href="#ArialMT-101"/>
     <use x="1022.753906" xlink:href="#ArialMT-115"/>
     <use x="1072.753906" xlink:href="#ArialMT-115"/>
    </g>
    <!--  Position over time for 5 independent realizations -->
    <g style="fill:#262626;" transform="translate(243.340938 28.657125)scale(0.12 -0.12)">
     <defs>
      <path d="M 7.71875 0 
L 7.71875 71.578125 
L 34.71875 71.578125 
Q 41.84375 71.578125 45.609375 70.90625 
Q 50.875 70.015625 54.4375 67.546875 
Q 58.015625 65.09375 60.1875 60.640625 
Q 62.359375 56.203125 62.359375 50.875 
Q 62.359375 41.75 56.546875 35.421875 
Q 50.734375 29.109375 35.546875 29.109375 
L 17.1875 29.109375 
L 17.1875 0 
z
M 17.1875 37.546875 
L 35.6875 37.546875 
Q 44.875 37.546875 48.734375 40.96875 
Q 52.59375 44.390625 52.59375 50.59375 
Q 52.59375 55.078125 50.3125 58.265625 
Q 48.046875 61.46875 44.34375 62.5 
Q 41.9375 63.140625 35.5 63.140625 
L 17.1875 63.140625 
z
" id="ArialMT-80"/>
      <path d="M 21 0 
L 1.265625 51.859375 
L 10.546875 51.859375 
L 21.6875 20.796875 
Q 23.484375 15.765625 25 10.359375 
Q 26.171875 14.453125 28.265625 20.21875 
L 39.796875 51.859375 
L 48.828125 51.859375 
L 29.203125 0 
z
" id="ArialMT-118"/>
      <path d="M 8.6875 0 
L 8.6875 45.015625 
L 0.921875 45.015625 
L 0.921875 51.859375 
L 8.6875 51.859375 
L 8.6875 57.375 
Q 8.6875 62.59375 9.625 65.140625 
Q 10.890625 68.5625 14.078125 70.671875 
Q 17.28125 72.796875 23.046875 72.796875 
Q 26.765625 72.796875 31.25 71.921875 
L 29.9375 64.265625 
Q 27.203125 64.75 24.75 64.75 
Q 20.75 64.75 19.09375 63.03125 
Q 17.4375 61.328125 17.4375 56.640625 
L 17.4375 51.859375 
L 27.546875 51.859375 
L 27.546875 45.015625 
L 17.4375 45.015625 
L 17.4375 0 
z
" id="ArialMT-102"/>
      <path d="M 40.234375 0 
L 40.234375 6.546875 
Q 35.296875 -1.171875 25.734375 -1.171875 
Q 19.53125 -1.171875 14.328125 2.25 
Q 9.125 5.671875 6.265625 11.796875 
Q 3.421875 17.921875 3.421875 25.875 
Q 3.421875 33.640625 6 39.96875 
Q 8.59375 46.296875 13.765625 49.65625 
Q 18.953125 53.03125 25.34375 53.03125 
Q 30.03125 53.03125 33.6875 51.046875 
Q 37.359375 49.078125 39.65625 45.90625 
L 39.65625 71.578125 
L 48.390625 71.578125 
L 48.390625 0 
z
M 12.453125 25.875 
Q 12.453125 15.921875 16.640625 10.984375 
Q 20.84375 6.0625 26.5625 6.0625 
Q 32.328125 6.0625 36.34375 10.765625 
Q 40.375 15.484375 40.375 25.140625 
Q 40.375 35.796875 36.265625 40.765625 
Q 32.171875 45.75 26.171875 45.75 
Q 20.3125 45.75 16.375 40.96875 
Q 12.453125 36.1875 12.453125 25.875 
z
" id="ArialMT-100"/>
      <path d="M 6.390625 0 
L 6.390625 71.578125 
L 15.1875 71.578125 
L 15.1875 0 
z
" id="ArialMT-108"/>
      <path d="M 1.953125 0 
L 1.953125 7.125 
L 34.96875 45.015625 
Q 29.34375 44.734375 25.046875 44.734375 
L 3.90625 44.734375 
L 3.90625 51.859375 
L 46.296875 51.859375 
L 46.296875 46.046875 
L 18.21875 13.140625 
L 12.796875 7.125 
Q 18.703125 7.5625 23.875 7.5625 
L 47.859375 7.5625 
L 47.859375 0 
z
" id="ArialMT-122"/>
     </defs>
     <use xlink:href="#ArialMT-32"/>
     <use x="27.783203" xlink:href="#ArialMT-80"/>
     <use x="94.482422" xlink:href="#ArialMT-111"/>
     <use x="150.097656" xlink:href="#ArialMT-115"/>
     <use x="200.097656" xlink:href="#ArialMT-105"/>
     <use x="222.314453" xlink:href="#ArialMT-116"/>
     <use x="250.097656" xlink:href="#ArialMT-105"/>
     <use x="272.314453" xlink:href="#ArialMT-111"/>
     <use x="327.929688" xlink:href="#ArialMT-110"/>
     <use x="383.544922" xlink:href="#ArialMT-32"/>
     <use x="411.328125" xlink:href="#ArialMT-111"/>
     <use x="466.943359" xlink:href="#ArialMT-118"/>
     <use x="516.943359" xlink:href="#ArialMT-101"/>
     <use x="572.558594" xlink:href="#ArialMT-114"/>
     <use x="605.859375" xlink:href="#ArialMT-32"/>
     <use x="633.642578" xlink:href="#ArialMT-116"/>
     <use x="661.425781" xlink:href="#ArialMT-105"/>
     <use x="683.642578" xlink:href="#ArialMT-109"/>
     <use x="766.943359" xlink:href="#ArialMT-101"/>
     <use x="822.558594" xlink:href="#ArialMT-32"/>
     <use x="850.341797" xlink:href="#ArialMT-102"/>
     <use x="878.125" xlink:href="#ArialMT-111"/>
     <use x="933.740234" xlink:href="#ArialMT-114"/>
     <use x="967.041016" xlink:href="#ArialMT-32"/>
     <use x="994.824219" xlink:href="#ArialMT-53"/>
     <use x="1050.439453" xlink:href="#ArialMT-32"/>
     <use x="1078.222656" xlink:href="#ArialMT-105"/>
     <use x="1100.439453" xlink:href="#ArialMT-110"/>
     <use x="1156.054688" xlink:href="#ArialMT-100"/>
     <use x="1211.669922" xlink:href="#ArialMT-101"/>
     <use x="1267.285156" xlink:href="#ArialMT-112"/>
     <use x="1322.900391" xlink:href="#ArialMT-101"/>
     <use x="1378.515625" xlink:href="#ArialMT-110"/>
     <use x="1434.130859" xlink:href="#ArialMT-100"/>
     <use x="1489.746094" xlink:href="#ArialMT-101"/>
     <use x="1545.361328" xlink:href="#ArialMT-110"/>
     <use x="1600.976562" xlink:href="#ArialMT-116"/>
     <use x="1628.759766" xlink:href="#ArialMT-32"/>
     <use x="1656.542969" xlink:href="#ArialMT-114"/>
     <use x="1689.84375" xlink:href="#ArialMT-101"/>
     <use x="1745.458984" xlink:href="#ArialMT-97"/>
     <use x="1801.074219" xlink:href="#ArialMT-108"/>
     <use x="1823.291016" xlink:href="#ArialMT-105"/>
     <use x="1845.507812" xlink:href="#ArialMT-122"/>
     <use x="1895.507812" xlink:href="#ArialMT-97"/>
     <use x="1951.123047" xlink:href="#ArialMT-116"/>
     <use x="1978.90625" xlink:href="#ArialMT-105"/>
     <use x="2001.123047" xlink:href="#ArialMT-111"/>
     <use x="2056.738281" xlink:href="#ArialMT-110"/>
     <use x="2112.353516" xlink:href="#ArialMT-115"/>
    </g>
   </g>
  </g>
 </g>
 <defs>
  <clipPath id="pdd23e80cfc">
   <rect height="347.62825" width="644.785" x="50.680625" y="34.657125"/>
  </clipPath>
 </defs>
</svg>