<?xml version="1.0" encoding="utf-8" standalone="no"?>
<!DOCTYPE svg PUBLIC "-//W3C//DTD SVG 1.1//EN"
  "http://www.w3.org/Graphics/SVG/1.1/DTD/svg11.dtd">
<svg xmlns:xlink="http://www.w3.org/1999/xlink" width="498.592031pt" height="351.237594pt" viewBox="0 0 498.592031 351.237594" xmlns="http://www.w3.org/2000/svg" version="1.1">
 <metadata>
  <rdf:RDF xmlns:dc="http://purl.org/dc/elements/1.1/" xmlns:cc="http://creativecommons.org/ns#" xmlns:rdf="http://www.w3.org/1999/02/22-rdf-syntax-ns#">
   <cc:Work>
    <dc:type rdf:resource="http://purl.org/dc/dcmitype/StillImage"/>
    <dc:date>2023-05-10T11:41:58.975443</dc:date>
    <dc:format>image/svg+xml</dc:format>
    <dc:creator>
     <cc:Agent>
      <dc:title>Matplotlib v3.5.2, https://matplotlib.org/</dc:title>
     </cc:Agent>
    </dc:creator>
   </cc:Work>
  </rdf:RDF>
 </metadata>
 <defs>
  <style type="text/css">*{stroke-linejoin: round; stroke-linecap: butt}</style>
 </defs>
 <g id="figure_1">
  <g id="patch_1">
   <path d="M 0 351.237594 
L 498.592031 351.237594 
L 498.592031 0 
L 0 0 
z
" style="fill: #ffffff"/>
  </g>
  <g id="axes_1">
   <g id="patch_2">
    <path d="M 42.211562 312.003375 
L 488.611562 312.003375 
L 488.611562 34.803375 
L 42.211562 34.803375 
z
" style="fill: #eaeaf2"/>
   </g>
   <g id="matplotlib.axis_1">
    <g id="xtick_1">
     <g id="line2d_1">
      <path d="M 42.211563 312.003375 
L 42.211563 34.803375 
" clip-path="url(#p3e0f2a51a3)" style="fill: none; stroke: #ffffff; stroke-width: 0.8; stroke-linecap: round"/>
     </g>
     <g id="text_1">
      <!-- −4 -->
      <g style="fill: #262626" transform="translate(36.510781 326.161188)scale(0.1 -0.1)">
       <defs>
        <path id="ArialMT-2212" d="M 3381 1997 
L 356 1997 
L 356 2522 
L 3381 2522 
L 3381 1997 
z
" transform="scale(0.015625)"/>
        <path id="ArialMT-34" d="M 2069 0 
L 2069 1097 
L 81 1097 
L 81 1613 
L 2172 4581 
L 2631 4581 
L 2631 1613 
L 3250 1613 
L 3250 1097 
L 2631 1097 
L 2631 0 
L 2069 0 
z
M 2069 1613 
L 2069 3678 
L 634 1613 
L 2069 1613 
z
" transform="scale(0.015625)"/>
       </defs>
       <use xlink:href="#ArialMT-2212"/>
       <use xlink:href="#ArialMT-34" x="58.398438"/>
      </g>
     </g>
    </g>
    <g id="xtick_2">
     <g id="line2d_2">
      <path d="M 98.011563 312.003375 
L 98.011563 34.803375 
" clip-path="url(#p3e0f2a51a3)" style="fill: none; stroke: #ffffff; stroke-width: 0.8; stroke-linecap: round"/>
     </g>
     <g id="text_2">
      <!-- −3 -->
      <g style="fill: #262626" transform="translate(92.310781 326.161188)scale(0.1 -0.1)">
       <defs>
        <path id="ArialMT-33" d="M 269 1209 
L 831 1284 
Q 928 806 1161 595 
Q 1394 384 1728 384 
Q 2125 384 2398 659 
Q 2672 934 2672 1341 
Q 2672 1728 2419 1979 
Q 2166 2231 1775 2231 
Q 1616 2231 1378 2169 
L 1441 2663 
Q 1497 2656 1531 2656 
Q 1891 2656 2178 2843 
Q 2466 3031 2466 3422 
Q 2466 3731 2256 3934 
Q 2047 4138 1716 4138 
Q 1388 4138 1169 3931 
Q 950 3725 888 3313 
L 325 3413 
Q 428 3978 793 4289 
Q 1159 4600 1703 4600 
Q 2078 4600 2393 4439 
Q 2709 4278 2876 4000 
Q 3044 3722 3044 3409 
Q 3044 3113 2884 2869 
Q 2725 2625 2413 2481 
Q 2819 2388 3044 2092 
Q 3269 1797 3269 1353 
Q 3269 753 2831 336 
Q 2394 -81 1725 -81 
Q 1122 -81 723 278 
Q 325 638 269 1209 
z
" transform="scale(0.015625)"/>
       </defs>
       <use xlink:href="#ArialMT-2212"/>
       <use xlink:href="#ArialMT-33" x="58.398438"/>
      </g>
     </g>
    </g>
    <g id="xtick_3">
     <g id="line2d_3">
      <path d="M 153.811563 312.003375 
L 153.811563 34.803375 
" clip-path="url(#p3e0f2a51a3)" style="fill: none; stroke: #ffffff; stroke-width: 0.8; stroke-linecap: round"/>
     </g>
     <g id="text_3">
      <!-- −2 -->
      <g style="fill: #262626" transform="translate(148.110781 326.161188)scale(0.1 -0.1)">
       <defs>
        <path id="ArialMT-32" d="M 3222 541 
L 3222 0 
L 194 0 
Q 188 203 259 391 
Q 375 700 629 1000 
Q 884 1300 1366 1694 
Q 2113 2306 2375 2664 
Q 2638 3022 2638 3341 
Q 2638 3675 2398 3904 
Q 2159 4134 1775 4134 
Q 1369 4134 1125 3890 
Q 881 3647 878 3216 
L 300 3275 
Q 359 3922 746 4261 
Q 1134 4600 1788 4600 
Q 2447 4600 2831 4234 
Q 3216 3869 3216 3328 
Q 3216 3053 3103 2787 
Q 2991 2522 2730 2228 
Q 2469 1934 1863 1422 
Q 1356 997 1212 845 
Q 1069 694 975 541 
L 3222 541 
z
" transform="scale(0.015625)"/>
       </defs>
       <use xlink:href="#ArialMT-2212"/>
       <use xlink:href="#ArialMT-32" x="58.398438"/>
      </g>
     </g>
    </g>
    <g id="xtick_4">
     <g id="line2d_4">
      <path d="M 209.611562 312.003375 
L 209.611562 34.803375 
" clip-path="url(#p3e0f2a51a3)" style="fill: none; stroke: #ffffff; stroke-width: 0.8; stroke-linecap: round"/>
     </g>
     <g id="text_4">
      <!-- −1 -->
      <g style="fill: #262626" transform="translate(203.910781 326.161188)scale(0.1 -0.1)">
       <defs>
        <path id="ArialMT-31" d="M 2384 0 
L 1822 0 
L 1822 3584 
Q 1619 3391 1289 3197 
Q 959 3003 697 2906 
L 697 3450 
Q 1169 3672 1522 3987 
Q 1875 4303 2022 4600 
L 2384 4600 
L 2384 0 
z
" transform="scale(0.015625)"/>
       </defs>
       <use xlink:href="#ArialMT-2212"/>
       <use xlink:href="#ArialMT-31" x="58.398438"/>
      </g>
     </g>
    </g>
    <g id="xtick_5">
     <g id="line2d_5">
      <path d="M 265.411563 312.003375 
L 265.411563 34.803375 
" clip-path="url(#p3e0f2a51a3)" style="fill: none; stroke: #ffffff; stroke-width: 0.8; stroke-linecap: round"/>
     </g>
     <g id="text_5">
      <!-- 0 -->
      <g style="fill: #262626" transform="translate(262.631094 326.161188)scale(0.1 -0.1)">
       <defs>
        <path id="ArialMT-30" d="M 266 2259 
Q 266 3072 433 3567 
Q 600 4063 929 4331 
Q 1259 4600 1759 4600 
Q 2128 4600 2406 4451 
Q 2684 4303 2865 4023 
Q 3047 3744 3150 3342 
Q 3253 2941 3253 2259 
Q 3253 1453 3087 958 
Q 2922 463 2592 192 
Q 2263 -78 1759 -78 
Q 1097 -78 719 397 
Q 266 969 266 2259 
z
M 844 2259 
Q 844 1131 1108 757 
Q 1372 384 1759 384 
Q 2147 384 2411 759 
Q 2675 1134 2675 2259 
Q 2675 3391 2411 3762 
Q 2147 4134 1753 4134 
Q 1366 4134 1134 3806 
Q 844 3388 844 2259 
z
" transform="scale(0.015625)"/>
       </defs>
       <use xlink:href="#ArialMT-30"/>
      </g>
     </g>
    </g>
    <g id="xtick_6">
     <g id="line2d_6">
      <path d="M 321.211563 312.003375 
L 321.211563 34.803375 
" clip-path="url(#p3e0f2a51a3)" style="fill: none; stroke: #ffffff; stroke-width: 0.8; stroke-linecap: round"/>
     </g>
     <g id="text_6">
      <!-- 1 -->
      <g style="fill: #262626" transform="translate(318.431094 326.161188)scale(0.1 -0.1)">
       <use xlink:href="#ArialMT-31"/>
      </g>
     </g>
    </g>
    <g id="xtick_7">
     <g id="line2d_7">
      <path d="M 377.011562 312.003375 
L 377.011562 34.803375 
" clip-path="url(#p3e0f2a51a3)" style="fill: none; stroke: #ffffff; stroke-width: 0.8; stroke-linecap: round"/>
     </g>
     <g id="text_7">
      <!-- 2 -->
      <g style="fill: #262626" transform="translate(374.231094 326.161188)scale(0.1 -0.1)">
       <use xlink:href="#ArialMT-32"/>
      </g>
     </g>
    </g>
    <g id="xtick_8">
     <g id="line2d_8">
      <path d="M 432.811562 312.003375 
L 432.811562 34.803375 
" clip-path="url(#p3e0f2a51a3)" style="fill: none; stroke: #ffffff; stroke-width: 0.8; stroke-linecap: round"/>
     </g>
     <g id="text_8">
      <!-- 3 -->
      <g style="fill: #262626" transform="translate(430.031094 326.161188)scale(0.1 -0.1)">
       <use xlink:href="#ArialMT-33"/>
      </g>
     </g>
    </g>
    <g id="xtick_9">
     <g id="line2d_9">
      <path d="M 488.611562 312.003375 
L 488.611562 34.803375 
" clip-path="url(#p3e0f2a51a3)" style="fill: none; stroke: #ffffff; stroke-width: 0.8; stroke-linecap: round"/>
     </g>
     <g id="text_9">
      <!-- 4 -->
      <g style="fill: #262626" transform="translate(485.831094 326.161188)scale(0.1 -0.1)">
       <use xlink:href="#ArialMT-34"/>
      </g>
     </g>
    </g>
    <g id="text_10">
     <!-- $x$ -->
     <g style="fill: #262626" transform="translate(261.511563 341.453844)scale(0.13 -0.13)">
      <defs>
       <path id="DejaVuSans-Oblique-78" d="M 3841 3500 
L 2234 1784 
L 3219 0 
L 2559 0 
L 1819 1388 
L 531 0 
L -166 0 
L 1556 1844 
L 641 3500 
L 1300 3500 
L 1972 2234 
L 3144 3500 
L 3841 3500 
z
" transform="scale(0.015625)"/>
      </defs>
      <use xlink:href="#DejaVuSans-Oblique-78" transform="translate(0 0.3125)"/>
     </g>
    </g>
   </g>
   <g id="matplotlib.axis_2">
    <g id="ytick_1">
     <g id="line2d_10">
      <path d="M 42.211562 300.978235 
L 488.611562 300.978235 
" clip-path="url(#p3e0f2a51a3)" style="fill: none; stroke: #ffffff; stroke-width: 0.8; stroke-linecap: round"/>
     </g>
     <g id="text_11">
      <!-- −2 -->
      <g style="fill: #262626" transform="translate(23.81 304.557142)scale(0.1 -0.1)">
       <use xlink:href="#ArialMT-2212"/>
       <use xlink:href="#ArialMT-32" x="58.398438"/>
      </g>
     </g>
    </g>
    <g id="ytick_2">
     <g id="line2d_11">
      <path d="M 42.211562 240.156142 
L 488.611562 240.156142 
" clip-path="url(#p3e0f2a51a3)" style="fill: none; stroke: #ffffff; stroke-width: 0.8; stroke-linecap: round"/>
     </g>
     <g id="text_12">
      <!-- −1 -->
      <g style="fill: #262626" transform="translate(23.81 243.735048)scale(0.1 -0.1)">
       <use xlink:href="#ArialMT-2212"/>
       <use xlink:href="#ArialMT-31" x="58.398438"/>
      </g>
     </g>
    </g>
    <g id="ytick_3">
     <g id="line2d_12">
      <path d="M 42.211562 179.334049 
L 488.611562 179.334049 
" clip-path="url(#p3e0f2a51a3)" style="fill: none; stroke: #ffffff; stroke-width: 0.8; stroke-linecap: round"/>
     </g>
     <g id="text_13">
      <!-- 0 -->
      <g style="fill: #262626" transform="translate(29.650625 182.912955)scale(0.1 -0.1)">
       <use xlink:href="#ArialMT-30"/>
      </g>
     </g>
    </g>
    <g id="ytick_4">
     <g id="line2d_13">
      <path d="M 42.211562 118.511955 
L 488.611562 118.511955 
" clip-path="url(#p3e0f2a51a3)" style="fill: none; stroke: #ffffff; stroke-width: 0.8; stroke-linecap: round"/>
     </g>
     <g id="text_14">
      <!-- 1 -->
      <g style="fill: #262626" transform="translate(29.650625 122.090861)scale(0.1 -0.1)">
       <use xlink:href="#ArialMT-31"/>
      </g>
     </g>
    </g>
    <g id="ytick_5">
     <g id="line2d_14">
      <path d="M 42.211562 57.689862 
L 488.611562 57.689862 
" clip-path="url(#p3e0f2a51a3)" style="fill: none; stroke: #ffffff; stroke-width: 0.8; stroke-linecap: round"/>
     </g>
     <g id="text_15">
      <!-- 2 -->
      <g style="fill: #262626" transform="translate(29.650625 61.268768)scale(0.1 -0.1)">
       <use xlink:href="#ArialMT-32"/>
      </g>
     </g>
    </g>
    <g id="text_16">
     <!-- $y = f(x)$ -->
     <g style="fill: #262626" transform="translate(17.08 196.478375)rotate(-90)scale(0.13 -0.13)">
      <defs>
       <path id="DejaVuSans-Oblique-79" d="M 1588 -325 
Q 1188 -997 936 -1164 
Q 684 -1331 294 -1331 
L -159 -1331 
L -63 -850 
L 269 -850 
Q 509 -850 678 -719 
Q 847 -588 1056 -206 
L 1234 128 
L 459 3500 
L 1069 3500 
L 1650 819 
L 3256 3500 
L 3859 3500 
L 1588 -325 
z
" transform="scale(0.015625)"/>
       <path id="DejaVuSans-3d" d="M 678 2906 
L 4684 2906 
L 4684 2381 
L 678 2381 
L 678 2906 
z
M 678 1631 
L 4684 1631 
L 4684 1100 
L 678 1100 
L 678 1631 
z
" transform="scale(0.015625)"/>
       <path id="DejaVuSans-Oblique-66" d="M 3059 4863 
L 2969 4384 
L 2419 4384 
Q 2106 4384 1964 4261 
Q 1822 4138 1753 3809 
L 1691 3500 
L 2638 3500 
L 2553 3053 
L 1606 3053 
L 1013 0 
L 434 0 
L 1031 3053 
L 481 3053 
L 563 3500 
L 1113 3500 
L 1159 3744 
Q 1278 4363 1576 4613 
Q 1875 4863 2516 4863 
L 3059 4863 
z
" transform="scale(0.015625)"/>
       <path id="DejaVuSans-28" d="M 1984 4856 
Q 1566 4138 1362 3434 
Q 1159 2731 1159 2009 
Q 1159 1288 1364 580 
Q 1569 -128 1984 -844 
L 1484 -844 
Q 1016 -109 783 600 
Q 550 1309 550 2009 
Q 550 2706 781 3412 
Q 1013 4119 1484 4856 
L 1984 4856 
z
" transform="scale(0.015625)"/>
       <path id="DejaVuSans-29" d="M 513 4856 
L 1013 4856 
Q 1481 4119 1714 3412 
Q 1947 2706 1947 2009 
Q 1947 1309 1714 600 
Q 1481 -109 1013 -844 
L 513 -844 
Q 928 -128 1133 580 
Q 1338 1288 1338 2009 
Q 1338 2731 1133 3434 
Q 928 4138 513 4856 
z
" transform="scale(0.015625)"/>
      </defs>
      <use xlink:href="#DejaVuSans-Oblique-79" transform="translate(0 0.015625)"/>
      <use xlink:href="#DejaVuSans-3d" transform="translate(78.662109 0.015625)"/>
      <use xlink:href="#DejaVuSans-Oblique-66" transform="translate(181.933594 0.015625)"/>
      <use xlink:href="#DejaVuSans-28" transform="translate(217.138672 0.015625)"/>
      <use xlink:href="#DejaVuSans-Oblique-78" transform="translate(256.152344 0.015625)"/>
      <use xlink:href="#DejaVuSans-29" transform="translate(315.332031 0.015625)"/>
     </g>
    </g>
   </g>
   <g id="line2d_15">
    <path d="M 42.211563 146.529974 
L 53.371563 147.921222 
L 64.531563 150.270195 
L 75.691563 152.522414 
L 86.851562 153.676678 
L 98.011563 153.301244 
L 109.171563 151.882348 
L 120.331563 150.850085 
L 131.491563 152.239881 
L 142.651563 158.065448 
L 153.811563 169.577568 
L 164.971563 186.646469 
L 176.131563 207.502544 
L 187.291562 228.968053 
L 198.451563 247.126209 
L 209.611562 258.195475 
L 220.771563 259.323259 
L 231.931563 249.117391 
L 243.091563 227.897974 
L 254.251563 197.729408 
L 265.411563 162.234322 
L 276.571563 126.100947 
L 287.731562 94.223271 
L 298.891563 70.597079 
L 310.051563 57.31317 
L 321.211563 54.065921 
L 332.371562 58.443477 
L 343.531563 66.945997 
L 354.691563 76.347739 
L 365.851563 84.840328 
L 377.011562 92.469631 
L 388.171562 100.698001 
L 399.331563 111.351017 
L 410.491562 125.517504 
L 421.651563 142.970833 
L 432.811562 162.349836 
L 443.971563 181.879929 
L 455.131562 200.123568 
L 466.291563 216.302673 
L 477.451563 230.068405 
L 488.611562 240.961231 
" clip-path="url(#p3e0f2a51a3)" style="fill: none; stroke: #1f77b4; stroke-width: 1.5; stroke-linecap: round"/>
    <defs>
     <path id="m358fef472b" d="M 0 1.5 
C 0.397805 1.5 0.77937 1.341951 1.06066 1.06066 
C 1.341951 0.77937 1.5 0.397805 1.5 0 
C 1.5 -0.397805 1.341951 -0.77937 1.06066 -1.06066 
C 0.77937 -1.341951 0.397805 -1.5 0 -1.5 
C -0.397805 -1.5 -0.77937 -1.341951 -1.06066 -1.06066 
C -1.341951 -0.77937 -1.5 -0.397805 -1.5 0 
C -1.5 0.397805 -1.341951 0.77937 -1.06066 1.06066 
C -0.77937 1.341951 -0.397805 1.5 0 1.5 
z
" style="stroke: #1f77b4"/>
    </defs>
    <g clip-path="url(#p3e0f2a51a3)">
     <use xlink:href="#m358fef472b" x="42.211563" y="146.529974" style="fill: #1f77b4; stroke: #1f77b4"/>
     <use xlink:href="#m358fef472b" x="53.371563" y="147.921222" style="fill: #1f77b4; stroke: #1f77b4"/>
     <use xlink:href="#m358fef472b" x="64.531563" y="150.270195" style="fill: #1f77b4; stroke: #1f77b4"/>
     <use xlink:href="#m358fef472b" x="75.691563" y="152.522414" style="fill: #1f77b4; stroke: #1f77b4"/>
     <use xlink:href="#m358fef472b" x="86.851562" y="153.676678" style="fill: #1f77b4; stroke: #1f77b4"/>
     <use xlink:href="#m358fef472b" x="98.011563" y="153.301244" style="fill: #1f77b4; stroke: #1f77b4"/>
     <use xlink:href="#m358fef472b" x="109.171563" y="151.882348" style="fill: #1f77b4; stroke: #1f77b4"/>
     <use xlink:href="#m358fef472b" x="120.331563" y="150.850085" style="fill: #1f77b4; stroke: #1f77b4"/>
     <use xlink:href="#m358fef472b" x="131.491563" y="152.239881" style="fill: #1f77b4; stroke: #1f77b4"/>
     <use xlink:href="#m358fef472b" x="142.651563" y="158.065448" style="fill: #1f77b4; stroke: #1f77b4"/>
     <use xlink:href="#m358fef472b" x="153.811563" y="169.577568" style="fill: #1f77b4; stroke: #1f77b4"/>
     <use xlink:href="#m358fef472b" x="164.971563" y="186.646469" style="fill: #1f77b4; stroke: #1f77b4"/>
     <use xlink:href="#m358fef472b" x="176.131563" y="207.502544" style="fill: #1f77b4; stroke: #1f77b4"/>
     <use xlink:href="#m358fef472b" x="187.291562" y="228.968053" style="fill: #1f77b4; stroke: #1f77b4"/>
     <use xlink:href="#m358fef472b" x="198.451563" y="247.126209" style="fill: #1f77b4; stroke: #1f77b4"/>
     <use xlink:href="#m358fef472b" x="209.611562" y="258.195475" style="fill: #1f77b4; stroke: #1f77b4"/>
     <use xlink:href="#m358fef472b" x="220.771563" y="259.323259" style="fill: #1f77b4; stroke: #1f77b4"/>
     <use xlink:href="#m358fef472b" x="231.931563" y="249.117391" style="fill: #1f77b4; stroke: #1f77b4"/>
     <use xlink:href="#m358fef472b" x="243.091563" y="227.897974" style="fill: #1f77b4; stroke: #1f77b4"/>
     <use xlink:href="#m358fef472b" x="254.251563" y="197.729408" style="fill: #1f77b4; stroke: #1f77b4"/>
     <use xlink:href="#m358fef472b" x="265.411563" y="162.234322" style="fill: #1f77b4; stroke: #1f77b4"/>
     <use xlink:href="#m358fef472b" x="276.571563" y="126.100947" style="fill: #1f77b4; stroke: #1f77b4"/>
     <use xlink:href="#m358fef472b" x="287.731562" y="94.223271" style="fill: #1f77b4; stroke: #1f77b4"/>
     <use xlink:href="#m358fef472b" x="298.891563" y="70.597079" style="fill: #1f77b4; stroke: #1f77b4"/>
     <use xlink:href="#m358fef472b" x="310.051563" y="57.31317" style="fill: #1f77b4; stroke: #1f77b4"/>
     <use xlink:href="#m358fef472b" x="321.211563" y="54.065921" style="fill: #1f77b4; stroke: #1f77b4"/>
     <use xlink:href="#m358fef472b" x="332.371562" y="58.443477" style="fill: #1f77b4; stroke: #1f77b4"/>
     <use xlink:href="#m358fef472b" x="343.531563" y="66.945997" style="fill: #1f77b4; stroke: #1f77b4"/>
     <use xlink:href="#m358fef472b" x="354.691563" y="76.347739" style="fill: #1f77b4; stroke: #1f77b4"/>
     <use xlink:href="#m358fef472b" x="365.851563" y="84.840328" style="fill: #1f77b4; stroke: #1f77b4"/>
     <use xlink:href="#m358fef472b" x="377.011562" y="92.469631" style="fill: #1f77b4; stroke: #1f77b4"/>
     <use xlink:href="#m358fef472b" x="388.171562" y="100.698001" style="fill: #1f77b4; stroke: #1f77b4"/>
     <use xlink:href="#m358fef472b" x="399.331563" y="111.351017" style="fill: #1f77b4; stroke: #1f77b4"/>
     <use xlink:href="#m358fef472b" x="410.491562" y="125.517504" style="fill: #1f77b4; stroke: #1f77b4"/>
     <use xlink:href="#m358fef472b" x="421.651563" y="142.970833" style="fill: #1f77b4; stroke: #1f77b4"/>
     <use xlink:href="#m358fef472b" x="432.811562" y="162.349836" style="fill: #1f77b4; stroke: #1f77b4"/>
     <use xlink:href="#m358fef472b" x="443.971563" y="181.879929" style="fill: #1f77b4; stroke: #1f77b4"/>
     <use xlink:href="#m358fef472b" x="455.131562" y="200.123568" style="fill: #1f77b4; stroke: #1f77b4"/>
     <use xlink:href="#m358fef472b" x="466.291563" y="216.302673" style="fill: #1f77b4; stroke: #1f77b4"/>
     <use xlink:href="#m358fef472b" x="477.451563" y="230.068405" style="fill: #1f77b4; stroke: #1f77b4"/>
     <use xlink:href="#m358fef472b" x="488.611562" y="240.961231" style="fill: #1f77b4; stroke: #1f77b4"/>
    </g>
   </g>
   <g id="line2d_16">
    <path d="M 42.211563 91.61184 
L 53.371563 90.641004 
L 64.531563 98.36811 
L 75.691563 114.19286 
L 86.851562 136.755306 
L 98.011563 164.32343 
L 109.171563 194.903078 
L 120.331563 226.112207 
L 131.491563 255.088029 
L 142.651563 278.692148 
L 153.811563 294.072679 
L 164.971563 299.403375 
L 176.131563 294.505859 
L 187.291562 281.10438 
L 198.451563 262.594048 
L 209.611562 243.349898 
L 220.771563 227.738071 
L 231.931563 219.098075 
L 243.091563 219.003165 
L 254.251563 227.025425 
L 265.411563 241.041863 
L 276.571563 257.909984 
L 287.731562 274.236205 
L 298.891563 287.011837 
L 310.051563 294.04173 
L 321.211563 294.210769 
L 332.371562 287.628452 
L 343.531563 275.588696 
L 354.691563 260.218292 
L 365.851563 243.788902 
L 377.011562 227.910535 
L 388.171562 213.018979 
L 399.331563 198.507727 
L 410.491562 183.508972 
L 421.651563 167.906637 
L 432.811562 152.96759 
L 443.971563 141.159927 
L 455.131562 135.181567 
L 466.291563 136.664386 
L 477.451563 145.194993 
L 488.611562 158.136102 
" clip-path="url(#p3e0f2a51a3)" style="fill: none; stroke: #ff7f0e; stroke-width: 1.5; stroke-linecap: round"/>
    <defs>
     <path id="m3cf644a258" d="M 0 1.5 
C 0.397805 1.5 0.77937 1.341951 1.06066 1.06066 
C 1.341951 0.77937 1.5 0.397805 1.5 0 
C 1.5 -0.397805 1.341951 -0.77937 1.06066 -1.06066 
C 0.77937 -1.341951 0.397805 -1.5 0 -1.5 
C -0.397805 -1.5 -0.77937 -1.341951 -1.06066 -1.06066 
C -1.341951 -0.77937 -1.5 -0.397805 -1.5 0 
C -1.5 0.397805 -1.341951 0.77937 -1.06066 1.06066 
C -0.77937 1.341951 -0.397805 1.5 0 1.5 
z
" style="stroke: #ff7f0e"/>
    </defs>
    <g clip-path="url(#p3e0f2a51a3)">
     <use xlink:href="#m3cf644a258" x="42.211563" y="91.61184" style="fill: #ff7f0e; stroke: #ff7f0e"/>
     <use xlink:href="#m3cf644a258" x="53.371563" y="90.641004" style="fill: #ff7f0e; stroke: #ff7f0e"/>
     <use xlink:href="#m3cf644a258" x="64.531563" y="98.36811" style="fill: #ff7f0e; stroke: #ff7f0e"/>
     <use xlink:href="#m3cf644a258" x="75.691563" y="114.19286" style="fill: #ff7f0e; stroke: #ff7f0e"/>
     <use xlink:href="#m3cf644a258" x="86.851562" y="136.755306" style="fill: #ff7f0e; stroke: #ff7f0e"/>
     <use xlink:href="#m3cf644a258" x="98.011563" y="164.32343" style="fill: #ff7f0e; stroke: #ff7f0e"/>
     <use xlink:href="#m3cf644a258" x="109.171563" y="194.903078" style="fill: #ff7f0e; stroke: #ff7f0e"/>
     <use xlink:href="#m3cf644a258" x="120.331563" y="226.112207" style="fill: #ff7f0e; stroke: #ff7f0e"/>
     <use xlink:href="#m3cf644a258" x="131.491563" y="255.088029" style="fill: #ff7f0e; stroke: #ff7f0e"/>
     <use xlink:href="#m3cf644a258" x="142.651563" y="278.692148" style="fill: #ff7f0e; stroke: #ff7f0e"/>
     <use xlink:href="#m3cf644a258" x="153.811563" y="294.072679" style="fill: #ff7f0e; stroke: #ff7f0e"/>
     <use xlink:href="#m3cf644a258" x="164.971563" y="299.403375" style="fill: #ff7f0e; stroke: #ff7f0e"/>
     <use xlink:href="#m3cf644a258" x="176.131563" y="294.505859" style="fill: #ff7f0e; stroke: #ff7f0e"/>
     <use xlink:href="#m3cf644a258" x="187.291562" y="281.10438" style="fill: #ff7f0e; stroke: #ff7f0e"/>
     <use xlink:href="#m3cf644a258" x="198.451563" y="262.594048" style="fill: #ff7f0e; stroke: #ff7f0e"/>
     <use xlink:href="#m3cf644a258" x="209.611562" y="243.349898" style="fill: #ff7f0e; stroke: #ff7f0e"/>
     <use xlink:href="#m3cf644a258" x="220.771563" y="227.738071" style="fill: #ff7f0e; stroke: #ff7f0e"/>
     <use xlink:href="#m3cf644a258" x="231.931563" y="219.098075" style="fill: #ff7f0e; stroke: #ff7f0e"/>
     <use xlink:href="#m3cf644a258" x="243.091563" y="219.003165" style="fill: #ff7f0e; stroke: #ff7f0e"/>
     <use xlink:href="#m3cf644a258" x="254.251563" y="227.025425" style="fill: #ff7f0e; stroke: #ff7f0e"/>
     <use xlink:href="#m3cf644a258" x="265.411563" y="241.041863" style="fill: #ff7f0e; stroke: #ff7f0e"/>
     <use xlink:href="#m3cf644a258" x="276.571563" y="257.909984" style="fill: #ff7f0e; stroke: #ff7f0e"/>
     <use xlink:href="#m3cf644a258" x="287.731562" y="274.236205" style="fill: #ff7f0e; stroke: #ff7f0e"/>
     <use xlink:href="#m3cf644a258" x="298.891563" y="287.011837" style="fill: #ff7f0e; stroke: #ff7f0e"/>
     <use xlink:href="#m3cf644a258" x="310.051563" y="294.04173" style="fill: #ff7f0e; stroke: #ff7f0e"/>
     <use xlink:href="#m3cf644a258" x="321.211563" y="294.210769" style="fill: #ff7f0e; stroke: #ff7f0e"/>
     <use xlink:href="#m3cf644a258" x="332.371562" y="287.628452" style="fill: #ff7f0e; stroke: #ff7f0e"/>
     <use xlink:href="#m3cf644a258" x="343.531563" y="275.588696" style="fill: #ff7f0e; stroke: #ff7f0e"/>
     <use xlink:href="#m3cf644a258" x="354.691563" y="260.218292" style="fill: #ff7f0e; stroke: #ff7f0e"/>
     <use xlink:href="#m3cf644a258" x="365.851563" y="243.788902" style="fill: #ff7f0e; stroke: #ff7f0e"/>
     <use xlink:href="#m3cf644a258" x="377.011562" y="227.910535" style="fill: #ff7f0e; stroke: #ff7f0e"/>
     <use xlink:href="#m3cf644a258" x="388.171562" y="213.018979" style="fill: #ff7f0e; stroke: #ff7f0e"/>
     <use xlink:href="#m3cf644a258" x="399.331563" y="198.507727" style="fill: #ff7f0e; stroke: #ff7f0e"/>
     <use xlink:href="#m3cf644a258" x="410.491562" y="183.508972" style="fill: #ff7f0e; stroke: #ff7f0e"/>
     <use xlink:href="#m3cf644a258" x="421.651563" y="167.906637" style="fill: #ff7f0e; stroke: #ff7f0e"/>
     <use xlink:href="#m3cf644a258" x="432.811562" y="152.96759" style="fill: #ff7f0e; stroke: #ff7f0e"/>
     <use xlink:href="#m3cf644a258" x="443.971563" y="141.159927" style="fill: #ff7f0e; stroke: #ff7f0e"/>
     <use xlink:href="#m3cf644a258" x="455.131562" y="135.181567" style="fill: #ff7f0e; stroke: #ff7f0e"/>
     <use xlink:href="#m3cf644a258" x="466.291563" y="136.664386" style="fill: #ff7f0e; stroke: #ff7f0e"/>
     <use xlink:href="#m3cf644a258" x="477.451563" y="145.194993" style="fill: #ff7f0e; stroke: #ff7f0e"/>
     <use xlink:href="#m3cf644a258" x="488.611562" y="158.136102" style="fill: #ff7f0e; stroke: #ff7f0e"/>
    </g>
   </g>
   <g id="line2d_17">
    <path d="M 42.211563 135.707117 
L 53.371563 137.784174 
L 64.531563 138.001786 
L 75.691563 137.056304 
L 86.851562 135.672309 
L 98.011563 134.645895 
L 109.171563 134.810808 
L 120.331563 136.896767 
L 131.491563 141.308375 
L 142.651563 147.900852 
L 153.811563 155.859867 
L 164.971563 163.777929 
L 176.131563 169.946628 
L 187.291562 172.784294 
L 198.451563 171.250223 
L 209.611562 165.094216 
L 220.771563 154.850714 
L 231.931563 141.58781 
L 243.091563 126.534441 
L 254.251563 110.782533 
L 265.411563 95.230966 
L 276.571563 80.784304 
L 287.731562 68.626095 
L 298.891563 60.303782 
L 310.051563 57.478821 
L 321.211563 61.437308 
L 332.371562 72.634546 
L 343.531563 90.519579 
L 354.691563 113.68586 
L 365.851563 140.197353 
L 377.011562 167.899761 
L 388.171562 194.646225 
L 399.331563 218.502859 
L 410.491562 238.007793 
L 421.651563 252.428428 
L 432.811562 261.830266 
L 443.971563 266.796922 
L 455.131562 267.85809 
L 466.291563 264.946153 
L 477.451563 257.288345 
L 488.611562 243.928011 
" clip-path="url(#p3e0f2a51a3)" style="fill: none; stroke: #2ca02c; stroke-width: 1.5; stroke-linecap: round"/>
    <defs>
     <path id="mb03e623b57" d="M 0 1.5 
C 0.397805 1.5 0.77937 1.341951 1.06066 1.06066 
C 1.341951 0.77937 1.5 0.397805 1.5 0 
C 1.5 -0.397805 1.341951 -0.77937 1.06066 -1.06066 
C 0.77937 -1.341951 0.397805 -1.5 0 -1.5 
C -0.397805 -1.5 -0.77937 -1.341951 -1.06066 -1.06066 
C -1.341951 -0.77937 -1.5 -0.397805 -1.5 0 
C -1.5 0.397805 -1.341951 0.77937 -1.06066 1.06066 
C -0.77937 1.341951 -0.397805 1.5 0 1.5 
z
" style="stroke: #2ca02c"/>
    </defs>
    <g clip-path="url(#p3e0f2a51a3)">
     <use xlink:href="#mb03e623b57" x="42.211563" y="135.707117" style="fill: #2ca02c; stroke: #2ca02c"/>
     <use xlink:href="#mb03e623b57" x="53.371563" y="137.784174" style="fill: #2ca02c; stroke: #2ca02c"/>
     <use xlink:href="#mb03e623b57" x="64.531563" y="138.001786" style="fill: #2ca02c; stroke: #2ca02c"/>
     <use xlink:href="#mb03e623b57" x="75.691563" y="137.056304" style="fill: #2ca02c; stroke: #2ca02c"/>
     <use xlink:href="#mb03e623b57" x="86.851562" y="135.672309" style="fill: #2ca02c; stroke: #2ca02c"/>
     <use xlink:href="#mb03e623b57" x="98.011563" y="134.645895" style="fill: #2ca02c; stroke: #2ca02c"/>
     <use xlink:href="#mb03e623b57" x="109.171563" y="134.810808" style="fill: #2ca02c; stroke: #2ca02c"/>
     <use xlink:href="#mb03e623b57" x="120.331563" y="136.896767" style="fill: #2ca02c; stroke: #2ca02c"/>
     <use xlink:href="#mb03e623b57" x="131.491563" y="141.308375" style="fill: #2ca02c; stroke: #2ca02c"/>
     <use xlink:href="#mb03e623b57" x="142.651563" y="147.900852" style="fill: #2ca02c; stroke: #2ca02c"/>
     <use xlink:href="#mb03e623b57" x="153.811563" y="155.859867" style="fill: #2ca02c; stroke: #2ca02c"/>
     <use xlink:href="#mb03e623b57" x="164.971563" y="163.777929" style="fill: #2ca02c; stroke: #2ca02c"/>
     <use xlink:href="#mb03e623b57" x="176.131563" y="169.946628" style="fill: #2ca02c; stroke: #2ca02c"/>
     <use xlink:href="#mb03e623b57" x="187.291562" y="172.784294" style="fill: #2ca02c; stroke: #2ca02c"/>
     <use xlink:href="#mb03e623b57" x="198.451563" y="171.250223" style="fill: #2ca02c; stroke: #2ca02c"/>
     <use xlink:href="#mb03e623b57" x="209.611562" y="165.094216" style="fill: #2ca02c; stroke: #2ca02c"/>
     <use xlink:href="#mb03e623b57" x="220.771563" y="154.850714" style="fill: #2ca02c; stroke: #2ca02c"/>
     <use xlink:href="#mb03e623b57" x="231.931563" y="141.58781" style="fill: #2ca02c; stroke: #2ca02c"/>
     <use xlink:href="#mb03e623b57" x="243.091563" y="126.534441" style="fill: #2ca02c; stroke: #2ca02c"/>
     <use xlink:href="#mb03e623b57" x="254.251563" y="110.782533" style="fill: #2ca02c; stroke: #2ca02c"/>
     <use xlink:href="#mb03e623b57" x="265.411563" y="95.230966" style="fill: #2ca02c; stroke: #2ca02c"/>
     <use xlink:href="#mb03e623b57" x="276.571563" y="80.784304" style="fill: #2ca02c; stroke: #2ca02c"/>
     <use xlink:href="#mb03e623b57" x="287.731562" y="68.626095" style="fill: #2ca02c; stroke: #2ca02c"/>
     <use xlink:href="#mb03e623b57" x="298.891563" y="60.303782" style="fill: #2ca02c; stroke: #2ca02c"/>
     <use xlink:href="#mb03e623b57" x="310.051563" y="57.478821" style="fill: #2ca02c; stroke: #2ca02c"/>
     <use xlink:href="#mb03e623b57" x="321.211563" y="61.437308" style="fill: #2ca02c; stroke: #2ca02c"/>
     <use xlink:href="#mb03e623b57" x="332.371562" y="72.634546" style="fill: #2ca02c; stroke: #2ca02c"/>
     <use xlink:href="#mb03e623b57" x="343.531563" y="90.519579" style="fill: #2ca02c; stroke: #2ca02c"/>
     <use xlink:href="#mb03e623b57" x="354.691563" y="113.68586" style="fill: #2ca02c; stroke: #2ca02c"/>
     <use xlink:href="#mb03e623b57" x="365.851563" y="140.197353" style="fill: #2ca02c; stroke: #2ca02c"/>
     <use xlink:href="#mb03e623b57" x="377.011562" y="167.899761" style="fill: #2ca02c; stroke: #2ca02c"/>
     <use xlink:href="#mb03e623b57" x="388.171562" y="194.646225" style="fill: #2ca02c; stroke: #2ca02c"/>
     <use xlink:href="#mb03e623b57" x="399.331563" y="218.502859" style="fill: #2ca02c; stroke: #2ca02c"/>
     <use xlink:href="#mb03e623b57" x="410.491562" y="238.007793" style="fill: #2ca02c; stroke: #2ca02c"/>
     <use xlink:href="#mb03e623b57" x="421.651563" y="252.428428" style="fill: #2ca02c; stroke: #2ca02c"/>
     <use xlink:href="#mb03e623b57" x="432.811562" y="261.830266" style="fill: #2ca02c; stroke: #2ca02c"/>
     <use xlink:href="#mb03e623b57" x="443.971563" y="266.796922" style="fill: #2ca02c; stroke: #2ca02c"/>
     <use xlink:href="#mb03e623b57" x="455.131562" y="267.85809" style="fill: #2ca02c; stroke: #2ca02c"/>
     <use xlink:href="#mb03e623b57" x="466.291563" y="264.946153" style="fill: #2ca02c; stroke: #2ca02c"/>
     <use xlink:href="#mb03e623b57" x="477.451563" y="257.288345" style="fill: #2ca02c; stroke: #2ca02c"/>
     <use xlink:href="#mb03e623b57" x="488.611562" y="243.928011" style="fill: #2ca02c; stroke: #2ca02c"/>
    </g>
   </g>
   <g id="line2d_18">
    <path d="M 42.211563 93.590363 
L 53.371563 78.260382 
L 64.531563 66.105958 
L 75.691563 57.20268 
L 86.851562 51.289361 
L 98.011563 48.055204 
L 109.171563 47.403375 
L 120.331563 49.582005 
L 131.491563 55.131752 
L 142.651563 64.659472 
L 153.811563 78.501809 
L 164.971563 96.388952 
L 176.131563 117.246369 
L 187.291562 139.251638 
L 198.451563 160.174426 
L 209.611562 177.895698 
L 220.771563 190.901861 
L 231.931563 198.555281 
L 243.091563 201.062868 
L 254.251563 199.222789 
L 265.411563 194.115797 
L 276.571563 186.869195 
L 287.731562 178.511134 
L 298.891563 169.860896 
L 310.051563 161.432066 
L 321.211563 153.410442 
L 332.371562 145.796424 
L 343.531563 138.712827 
L 354.691563 132.737735 
L 365.851563 129.053945 
L 377.011562 129.281227 
L 388.171562 135.022555 
L 399.331563 147.294293 
L 410.491562 166.04906 
L 421.651563 189.950377 
L 432.811562 216.474551 
L 443.971563 242.329116 
L 455.131562 264.092585 
L 466.291563 278.910328 
L 477.451563 285.063296 
L 488.611562 282.281532 
" clip-path="url(#p3e0f2a51a3)" style="fill: none; stroke: #d62728; stroke-width: 1.5; stroke-linecap: round"/>
    <defs>
     <path id="m7771ed8fda" d="M 0 1.5 
C 0.397805 1.5 0.77937 1.341951 1.06066 1.06066 
C 1.341951 0.77937 1.5 0.397805 1.5 0 
C 1.5 -0.397805 1.341951 -0.77937 1.06066 -1.06066 
C 0.77937 -1.341951 0.397805 -1.5 0 -1.5 
C -0.397805 -1.5 -0.77937 -1.341951 -1.06066 -1.06066 
C -1.341951 -0.77937 -1.5 -0.397805 -1.5 0 
C -1.5 0.397805 -1.341951 0.77937 -1.06066 1.06066 
C -0.77937 1.341951 -0.397805 1.5 0 1.5 
z
" style="stroke: #d62728"/>
    </defs>
    <g clip-path="url(#p3e0f2a51a3)">
     <use xlink:href="#m7771ed8fda" x="42.211563" y="93.590363" style="fill: #d62728; stroke: #d62728"/>
     <use xlink:href="#m7771ed8fda" x="53.371563" y="78.260382" style="fill: #d62728; stroke: #d62728"/>
     <use xlink:href="#m7771ed8fda" x="64.531563" y="66.105958" style="fill: #d62728; stroke: #d62728"/>
     <use xlink:href="#m7771ed8fda" x="75.691563" y="57.20268" style="fill: #d62728; stroke: #d62728"/>
     <use xlink:href="#m7771ed8fda" x="86.851562" y="51.289361" style="fill: #d62728; stroke: #d62728"/>
     <use xlink:href="#m7771ed8fda" x="98.011563" y="48.055204" style="fill: #d62728; stroke: #d62728"/>
     <use xlink:href="#m7771ed8fda" x="109.171563" y="47.403375" style="fill: #d62728; stroke: #d62728"/>
     <use xlink:href="#m7771ed8fda" x="120.331563" y="49.582005" style="fill: #d62728; stroke: #d62728"/>
     <use xlink:href="#m7771ed8fda" x="131.491563" y="55.131752" style="fill: #d62728; stroke: #d62728"/>
     <use xlink:href="#m7771ed8fda" x="142.651563" y="64.659472" style="fill: #d62728; stroke: #d62728"/>
     <use xlink:href="#m7771ed8fda" x="153.811563" y="78.501809" style="fill: #d62728; stroke: #d62728"/>
     <use xlink:href="#m7771ed8fda" x="164.971563" y="96.388952" style="fill: #d62728; stroke: #d62728"/>
     <use xlink:href="#m7771ed8fda" x="176.131563" y="117.246369" style="fill: #d62728; stroke: #d62728"/>
     <use xlink:href="#m7771ed8fda" x="187.291562" y="139.251638" style="fill: #d62728; stroke: #d62728"/>
     <use xlink:href="#m7771ed8fda" x="198.451563" y="160.174426" style="fill: #d62728; stroke: #d62728"/>
     <use xlink:href="#m7771ed8fda" x="209.611562" y="177.895698" style="fill: #d62728; stroke: #d62728"/>
     <use xlink:href="#m7771ed8fda" x="220.771563" y="190.901861" style="fill: #d62728; stroke: #d62728"/>
     <use xlink:href="#m7771ed8fda" x="231.931563" y="198.555281" style="fill: #d62728; stroke: #d62728"/>
     <use xlink:href="#m7771ed8fda" x="243.091563" y="201.062868" style="fill: #d62728; stroke: #d62728"/>
     <use xlink:href="#m7771ed8fda" x="254.251563" y="199.222789" style="fill: #d62728; stroke: #d62728"/>
     <use xlink:href="#m7771ed8fda" x="265.411563" y="194.115797" style="fill: #d62728; stroke: #d62728"/>
     <use xlink:href="#m7771ed8fda" x="276.571563" y="186.869195" style="fill: #d62728; stroke: #d62728"/>
     <use xlink:href="#m7771ed8fda" x="287.731562" y="178.511134" style="fill: #d62728; stroke: #d62728"/>
     <use xlink:href="#m7771ed8fda" x="298.891563" y="169.860896" style="fill: #d62728; stroke: #d62728"/>
     <use xlink:href="#m7771ed8fda" x="310.051563" y="161.432066" style="fill: #d62728; stroke: #d62728"/>
     <use xlink:href="#m7771ed8fda" x="321.211563" y="153.410442" style="fill: #d62728; stroke: #d62728"/>
     <use xlink:href="#m7771ed8fda" x="332.371562" y="145.796424" style="fill: #d62728; stroke: #d62728"/>
     <use xlink:href="#m7771ed8fda" x="343.531563" y="138.712827" style="fill: #d62728; stroke: #d62728"/>
     <use xlink:href="#m7771ed8fda" x="354.691563" y="132.737735" style="fill: #d62728; stroke: #d62728"/>
     <use xlink:href="#m7771ed8fda" x="365.851563" y="129.053945" style="fill: #d62728; stroke: #d62728"/>
     <use xlink:href="#m7771ed8fda" x="377.011562" y="129.281227" style="fill: #d62728; stroke: #d62728"/>
     <use xlink:href="#m7771ed8fda" x="388.171562" y="135.022555" style="fill: #d62728; stroke: #d62728"/>
     <use xlink:href="#m7771ed8fda" x="399.331563" y="147.294293" style="fill: #d62728; stroke: #d62728"/>
     <use xlink:href="#m7771ed8fda" x="410.491562" y="166.04906" style="fill: #d62728; stroke: #d62728"/>
     <use xlink:href="#m7771ed8fda" x="421.651563" y="189.950377" style="fill: #d62728; stroke: #d62728"/>
     <use xlink:href="#m7771ed8fda" x="432.811562" y="216.474551" style="fill: #d62728; stroke: #d62728"/>
     <use xlink:href="#m7771ed8fda" x="443.971563" y="242.329116" style="fill: #d62728; stroke: #d62728"/>
     <use xlink:href="#m7771ed8fda" x="455.131562" y="264.092585" style="fill: #d62728; stroke: #d62728"/>
     <use xlink:href="#m7771ed8fda" x="466.291563" y="278.910328" style="fill: #d62728; stroke: #d62728"/>
     <use xlink:href="#m7771ed8fda" x="477.451563" y="285.063296" style="fill: #d62728; stroke: #d62728"/>
     <use xlink:href="#m7771ed8fda" x="488.611562" y="282.281532" style="fill: #d62728; stroke: #d62728"/>
    </g>
   </g>
   <g id="line2d_19">
    <path d="M 42.211563 239.55606 
L 53.371563 232.616822 
L 64.531563 222.108505 
L 75.691563 210.040022 
L 86.851562 198.843149 
L 98.011563 190.770203 
L 109.171563 187.388123 
L 120.331563 189.324188 
L 131.491563 196.243401 
L 142.651563 206.934417 
L 153.811563 219.413966 
L 164.971563 231.069865 
L 176.131563 238.940324 
L 187.291562 240.19854 
L 198.451563 232.791184 
L 209.611562 216.045342 
L 220.771563 191.00518 
L 231.931563 160.330536 
L 243.091563 127.756913 
L 254.251563 97.292266 
L 265.411563 72.420056 
L 276.571563 55.549004 
L 287.731562 47.824393 
L 298.891563 49.261014 
L 310.051563 59.044908 
L 321.211563 75.823993 
L 332.371562 97.872882 
L 343.531563 123.135452 
L 354.691563 149.247465 
L 365.851563 173.656205 
L 377.011562 193.879359 
L 388.171562 207.844928 
L 399.331563 214.204951 
L 410.491562 212.541269 
L 421.651563 203.440163 
L 432.811562 188.447668 
L 443.971563 169.913705 
L 455.131562 150.717632 
L 466.291563 133.87393 
L 477.451563 122.052474 
L 488.611562 117.097585 
" clip-path="url(#p3e0f2a51a3)" style="fill: none; stroke: #9467bd; stroke-width: 1.5; stroke-linecap: round"/>
    <defs>
     <path id="me51f5484b9" d="M 0 1.5 
C 0.397805 1.5 0.77937 1.341951 1.06066 1.06066 
C 1.341951 0.77937 1.5 0.397805 1.5 0 
C 1.5 -0.397805 1.341951 -0.77937 1.06066 -1.06066 
C 0.77937 -1.341951 0.397805 -1.5 0 -1.5 
C -0.397805 -1.5 -0.77937 -1.341951 -1.06066 -1.06066 
C -1.341951 -0.77937 -1.5 -0.397805 -1.5 0 
C -1.5 0.397805 -1.341951 0.77937 -1.06066 1.06066 
C -0.77937 1.341951 -0.397805 1.5 0 1.5 
z
" style="stroke: #9467bd"/>
    </defs>
    <g clip-path="url(#p3e0f2a51a3)">
     <use xlink:href="#me51f5484b9" x="42.211563" y="239.55606" style="fill: #9467bd; stroke: #9467bd"/>
     <use xlink:href="#me51f5484b9" x="53.371563" y="232.616822" style="fill: #9467bd; stroke: #9467bd"/>
     <use xlink:href="#me51f5484b9" x="64.531563" y="222.108505" style="fill: #9467bd; stroke: #9467bd"/>
     <use xlink:href="#me51f5484b9" x="75.691563" y="210.040022" style="fill: #9467bd; stroke: #9467bd"/>
     <use xlink:href="#me51f5484b9" x="86.851562" y="198.843149" style="fill: #9467bd; stroke: #9467bd"/>
     <use xlink:href="#me51f5484b9" x="98.011563" y="190.770203" style="fill: #9467bd; stroke: #9467bd"/>
     <use xlink:href="#me51f5484b9" x="109.171563" y="187.388123" style="fill: #9467bd; stroke: #9467bd"/>
     <use xlink:href="#me51f5484b9" x="120.331563" y="189.324188" style="fill: #9467bd; stroke: #9467bd"/>
     <use xlink:href="#me51f5484b9" x="131.491563" y="196.243401" style="fill: #9467bd; stroke: #9467bd"/>
     <use xlink:href="#me51f5484b9" x="142.651563" y="206.934417" style="fill: #9467bd; stroke: #9467bd"/>
     <use xlink:href="#me51f5484b9" x="153.811563" y="219.413966" style="fill: #9467bd; stroke: #9467bd"/>
     <use xlink:href="#me51f5484b9" x="164.971563" y="231.069865" style="fill: #9467bd; stroke: #9467bd"/>
     <use xlink:href="#me51f5484b9" x="176.131563" y="238.940324" style="fill: #9467bd; stroke: #9467bd"/>
     <use xlink:href="#me51f5484b9" x="187.291562" y="240.19854" style="fill: #9467bd; stroke: #9467bd"/>
     <use xlink:href="#me51f5484b9" x="198.451563" y="232.791184" style="fill: #9467bd; stroke: #9467bd"/>
     <use xlink:href="#me51f5484b9" x="209.611562" y="216.045342" style="fill: #9467bd; stroke: #9467bd"/>
     <use xlink:href="#me51f5484b9" x="220.771563" y="191.00518" style="fill: #9467bd; stroke: #9467bd"/>
     <use xlink:href="#me51f5484b9" x="231.931563" y="160.330536" style="fill: #9467bd; stroke: #9467bd"/>
     <use xlink:href="#me51f5484b9" x="243.091563" y="127.756913" style="fill: #9467bd; stroke: #9467bd"/>
     <use xlink:href="#me51f5484b9" x="254.251563" y="97.292266" style="fill: #9467bd; stroke: #9467bd"/>
     <use xlink:href="#me51f5484b9" x="265.411563" y="72.420056" style="fill: #9467bd; stroke: #9467bd"/>
     <use xlink:href="#me51f5484b9" x="276.571563" y="55.549004" style="fill: #9467bd; stroke: #9467bd"/>
     <use xlink:href="#me51f5484b9" x="287.731562" y="47.824393" style="fill: #9467bd; stroke: #9467bd"/>
     <use xlink:href="#me51f5484b9" x="298.891563" y="49.261014" style="fill: #9467bd; stroke: #9467bd"/>
     <use xlink:href="#me51f5484b9" x="310.051563" y="59.044908" style="fill: #9467bd; stroke: #9467bd"/>
     <use xlink:href="#me51f5484b9" x="321.211563" y="75.823993" style="fill: #9467bd; stroke: #9467bd"/>
     <use xlink:href="#me51f5484b9" x="332.371562" y="97.872882" style="fill: #9467bd; stroke: #9467bd"/>
     <use xlink:href="#me51f5484b9" x="343.531563" y="123.135452" style="fill: #9467bd; stroke: #9467bd"/>
     <use xlink:href="#me51f5484b9" x="354.691563" y="149.247465" style="fill: #9467bd; stroke: #9467bd"/>
     <use xlink:href="#me51f5484b9" x="365.851563" y="173.656205" style="fill: #9467bd; stroke: #9467bd"/>
     <use xlink:href="#me51f5484b9" x="377.011562" y="193.879359" style="fill: #9467bd; stroke: #9467bd"/>
     <use xlink:href="#me51f5484b9" x="388.171562" y="207.844928" style="fill: #9467bd; stroke: #9467bd"/>
     <use xlink:href="#me51f5484b9" x="399.331563" y="214.204951" style="fill: #9467bd; stroke: #9467bd"/>
     <use xlink:href="#me51f5484b9" x="410.491562" y="212.541269" style="fill: #9467bd; stroke: #9467bd"/>
     <use xlink:href="#me51f5484b9" x="421.651563" y="203.440163" style="fill: #9467bd; stroke: #9467bd"/>
     <use xlink:href="#me51f5484b9" x="432.811562" y="188.447668" style="fill: #9467bd; stroke: #9467bd"/>
     <use xlink:href="#me51f5484b9" x="443.971563" y="169.913705" style="fill: #9467bd; stroke: #9467bd"/>
     <use xlink:href="#me51f5484b9" x="455.131562" y="150.717632" style="fill: #9467bd; stroke: #9467bd"/>
     <use xlink:href="#me51f5484b9" x="466.291563" y="133.87393" style="fill: #9467bd; stroke: #9467bd"/>
     <use xlink:href="#me51f5484b9" x="477.451563" y="122.052474" style="fill: #9467bd; stroke: #9467bd"/>
     <use xlink:href="#me51f5484b9" x="488.611562" y="117.097585" style="fill: #9467bd; stroke: #9467bd"/>
    </g>
   </g>
   <g id="patch_3">
    <path d="M 42.211562 312.003375 
L 42.211562 34.803375 
" style="fill: none; stroke: #ffffff; stroke-width: 0.8; stroke-linejoin: miter; stroke-linecap: square"/>
   </g>
   <g id="patch_4">
    <path d="M 488.611562 312.003375 
L 488.611562 34.803375 
" style="fill: none; stroke: #ffffff; stroke-width: 0.8; stroke-linejoin: miter; stroke-linecap: square"/>
   </g>
   <g id="patch_5">
    <path d="M 42.211563 312.003375 
L 488.611562 312.003375 
" style="fill: none; stroke: #ffffff; stroke-width: 0.8; stroke-linejoin: miter; stroke-linecap: square"/>
   </g>
   <g id="patch_6">
    <path d="M 42.211563 34.803375 
L 488.611562 34.803375 
" style="fill: none; stroke: #ffffff; stroke-width: 0.8; stroke-linejoin: miter; stroke-linecap: square"/>
   </g>
   <g id="text_17">
    <!-- 5 different function realizations at 41 points -->
    <g style="fill: #262626" transform="translate(151.454688 15.935625)scale(0.12 -0.12)">
     <defs>
      <path id="ArialMT-35" d="M 266 1200 
L 856 1250 
Q 922 819 1161 601 
Q 1400 384 1738 384 
Q 2144 384 2425 690 
Q 2706 997 2706 1503 
Q 2706 1984 2436 2262 
Q 2166 2541 1728 2541 
Q 1456 2541 1237 2417 
Q 1019 2294 894 2097 
L 366 2166 
L 809 4519 
L 3088 4519 
L 3088 3981 
L 1259 3981 
L 1013 2750 
Q 1425 3038 1878 3038 
Q 2478 3038 2890 2622 
Q 3303 2206 3303 1553 
Q 3303 931 2941 478 
Q 2500 -78 1738 -78 
Q 1113 -78 717 272 
Q 322 622 266 1200 
z
" transform="scale(0.015625)"/>
      <path id="ArialMT-20" transform="scale(0.015625)"/>
      <path id="ArialMT-64" d="M 2575 0 
L 2575 419 
Q 2259 -75 1647 -75 
Q 1250 -75 917 144 
Q 584 363 401 755 
Q 219 1147 219 1656 
Q 219 2153 384 2558 
Q 550 2963 881 3178 
Q 1213 3394 1622 3394 
Q 1922 3394 2156 3267 
Q 2391 3141 2538 2938 
L 2538 4581 
L 3097 4581 
L 3097 0 
L 2575 0 
z
M 797 1656 
Q 797 1019 1065 703 
Q 1334 388 1700 388 
Q 2069 388 2326 689 
Q 2584 991 2584 1609 
Q 2584 2291 2321 2609 
Q 2059 2928 1675 2928 
Q 1300 2928 1048 2622 
Q 797 2316 797 1656 
z
" transform="scale(0.015625)"/>
      <path id="ArialMT-69" d="M 425 3934 
L 425 4581 
L 988 4581 
L 988 3934 
L 425 3934 
z
M 425 0 
L 425 3319 
L 988 3319 
L 988 0 
L 425 0 
z
" transform="scale(0.015625)"/>
      <path id="ArialMT-66" d="M 556 0 
L 556 2881 
L 59 2881 
L 59 3319 
L 556 3319 
L 556 3672 
Q 556 4006 616 4169 
Q 697 4388 901 4523 
Q 1106 4659 1475 4659 
Q 1713 4659 2000 4603 
L 1916 4113 
Q 1741 4144 1584 4144 
Q 1328 4144 1222 4034 
Q 1116 3925 1116 3625 
L 1116 3319 
L 1763 3319 
L 1763 2881 
L 1116 2881 
L 1116 0 
L 556 0 
z
" transform="scale(0.015625)"/>
      <path id="ArialMT-65" d="M 2694 1069 
L 3275 997 
Q 3138 488 2766 206 
Q 2394 -75 1816 -75 
Q 1088 -75 661 373 
Q 234 822 234 1631 
Q 234 2469 665 2931 
Q 1097 3394 1784 3394 
Q 2450 3394 2872 2941 
Q 3294 2488 3294 1666 
Q 3294 1616 3291 1516 
L 816 1516 
Q 847 969 1125 678 
Q 1403 388 1819 388 
Q 2128 388 2347 550 
Q 2566 713 2694 1069 
z
M 847 1978 
L 2700 1978 
Q 2663 2397 2488 2606 
Q 2219 2931 1791 2931 
Q 1403 2931 1139 2672 
Q 875 2413 847 1978 
z
" transform="scale(0.015625)"/>
      <path id="ArialMT-72" d="M 416 0 
L 416 3319 
L 922 3319 
L 922 2816 
Q 1116 3169 1280 3281 
Q 1444 3394 1641 3394 
Q 1925 3394 2219 3213 
L 2025 2691 
Q 1819 2813 1613 2813 
Q 1428 2813 1281 2702 
Q 1134 2591 1072 2394 
Q 978 2094 978 1738 
L 978 0 
L 416 0 
z
" transform="scale(0.015625)"/>
      <path id="ArialMT-6e" d="M 422 0 
L 422 3319 
L 928 3319 
L 928 2847 
Q 1294 3394 1984 3394 
Q 2284 3394 2536 3286 
Q 2788 3178 2913 3003 
Q 3038 2828 3088 2588 
Q 3119 2431 3119 2041 
L 3119 0 
L 2556 0 
L 2556 2019 
Q 2556 2363 2490 2533 
Q 2425 2703 2258 2804 
Q 2091 2906 1866 2906 
Q 1506 2906 1245 2678 
Q 984 2450 984 1813 
L 984 0 
L 422 0 
z
" transform="scale(0.015625)"/>
      <path id="ArialMT-74" d="M 1650 503 
L 1731 6 
Q 1494 -44 1306 -44 
Q 1000 -44 831 53 
Q 663 150 594 308 
Q 525 466 525 972 
L 525 2881 
L 113 2881 
L 113 3319 
L 525 3319 
L 525 4141 
L 1084 4478 
L 1084 3319 
L 1650 3319 
L 1650 2881 
L 1084 2881 
L 1084 941 
Q 1084 700 1114 631 
Q 1144 563 1211 522 
Q 1278 481 1403 481 
Q 1497 481 1650 503 
z
" transform="scale(0.015625)"/>
      <path id="ArialMT-75" d="M 2597 0 
L 2597 488 
Q 2209 -75 1544 -75 
Q 1250 -75 995 37 
Q 741 150 617 320 
Q 494 491 444 738 
Q 409 903 409 1263 
L 409 3319 
L 972 3319 
L 972 1478 
Q 972 1038 1006 884 
Q 1059 663 1231 536 
Q 1403 409 1656 409 
Q 1909 409 2131 539 
Q 2353 669 2445 892 
Q 2538 1116 2538 1541 
L 2538 3319 
L 3100 3319 
L 3100 0 
L 2597 0 
z
" transform="scale(0.015625)"/>
      <path id="ArialMT-63" d="M 2588 1216 
L 3141 1144 
Q 3050 572 2676 248 
Q 2303 -75 1759 -75 
Q 1078 -75 664 370 
Q 250 816 250 1647 
Q 250 2184 428 2587 
Q 606 2991 970 3192 
Q 1334 3394 1763 3394 
Q 2303 3394 2647 3120 
Q 2991 2847 3088 2344 
L 2541 2259 
Q 2463 2594 2264 2762 
Q 2066 2931 1784 2931 
Q 1359 2931 1093 2626 
Q 828 2322 828 1663 
Q 828 994 1084 691 
Q 1341 388 1753 388 
Q 2084 388 2306 591 
Q 2528 794 2588 1216 
z
" transform="scale(0.015625)"/>
      <path id="ArialMT-6f" d="M 213 1659 
Q 213 2581 725 3025 
Q 1153 3394 1769 3394 
Q 2453 3394 2887 2945 
Q 3322 2497 3322 1706 
Q 3322 1066 3130 698 
Q 2938 331 2570 128 
Q 2203 -75 1769 -75 
Q 1072 -75 642 372 
Q 213 819 213 1659 
z
M 791 1659 
Q 791 1022 1069 705 
Q 1347 388 1769 388 
Q 2188 388 2466 706 
Q 2744 1025 2744 1678 
Q 2744 2294 2464 2611 
Q 2184 2928 1769 2928 
Q 1347 2928 1069 2612 
Q 791 2297 791 1659 
z
" transform="scale(0.015625)"/>
      <path id="ArialMT-61" d="M 2588 409 
Q 2275 144 1986 34 
Q 1697 -75 1366 -75 
Q 819 -75 525 192 
Q 231 459 231 875 
Q 231 1119 342 1320 
Q 453 1522 633 1644 
Q 813 1766 1038 1828 
Q 1203 1872 1538 1913 
Q 2219 1994 2541 2106 
Q 2544 2222 2544 2253 
Q 2544 2597 2384 2738 
Q 2169 2928 1744 2928 
Q 1347 2928 1158 2789 
Q 969 2650 878 2297 
L 328 2372 
Q 403 2725 575 2942 
Q 747 3159 1072 3276 
Q 1397 3394 1825 3394 
Q 2250 3394 2515 3294 
Q 2781 3194 2906 3042 
Q 3031 2891 3081 2659 
Q 3109 2516 3109 2141 
L 3109 1391 
Q 3109 606 3145 398 
Q 3181 191 3288 0 
L 2700 0 
Q 2613 175 2588 409 
z
M 2541 1666 
Q 2234 1541 1622 1453 
Q 1275 1403 1131 1340 
Q 988 1278 909 1158 
Q 831 1038 831 891 
Q 831 666 1001 516 
Q 1172 366 1500 366 
Q 1825 366 2078 508 
Q 2331 650 2450 897 
Q 2541 1088 2541 1459 
L 2541 1666 
z
" transform="scale(0.015625)"/>
      <path id="ArialMT-6c" d="M 409 0 
L 409 4581 
L 972 4581 
L 972 0 
L 409 0 
z
" transform="scale(0.015625)"/>
      <path id="ArialMT-7a" d="M 125 0 
L 125 456 
L 2238 2881 
Q 1878 2863 1603 2863 
L 250 2863 
L 250 3319 
L 2963 3319 
L 2963 2947 
L 1166 841 
L 819 456 
Q 1197 484 1528 484 
L 3063 484 
L 3063 0 
L 125 0 
z
" transform="scale(0.015625)"/>
      <path id="ArialMT-73" d="M 197 991 
L 753 1078 
Q 800 744 1014 566 
Q 1228 388 1613 388 
Q 2000 388 2187 545 
Q 2375 703 2375 916 
Q 2375 1106 2209 1216 
Q 2094 1291 1634 1406 
Q 1016 1563 777 1677 
Q 538 1791 414 1992 
Q 291 2194 291 2438 
Q 291 2659 392 2848 
Q 494 3038 669 3163 
Q 800 3259 1026 3326 
Q 1253 3394 1513 3394 
Q 1903 3394 2198 3281 
Q 2494 3169 2634 2976 
Q 2775 2784 2828 2463 
L 2278 2388 
Q 2241 2644 2061 2787 
Q 1881 2931 1553 2931 
Q 1166 2931 1000 2803 
Q 834 2675 834 2503 
Q 834 2394 903 2306 
Q 972 2216 1119 2156 
Q 1203 2125 1616 2013 
Q 2213 1853 2448 1751 
Q 2684 1650 2818 1456 
Q 2953 1263 2953 975 
Q 2953 694 2789 445 
Q 2625 197 2315 61 
Q 2006 -75 1616 -75 
Q 969 -75 630 194 
Q 291 463 197 991 
z
" transform="scale(0.015625)"/>
      <path id="ArialMT-70" d="M 422 -1272 
L 422 3319 
L 934 3319 
L 934 2888 
Q 1116 3141 1344 3267 
Q 1572 3394 1897 3394 
Q 2322 3394 2647 3175 
Q 2972 2956 3137 2557 
Q 3303 2159 3303 1684 
Q 3303 1175 3120 767 
Q 2938 359 2589 142 
Q 2241 -75 1856 -75 
Q 1575 -75 1351 44 
Q 1128 163 984 344 
L 984 -1272 
L 422 -1272 
z
M 931 1641 
Q 931 1000 1190 694 
Q 1450 388 1819 388 
Q 2194 388 2461 705 
Q 2728 1022 2728 1688 
Q 2728 2322 2467 2637 
Q 2206 2953 1844 2953 
Q 1484 2953 1207 2617 
Q 931 2281 931 1641 
z
" transform="scale(0.015625)"/>
     </defs>
     <use xlink:href="#ArialMT-35"/>
     <use xlink:href="#ArialMT-20" x="55.615234"/>
     <use xlink:href="#ArialMT-64" x="83.398438"/>
     <use xlink:href="#ArialMT-69" x="139.013672"/>
     <use xlink:href="#ArialMT-66" x="161.230469"/>
     <use xlink:href="#ArialMT-66" x="187.263672"/>
     <use xlink:href="#ArialMT-65" x="215.046875"/>
     <use xlink:href="#ArialMT-72" x="270.662109"/>
     <use xlink:href="#ArialMT-65" x="303.962891"/>
     <use xlink:href="#ArialMT-6e" x="359.578125"/>
     <use xlink:href="#ArialMT-74" x="415.193359"/>
     <use xlink:href="#ArialMT-20" x="442.976562"/>
     <use xlink:href="#ArialMT-66" x="470.759766"/>
     <use xlink:href="#ArialMT-75" x="498.542969"/>
     <use xlink:href="#ArialMT-6e" x="554.158203"/>
     <use xlink:href="#ArialMT-63" x="609.773438"/>
     <use xlink:href="#ArialMT-74" x="659.773438"/>
     <use xlink:href="#ArialMT-69" x="687.556641"/>
     <use xlink:href="#ArialMT-6f" x="709.773438"/>
     <use xlink:href="#ArialMT-6e" x="765.388672"/>
     <use xlink:href="#ArialMT-20" x="821.003906"/>
     <use xlink:href="#ArialMT-72" x="848.787109"/>
     <use xlink:href="#ArialMT-65" x="882.087891"/>
     <use xlink:href="#ArialMT-61" x="937.703125"/>
     <use xlink:href="#ArialMT-6c" x="993.318359"/>
     <use xlink:href="#ArialMT-69" x="1015.535156"/>
     <use xlink:href="#ArialMT-7a" x="1037.751953"/>
     <use xlink:href="#ArialMT-61" x="1087.751953"/>
     <use xlink:href="#ArialMT-74" x="1143.367188"/>
     <use xlink:href="#ArialMT-69" x="1171.150391"/>
     <use xlink:href="#ArialMT-6f" x="1193.367188"/>
     <use xlink:href="#ArialMT-6e" x="1248.982422"/>
     <use xlink:href="#ArialMT-73" x="1304.597656"/>
     <use xlink:href="#ArialMT-20" x="1354.597656"/>
     <use xlink:href="#ArialMT-61" x="1382.380859"/>
     <use xlink:href="#ArialMT-74" x="1437.996094"/>
     <use xlink:href="#ArialMT-20" x="1465.779297"/>
     <use xlink:href="#ArialMT-34" x="1493.5625"/>
     <use xlink:href="#ArialMT-31" x="1549.177734"/>
     <use xlink:href="#ArialMT-20" x="1604.792969"/>
     <use xlink:href="#ArialMT-70" x="1632.576172"/>
     <use xlink:href="#ArialMT-6f" x="1688.191406"/>
     <use xlink:href="#ArialMT-69" x="1743.806641"/>
     <use xlink:href="#ArialMT-6e" x="1766.023438"/>
     <use xlink:href="#ArialMT-74" x="1821.638672"/>
     <use xlink:href="#ArialMT-73" x="1849.421875"/>
    </g>
    <!-- sampled from a Gaussian process with exponentiated quadratic kernel -->
    <g style="fill: #262626" transform="translate(78.323125 28.803375)scale(0.12 -0.12)">
     <defs>
      <path id="ArialMT-6d" d="M 422 0 
L 422 3319 
L 925 3319 
L 925 2853 
Q 1081 3097 1340 3245 
Q 1600 3394 1931 3394 
Q 2300 3394 2536 3241 
Q 2772 3088 2869 2813 
Q 3263 3394 3894 3394 
Q 4388 3394 4653 3120 
Q 4919 2847 4919 2278 
L 4919 0 
L 4359 0 
L 4359 2091 
Q 4359 2428 4304 2576 
Q 4250 2725 4106 2815 
Q 3963 2906 3769 2906 
Q 3419 2906 3187 2673 
Q 2956 2441 2956 1928 
L 2956 0 
L 2394 0 
L 2394 2156 
Q 2394 2531 2256 2718 
Q 2119 2906 1806 2906 
Q 1569 2906 1367 2781 
Q 1166 2656 1075 2415 
Q 984 2175 984 1722 
L 984 0 
L 422 0 
z
" transform="scale(0.015625)"/>
      <path id="ArialMT-47" d="M 2638 1797 
L 2638 2334 
L 4578 2338 
L 4578 638 
Q 4131 281 3656 101 
Q 3181 -78 2681 -78 
Q 2006 -78 1454 211 
Q 903 500 622 1047 
Q 341 1594 341 2269 
Q 341 2938 620 3517 
Q 900 4097 1425 4378 
Q 1950 4659 2634 4659 
Q 3131 4659 3532 4498 
Q 3934 4338 4162 4050 
Q 4391 3763 4509 3300 
L 3963 3150 
Q 3859 3500 3706 3700 
Q 3553 3900 3268 4020 
Q 2984 4141 2638 4141 
Q 2222 4141 1919 4014 
Q 1616 3888 1430 3681 
Q 1244 3475 1141 3228 
Q 966 2803 966 2306 
Q 966 1694 1177 1281 
Q 1388 869 1791 669 
Q 2194 469 2647 469 
Q 3041 469 3416 620 
Q 3791 772 3984 944 
L 3984 1797 
L 2638 1797 
z
" transform="scale(0.015625)"/>
      <path id="ArialMT-77" d="M 1034 0 
L 19 3319 
L 600 3319 
L 1128 1403 
L 1325 691 
Q 1338 744 1497 1375 
L 2025 3319 
L 2603 3319 
L 3100 1394 
L 3266 759 
L 3456 1400 
L 4025 3319 
L 4572 3319 
L 3534 0 
L 2950 0 
L 2422 1988 
L 2294 2553 
L 1622 0 
L 1034 0 
z
" transform="scale(0.015625)"/>
      <path id="ArialMT-68" d="M 422 0 
L 422 4581 
L 984 4581 
L 984 2938 
Q 1378 3394 1978 3394 
Q 2347 3394 2619 3248 
Q 2891 3103 3008 2847 
Q 3125 2591 3125 2103 
L 3125 0 
L 2563 0 
L 2563 2103 
Q 2563 2525 2380 2717 
Q 2197 2909 1863 2909 
Q 1613 2909 1392 2779 
Q 1172 2650 1078 2428 
Q 984 2206 984 1816 
L 984 0 
L 422 0 
z
" transform="scale(0.015625)"/>
      <path id="ArialMT-78" d="M 47 0 
L 1259 1725 
L 138 3319 
L 841 3319 
L 1350 2541 
Q 1494 2319 1581 2169 
Q 1719 2375 1834 2534 
L 2394 3319 
L 3066 3319 
L 1919 1756 
L 3153 0 
L 2463 0 
L 1781 1031 
L 1600 1309 
L 728 0 
L 47 0 
z
" transform="scale(0.015625)"/>
      <path id="ArialMT-71" d="M 2538 -1272 
L 2538 353 
Q 2406 169 2170 47 
Q 1934 -75 1669 -75 
Q 1078 -75 651 397 
Q 225 869 225 1691 
Q 225 2191 398 2587 
Q 572 2984 901 3189 
Q 1231 3394 1625 3394 
Q 2241 3394 2594 2875 
L 2594 3319 
L 3100 3319 
L 3100 -1272 
L 2538 -1272 
z
M 803 1669 
Q 803 1028 1072 708 
Q 1341 388 1716 388 
Q 2075 388 2334 692 
Q 2594 997 2594 1619 
Q 2594 2281 2320 2615 
Q 2047 2950 1678 2950 
Q 1313 2950 1058 2639 
Q 803 2328 803 1669 
z
" transform="scale(0.015625)"/>
      <path id="ArialMT-6b" d="M 425 0 
L 425 4581 
L 988 4581 
L 988 1969 
L 2319 3319 
L 3047 3319 
L 1778 2088 
L 3175 0 
L 2481 0 
L 1384 1697 
L 988 1316 
L 988 0 
L 425 0 
z
" transform="scale(0.015625)"/>
     </defs>
     <use xlink:href="#ArialMT-73"/>
     <use xlink:href="#ArialMT-61" x="50"/>
     <use xlink:href="#ArialMT-6d" x="105.615234"/>
     <use xlink:href="#ArialMT-70" x="188.916016"/>
     <use xlink:href="#ArialMT-6c" x="244.53125"/>
     <use xlink:href="#ArialMT-65" x="266.748047"/>
     <use xlink:href="#ArialMT-64" x="322.363281"/>
     <use xlink:href="#ArialMT-20" x="377.978516"/>
     <use xlink:href="#ArialMT-66" x="405.761719"/>
     <use xlink:href="#ArialMT-72" x="433.544922"/>
     <use xlink:href="#ArialMT-6f" x="466.845703"/>
     <use xlink:href="#ArialMT-6d" x="522.460938"/>
     <use xlink:href="#ArialMT-20" x="605.761719"/>
     <use xlink:href="#ArialMT-61" x="633.544922"/>
     <use xlink:href="#ArialMT-20" x="689.160156"/>
     <use xlink:href="#ArialMT-47" x="716.943359"/>
     <use xlink:href="#ArialMT-61" x="794.726562"/>
     <use xlink:href="#ArialMT-75" x="850.341797"/>
     <use xlink:href="#ArialMT-73" x="905.957031"/>
     <use xlink:href="#ArialMT-73" x="955.957031"/>
     <use xlink:href="#ArialMT-69" x="1005.957031"/>
     <use xlink:href="#ArialMT-61" x="1028.173828"/>
     <use xlink:href="#ArialMT-6e" x="1083.789062"/>
     <use xlink:href="#ArialMT-20" x="1139.404297"/>
     <use xlink:href="#ArialMT-70" x="1167.1875"/>
     <use xlink:href="#ArialMT-72" x="1222.802734"/>
     <use xlink:href="#ArialMT-6f" x="1256.103516"/>
     <use xlink:href="#ArialMT-63" x="1311.71875"/>
     <use xlink:href="#ArialMT-65" x="1361.71875"/>
     <use xlink:href="#ArialMT-73" x="1417.333984"/>
     <use xlink:href="#ArialMT-73" x="1467.333984"/>
     <use xlink:href="#ArialMT-20" x="1517.333984"/>
     <use xlink:href="#ArialMT-77" x="1545.117188"/>
     <use xlink:href="#ArialMT-69" x="1617.333984"/>
     <use xlink:href="#ArialMT-74" x="1639.550781"/>
     <use xlink:href="#ArialMT-68" x="1667.333984"/>
     <use xlink:href="#ArialMT-20" x="1722.949219"/>
     <use xlink:href="#ArialMT-65" x="1750.732422"/>
     <use xlink:href="#ArialMT-78" x="1806.347656"/>
     <use xlink:href="#ArialMT-70" x="1856.347656"/>
     <use xlink:href="#ArialMT-6f" x="1911.962891"/>
     <use xlink:href="#ArialMT-6e" x="1967.578125"/>
     <use xlink:href="#ArialMT-65" x="2023.193359"/>
     <use xlink:href="#ArialMT-6e" x="2078.808594"/>
     <use xlink:href="#ArialMT-74" x="2134.423828"/>
     <use xlink:href="#ArialMT-69" x="2162.207031"/>
     <use xlink:href="#ArialMT-61" x="2184.423828"/>
     <use xlink:href="#ArialMT-74" x="2240.039062"/>
     <use xlink:href="#ArialMT-65" x="2267.822266"/>
     <use xlink:href="#ArialMT-64" x="2323.4375"/>
     <use xlink:href="#ArialMT-20" x="2379.052734"/>
     <use xlink:href="#ArialMT-71" x="2406.835938"/>
     <use xlink:href="#ArialMT-75" x="2462.451172"/>
     <use xlink:href="#ArialMT-61" x="2518.066406"/>
     <use xlink:href="#ArialMT-64" x="2573.681641"/>
     <use xlink:href="#ArialMT-72" x="2629.296875"/>
     <use xlink:href="#ArialMT-61" x="2662.597656"/>
     <use xlink:href="#ArialMT-74" x="2718.212891"/>
     <use xlink:href="#ArialMT-69" x="2745.996094"/>
     <use xlink:href="#ArialMT-63" x="2768.212891"/>
     <use xlink:href="#ArialMT-20" x="2818.212891"/>
     <use xlink:href="#ArialMT-6b" x="2845.996094"/>
     <use xlink:href="#ArialMT-65" x="2895.996094"/>
     <use xlink:href="#ArialMT-72" x="2951.611328"/>
     <use xlink:href="#ArialMT-6e" x="2984.912109"/>
     <use xlink:href="#ArialMT-65" x="3040.527344"/>
     <use xlink:href="#ArialMT-6c" x="3096.142578"/>
    </g>
   </g>
  </g>
 </g>
 <defs>
  <clipPath id="p3e0f2a51a3">
   <rect x="42.211562" y="34.803375" width="446.4" height="277.2"/>
  </clipPath>
 </defs>
</svg>