<?xml version="1.0" encoding="utf-8" standalone="no"?>
<!DOCTYPE svg PUBLIC "-//W3C//DTD SVG 1.1//EN"
  "http://www.w3.org/Graphics/SVG/1.1/DTD/svg11.dtd">
<!-- Created with matplotlib (https://matplotlib.org/) -->
<svg height="351.237594pt" version="1.1" viewBox="0 0 498.592031 351.237594" width="498.592031pt" xmlns="http://www.w3.org/2000/svg" xmlns:xlink="http://www.w3.org/1999/xlink">
 <metadata>
  <rdf:RDF xmlns:cc="http://creativecommons.org/ns#" xmlns:dc="http://purl.org/dc/elements/1.1/" xmlns:rdf="http://www.w3.org/1999/02/22-rdf-syntax-ns#">
   <cc:Work>
    <dc:type rdf:resource="http://purl.org/dc/dcmitype/StillImage"/>
    <dc:date>2023-01-19T18:13:36.416004</dc:date>
    <dc:format>image/svg+xml</dc:format>
    <dc:creator>
     <cc:Agent>
      <dc:title>Matplotlib v3.3.4, https://matplotlib.org/</dc:title>
     </cc:Agent>
    </dc:creator>
   </cc:Work>
  </rdf:RDF>
 </metadata>
 <defs>
  <style type="text/css">*{stroke-linecap:butt;stroke-linejoin:round;}</style>
 </defs>
 <g id="figure_1">
  <g id="patch_1">
   <path d="M 0 351.237594 
L 498.592031 351.237594 
L 498.592031 0 
L 0 0 
z
" style="fill:#ffffff;"/>
  </g>
  <g id="axes_1">
   <g id="patch_2">
    <path d="M 42.211562 312.003375 
L 488.611562 312.003375 
L 488.611562 34.803375 
L 42.211562 34.803375 
z
" style="fill:#eaeaf2;"/>
   </g>
   <g id="matplotlib.axis_1">
    <g id="xtick_1">
     <g id="line2d_1">
      <path clip-path="url(#pad0619433c)" d="M 42.211563 312.003375 
L 42.211563 34.803375 
" style="fill:none;stroke:#ffffff;stroke-linecap:round;stroke-width:0.8;"/>
     </g>
     <g id="text_1">
      <!-- −4 -->
      <g style="fill:#262626;" transform="translate(36.510781 326.161188)scale(0.1 -0.1)">
       <defs>
        <path d="M 52.828125 31.203125 
L 5.5625 31.203125 
L 5.5625 39.40625 
L 52.828125 39.40625 
z
" id="ArialMT-8722"/>
        <path d="M 32.328125 0 
L 32.328125 17.140625 
L 1.265625 17.140625 
L 1.265625 25.203125 
L 33.9375 71.578125 
L 41.109375 71.578125 
L 41.109375 25.203125 
L 50.78125 25.203125 
L 50.78125 17.140625 
L 41.109375 17.140625 
L 41.109375 0 
z
M 32.328125 25.203125 
L 32.328125 57.46875 
L 9.90625 25.203125 
z
" id="ArialMT-52"/>
       </defs>
       <use xlink:href="#ArialMT-8722"/>
       <use x="58.398438" xlink:href="#ArialMT-52"/>
      </g>
     </g>
    </g>
    <g id="xtick_2">
     <g id="line2d_2">
      <path clip-path="url(#pad0619433c)" d="M 98.011563 312.003375 
L 98.011563 34.803375 
" style="fill:none;stroke:#ffffff;stroke-linecap:round;stroke-width:0.8;"/>
     </g>
     <g id="text_2">
      <!-- −3 -->
      <g style="fill:#262626;" transform="translate(92.310781 326.161188)scale(0.1 -0.1)">
       <defs>
        <path d="M 4.203125 18.890625 
L 12.984375 20.0625 
Q 14.5 12.59375 18.140625 9.296875 
Q 21.78125 6 27 6 
Q 33.203125 6 37.46875 10.296875 
Q 41.75 14.59375 41.75 20.953125 
Q 41.75 27 37.796875 30.921875 
Q 33.84375 34.859375 27.734375 34.859375 
Q 25.25 34.859375 21.53125 33.890625 
L 22.515625 41.609375 
Q 23.390625 41.5 23.921875 41.5 
Q 29.546875 41.5 34.03125 44.421875 
Q 38.53125 47.359375 38.53125 53.46875 
Q 38.53125 58.296875 35.25 61.46875 
Q 31.984375 64.65625 26.8125 64.65625 
Q 21.6875 64.65625 18.265625 61.421875 
Q 14.84375 58.203125 13.875 51.765625 
L 5.078125 53.328125 
Q 6.6875 62.15625 12.390625 67.015625 
Q 18.109375 71.875 26.609375 71.875 
Q 32.46875 71.875 37.390625 69.359375 
Q 42.328125 66.84375 44.9375 62.5 
Q 47.5625 58.15625 47.5625 53.265625 
Q 47.5625 48.640625 45.0625 44.828125 
Q 42.578125 41.015625 37.703125 38.765625 
Q 44.046875 37.3125 47.5625 32.6875 
Q 51.078125 28.078125 51.078125 21.140625 
Q 51.078125 11.765625 44.234375 5.25 
Q 37.40625 -1.265625 26.953125 -1.265625 
Q 17.53125 -1.265625 11.296875 4.34375 
Q 5.078125 9.96875 4.203125 18.890625 
z
" id="ArialMT-51"/>
       </defs>
       <use xlink:href="#ArialMT-8722"/>
       <use x="58.398438" xlink:href="#ArialMT-51"/>
      </g>
     </g>
    </g>
    <g id="xtick_3">
     <g id="line2d_3">
      <path clip-path="url(#pad0619433c)" d="M 153.811563 312.003375 
L 153.811563 34.803375 
" style="fill:none;stroke:#ffffff;stroke-linecap:round;stroke-width:0.8;"/>
     </g>
     <g id="text_3">
      <!-- −2 -->
      <g style="fill:#262626;" transform="translate(148.110781 326.161188)scale(0.1 -0.1)">
       <defs>
        <path d="M 50.34375 8.453125 
L 50.34375 0 
L 3.03125 0 
Q 2.9375 3.171875 4.046875 6.109375 
Q 5.859375 10.9375 9.828125 15.625 
Q 13.8125 20.3125 21.34375 26.46875 
Q 33.015625 36.03125 37.109375 41.625 
Q 41.21875 47.21875 41.21875 52.203125 
Q 41.21875 57.421875 37.46875 61 
Q 33.734375 64.59375 27.734375 64.59375 
Q 21.390625 64.59375 17.578125 60.78125 
Q 13.765625 56.984375 13.71875 50.25 
L 4.6875 51.171875 
Q 5.609375 61.28125 11.65625 66.578125 
Q 17.71875 71.875 27.9375 71.875 
Q 38.234375 71.875 44.234375 66.15625 
Q 50.25 60.453125 50.25 52 
Q 50.25 47.703125 48.484375 43.546875 
Q 46.734375 39.40625 42.65625 34.8125 
Q 38.578125 30.21875 29.109375 22.21875 
Q 21.1875 15.578125 18.9375 13.203125 
Q 16.703125 10.84375 15.234375 8.453125 
z
" id="ArialMT-50"/>
       </defs>
       <use xlink:href="#ArialMT-8722"/>
       <use x="58.398438" xlink:href="#ArialMT-50"/>
      </g>
     </g>
    </g>
    <g id="xtick_4">
     <g id="line2d_4">
      <path clip-path="url(#pad0619433c)" d="M 209.611562 312.003375 
L 209.611562 34.803375 
" style="fill:none;stroke:#ffffff;stroke-linecap:round;stroke-width:0.8;"/>
     </g>
     <g id="text_4">
      <!-- −1 -->
      <g style="fill:#262626;" transform="translate(203.910781 326.161188)scale(0.1 -0.1)">
       <defs>
        <path d="M 37.25 0 
L 28.46875 0 
L 28.46875 56 
Q 25.296875 52.984375 20.140625 49.953125 
Q 14.984375 46.921875 10.890625 45.40625 
L 10.890625 53.90625 
Q 18.265625 57.375 23.78125 62.296875 
Q 29.296875 67.234375 31.59375 71.875 
L 37.25 71.875 
z
" id="ArialMT-49"/>
       </defs>
       <use xlink:href="#ArialMT-8722"/>
       <use x="58.398438" xlink:href="#ArialMT-49"/>
      </g>
     </g>
    </g>
    <g id="xtick_5">
     <g id="line2d_5">
      <path clip-path="url(#pad0619433c)" d="M 265.411563 312.003375 
L 265.411563 34.803375 
" style="fill:none;stroke:#ffffff;stroke-linecap:round;stroke-width:0.8;"/>
     </g>
     <g id="text_5">
      <!-- 0 -->
      <g style="fill:#262626;" transform="translate(262.631094 326.161188)scale(0.1 -0.1)">
       <defs>
        <path d="M 4.15625 35.296875 
Q 4.15625 48 6.765625 55.734375 
Q 9.375 63.484375 14.515625 67.671875 
Q 19.671875 71.875 27.484375 71.875 
Q 33.25 71.875 37.59375 69.546875 
Q 41.9375 67.234375 44.765625 62.859375 
Q 47.609375 58.5 49.21875 52.21875 
Q 50.828125 45.953125 50.828125 35.296875 
Q 50.828125 22.703125 48.234375 14.96875 
Q 45.65625 7.234375 40.5 3 
Q 35.359375 -1.21875 27.484375 -1.21875 
Q 17.140625 -1.21875 11.234375 6.203125 
Q 4.15625 15.140625 4.15625 35.296875 
z
M 13.1875 35.296875 
Q 13.1875 17.671875 17.3125 11.828125 
Q 21.4375 6 27.484375 6 
Q 33.546875 6 37.671875 11.859375 
Q 41.796875 17.71875 41.796875 35.296875 
Q 41.796875 52.984375 37.671875 58.78125 
Q 33.546875 64.59375 27.390625 64.59375 
Q 21.34375 64.59375 17.71875 59.46875 
Q 13.1875 52.9375 13.1875 35.296875 
z
" id="ArialMT-48"/>
       </defs>
       <use xlink:href="#ArialMT-48"/>
      </g>
     </g>
    </g>
    <g id="xtick_6">
     <g id="line2d_6">
      <path clip-path="url(#pad0619433c)" d="M 321.211563 312.003375 
L 321.211563 34.803375 
" style="fill:none;stroke:#ffffff;stroke-linecap:round;stroke-width:0.8;"/>
     </g>
     <g id="text_6">
      <!-- 1 -->
      <g style="fill:#262626;" transform="translate(318.431094 326.161188)scale(0.1 -0.1)">
       <use xlink:href="#ArialMT-49"/>
      </g>
     </g>
    </g>
    <g id="xtick_7">
     <g id="line2d_7">
      <path clip-path="url(#pad0619433c)" d="M 377.011562 312.003375 
L 377.011562 34.803375 
" style="fill:none;stroke:#ffffff;stroke-linecap:round;stroke-width:0.8;"/>
     </g>
     <g id="text_7">
      <!-- 2 -->
      <g style="fill:#262626;" transform="translate(374.231094 326.161188)scale(0.1 -0.1)">
       <use xlink:href="#ArialMT-50"/>
      </g>
     </g>
    </g>
    <g id="xtick_8">
     <g id="line2d_8">
      <path clip-path="url(#pad0619433c)" d="M 432.811562 312.003375 
L 432.811562 34.803375 
" style="fill:none;stroke:#ffffff;stroke-linecap:round;stroke-width:0.8;"/>
     </g>
     <g id="text_8">
      <!-- 3 -->
      <g style="fill:#262626;" transform="translate(430.031094 326.161188)scale(0.1 -0.1)">
       <use xlink:href="#ArialMT-51"/>
      </g>
     </g>
    </g>
    <g id="xtick_9">
     <g id="line2d_9">
      <path clip-path="url(#pad0619433c)" d="M 488.611562 312.003375 
L 488.611562 34.803375 
" style="fill:none;stroke:#ffffff;stroke-linecap:round;stroke-width:0.8;"/>
     </g>
     <g id="text_9">
      <!-- 4 -->
      <g style="fill:#262626;" transform="translate(485.831094 326.161188)scale(0.1 -0.1)">
       <use xlink:href="#ArialMT-52"/>
      </g>
     </g>
    </g>
    <g id="text_10">
     <!-- $x$ -->
     <g style="fill:#262626;" transform="translate(261.511563 341.453844)scale(0.13 -0.13)">
      <defs>
       <path d="M 60.015625 54.6875 
L 34.90625 27.875 
L 50.296875 0 
L 39.984375 0 
L 28.421875 21.6875 
L 8.296875 0 
L -2.59375 0 
L 24.3125 28.8125 
L 10.015625 54.6875 
L 20.3125 54.6875 
L 30.8125 34.90625 
L 49.125 54.6875 
z
" id="DejaVuSans-Oblique-120"/>
      </defs>
      <use transform="translate(0 0.3125)" xlink:href="#DejaVuSans-Oblique-120"/>
     </g>
    </g>
   </g>
   <g id="matplotlib.axis_2">
    <g id="ytick_1">
     <g id="line2d_10">
      <path clip-path="url(#pad0619433c)" d="M 42.211562 265.581055 
L 488.611562 265.581055 
" style="fill:none;stroke:#ffffff;stroke-linecap:round;stroke-width:0.8;"/>
     </g>
     <g id="text_11">
      <!-- −2 -->
      <g style="fill:#262626;" transform="translate(23.81 269.159961)scale(0.1 -0.1)">
       <use xlink:href="#ArialMT-8722"/>
       <use x="58.398438" xlink:href="#ArialMT-50"/>
      </g>
     </g>
    </g>
    <g id="ytick_2">
     <g id="line2d_11">
      <path clip-path="url(#pad0619433c)" d="M 42.211562 209.453967 
L 488.611562 209.453967 
" style="fill:none;stroke:#ffffff;stroke-linecap:round;stroke-width:0.8;"/>
     </g>
     <g id="text_12">
      <!-- −1 -->
      <g style="fill:#262626;" transform="translate(23.81 213.032874)scale(0.1 -0.1)">
       <use xlink:href="#ArialMT-8722"/>
       <use x="58.398438" xlink:href="#ArialMT-49"/>
      </g>
     </g>
    </g>
    <g id="ytick_3">
     <g id="line2d_12">
      <path clip-path="url(#pad0619433c)" d="M 42.211562 153.32688 
L 488.611562 153.32688 
" style="fill:none;stroke:#ffffff;stroke-linecap:round;stroke-width:0.8;"/>
     </g>
     <g id="text_13">
      <!-- 0 -->
      <g style="fill:#262626;" transform="translate(29.650625 156.905786)scale(0.1 -0.1)">
       <use xlink:href="#ArialMT-48"/>
      </g>
     </g>
    </g>
    <g id="ytick_4">
     <g id="line2d_13">
      <path clip-path="url(#pad0619433c)" d="M 42.211562 97.199792 
L 488.611562 97.199792 
" style="fill:none;stroke:#ffffff;stroke-linecap:round;stroke-width:0.8;"/>
     </g>
     <g id="text_14">
      <!-- 1 -->
      <g style="fill:#262626;" transform="translate(29.650625 100.778698)scale(0.1 -0.1)">
       <use xlink:href="#ArialMT-49"/>
      </g>
     </g>
    </g>
    <g id="ytick_5">
     <g id="line2d_14">
      <path clip-path="url(#pad0619433c)" d="M 42.211562 41.072704 
L 488.611562 41.072704 
" style="fill:none;stroke:#ffffff;stroke-linecap:round;stroke-width:0.8;"/>
     </g>
     <g id="text_15">
      <!-- 2 -->
      <g style="fill:#262626;" transform="translate(29.650625 44.651611)scale(0.1 -0.1)">
       <use xlink:href="#ArialMT-50"/>
      </g>
     </g>
    </g>
    <g id="text_16">
     <!-- $y = f(x)$ -->
     <g style="fill:#262626;" transform="translate(17.08 196.478375)rotate(-90)scale(0.13 -0.13)">
      <defs>
       <path d="M 24.8125 -5.078125 
Q 18.5625 -15.578125 14.625 -18.1875 
Q 10.6875 -20.796875 4.59375 -20.796875 
L -2.484375 -20.796875 
L -0.984375 -13.28125 
L 4.203125 -13.28125 
Q 7.953125 -13.28125 10.59375 -11.234375 
Q 13.234375 -9.1875 16.5 -3.21875 
L 19.28125 2 
L 7.171875 54.6875 
L 16.703125 54.6875 
L 25.78125 12.796875 
L 50.875 54.6875 
L 60.296875 54.6875 
z
" id="DejaVuSans-Oblique-121"/>
       <path d="M 10.59375 45.40625 
L 73.1875 45.40625 
L 73.1875 37.203125 
L 10.59375 37.203125 
z
M 10.59375 25.484375 
L 73.1875 25.484375 
L 73.1875 17.1875 
L 10.59375 17.1875 
z
" id="DejaVuSans-61"/>
       <path d="M 47.796875 75.984375 
L 46.390625 68.5 
L 37.796875 68.5 
Q 32.90625 68.5 30.6875 66.578125 
Q 28.46875 64.65625 27.390625 59.515625 
L 26.421875 54.6875 
L 41.21875 54.6875 
L 39.890625 47.703125 
L 25.09375 47.703125 
L 15.828125 0 
L 6.78125 0 
L 16.109375 47.703125 
L 7.515625 47.703125 
L 8.796875 54.6875 
L 17.390625 54.6875 
L 18.109375 58.5 
Q 19.96875 68.171875 24.625 72.078125 
Q 29.296875 75.984375 39.3125 75.984375 
z
" id="DejaVuSans-Oblique-102"/>
       <path d="M 31 75.875 
Q 24.46875 64.65625 21.28125 53.65625 
Q 18.109375 42.671875 18.109375 31.390625 
Q 18.109375 20.125 21.3125 9.0625 
Q 24.515625 -2 31 -13.1875 
L 23.1875 -13.1875 
Q 15.875 -1.703125 12.234375 9.375 
Q 8.59375 20.453125 8.59375 31.390625 
Q 8.59375 42.28125 12.203125 53.3125 
Q 15.828125 64.359375 23.1875 75.875 
z
" id="DejaVuSans-40"/>
       <path d="M 8.015625 75.875 
L 15.828125 75.875 
Q 23.140625 64.359375 26.78125 53.3125 
Q 30.421875 42.28125 30.421875 31.390625 
Q 30.421875 20.453125 26.78125 9.375 
Q 23.140625 -1.703125 15.828125 -13.1875 
L 8.015625 -13.1875 
Q 14.5 -2 17.703125 9.0625 
Q 20.90625 20.125 20.90625 31.390625 
Q 20.90625 42.671875 17.703125 53.65625 
Q 14.5 64.65625 8.015625 75.875 
z
" id="DejaVuSans-41"/>
      </defs>
      <use transform="translate(0 0.015625)" xlink:href="#DejaVuSans-Oblique-121"/>
      <use transform="translate(78.662109 0.015625)" xlink:href="#DejaVuSans-61"/>
      <use transform="translate(181.933594 0.015625)" xlink:href="#DejaVuSans-Oblique-102"/>
      <use transform="translate(217.138672 0.015625)" xlink:href="#DejaVuSans-40"/>
      <use transform="translate(256.152344 0.015625)" xlink:href="#DejaVuSans-Oblique-120"/>
      <use transform="translate(315.332031 0.015625)" xlink:href="#DejaVuSans-41"/>
     </g>
    </g>
   </g>
   <g id="line2d_15">
    <path clip-path="url(#pad0619433c)" d="M 42.211563 164.689692 
L 53.371563 183.332776 
L 64.531563 204.115133 
L 75.691563 223.111879 
L 86.851562 236.198547 
L 98.011563 240.14597 
L 109.171563 233.509419 
L 120.331563 217.026881 
L 131.491563 193.434049 
L 142.651563 166.795769 
L 153.811563 141.578745 
L 164.971563 121.729577 
L 176.131563 109.98466 
L 187.291562 107.543901 
L 198.451563 114.118527 
L 209.611562 128.255249 
L 220.771563 147.784369 
L 231.931563 170.25183 
L 243.091563 193.256058 
L 254.251563 214.6802 
L 265.411563 232.851128 
L 276.571563 246.652821 
L 287.731562 255.587861 
L 298.891563 259.754691 
L 310.051563 259.721107 
L 321.211563 256.32255 
L 332.371562 250.456089 
L 343.531563 242.939082 
L 354.691563 234.454246 
L 365.851563 225.553162 
L 377.011562 216.675667 
L 388.171562 208.163671 
L 399.331563 200.272134 
L 410.491562 193.18261 
L 421.651563 187.011074 
L 432.811562 181.795672 
L 443.971563 177.462758 
L 455.131562 173.793505 
L 466.291563 170.429612 
L 477.451563 166.95042 
L 488.611562 163.018726 
" style="fill:none;stroke:#1f77b4;stroke-linecap:round;stroke-width:1.5;"/>
    <defs>
     <path d="M 0 1.5 
C 0.397805 1.5 0.77937 1.341951 1.06066 1.06066 
C 1.341951 0.77937 1.5 0.397805 1.5 0 
C 1.5 -0.397805 1.341951 -0.77937 1.06066 -1.06066 
C 0.77937 -1.341951 0.397805 -1.5 0 -1.5 
C -0.397805 -1.5 -0.77937 -1.341951 -1.06066 -1.06066 
C -1.341951 -0.77937 -1.5 -0.397805 -1.5 0 
C -1.5 0.397805 -1.341951 0.77937 -1.06066 1.06066 
C -0.77937 1.341951 -0.397805 1.5 0 1.5 
z
" id="m642cff84ef" style="stroke:#1f77b4;"/>
    </defs>
    <g clip-path="url(#pad0619433c)">
     <use style="fill:#1f77b4;stroke:#1f77b4;" x="42.211563" xlink:href="#m642cff84ef" y="164.689692"/>
     <use style="fill:#1f77b4;stroke:#1f77b4;" x="53.371563" xlink:href="#m642cff84ef" y="183.332776"/>
     <use style="fill:#1f77b4;stroke:#1f77b4;" x="64.531563" xlink:href="#m642cff84ef" y="204.115133"/>
     <use style="fill:#1f77b4;stroke:#1f77b4;" x="75.691563" xlink:href="#m642cff84ef" y="223.111879"/>
     <use style="fill:#1f77b4;stroke:#1f77b4;" x="86.851562" xlink:href="#m642cff84ef" y="236.198547"/>
     <use style="fill:#1f77b4;stroke:#1f77b4;" x="98.011563" xlink:href="#m642cff84ef" y="240.14597"/>
     <use style="fill:#1f77b4;stroke:#1f77b4;" x="109.171563" xlink:href="#m642cff84ef" y="233.509419"/>
     <use style="fill:#1f77b4;stroke:#1f77b4;" x="120.331563" xlink:href="#m642cff84ef" y="217.026881"/>
     <use style="fill:#1f77b4;stroke:#1f77b4;" x="131.491563" xlink:href="#m642cff84ef" y="193.434049"/>
     <use style="fill:#1f77b4;stroke:#1f77b4;" x="142.651563" xlink:href="#m642cff84ef" y="166.795769"/>
     <use style="fill:#1f77b4;stroke:#1f77b4;" x="153.811563" xlink:href="#m642cff84ef" y="141.578745"/>
     <use style="fill:#1f77b4;stroke:#1f77b4;" x="164.971563" xlink:href="#m642cff84ef" y="121.729577"/>
     <use style="fill:#1f77b4;stroke:#1f77b4;" x="176.131563" xlink:href="#m642cff84ef" y="109.98466"/>
     <use style="fill:#1f77b4;stroke:#1f77b4;" x="187.291562" xlink:href="#m642cff84ef" y="107.543901"/>
     <use style="fill:#1f77b4;stroke:#1f77b4;" x="198.451563" xlink:href="#m642cff84ef" y="114.118527"/>
     <use style="fill:#1f77b4;stroke:#1f77b4;" x="209.611562" xlink:href="#m642cff84ef" y="128.255249"/>
     <use style="fill:#1f77b4;stroke:#1f77b4;" x="220.771563" xlink:href="#m642cff84ef" y="147.784369"/>
     <use style="fill:#1f77b4;stroke:#1f77b4;" x="231.931563" xlink:href="#m642cff84ef" y="170.25183"/>
     <use style="fill:#1f77b4;stroke:#1f77b4;" x="243.091563" xlink:href="#m642cff84ef" y="193.256058"/>
     <use style="fill:#1f77b4;stroke:#1f77b4;" x="254.251563" xlink:href="#m642cff84ef" y="214.6802"/>
     <use style="fill:#1f77b4;stroke:#1f77b4;" x="265.411563" xlink:href="#m642cff84ef" y="232.851128"/>
     <use style="fill:#1f77b4;stroke:#1f77b4;" x="276.571563" xlink:href="#m642cff84ef" y="246.652821"/>
     <use style="fill:#1f77b4;stroke:#1f77b4;" x="287.731562" xlink:href="#m642cff84ef" y="255.587861"/>
     <use style="fill:#1f77b4;stroke:#1f77b4;" x="298.891563" xlink:href="#m642cff84ef" y="259.754691"/>
     <use style="fill:#1f77b4;stroke:#1f77b4;" x="310.051563" xlink:href="#m642cff84ef" y="259.721107"/>
     <use style="fill:#1f77b4;stroke:#1f77b4;" x="321.211563" xlink:href="#m642cff84ef" y="256.32255"/>
     <use style="fill:#1f77b4;stroke:#1f77b4;" x="332.371562" xlink:href="#m642cff84ef" y="250.456089"/>
     <use style="fill:#1f77b4;stroke:#1f77b4;" x="343.531563" xlink:href="#m642cff84ef" y="242.939082"/>
     <use style="fill:#1f77b4;stroke:#1f77b4;" x="354.691563" xlink:href="#m642cff84ef" y="234.454246"/>
     <use style="fill:#1f77b4;stroke:#1f77b4;" x="365.851563" xlink:href="#m642cff84ef" y="225.553162"/>
     <use style="fill:#1f77b4;stroke:#1f77b4;" x="377.011562" xlink:href="#m642cff84ef" y="216.675667"/>
     <use style="fill:#1f77b4;stroke:#1f77b4;" x="388.171562" xlink:href="#m642cff84ef" y="208.163671"/>
     <use style="fill:#1f77b4;stroke:#1f77b4;" x="399.331563" xlink:href="#m642cff84ef" y="200.272134"/>
     <use style="fill:#1f77b4;stroke:#1f77b4;" x="410.491562" xlink:href="#m642cff84ef" y="193.18261"/>
     <use style="fill:#1f77b4;stroke:#1f77b4;" x="421.651563" xlink:href="#m642cff84ef" y="187.011074"/>
     <use style="fill:#1f77b4;stroke:#1f77b4;" x="432.811562" xlink:href="#m642cff84ef" y="181.795672"/>
     <use style="fill:#1f77b4;stroke:#1f77b4;" x="443.971563" xlink:href="#m642cff84ef" y="177.462758"/>
     <use style="fill:#1f77b4;stroke:#1f77b4;" x="455.131562" xlink:href="#m642cff84ef" y="173.793505"/>
     <use style="fill:#1f77b4;stroke:#1f77b4;" x="466.291563" xlink:href="#m642cff84ef" y="170.429612"/>
     <use style="fill:#1f77b4;stroke:#1f77b4;" x="477.451563" xlink:href="#m642cff84ef" y="166.95042"/>
     <use style="fill:#1f77b4;stroke:#1f77b4;" x="488.611562" xlink:href="#m642cff84ef" y="163.018726"/>
    </g>
   </g>
   <g id="line2d_16">
    <path clip-path="url(#pad0619433c)" d="M 42.211563 214.414712 
L 53.371563 200.938849 
L 64.531563 182.060128 
L 75.691563 160.867709 
L 86.851562 140.599935 
L 98.011563 123.665221 
L 109.171563 111.072345 
L 120.331563 102.418215 
L 131.491563 96.339398 
L 142.651563 91.191144 
L 153.811563 85.715412 
L 164.971563 79.537756 
L 176.131563 73.400268 
L 187.291562 69.057183 
L 198.451563 68.783305 
L 209.611562 74.548145 
L 220.771563 87.089766 
L 231.931563 105.274258 
L 243.091563 126.108818 
L 254.251563 145.53676 
L 265.411563 159.776164 
L 276.571563 166.658675 
L 287.731562 166.357624 
L 298.891563 161.130303 
L 310.051563 154.156722 
L 321.211563 148.025158 
L 332.371562 143.636489 
L 343.531563 140.109096 
L 354.691563 135.723523 
L 365.851563 129.349447 
L 377.011562 121.518509 
L 388.171562 114.531349 
L 399.331563 111.566776 
L 410.491562 115.312755 
L 421.651563 126.827092 
L 432.811562 145.106602 
L 443.971563 167.422014 
L 455.131562 190.153618 
L 466.291563 209.77547 
L 477.451563 223.717118 
L 488.611562 230.936285 
" style="fill:none;stroke:#ff7f0e;stroke-linecap:round;stroke-width:1.5;"/>
    <defs>
     <path d="M 0 1.5 
C 0.397805 1.5 0.77937 1.341951 1.06066 1.06066 
C 1.341951 0.77937 1.5 0.397805 1.5 0 
C 1.5 -0.397805 1.341951 -0.77937 1.06066 -1.06066 
C 0.77937 -1.341951 0.397805 -1.5 0 -1.5 
C -0.397805 -1.5 -0.77937 -1.341951 -1.06066 -1.06066 
C -1.341951 -0.77937 -1.5 -0.397805 -1.5 0 
C -1.5 0.397805 -1.341951 0.77937 -1.06066 1.06066 
C -0.77937 1.341951 -0.397805 1.5 0 1.5 
z
" id="m1031731e4c" style="stroke:#ff7f0e;"/>
    </defs>
    <g clip-path="url(#pad0619433c)">
     <use style="fill:#ff7f0e;stroke:#ff7f0e;" x="42.211563" xlink:href="#m1031731e4c" y="214.414712"/>
     <use style="fill:#ff7f0e;stroke:#ff7f0e;" x="53.371563" xlink:href="#m1031731e4c" y="200.938849"/>
     <use style="fill:#ff7f0e;stroke:#ff7f0e;" x="64.531563" xlink:href="#m1031731e4c" y="182.060128"/>
     <use style="fill:#ff7f0e;stroke:#ff7f0e;" x="75.691563" xlink:href="#m1031731e4c" y="160.867709"/>
     <use style="fill:#ff7f0e;stroke:#ff7f0e;" x="86.851562" xlink:href="#m1031731e4c" y="140.599935"/>
     <use style="fill:#ff7f0e;stroke:#ff7f0e;" x="98.011563" xlink:href="#m1031731e4c" y="123.665221"/>
     <use style="fill:#ff7f0e;stroke:#ff7f0e;" x="109.171563" xlink:href="#m1031731e4c" y="111.072345"/>
     <use style="fill:#ff7f0e;stroke:#ff7f0e;" x="120.331563" xlink:href="#m1031731e4c" y="102.418215"/>
     <use style="fill:#ff7f0e;stroke:#ff7f0e;" x="131.491563" xlink:href="#m1031731e4c" y="96.339398"/>
     <use style="fill:#ff7f0e;stroke:#ff7f0e;" x="142.651563" xlink:href="#m1031731e4c" y="91.191144"/>
     <use style="fill:#ff7f0e;stroke:#ff7f0e;" x="153.811563" xlink:href="#m1031731e4c" y="85.715412"/>
     <use style="fill:#ff7f0e;stroke:#ff7f0e;" x="164.971563" xlink:href="#m1031731e4c" y="79.537756"/>
     <use style="fill:#ff7f0e;stroke:#ff7f0e;" x="176.131563" xlink:href="#m1031731e4c" y="73.400268"/>
     <use style="fill:#ff7f0e;stroke:#ff7f0e;" x="187.291562" xlink:href="#m1031731e4c" y="69.057183"/>
     <use style="fill:#ff7f0e;stroke:#ff7f0e;" x="198.451563" xlink:href="#m1031731e4c" y="68.783305"/>
     <use style="fill:#ff7f0e;stroke:#ff7f0e;" x="209.611562" xlink:href="#m1031731e4c" y="74.548145"/>
     <use style="fill:#ff7f0e;stroke:#ff7f0e;" x="220.771563" xlink:href="#m1031731e4c" y="87.089766"/>
     <use style="fill:#ff7f0e;stroke:#ff7f0e;" x="231.931563" xlink:href="#m1031731e4c" y="105.274258"/>
     <use style="fill:#ff7f0e;stroke:#ff7f0e;" x="243.091563" xlink:href="#m1031731e4c" y="126.108818"/>
     <use style="fill:#ff7f0e;stroke:#ff7f0e;" x="254.251563" xlink:href="#m1031731e4c" y="145.53676"/>
     <use style="fill:#ff7f0e;stroke:#ff7f0e;" x="265.411563" xlink:href="#m1031731e4c" y="159.776164"/>
     <use style="fill:#ff7f0e;stroke:#ff7f0e;" x="276.571563" xlink:href="#m1031731e4c" y="166.658675"/>
     <use style="fill:#ff7f0e;stroke:#ff7f0e;" x="287.731562" xlink:href="#m1031731e4c" y="166.357624"/>
     <use style="fill:#ff7f0e;stroke:#ff7f0e;" x="298.891563" xlink:href="#m1031731e4c" y="161.130303"/>
     <use style="fill:#ff7f0e;stroke:#ff7f0e;" x="310.051563" xlink:href="#m1031731e4c" y="154.156722"/>
     <use style="fill:#ff7f0e;stroke:#ff7f0e;" x="321.211563" xlink:href="#m1031731e4c" y="148.025158"/>
     <use style="fill:#ff7f0e;stroke:#ff7f0e;" x="332.371562" xlink:href="#m1031731e4c" y="143.636489"/>
     <use style="fill:#ff7f0e;stroke:#ff7f0e;" x="343.531563" xlink:href="#m1031731e4c" y="140.109096"/>
     <use style="fill:#ff7f0e;stroke:#ff7f0e;" x="354.691563" xlink:href="#m1031731e4c" y="135.723523"/>
     <use style="fill:#ff7f0e;stroke:#ff7f0e;" x="365.851563" xlink:href="#m1031731e4c" y="129.349447"/>
     <use style="fill:#ff7f0e;stroke:#ff7f0e;" x="377.011562" xlink:href="#m1031731e4c" y="121.518509"/>
     <use style="fill:#ff7f0e;stroke:#ff7f0e;" x="388.171562" xlink:href="#m1031731e4c" y="114.531349"/>
     <use style="fill:#ff7f0e;stroke:#ff7f0e;" x="399.331563" xlink:href="#m1031731e4c" y="111.566776"/>
     <use style="fill:#ff7f0e;stroke:#ff7f0e;" x="410.491562" xlink:href="#m1031731e4c" y="115.312755"/>
     <use style="fill:#ff7f0e;stroke:#ff7f0e;" x="421.651563" xlink:href="#m1031731e4c" y="126.827092"/>
     <use style="fill:#ff7f0e;stroke:#ff7f0e;" x="432.811562" xlink:href="#m1031731e4c" y="145.106602"/>
     <use style="fill:#ff7f0e;stroke:#ff7f0e;" x="443.971563" xlink:href="#m1031731e4c" y="167.422014"/>
     <use style="fill:#ff7f0e;stroke:#ff7f0e;" x="455.131562" xlink:href="#m1031731e4c" y="190.153618"/>
     <use style="fill:#ff7f0e;stroke:#ff7f0e;" x="466.291563" xlink:href="#m1031731e4c" y="209.77547"/>
     <use style="fill:#ff7f0e;stroke:#ff7f0e;" x="477.451563" xlink:href="#m1031731e4c" y="223.717118"/>
     <use style="fill:#ff7f0e;stroke:#ff7f0e;" x="488.611562" xlink:href="#m1031731e4c" y="230.936285"/>
    </g>
   </g>
   <g id="line2d_17">
    <path clip-path="url(#pad0619433c)" d="M 42.211563 182.450629 
L 53.371563 192.36971 
L 64.531563 204.316134 
L 75.691563 218.651761 
L 86.851562 234.933987 
L 98.011563 251.884392 
L 109.171563 267.780837 
L 120.331563 281.059327 
L 131.491563 290.78846 
L 142.651563 296.78659 
L 153.811563 299.403375 
L 164.971563 299.196315 
L 176.131563 296.756322 
L 187.291562 292.76969 
L 198.451563 288.177696 
L 209.611562 284.181689 
L 220.771563 281.938488 
L 231.931563 282.041712 
L 243.091563 284.106806 
L 254.251563 286.78508 
L 265.411563 288.286288 
L 276.571563 287.148297 
L 287.731562 282.809157 
L 298.891563 275.662495 
L 310.051563 266.629389 
L 321.211563 256.596153 
L 332.371562 246.10948 
L 343.531563 235.470517 
L 354.691563 225.039086 
L 365.851563 215.412428 
L 377.011562 207.278112 
L 388.171562 201.028839 
L 399.331563 196.433013 
L 410.491562 192.629915 
L 421.651563 188.496058 
L 432.811562 183.176812 
L 443.971563 176.465629 
L 455.131562 168.808802 
L 466.291563 160.94941 
L 477.451563 153.449945 
L 488.611562 146.405194 
" style="fill:none;stroke:#2ca02c;stroke-linecap:round;stroke-width:1.5;"/>
    <defs>
     <path d="M 0 1.5 
C 0.397805 1.5 0.77937 1.341951 1.06066 1.06066 
C 1.341951 0.77937 1.5 0.397805 1.5 0 
C 1.5 -0.397805 1.341951 -0.77937 1.06066 -1.06066 
C 0.77937 -1.341951 0.397805 -1.5 0 -1.5 
C -0.397805 -1.5 -0.77937 -1.341951 -1.06066 -1.06066 
C -1.341951 -0.77937 -1.5 -0.397805 -1.5 0 
C -1.5 0.397805 -1.341951 0.77937 -1.06066 1.06066 
C -0.77937 1.341951 -0.397805 1.5 0 1.5 
z
" id="macac433c47" style="stroke:#2ca02c;"/>
    </defs>
    <g clip-path="url(#pad0619433c)">
     <use style="fill:#2ca02c;stroke:#2ca02c;" x="42.211563" xlink:href="#macac433c47" y="182.450629"/>
     <use style="fill:#2ca02c;stroke:#2ca02c;" x="53.371563" xlink:href="#macac433c47" y="192.36971"/>
     <use style="fill:#2ca02c;stroke:#2ca02c;" x="64.531563" xlink:href="#macac433c47" y="204.316134"/>
     <use style="fill:#2ca02c;stroke:#2ca02c;" x="75.691563" xlink:href="#macac433c47" y="218.651761"/>
     <use style="fill:#2ca02c;stroke:#2ca02c;" x="86.851562" xlink:href="#macac433c47" y="234.933987"/>
     <use style="fill:#2ca02c;stroke:#2ca02c;" x="98.011563" xlink:href="#macac433c47" y="251.884392"/>
     <use style="fill:#2ca02c;stroke:#2ca02c;" x="109.171563" xlink:href="#macac433c47" y="267.780837"/>
     <use style="fill:#2ca02c;stroke:#2ca02c;" x="120.331563" xlink:href="#macac433c47" y="281.059327"/>
     <use style="fill:#2ca02c;stroke:#2ca02c;" x="131.491563" xlink:href="#macac433c47" y="290.78846"/>
     <use style="fill:#2ca02c;stroke:#2ca02c;" x="142.651563" xlink:href="#macac433c47" y="296.78659"/>
     <use style="fill:#2ca02c;stroke:#2ca02c;" x="153.811563" xlink:href="#macac433c47" y="299.403375"/>
     <use style="fill:#2ca02c;stroke:#2ca02c;" x="164.971563" xlink:href="#macac433c47" y="299.196315"/>
     <use style="fill:#2ca02c;stroke:#2ca02c;" x="176.131563" xlink:href="#macac433c47" y="296.756322"/>
     <use style="fill:#2ca02c;stroke:#2ca02c;" x="187.291562" xlink:href="#macac433c47" y="292.76969"/>
     <use style="fill:#2ca02c;stroke:#2ca02c;" x="198.451563" xlink:href="#macac433c47" y="288.177696"/>
     <use style="fill:#2ca02c;stroke:#2ca02c;" x="209.611562" xlink:href="#macac433c47" y="284.181689"/>
     <use style="fill:#2ca02c;stroke:#2ca02c;" x="220.771563" xlink:href="#macac433c47" y="281.938488"/>
     <use style="fill:#2ca02c;stroke:#2ca02c;" x="231.931563" xlink:href="#macac433c47" y="282.041712"/>
     <use style="fill:#2ca02c;stroke:#2ca02c;" x="243.091563" xlink:href="#macac433c47" y="284.106806"/>
     <use style="fill:#2ca02c;stroke:#2ca02c;" x="254.251563" xlink:href="#macac433c47" y="286.78508"/>
     <use style="fill:#2ca02c;stroke:#2ca02c;" x="265.411563" xlink:href="#macac433c47" y="288.286288"/>
     <use style="fill:#2ca02c;stroke:#2ca02c;" x="276.571563" xlink:href="#macac433c47" y="287.148297"/>
     <use style="fill:#2ca02c;stroke:#2ca02c;" x="287.731562" xlink:href="#macac433c47" y="282.809157"/>
     <use style="fill:#2ca02c;stroke:#2ca02c;" x="298.891563" xlink:href="#macac433c47" y="275.662495"/>
     <use style="fill:#2ca02c;stroke:#2ca02c;" x="310.051563" xlink:href="#macac433c47" y="266.629389"/>
     <use style="fill:#2ca02c;stroke:#2ca02c;" x="321.211563" xlink:href="#macac433c47" y="256.596153"/>
     <use style="fill:#2ca02c;stroke:#2ca02c;" x="332.371562" xlink:href="#macac433c47" y="246.10948"/>
     <use style="fill:#2ca02c;stroke:#2ca02c;" x="343.531563" xlink:href="#macac433c47" y="235.470517"/>
     <use style="fill:#2ca02c;stroke:#2ca02c;" x="354.691563" xlink:href="#macac433c47" y="225.039086"/>
     <use style="fill:#2ca02c;stroke:#2ca02c;" x="365.851563" xlink:href="#macac433c47" y="215.412428"/>
     <use style="fill:#2ca02c;stroke:#2ca02c;" x="377.011562" xlink:href="#macac433c47" y="207.278112"/>
     <use style="fill:#2ca02c;stroke:#2ca02c;" x="388.171562" xlink:href="#macac433c47" y="201.028839"/>
     <use style="fill:#2ca02c;stroke:#2ca02c;" x="399.331563" xlink:href="#macac433c47" y="196.433013"/>
     <use style="fill:#2ca02c;stroke:#2ca02c;" x="410.491562" xlink:href="#macac433c47" y="192.629915"/>
     <use style="fill:#2ca02c;stroke:#2ca02c;" x="421.651563" xlink:href="#macac433c47" y="188.496058"/>
     <use style="fill:#2ca02c;stroke:#2ca02c;" x="432.811562" xlink:href="#macac433c47" y="183.176812"/>
     <use style="fill:#2ca02c;stroke:#2ca02c;" x="443.971563" xlink:href="#macac433c47" y="176.465629"/>
     <use style="fill:#2ca02c;stroke:#2ca02c;" x="455.131562" xlink:href="#macac433c47" y="168.808802"/>
     <use style="fill:#2ca02c;stroke:#2ca02c;" x="466.291563" xlink:href="#macac433c47" y="160.94941"/>
     <use style="fill:#2ca02c;stroke:#2ca02c;" x="477.451563" xlink:href="#macac433c47" y="153.449945"/>
     <use style="fill:#2ca02c;stroke:#2ca02c;" x="488.611562" xlink:href="#macac433c47" y="146.405194"/>
    </g>
   </g>
   <g id="line2d_18">
    <path clip-path="url(#pad0619433c)" d="M 42.211563 217.748735 
L 53.371563 205.252132 
L 64.531563 187.48941 
L 75.691563 167.411432 
L 86.851562 148.085689 
L 98.011563 131.98536 
L 109.171563 120.492267 
L 120.331563 113.794155 
L 131.491563 111.182421 
L 142.651563 111.563833 
L 153.811563 113.912326 
L 164.971563 117.461478 
L 176.131563 121.621481 
L 187.291562 125.771802 
L 198.451563 129.135409 
L 209.611562 130.871091 
L 220.771563 130.383534 
L 231.931563 127.716007 
L 243.091563 123.810823 
L 254.251563 120.434394 
L 265.411563 119.684042 
L 276.571563 123.198983 
L 287.731562 131.398908 
L 298.891563 143.140854 
L 310.051563 156.032021 
L 321.211563 167.308713 
L 332.371562 174.876147 
L 343.531563 178.009948 
L 354.691563 177.419205 
L 365.851563 174.734304 
L 377.011562 171.77002 
L 388.171562 169.956895 
L 399.331563 170.140752 
L 410.491562 172.682185 
L 421.651563 177.626343 
L 432.811562 184.742417 
L 443.971563 193.402936 
L 455.131562 202.453784 
L 466.291563 210.290901 
L 477.451563 215.260327 
L 488.611562 216.287563 
" style="fill:none;stroke:#d62728;stroke-linecap:round;stroke-width:1.5;"/>
    <defs>
     <path d="M 0 1.5 
C 0.397805 1.5 0.77937 1.341951 1.06066 1.06066 
C 1.341951 0.77937 1.5 0.397805 1.5 0 
C 1.5 -0.397805 1.341951 -0.77937 1.06066 -1.06066 
C 0.77937 -1.341951 0.397805 -1.5 0 -1.5 
C -0.397805 -1.5 -0.77937 -1.341951 -1.06066 -1.06066 
C -1.341951 -0.77937 -1.5 -0.397805 -1.5 0 
C -1.5 0.397805 -1.341951 0.77937 -1.06066 1.06066 
C -0.77937 1.341951 -0.397805 1.5 0 1.5 
z
" id="m1a17f94761" style="stroke:#d62728;"/>
    </defs>
    <g clip-path="url(#pad0619433c)">
     <use style="fill:#d62728;stroke:#d62728;" x="42.211563" xlink:href="#m1a17f94761" y="217.748735"/>
     <use style="fill:#d62728;stroke:#d62728;" x="53.371563" xlink:href="#m1a17f94761" y="205.252132"/>
     <use style="fill:#d62728;stroke:#d62728;" x="64.531563" xlink:href="#m1a17f94761" y="187.48941"/>
     <use style="fill:#d62728;stroke:#d62728;" x="75.691563" xlink:href="#m1a17f94761" y="167.411432"/>
     <use style="fill:#d62728;stroke:#d62728;" x="86.851562" xlink:href="#m1a17f94761" y="148.085689"/>
     <use style="fill:#d62728;stroke:#d62728;" x="98.011563" xlink:href="#m1a17f94761" y="131.98536"/>
     <use style="fill:#d62728;stroke:#d62728;" x="109.171563" xlink:href="#m1a17f94761" y="120.492267"/>
     <use style="fill:#d62728;stroke:#d62728;" x="120.331563" xlink:href="#m1a17f94761" y="113.794155"/>
     <use style="fill:#d62728;stroke:#d62728;" x="131.491563" xlink:href="#m1a17f94761" y="111.182421"/>
     <use style="fill:#d62728;stroke:#d62728;" x="142.651563" xlink:href="#m1a17f94761" y="111.563833"/>
     <use style="fill:#d62728;stroke:#d62728;" x="153.811563" xlink:href="#m1a17f94761" y="113.912326"/>
     <use style="fill:#d62728;stroke:#d62728;" x="164.971563" xlink:href="#m1a17f94761" y="117.461478"/>
     <use style="fill:#d62728;stroke:#d62728;" x="176.131563" xlink:href="#m1a17f94761" y="121.621481"/>
     <use style="fill:#d62728;stroke:#d62728;" x="187.291562" xlink:href="#m1a17f94761" y="125.771802"/>
     <use style="fill:#d62728;stroke:#d62728;" x="198.451563" xlink:href="#m1a17f94761" y="129.135409"/>
     <use style="fill:#d62728;stroke:#d62728;" x="209.611562" xlink:href="#m1a17f94761" y="130.871091"/>
     <use style="fill:#d62728;stroke:#d62728;" x="220.771563" xlink:href="#m1a17f94761" y="130.383534"/>
     <use style="fill:#d62728;stroke:#d62728;" x="231.931563" xlink:href="#m1a17f94761" y="127.716007"/>
     <use style="fill:#d62728;stroke:#d62728;" x="243.091563" xlink:href="#m1a17f94761" y="123.810823"/>
     <use style="fill:#d62728;stroke:#d62728;" x="254.251563" xlink:href="#m1a17f94761" y="120.434394"/>
     <use style="fill:#d62728;stroke:#d62728;" x="265.411563" xlink:href="#m1a17f94761" y="119.684042"/>
     <use style="fill:#d62728;stroke:#d62728;" x="276.571563" xlink:href="#m1a17f94761" y="123.198983"/>
     <use style="fill:#d62728;stroke:#d62728;" x="287.731562" xlink:href="#m1a17f94761" y="131.398908"/>
     <use style="fill:#d62728;stroke:#d62728;" x="298.891563" xlink:href="#m1a17f94761" y="143.140854"/>
     <use style="fill:#d62728;stroke:#d62728;" x="310.051563" xlink:href="#m1a17f94761" y="156.032021"/>
     <use style="fill:#d62728;stroke:#d62728;" x="321.211563" xlink:href="#m1a17f94761" y="167.308713"/>
     <use style="fill:#d62728;stroke:#d62728;" x="332.371562" xlink:href="#m1a17f94761" y="174.876147"/>
     <use style="fill:#d62728;stroke:#d62728;" x="343.531563" xlink:href="#m1a17f94761" y="178.009948"/>
     <use style="fill:#d62728;stroke:#d62728;" x="354.691563" xlink:href="#m1a17f94761" y="177.419205"/>
     <use style="fill:#d62728;stroke:#d62728;" x="365.851563" xlink:href="#m1a17f94761" y="174.734304"/>
     <use style="fill:#d62728;stroke:#d62728;" x="377.011562" xlink:href="#m1a17f94761" y="171.77002"/>
     <use style="fill:#d62728;stroke:#d62728;" x="388.171562" xlink:href="#m1a17f94761" y="169.956895"/>
     <use style="fill:#d62728;stroke:#d62728;" x="399.331563" xlink:href="#m1a17f94761" y="170.140752"/>
     <use style="fill:#d62728;stroke:#d62728;" x="410.491562" xlink:href="#m1a17f94761" y="172.682185"/>
     <use style="fill:#d62728;stroke:#d62728;" x="421.651563" xlink:href="#m1a17f94761" y="177.626343"/>
     <use style="fill:#d62728;stroke:#d62728;" x="432.811562" xlink:href="#m1a17f94761" y="184.742417"/>
     <use style="fill:#d62728;stroke:#d62728;" x="443.971563" xlink:href="#m1a17f94761" y="193.402936"/>
     <use style="fill:#d62728;stroke:#d62728;" x="455.131562" xlink:href="#m1a17f94761" y="202.453784"/>
     <use style="fill:#d62728;stroke:#d62728;" x="466.291563" xlink:href="#m1a17f94761" y="210.290901"/>
     <use style="fill:#d62728;stroke:#d62728;" x="477.451563" xlink:href="#m1a17f94761" y="215.260327"/>
     <use style="fill:#d62728;stroke:#d62728;" x="488.611562" xlink:href="#m1a17f94761" y="216.287563"/>
    </g>
   </g>
   <g id="line2d_19">
    <path clip-path="url(#pad0619433c)" d="M 42.211563 140.688235 
L 53.371563 140.301399 
L 64.531563 137.525399 
L 75.691563 132.888295 
L 86.851562 126.791252 
L 98.011563 119.370018 
L 109.171563 110.589491 
L 120.331563 100.459144 
L 131.491563 89.232163 
L 142.651563 77.513343 
L 153.811563 66.264829 
L 164.971563 56.708547 
L 176.131563 50.104481 
L 187.291562 47.403375 
L 198.451563 48.860621 
L 209.611562 53.796749 
L 220.771563 60.692685 
L 231.931563 67.66365 
L 243.091563 73.134034 
L 254.251563 76.390414 
L 265.411563 77.738524 
L 276.571563 78.214385 
L 287.731562 79.050927 
L 298.891563 81.210736 
L 310.051563 85.200121 
L 321.211563 91.163638 
L 332.371562 99.079631 
L 343.531563 108.850525 
L 354.691563 120.202851 
L 365.851563 132.481585 
L 377.011562 144.523559 
L 388.171562 154.765395 
L 399.331563 161.606092 
L 410.491562 163.88781 
L 421.651563 161.276097 
L 432.811562 154.363227 
L 443.971563 144.462432 
L 455.131562 133.217193 
L 466.291563 122.21996 
L 477.451563 112.779259 
L 488.611562 105.844805 
" style="fill:none;stroke:#9467bd;stroke-linecap:round;stroke-width:1.5;"/>
    <defs>
     <path d="M 0 1.5 
C 0.397805 1.5 0.77937 1.341951 1.06066 1.06066 
C 1.341951 0.77937 1.5 0.397805 1.5 0 
C 1.5 -0.397805 1.341951 -0.77937 1.06066 -1.06066 
C 0.77937 -1.341951 0.397805 -1.5 0 -1.5 
C -0.397805 -1.5 -0.77937 -1.341951 -1.06066 -1.06066 
C -1.341951 -0.77937 -1.5 -0.397805 -1.5 0 
C -1.5 0.397805 -1.341951 0.77937 -1.06066 1.06066 
C -0.77937 1.341951 -0.397805 1.5 0 1.5 
z
" id="m69e7c1488e" style="stroke:#9467bd;"/>
    </defs>
    <g clip-path="url(#pad0619433c)">
     <use style="fill:#9467bd;stroke:#9467bd;" x="42.211563" xlink:href="#m69e7c1488e" y="140.688235"/>
     <use style="fill:#9467bd;stroke:#9467bd;" x="53.371563" xlink:href="#m69e7c1488e" y="140.301399"/>
     <use style="fill:#9467bd;stroke:#9467bd;" x="64.531563" xlink:href="#m69e7c1488e" y="137.525399"/>
     <use style="fill:#9467bd;stroke:#9467bd;" x="75.691563" xlink:href="#m69e7c1488e" y="132.888295"/>
     <use style="fill:#9467bd;stroke:#9467bd;" x="86.851562" xlink:href="#m69e7c1488e" y="126.791252"/>
     <use style="fill:#9467bd;stroke:#9467bd;" x="98.011563" xlink:href="#m69e7c1488e" y="119.370018"/>
     <use style="fill:#9467bd;stroke:#9467bd;" x="109.171563" xlink:href="#m69e7c1488e" y="110.589491"/>
     <use style="fill:#9467bd;stroke:#9467bd;" x="120.331563" xlink:href="#m69e7c1488e" y="100.459144"/>
     <use style="fill:#9467bd;stroke:#9467bd;" x="131.491563" xlink:href="#m69e7c1488e" y="89.232163"/>
     <use style="fill:#9467bd;stroke:#9467bd;" x="142.651563" xlink:href="#m69e7c1488e" y="77.513343"/>
     <use style="fill:#9467bd;stroke:#9467bd;" x="153.811563" xlink:href="#m69e7c1488e" y="66.264829"/>
     <use style="fill:#9467bd;stroke:#9467bd;" x="164.971563" xlink:href="#m69e7c1488e" y="56.708547"/>
     <use style="fill:#9467bd;stroke:#9467bd;" x="176.131563" xlink:href="#m69e7c1488e" y="50.104481"/>
     <use style="fill:#9467bd;stroke:#9467bd;" x="187.291562" xlink:href="#m69e7c1488e" y="47.403375"/>
     <use style="fill:#9467bd;stroke:#9467bd;" x="198.451563" xlink:href="#m69e7c1488e" y="48.860621"/>
     <use style="fill:#9467bd;stroke:#9467bd;" x="209.611562" xlink:href="#m69e7c1488e" y="53.796749"/>
     <use style="fill:#9467bd;stroke:#9467bd;" x="220.771563" xlink:href="#m69e7c1488e" y="60.692685"/>
     <use style="fill:#9467bd;stroke:#9467bd;" x="231.931563" xlink:href="#m69e7c1488e" y="67.66365"/>
     <use style="fill:#9467bd;stroke:#9467bd;" x="243.091563" xlink:href="#m69e7c1488e" y="73.134034"/>
     <use style="fill:#9467bd;stroke:#9467bd;" x="254.251563" xlink:href="#m69e7c1488e" y="76.390414"/>
     <use style="fill:#9467bd;stroke:#9467bd;" x="265.411563" xlink:href="#m69e7c1488e" y="77.738524"/>
     <use style="fill:#9467bd;stroke:#9467bd;" x="276.571563" xlink:href="#m69e7c1488e" y="78.214385"/>
     <use style="fill:#9467bd;stroke:#9467bd;" x="287.731562" xlink:href="#m69e7c1488e" y="79.050927"/>
     <use style="fill:#9467bd;stroke:#9467bd;" x="298.891563" xlink:href="#m69e7c1488e" y="81.210736"/>
     <use style="fill:#9467bd;stroke:#9467bd;" x="310.051563" xlink:href="#m69e7c1488e" y="85.200121"/>
     <use style="fill:#9467bd;stroke:#9467bd;" x="321.211563" xlink:href="#m69e7c1488e" y="91.163638"/>
     <use style="fill:#9467bd;stroke:#9467bd;" x="332.371562" xlink:href="#m69e7c1488e" y="99.079631"/>
     <use style="fill:#9467bd;stroke:#9467bd;" x="343.531563" xlink:href="#m69e7c1488e" y="108.850525"/>
     <use style="fill:#9467bd;stroke:#9467bd;" x="354.691563" xlink:href="#m69e7c1488e" y="120.202851"/>
     <use style="fill:#9467bd;stroke:#9467bd;" x="365.851563" xlink:href="#m69e7c1488e" y="132.481585"/>
     <use style="fill:#9467bd;stroke:#9467bd;" x="377.011562" xlink:href="#m69e7c1488e" y="144.523559"/>
     <use style="fill:#9467bd;stroke:#9467bd;" x="388.171562" xlink:href="#m69e7c1488e" y="154.765395"/>
     <use style="fill:#9467bd;stroke:#9467bd;" x="399.331563" xlink:href="#m69e7c1488e" y="161.606092"/>
     <use style="fill:#9467bd;stroke:#9467bd;" x="410.491562" xlink:href="#m69e7c1488e" y="163.88781"/>
     <use style="fill:#9467bd;stroke:#9467bd;" x="421.651563" xlink:href="#m69e7c1488e" y="161.276097"/>
     <use style="fill:#9467bd;stroke:#9467bd;" x="432.811562" xlink:href="#m69e7c1488e" y="154.363227"/>
     <use style="fill:#9467bd;stroke:#9467bd;" x="443.971563" xlink:href="#m69e7c1488e" y="144.462432"/>
     <use style="fill:#9467bd;stroke:#9467bd;" x="455.131562" xlink:href="#m69e7c1488e" y="133.217193"/>
     <use style="fill:#9467bd;stroke:#9467bd;" x="466.291563" xlink:href="#m69e7c1488e" y="122.21996"/>
     <use style="fill:#9467bd;stroke:#9467bd;" x="477.451563" xlink:href="#m69e7c1488e" y="112.779259"/>
     <use style="fill:#9467bd;stroke:#9467bd;" x="488.611562" xlink:href="#m69e7c1488e" y="105.844805"/>
    </g>
   </g>
   <g id="patch_3">
    <path d="M 42.211562 312.003375 
L 42.211562 34.803375 
" style="fill:none;stroke:#ffffff;stroke-linecap:square;stroke-linejoin:miter;stroke-width:0.8;"/>
   </g>
   <g id="patch_4">
    <path d="M 488.611562 312.003375 
L 488.611562 34.803375 
" style="fill:none;stroke:#ffffff;stroke-linecap:square;stroke-linejoin:miter;stroke-width:0.8;"/>
   </g>
   <g id="patch_5">
    <path d="M 42.211563 312.003375 
L 488.611562 312.003375 
" style="fill:none;stroke:#ffffff;stroke-linecap:square;stroke-linejoin:miter;stroke-width:0.8;"/>
   </g>
   <g id="patch_6">
    <path d="M 42.211563 34.803375 
L 488.611562 34.803375 
" style="fill:none;stroke:#ffffff;stroke-linecap:square;stroke-linejoin:miter;stroke-width:0.8;"/>
   </g>
   <g id="text_17">
    <!-- 5 different function realizations at 41 points -->
    <g style="fill:#262626;" transform="translate(151.454688 15.935625)scale(0.12 -0.12)">
     <defs>
      <path d="M 4.15625 18.75 
L 13.375 19.53125 
Q 14.40625 12.796875 18.140625 9.390625 
Q 21.875 6 27.15625 6 
Q 33.5 6 37.890625 10.78125 
Q 42.28125 15.578125 42.28125 23.484375 
Q 42.28125 31 38.0625 35.34375 
Q 33.84375 39.703125 27 39.703125 
Q 22.75 39.703125 19.328125 37.765625 
Q 15.921875 35.84375 13.96875 32.765625 
L 5.71875 33.84375 
L 12.640625 70.609375 
L 48.25 70.609375 
L 48.25 62.203125 
L 19.671875 62.203125 
L 15.828125 42.96875 
Q 22.265625 47.46875 29.34375 47.46875 
Q 38.71875 47.46875 45.15625 40.96875 
Q 51.609375 34.46875 51.609375 24.265625 
Q 51.609375 14.546875 45.953125 7.46875 
Q 39.0625 -1.21875 27.15625 -1.21875 
Q 17.390625 -1.21875 11.203125 4.25 
Q 5.03125 9.71875 4.15625 18.75 
z
" id="ArialMT-53"/>
      <path id="ArialMT-32"/>
      <path d="M 40.234375 0 
L 40.234375 6.546875 
Q 35.296875 -1.171875 25.734375 -1.171875 
Q 19.53125 -1.171875 14.328125 2.25 
Q 9.125 5.671875 6.265625 11.796875 
Q 3.421875 17.921875 3.421875 25.875 
Q 3.421875 33.640625 6 39.96875 
Q 8.59375 46.296875 13.765625 49.65625 
Q 18.953125 53.03125 25.34375 53.03125 
Q 30.03125 53.03125 33.6875 51.046875 
Q 37.359375 49.078125 39.65625 45.90625 
L 39.65625 71.578125 
L 48.390625 71.578125 
L 48.390625 0 
z
M 12.453125 25.875 
Q 12.453125 15.921875 16.640625 10.984375 
Q 20.84375 6.0625 26.5625 6.0625 
Q 32.328125 6.0625 36.34375 10.765625 
Q 40.375 15.484375 40.375 25.140625 
Q 40.375 35.796875 36.265625 40.765625 
Q 32.171875 45.75 26.171875 45.75 
Q 20.3125 45.75 16.375 40.96875 
Q 12.453125 36.1875 12.453125 25.875 
z
" id="ArialMT-100"/>
      <path d="M 6.640625 61.46875 
L 6.640625 71.578125 
L 15.4375 71.578125 
L 15.4375 61.46875 
z
M 6.640625 0 
L 6.640625 51.859375 
L 15.4375 51.859375 
L 15.4375 0 
z
" id="ArialMT-105"/>
      <path d="M 8.6875 0 
L 8.6875 45.015625 
L 0.921875 45.015625 
L 0.921875 51.859375 
L 8.6875 51.859375 
L 8.6875 57.375 
Q 8.6875 62.59375 9.625 65.140625 
Q 10.890625 68.5625 14.078125 70.671875 
Q 17.28125 72.796875 23.046875 72.796875 
Q 26.765625 72.796875 31.25 71.921875 
L 29.9375 64.265625 
Q 27.203125 64.75 24.75 64.75 
Q 20.75 64.75 19.09375 63.03125 
Q 17.4375 61.328125 17.4375 56.640625 
L 17.4375 51.859375 
L 27.546875 51.859375 
L 27.546875 45.015625 
L 17.4375 45.015625 
L 17.4375 0 
z
" id="ArialMT-102"/>
      <path d="M 42.09375 16.703125 
L 51.171875 15.578125 
Q 49.03125 7.625 43.21875 3.21875 
Q 37.40625 -1.171875 28.375 -1.171875 
Q 17 -1.171875 10.328125 5.828125 
Q 3.65625 12.84375 3.65625 25.484375 
Q 3.65625 38.578125 10.390625 45.796875 
Q 17.140625 53.03125 27.875 53.03125 
Q 38.28125 53.03125 44.875 45.953125 
Q 51.46875 38.875 51.46875 26.03125 
Q 51.46875 25.25 51.421875 23.6875 
L 12.75 23.6875 
Q 13.234375 15.140625 17.578125 10.59375 
Q 21.921875 6.0625 28.421875 6.0625 
Q 33.25 6.0625 36.671875 8.59375 
Q 40.09375 11.140625 42.09375 16.703125 
z
M 13.234375 30.90625 
L 42.1875 30.90625 
Q 41.609375 37.453125 38.875 40.71875 
Q 34.671875 45.796875 27.984375 45.796875 
Q 21.921875 45.796875 17.796875 41.75 
Q 13.671875 37.703125 13.234375 30.90625 
z
" id="ArialMT-101"/>
      <path d="M 6.5 0 
L 6.5 51.859375 
L 14.40625 51.859375 
L 14.40625 44 
Q 17.4375 49.515625 20 51.265625 
Q 22.5625 53.03125 25.640625 53.03125 
Q 30.078125 53.03125 34.671875 50.203125 
L 31.640625 42.046875 
Q 28.421875 43.953125 25.203125 43.953125 
Q 22.3125 43.953125 20.015625 42.21875 
Q 17.71875 40.484375 16.75 37.40625 
Q 15.28125 32.71875 15.28125 27.15625 
L 15.28125 0 
z
" id="ArialMT-114"/>
      <path d="M 6.59375 0 
L 6.59375 51.859375 
L 14.5 51.859375 
L 14.5 44.484375 
Q 20.21875 53.03125 31 53.03125 
Q 35.6875 53.03125 39.625 51.34375 
Q 43.5625 49.65625 45.515625 46.921875 
Q 47.46875 44.1875 48.25 40.4375 
Q 48.734375 37.984375 48.734375 31.890625 
L 48.734375 0 
L 39.9375 0 
L 39.9375 31.546875 
Q 39.9375 36.921875 38.90625 39.578125 
Q 37.890625 42.234375 35.28125 43.8125 
Q 32.671875 45.40625 29.15625 45.40625 
Q 23.53125 45.40625 19.453125 41.84375 
Q 15.375 38.28125 15.375 28.328125 
L 15.375 0 
z
" id="ArialMT-110"/>
      <path d="M 25.78125 7.859375 
L 27.046875 0.09375 
Q 23.34375 -0.6875 20.40625 -0.6875 
Q 15.625 -0.6875 12.984375 0.828125 
Q 10.359375 2.34375 9.28125 4.8125 
Q 8.203125 7.28125 8.203125 15.1875 
L 8.203125 45.015625 
L 1.765625 45.015625 
L 1.765625 51.859375 
L 8.203125 51.859375 
L 8.203125 64.703125 
L 16.9375 69.96875 
L 16.9375 51.859375 
L 25.78125 51.859375 
L 25.78125 45.015625 
L 16.9375 45.015625 
L 16.9375 14.703125 
Q 16.9375 10.9375 17.40625 9.859375 
Q 17.875 8.796875 18.921875 8.15625 
Q 19.96875 7.515625 21.921875 7.515625 
Q 23.390625 7.515625 25.78125 7.859375 
z
" id="ArialMT-116"/>
      <path d="M 40.578125 0 
L 40.578125 7.625 
Q 34.515625 -1.171875 24.125 -1.171875 
Q 19.53125 -1.171875 15.546875 0.578125 
Q 11.578125 2.34375 9.640625 5 
Q 7.71875 7.671875 6.9375 11.53125 
Q 6.390625 14.109375 6.390625 19.734375 
L 6.390625 51.859375 
L 15.1875 51.859375 
L 15.1875 23.09375 
Q 15.1875 16.21875 15.71875 13.8125 
Q 16.546875 10.359375 19.234375 8.375 
Q 21.921875 6.390625 25.875 6.390625 
Q 29.828125 6.390625 33.296875 8.421875 
Q 36.765625 10.453125 38.203125 13.9375 
Q 39.65625 17.4375 39.65625 24.078125 
L 39.65625 51.859375 
L 48.4375 51.859375 
L 48.4375 0 
z
" id="ArialMT-117"/>
      <path d="M 40.4375 19 
L 49.078125 17.875 
Q 47.65625 8.9375 41.8125 3.875 
Q 35.984375 -1.171875 27.484375 -1.171875 
Q 16.84375 -1.171875 10.375 5.78125 
Q 3.90625 12.75 3.90625 25.734375 
Q 3.90625 34.125 6.6875 40.421875 
Q 9.46875 46.734375 15.15625 49.875 
Q 20.84375 53.03125 27.546875 53.03125 
Q 35.984375 53.03125 41.359375 48.75 
Q 46.734375 44.484375 48.25 36.625 
L 39.703125 35.296875 
Q 38.484375 40.53125 35.375 43.15625 
Q 32.28125 45.796875 27.875 45.796875 
Q 21.234375 45.796875 17.078125 41.03125 
Q 12.9375 36.28125 12.9375 25.984375 
Q 12.9375 15.53125 16.9375 10.796875 
Q 20.953125 6.0625 27.390625 6.0625 
Q 32.5625 6.0625 36.03125 9.234375 
Q 39.5 12.40625 40.4375 19 
z
" id="ArialMT-99"/>
      <path d="M 3.328125 25.921875 
Q 3.328125 40.328125 11.328125 47.265625 
Q 18.015625 53.03125 27.640625 53.03125 
Q 38.328125 53.03125 45.109375 46.015625 
Q 51.90625 39.015625 51.90625 26.65625 
Q 51.90625 16.65625 48.90625 10.90625 
Q 45.90625 5.171875 40.15625 2 
Q 34.421875 -1.171875 27.640625 -1.171875 
Q 16.75 -1.171875 10.03125 5.8125 
Q 3.328125 12.796875 3.328125 25.921875 
z
M 12.359375 25.921875 
Q 12.359375 15.96875 16.703125 11.015625 
Q 21.046875 6.0625 27.640625 6.0625 
Q 34.1875 6.0625 38.53125 11.03125 
Q 42.875 16.015625 42.875 26.21875 
Q 42.875 35.84375 38.5 40.796875 
Q 34.125 45.75 27.640625 45.75 
Q 21.046875 45.75 16.703125 40.8125 
Q 12.359375 35.890625 12.359375 25.921875 
z
" id="ArialMT-111"/>
      <path d="M 40.4375 6.390625 
Q 35.546875 2.25 31.03125 0.53125 
Q 26.515625 -1.171875 21.34375 -1.171875 
Q 12.796875 -1.171875 8.203125 3 
Q 3.609375 7.171875 3.609375 13.671875 
Q 3.609375 17.484375 5.34375 20.625 
Q 7.078125 23.78125 9.890625 25.6875 
Q 12.703125 27.59375 16.21875 28.5625 
Q 18.796875 29.25 24.03125 29.890625 
Q 34.671875 31.15625 39.703125 32.90625 
Q 39.75 34.71875 39.75 35.203125 
Q 39.75 40.578125 37.25 42.78125 
Q 33.890625 45.75 27.25 45.75 
Q 21.046875 45.75 18.09375 43.578125 
Q 15.140625 41.40625 13.71875 35.890625 
L 5.125 37.0625 
Q 6.296875 42.578125 8.984375 45.96875 
Q 11.671875 49.359375 16.75 51.1875 
Q 21.828125 53.03125 28.515625 53.03125 
Q 35.15625 53.03125 39.296875 51.46875 
Q 43.453125 49.90625 45.40625 47.53125 
Q 47.359375 45.171875 48.140625 41.546875 
Q 48.578125 39.3125 48.578125 33.453125 
L 48.578125 21.734375 
Q 48.578125 9.46875 49.140625 6.21875 
Q 49.703125 2.984375 51.375 0 
L 42.1875 0 
Q 40.828125 2.734375 40.4375 6.390625 
z
M 39.703125 26.03125 
Q 34.90625 24.078125 25.34375 22.703125 
Q 19.921875 21.921875 17.671875 20.9375 
Q 15.4375 19.96875 14.203125 18.09375 
Q 12.984375 16.21875 12.984375 13.921875 
Q 12.984375 10.40625 15.640625 8.0625 
Q 18.3125 5.71875 23.4375 5.71875 
Q 28.515625 5.71875 32.46875 7.9375 
Q 36.421875 10.15625 38.28125 14.015625 
Q 39.703125 17 39.703125 22.796875 
z
" id="ArialMT-97"/>
      <path d="M 6.390625 0 
L 6.390625 71.578125 
L 15.1875 71.578125 
L 15.1875 0 
z
" id="ArialMT-108"/>
      <path d="M 1.953125 0 
L 1.953125 7.125 
L 34.96875 45.015625 
Q 29.34375 44.734375 25.046875 44.734375 
L 3.90625 44.734375 
L 3.90625 51.859375 
L 46.296875 51.859375 
L 46.296875 46.046875 
L 18.21875 13.140625 
L 12.796875 7.125 
Q 18.703125 7.5625 23.875 7.5625 
L 47.859375 7.5625 
L 47.859375 0 
z
" id="ArialMT-122"/>
      <path d="M 3.078125 15.484375 
L 11.765625 16.84375 
Q 12.5 11.625 15.84375 8.84375 
Q 19.1875 6.0625 25.203125 6.0625 
Q 31.25 6.0625 34.171875 8.515625 
Q 37.109375 10.984375 37.109375 14.3125 
Q 37.109375 17.28125 34.515625 19 
Q 32.71875 20.171875 25.53125 21.96875 
Q 15.875 24.421875 12.140625 26.203125 
Q 8.40625 27.984375 6.46875 31.125 
Q 4.546875 34.28125 4.546875 38.09375 
Q 4.546875 41.546875 6.125 44.5 
Q 7.71875 47.46875 10.453125 49.421875 
Q 12.5 50.921875 16.03125 51.96875 
Q 19.578125 53.03125 23.640625 53.03125 
Q 29.734375 53.03125 34.34375 51.265625 
Q 38.96875 49.515625 41.15625 46.5 
Q 43.359375 43.5 44.1875 38.484375 
L 35.59375 37.3125 
Q 35.015625 41.3125 32.203125 43.546875 
Q 29.390625 45.796875 24.265625 45.796875 
Q 18.21875 45.796875 15.625 43.796875 
Q 13.03125 41.796875 13.03125 39.109375 
Q 13.03125 37.40625 14.109375 36.03125 
Q 15.1875 34.625 17.484375 33.6875 
Q 18.796875 33.203125 25.25 31.453125 
Q 34.578125 28.953125 38.25 27.359375 
Q 41.9375 25.78125 44.03125 22.75 
Q 46.140625 19.734375 46.140625 15.234375 
Q 46.140625 10.84375 43.578125 6.953125 
Q 41.015625 3.078125 36.171875 0.953125 
Q 31.34375 -1.171875 25.25 -1.171875 
Q 15.140625 -1.171875 9.84375 3.03125 
Q 4.546875 7.234375 3.078125 15.484375 
z
" id="ArialMT-115"/>
      <path d="M 6.59375 -19.875 
L 6.59375 51.859375 
L 14.59375 51.859375 
L 14.59375 45.125 
Q 17.4375 49.078125 21 51.046875 
Q 24.5625 53.03125 29.640625 53.03125 
Q 36.28125 53.03125 41.359375 49.609375 
Q 46.4375 46.1875 49.015625 39.953125 
Q 51.609375 33.734375 51.609375 26.3125 
Q 51.609375 18.359375 48.75 11.984375 
Q 45.90625 5.609375 40.453125 2.21875 
Q 35.015625 -1.171875 29 -1.171875 
Q 24.609375 -1.171875 21.109375 0.6875 
Q 17.625 2.546875 15.375 5.375 
L 15.375 -19.875 
z
M 14.546875 25.640625 
Q 14.546875 15.625 18.59375 10.84375 
Q 22.65625 6.0625 28.421875 6.0625 
Q 34.28125 6.0625 38.453125 11.015625 
Q 42.625 15.96875 42.625 26.375 
Q 42.625 36.28125 38.546875 41.203125 
Q 34.46875 46.140625 28.8125 46.140625 
Q 23.1875 46.140625 18.859375 40.890625 
Q 14.546875 35.640625 14.546875 25.640625 
z
" id="ArialMT-112"/>
     </defs>
     <use xlink:href="#ArialMT-53"/>
     <use x="55.615234" xlink:href="#ArialMT-32"/>
     <use x="83.398438" xlink:href="#ArialMT-100"/>
     <use x="139.013672" xlink:href="#ArialMT-105"/>
     <use x="161.230469" xlink:href="#ArialMT-102"/>
     <use x="187.263672" xlink:href="#ArialMT-102"/>
     <use x="215.046875" xlink:href="#ArialMT-101"/>
     <use x="270.662109" xlink:href="#ArialMT-114"/>
     <use x="303.962891" xlink:href="#ArialMT-101"/>
     <use x="359.578125" xlink:href="#ArialMT-110"/>
     <use x="415.193359" xlink:href="#ArialMT-116"/>
     <use x="442.976562" xlink:href="#ArialMT-32"/>
     <use x="470.759766" xlink:href="#ArialMT-102"/>
     <use x="498.542969" xlink:href="#ArialMT-117"/>
     <use x="554.158203" xlink:href="#ArialMT-110"/>
     <use x="609.773438" xlink:href="#ArialMT-99"/>
     <use x="659.773438" xlink:href="#ArialMT-116"/>
     <use x="687.556641" xlink:href="#ArialMT-105"/>
     <use x="709.773438" xlink:href="#ArialMT-111"/>
     <use x="765.388672" xlink:href="#ArialMT-110"/>
     <use x="821.003906" xlink:href="#ArialMT-32"/>
     <use x="848.787109" xlink:href="#ArialMT-114"/>
     <use x="882.087891" xlink:href="#ArialMT-101"/>
     <use x="937.703125" xlink:href="#ArialMT-97"/>
     <use x="993.318359" xlink:href="#ArialMT-108"/>
     <use x="1015.535156" xlink:href="#ArialMT-105"/>
     <use x="1037.751953" xlink:href="#ArialMT-122"/>
     <use x="1087.751953" xlink:href="#ArialMT-97"/>
     <use x="1143.367188" xlink:href="#ArialMT-116"/>
     <use x="1171.150391" xlink:href="#ArialMT-105"/>
     <use x="1193.367188" xlink:href="#ArialMT-111"/>
     <use x="1248.982422" xlink:href="#ArialMT-110"/>
     <use x="1304.597656" xlink:href="#ArialMT-115"/>
     <use x="1354.597656" xlink:href="#ArialMT-32"/>
     <use x="1382.380859" xlink:href="#ArialMT-97"/>
     <use x="1437.996094" xlink:href="#ArialMT-116"/>
     <use x="1465.779297" xlink:href="#ArialMT-32"/>
     <use x="1493.5625" xlink:href="#ArialMT-52"/>
     <use x="1549.177734" xlink:href="#ArialMT-49"/>
     <use x="1604.792969" xlink:href="#ArialMT-32"/>
     <use x="1632.576172" xlink:href="#ArialMT-112"/>
     <use x="1688.191406" xlink:href="#ArialMT-111"/>
     <use x="1743.806641" xlink:href="#ArialMT-105"/>
     <use x="1766.023438" xlink:href="#ArialMT-110"/>
     <use x="1821.638672" xlink:href="#ArialMT-116"/>
     <use x="1849.421875" xlink:href="#ArialMT-115"/>
    </g>
    <!-- sampled from a Gaussian process with exponentiated quadratic kernel -->
    <g style="fill:#262626;" transform="translate(78.323125 28.803375)scale(0.12 -0.12)">
     <defs>
      <path d="M 6.59375 0 
L 6.59375 51.859375 
L 14.453125 51.859375 
L 14.453125 44.578125 
Q 16.890625 48.390625 20.9375 50.703125 
Q 25 53.03125 30.171875 53.03125 
Q 35.9375 53.03125 39.625 50.640625 
Q 43.3125 48.25 44.828125 43.953125 
Q 50.984375 53.03125 60.84375 53.03125 
Q 68.5625 53.03125 72.703125 48.75 
Q 76.859375 44.484375 76.859375 35.59375 
L 76.859375 0 
L 68.109375 0 
L 68.109375 32.671875 
Q 68.109375 37.9375 67.25 40.25 
Q 66.40625 42.578125 64.15625 43.984375 
Q 61.921875 45.40625 58.890625 45.40625 
Q 53.421875 45.40625 49.796875 41.765625 
Q 46.1875 38.140625 46.1875 30.125 
L 46.1875 0 
L 37.40625 0 
L 37.40625 33.6875 
Q 37.40625 39.546875 35.25 42.46875 
Q 33.109375 45.40625 28.21875 45.40625 
Q 24.515625 45.40625 21.359375 43.453125 
Q 18.21875 41.5 16.796875 37.734375 
Q 15.375 33.984375 15.375 26.90625 
L 15.375 0 
z
" id="ArialMT-109"/>
      <path d="M 41.21875 28.078125 
L 41.21875 36.46875 
L 71.53125 36.53125 
L 71.53125 9.96875 
Q 64.546875 4.390625 57.125 1.578125 
Q 49.703125 -1.21875 41.890625 -1.21875 
Q 31.34375 -1.21875 22.71875 3.296875 
Q 14.109375 7.8125 9.71875 16.359375 
Q 5.328125 24.90625 5.328125 35.453125 
Q 5.328125 45.90625 9.6875 54.953125 
Q 14.0625 64.015625 22.265625 68.40625 
Q 30.46875 72.796875 41.15625 72.796875 
Q 48.921875 72.796875 55.1875 70.28125 
Q 61.46875 67.78125 65.03125 63.28125 
Q 68.609375 58.796875 70.453125 51.5625 
L 61.921875 49.21875 
Q 60.296875 54.6875 57.90625 57.8125 
Q 55.515625 60.9375 51.0625 62.8125 
Q 46.625 64.703125 41.21875 64.703125 
Q 34.71875 64.703125 29.984375 62.71875 
Q 25.25 60.75 22.34375 57.515625 
Q 19.4375 54.296875 17.828125 50.4375 
Q 15.09375 43.796875 15.09375 36.03125 
Q 15.09375 26.46875 18.390625 20.015625 
Q 21.6875 13.578125 27.984375 10.453125 
Q 34.28125 7.328125 41.359375 7.328125 
Q 47.515625 7.328125 53.375 9.6875 
Q 59.234375 12.0625 62.25 14.75 
L 62.25 28.078125 
z
" id="ArialMT-71"/>
      <path d="M 16.15625 0 
L 0.296875 51.859375 
L 9.375 51.859375 
L 17.625 21.921875 
L 20.703125 10.796875 
Q 20.90625 11.625 23.390625 21.484375 
L 31.640625 51.859375 
L 40.671875 51.859375 
L 48.4375 21.78125 
L 51.03125 11.859375 
L 54 21.875 
L 62.890625 51.859375 
L 71.4375 51.859375 
L 55.21875 0 
L 46.09375 0 
L 37.84375 31.0625 
L 35.84375 39.890625 
L 25.34375 0 
z
" id="ArialMT-119"/>
      <path d="M 6.59375 0 
L 6.59375 71.578125 
L 15.375 71.578125 
L 15.375 45.90625 
Q 21.53125 53.03125 30.90625 53.03125 
Q 36.671875 53.03125 40.921875 50.75 
Q 45.171875 48.484375 47 44.484375 
Q 48.828125 40.484375 48.828125 32.859375 
L 48.828125 0 
L 40.046875 0 
L 40.046875 32.859375 
Q 40.046875 39.453125 37.1875 42.453125 
Q 34.328125 45.453125 29.109375 45.453125 
Q 25.203125 45.453125 21.75 43.421875 
Q 18.3125 41.40625 16.84375 37.9375 
Q 15.375 34.46875 15.375 28.375 
L 15.375 0 
z
" id="ArialMT-104"/>
      <path d="M 0.734375 0 
L 19.671875 26.953125 
L 2.15625 51.859375 
L 13.140625 51.859375 
L 21.09375 39.703125 
Q 23.34375 36.234375 24.703125 33.890625 
Q 26.859375 37.109375 28.65625 39.59375 
L 37.40625 51.859375 
L 47.90625 51.859375 
L 29.984375 27.4375 
L 49.265625 0 
L 38.484375 0 
L 27.828125 16.109375 
L 25 20.453125 
L 11.375 0 
z
" id="ArialMT-120"/>
      <path d="M 39.65625 -19.875 
L 39.65625 5.515625 
Q 37.59375 2.640625 33.90625 0.734375 
Q 30.21875 -1.171875 26.078125 -1.171875 
Q 16.84375 -1.171875 10.171875 6.203125 
Q 3.515625 13.578125 3.515625 26.421875 
Q 3.515625 34.234375 6.21875 40.421875 
Q 8.9375 46.625 14.078125 49.828125 
Q 19.234375 53.03125 25.390625 53.03125 
Q 35.015625 53.03125 40.53125 44.921875 
L 40.53125 51.859375 
L 48.4375 51.859375 
L 48.4375 -19.875 
z
M 12.546875 26.078125 
Q 12.546875 16.0625 16.75 11.0625 
Q 20.953125 6.0625 26.8125 6.0625 
Q 32.421875 6.0625 36.46875 10.8125 
Q 40.53125 15.578125 40.53125 25.296875 
Q 40.53125 35.640625 36.25 40.859375 
Q 31.984375 46.09375 26.21875 46.09375 
Q 20.515625 46.09375 16.53125 41.234375 
Q 12.546875 36.375 12.546875 26.078125 
z
" id="ArialMT-113"/>
      <path d="M 6.640625 0 
L 6.640625 71.578125 
L 15.4375 71.578125 
L 15.4375 30.765625 
L 36.234375 51.859375 
L 47.609375 51.859375 
L 27.78125 32.625 
L 49.609375 0 
L 38.765625 0 
L 21.625 26.515625 
L 15.4375 20.5625 
L 15.4375 0 
z
" id="ArialMT-107"/>
     </defs>
     <use xlink:href="#ArialMT-115"/>
     <use x="50" xlink:href="#ArialMT-97"/>
     <use x="105.615234" xlink:href="#ArialMT-109"/>
     <use x="188.916016" xlink:href="#ArialMT-112"/>
     <use x="244.53125" xlink:href="#ArialMT-108"/>
     <use x="266.748047" xlink:href="#ArialMT-101"/>
     <use x="322.363281" xlink:href="#ArialMT-100"/>
     <use x="377.978516" xlink:href="#ArialMT-32"/>
     <use x="405.761719" xlink:href="#ArialMT-102"/>
     <use x="433.544922" xlink:href="#ArialMT-114"/>
     <use x="466.845703" xlink:href="#ArialMT-111"/>
     <use x="522.460938" xlink:href="#ArialMT-109"/>
     <use x="605.761719" xlink:href="#ArialMT-32"/>
     <use x="633.544922" xlink:href="#ArialMT-97"/>
     <use x="689.160156" xlink:href="#ArialMT-32"/>
     <use x="716.943359" xlink:href="#ArialMT-71"/>
     <use x="794.726562" xlink:href="#ArialMT-97"/>
     <use x="850.341797" xlink:href="#ArialMT-117"/>
     <use x="905.957031" xlink:href="#ArialMT-115"/>
     <use x="955.957031" xlink:href="#ArialMT-115"/>
     <use x="1005.957031" xlink:href="#ArialMT-105"/>
     <use x="1028.173828" xlink:href="#ArialMT-97"/>
     <use x="1083.789062" xlink:href="#ArialMT-110"/>
     <use x="1139.404297" xlink:href="#ArialMT-32"/>
     <use x="1167.1875" xlink:href="#ArialMT-112"/>
     <use x="1222.802734" xlink:href="#ArialMT-114"/>
     <use x="1256.103516" xlink:href="#ArialMT-111"/>
     <use x="1311.71875" xlink:href="#ArialMT-99"/>
     <use x="1361.71875" xlink:href="#ArialMT-101"/>
     <use x="1417.333984" xlink:href="#ArialMT-115"/>
     <use x="1467.333984" xlink:href="#ArialMT-115"/>
     <use x="1517.333984" xlink:href="#ArialMT-32"/>
     <use x="1545.117188" xlink:href="#ArialMT-119"/>
     <use x="1617.333984" xlink:href="#ArialMT-105"/>
     <use x="1639.550781" xlink:href="#ArialMT-116"/>
     <use x="1667.333984" xlink:href="#ArialMT-104"/>
     <use x="1722.949219" xlink:href="#ArialMT-32"/>
     <use x="1750.732422" xlink:href="#ArialMT-101"/>
     <use x="1806.347656" xlink:href="#ArialMT-120"/>
     <use x="1856.347656" xlink:href="#ArialMT-112"/>
     <use x="1911.962891" xlink:href="#ArialMT-111"/>
     <use x="1967.578125" xlink:href="#ArialMT-110"/>
     <use x="2023.193359" xlink:href="#ArialMT-101"/>
     <use x="2078.808594" xlink:href="#ArialMT-110"/>
     <use x="2134.423828" xlink:href="#ArialMT-116"/>
     <use x="2162.207031" xlink:href="#ArialMT-105"/>
     <use x="2184.423828" xlink:href="#ArialMT-97"/>
     <use x="2240.039062" xlink:href="#ArialMT-116"/>
     <use x="2267.822266" xlink:href="#ArialMT-101"/>
     <use x="2323.4375" xlink:href="#ArialMT-100"/>
     <use x="2379.052734" xlink:href="#ArialMT-32"/>
     <use x="2406.835938" xlink:href="#ArialMT-113"/>
     <use x="2462.451172" xlink:href="#ArialMT-117"/>
     <use x="2518.066406" xlink:href="#ArialMT-97"/>
     <use x="2573.681641" xlink:href="#ArialMT-100"/>
     <use x="2629.296875" xlink:href="#ArialMT-114"/>
     <use x="2662.597656" xlink:href="#ArialMT-97"/>
     <use x="2718.212891" xlink:href="#ArialMT-116"/>
     <use x="2745.996094" xlink:href="#ArialMT-105"/>
     <use x="2768.212891" xlink:href="#ArialMT-99"/>
     <use x="2818.212891" xlink:href="#ArialMT-32"/>
     <use x="2845.996094" xlink:href="#ArialMT-107"/>
     <use x="2895.996094" xlink:href="#ArialMT-101"/>
     <use x="2951.611328" xlink:href="#ArialMT-114"/>
     <use x="2984.912109" xlink:href="#ArialMT-110"/>
     <use x="3040.527344" xlink:href="#ArialMT-101"/>
     <use x="3096.142578" xlink:href="#ArialMT-108"/>
    </g>
   </g>
  </g>
 </g>
 <defs>
  <clipPath id="pad0619433c">
   <rect height="277.2" width="446.4" x="42.211562" y="34.803375"/>
  </clipPath>
 </defs>
</svg>