<?xml version="1.0" encoding="utf-8" standalone="no"?>
<!DOCTYPE svg PUBLIC "-//W3C//DTD SVG 1.1//EN"
  "http://www.w3.org/Graphics/SVG/1.1/DTD/svg11.dtd">
<svg xmlns:xlink="http://www.w3.org/1999/xlink" width="709.615625pt" height="421.980688pt" viewBox="0 0 709.615625 421.980688" xmlns="http://www.w3.org/2000/svg" version="1.1">
 <metadata>
  <rdf:RDF xmlns:dc="http://purl.org/dc/elements/1.1/" xmlns:cc="http://creativecommons.org/ns#" xmlns:rdf="http://www.w3.org/1999/02/22-rdf-syntax-ns#">
   <cc:Work>
    <dc:type rdf:resource="http://purl.org/dc/dcmitype/StillImage"/>
    <dc:date>2023-05-10T11:41:09.983258</dc:date>
    <dc:format>image/svg+xml</dc:format>
    <dc:creator>
     <cc:Agent>
      <dc:title>Matplotlib v3.5.2, https://matplotlib.org/</dc:title>
     </cc:Agent>
    </dc:creator>
   </cc:Work>
  </rdf:RDF>
 </metadata>
 <defs>
  <style type="text/css">*{stroke-linejoin: round; stroke-linecap: butt}</style>
 </defs>
 <g id="figure_1">
  <g id="patch_1">
   <path d="M 0 421.980688 
L 709.615625 421.980688 
L 709.615625 0 
L 0 0 
z
" style="fill: #ffffff"/>
  </g>
  <g id="axes_1">
   <g id="patch_2">
    <path d="M 50.680625 382.285375 
L 695.465625 382.285375 
L 695.465625 34.657125 
L 50.680625 34.657125 
z
" style="fill: #eaeaf2"/>
   </g>
   <g id="matplotlib.axis_1">
    <g id="xtick_1">
     <g id="line2d_1">
      <path d="M 50.680625 382.285375 
L 50.680625 34.657125 
" clip-path="url(#p74d1482b75)" style="fill: none; stroke: #ffffff; stroke-width: 0.8; stroke-linecap: round"/>
     </g>
     <g id="text_1">
      <!-- 0.0 -->
      <g style="fill: #262626" transform="translate(43.730625 396.443188)scale(0.1 -0.1)">
       <defs>
        <path id="ArialMT-30" d="M 266 2259 
Q 266 3072 433 3567 
Q 600 4063 929 4331 
Q 1259 4600 1759 4600 
Q 2128 4600 2406 4451 
Q 2684 4303 2865 4023 
Q 3047 3744 3150 3342 
Q 3253 2941 3253 2259 
Q 3253 1453 3087 958 
Q 2922 463 2592 192 
Q 2263 -78 1759 -78 
Q 1097 -78 719 397 
Q 266 969 266 2259 
z
M 844 2259 
Q 844 1131 1108 757 
Q 1372 384 1759 384 
Q 2147 384 2411 759 
Q 2675 1134 2675 2259 
Q 2675 3391 2411 3762 
Q 2147 4134 1753 4134 
Q 1366 4134 1134 3806 
Q 844 3388 844 2259 
z
" transform="scale(0.015625)"/>
        <path id="ArialMT-2e" d="M 581 0 
L 581 641 
L 1222 641 
L 1222 0 
L 581 0 
z
" transform="scale(0.015625)"/>
       </defs>
       <use xlink:href="#ArialMT-30"/>
       <use xlink:href="#ArialMT-2e" x="55.615234"/>
       <use xlink:href="#ArialMT-30" x="83.398438"/>
      </g>
     </g>
    </g>
    <g id="xtick_2">
     <g id="line2d_2">
      <path d="M 179.637625 382.285375 
L 179.637625 34.657125 
" clip-path="url(#p74d1482b75)" style="fill: none; stroke: #ffffff; stroke-width: 0.8; stroke-linecap: round"/>
     </g>
     <g id="text_2">
      <!-- 0.2 -->
      <g style="fill: #262626" transform="translate(172.687625 396.443188)scale(0.1 -0.1)">
       <defs>
        <path id="ArialMT-32" d="M 3222 541 
L 3222 0 
L 194 0 
Q 188 203 259 391 
Q 375 700 629 1000 
Q 884 1300 1366 1694 
Q 2113 2306 2375 2664 
Q 2638 3022 2638 3341 
Q 2638 3675 2398 3904 
Q 2159 4134 1775 4134 
Q 1369 4134 1125 3890 
Q 881 3647 878 3216 
L 300 3275 
Q 359 3922 746 4261 
Q 1134 4600 1788 4600 
Q 2447 4600 2831 4234 
Q 3216 3869 3216 3328 
Q 3216 3053 3103 2787 
Q 2991 2522 2730 2228 
Q 2469 1934 1863 1422 
Q 1356 997 1212 845 
Q 1069 694 975 541 
L 3222 541 
z
" transform="scale(0.015625)"/>
       </defs>
       <use xlink:href="#ArialMT-30"/>
       <use xlink:href="#ArialMT-2e" x="55.615234"/>
       <use xlink:href="#ArialMT-32" x="83.398438"/>
      </g>
     </g>
    </g>
    <g id="xtick_3">
     <g id="line2d_3">
      <path d="M 308.594625 382.285375 
L 308.594625 34.657125 
" clip-path="url(#p74d1482b75)" style="fill: none; stroke: #ffffff; stroke-width: 0.8; stroke-linecap: round"/>
     </g>
     <g id="text_3">
      <!-- 0.4 -->
      <g style="fill: #262626" transform="translate(301.644625 396.443188)scale(0.1 -0.1)">
       <defs>
        <path id="ArialMT-34" d="M 2069 0 
L 2069 1097 
L 81 1097 
L 81 1613 
L 2172 4581 
L 2631 4581 
L 2631 1613 
L 3250 1613 
L 3250 1097 
L 2631 1097 
L 2631 0 
L 2069 0 
z
M 2069 1613 
L 2069 3678 
L 634 1613 
L 2069 1613 
z
" transform="scale(0.015625)"/>
       </defs>
       <use xlink:href="#ArialMT-30"/>
       <use xlink:href="#ArialMT-2e" x="55.615234"/>
       <use xlink:href="#ArialMT-34" x="83.398438"/>
      </g>
     </g>
    </g>
    <g id="xtick_4">
     <g id="line2d_4">
      <path d="M 437.551625 382.285375 
L 437.551625 34.657125 
" clip-path="url(#p74d1482b75)" style="fill: none; stroke: #ffffff; stroke-width: 0.8; stroke-linecap: round"/>
     </g>
     <g id="text_4">
      <!-- 0.6 -->
      <g style="fill: #262626" transform="translate(430.601625 396.443188)scale(0.1 -0.1)">
       <defs>
        <path id="ArialMT-36" d="M 3184 3459 
L 2625 3416 
Q 2550 3747 2413 3897 
Q 2184 4138 1850 4138 
Q 1581 4138 1378 3988 
Q 1113 3794 959 3422 
Q 806 3050 800 2363 
Q 1003 2672 1297 2822 
Q 1591 2972 1913 2972 
Q 2475 2972 2870 2558 
Q 3266 2144 3266 1488 
Q 3266 1056 3080 686 
Q 2894 316 2569 119 
Q 2244 -78 1831 -78 
Q 1128 -78 684 439 
Q 241 956 241 2144 
Q 241 3472 731 4075 
Q 1159 4600 1884 4600 
Q 2425 4600 2770 4297 
Q 3116 3994 3184 3459 
z
M 888 1484 
Q 888 1194 1011 928 
Q 1134 663 1356 523 
Q 1578 384 1822 384 
Q 2178 384 2434 671 
Q 2691 959 2691 1453 
Q 2691 1928 2437 2201 
Q 2184 2475 1800 2475 
Q 1419 2475 1153 2201 
Q 888 1928 888 1484 
z
" transform="scale(0.015625)"/>
       </defs>
       <use xlink:href="#ArialMT-30"/>
       <use xlink:href="#ArialMT-2e" x="55.615234"/>
       <use xlink:href="#ArialMT-36" x="83.398438"/>
      </g>
     </g>
    </g>
    <g id="xtick_5">
     <g id="line2d_5">
      <path d="M 566.508625 382.285375 
L 566.508625 34.657125 
" clip-path="url(#p74d1482b75)" style="fill: none; stroke: #ffffff; stroke-width: 0.8; stroke-linecap: round"/>
     </g>
     <g id="text_5">
      <!-- 0.8 -->
      <g style="fill: #262626" transform="translate(559.558625 396.443188)scale(0.1 -0.1)">
       <defs>
        <path id="ArialMT-38" d="M 1131 2484 
Q 781 2613 612 2850 
Q 444 3088 444 3419 
Q 444 3919 803 4259 
Q 1163 4600 1759 4600 
Q 2359 4600 2725 4251 
Q 3091 3903 3091 3403 
Q 3091 3084 2923 2848 
Q 2756 2613 2416 2484 
Q 2838 2347 3058 2040 
Q 3278 1734 3278 1309 
Q 3278 722 2862 322 
Q 2447 -78 1769 -78 
Q 1091 -78 675 323 
Q 259 725 259 1325 
Q 259 1772 486 2073 
Q 713 2375 1131 2484 
z
M 1019 3438 
Q 1019 3113 1228 2906 
Q 1438 2700 1772 2700 
Q 2097 2700 2305 2904 
Q 2513 3109 2513 3406 
Q 2513 3716 2298 3927 
Q 2084 4138 1766 4138 
Q 1444 4138 1231 3931 
Q 1019 3725 1019 3438 
z
M 838 1322 
Q 838 1081 952 856 
Q 1066 631 1291 507 
Q 1516 384 1775 384 
Q 2178 384 2440 643 
Q 2703 903 2703 1303 
Q 2703 1709 2433 1975 
Q 2163 2241 1756 2241 
Q 1359 2241 1098 1978 
Q 838 1716 838 1322 
z
" transform="scale(0.015625)"/>
       </defs>
       <use xlink:href="#ArialMT-30"/>
       <use xlink:href="#ArialMT-2e" x="55.615234"/>
       <use xlink:href="#ArialMT-38" x="83.398438"/>
      </g>
     </g>
    </g>
    <g id="xtick_6">
     <g id="line2d_6">
      <path d="M 695.465625 382.285375 
L 695.465625 34.657125 
" clip-path="url(#p74d1482b75)" style="fill: none; stroke: #ffffff; stroke-width: 0.8; stroke-linecap: round"/>
     </g>
     <g id="text_6">
      <!-- 1.0 -->
      <g style="fill: #262626" transform="translate(688.515625 396.443188)scale(0.1 -0.1)">
       <defs>
        <path id="ArialMT-31" d="M 2384 0 
L 1822 0 
L 1822 3584 
Q 1619 3391 1289 3197 
Q 959 3003 697 2906 
L 697 3450 
Q 1169 3672 1522 3987 
Q 1875 4303 2022 4600 
L 2384 4600 
L 2384 0 
z
" transform="scale(0.015625)"/>
       </defs>
       <use xlink:href="#ArialMT-31"/>
       <use xlink:href="#ArialMT-2e" x="55.615234"/>
       <use xlink:href="#ArialMT-30" x="83.398438"/>
      </g>
     </g>
    </g>
    <g id="text_7">
     <!-- $t$ (time) -->
     <g style="fill: #262626" transform="translate(352.078125 411.920688)scale(0.13 -0.13)">
      <defs>
       <path id="DejaVuSans-Oblique-74" d="M 2706 3500 
L 2619 3053 
L 1472 3053 
L 1100 1153 
Q 1081 1047 1072 975 
Q 1063 903 1063 863 
Q 1063 663 1183 572 
Q 1303 481 1569 481 
L 2150 481 
L 2053 0 
L 1503 0 
Q 991 0 739 200 
Q 488 400 488 806 
Q 488 878 497 964 
Q 506 1050 525 1153 
L 897 3053 
L 409 3053 
L 500 3500 
L 978 3500 
L 1172 4494 
L 1747 4494 
L 1556 3500 
L 2706 3500 
z
" transform="scale(0.015625)"/>
       <path id="ArialMT-20" transform="scale(0.015625)"/>
       <path id="ArialMT-28" d="M 1497 -1347 
Q 1031 -759 709 28 
Q 388 816 388 1659 
Q 388 2403 628 3084 
Q 909 3875 1497 4659 
L 1900 4659 
Q 1522 4009 1400 3731 
Q 1209 3300 1100 2831 
Q 966 2247 966 1656 
Q 966 153 1900 -1347 
L 1497 -1347 
z
" transform="scale(0.015625)"/>
       <path id="ArialMT-74" d="M 1650 503 
L 1731 6 
Q 1494 -44 1306 -44 
Q 1000 -44 831 53 
Q 663 150 594 308 
Q 525 466 525 972 
L 525 2881 
L 113 2881 
L 113 3319 
L 525 3319 
L 525 4141 
L 1084 4478 
L 1084 3319 
L 1650 3319 
L 1650 2881 
L 1084 2881 
L 1084 941 
Q 1084 700 1114 631 
Q 1144 563 1211 522 
Q 1278 481 1403 481 
Q 1497 481 1650 503 
z
" transform="scale(0.015625)"/>
       <path id="ArialMT-69" d="M 425 3934 
L 425 4581 
L 988 4581 
L 988 3934 
L 425 3934 
z
M 425 0 
L 425 3319 
L 988 3319 
L 988 0 
L 425 0 
z
" transform="scale(0.015625)"/>
       <path id="ArialMT-6d" d="M 422 0 
L 422 3319 
L 925 3319 
L 925 2853 
Q 1081 3097 1340 3245 
Q 1600 3394 1931 3394 
Q 2300 3394 2536 3241 
Q 2772 3088 2869 2813 
Q 3263 3394 3894 3394 
Q 4388 3394 4653 3120 
Q 4919 2847 4919 2278 
L 4919 0 
L 4359 0 
L 4359 2091 
Q 4359 2428 4304 2576 
Q 4250 2725 4106 2815 
Q 3963 2906 3769 2906 
Q 3419 2906 3187 2673 
Q 2956 2441 2956 1928 
L 2956 0 
L 2394 0 
L 2394 2156 
Q 2394 2531 2256 2718 
Q 2119 2906 1806 2906 
Q 1569 2906 1367 2781 
Q 1166 2656 1075 2415 
Q 984 2175 984 1722 
L 984 0 
L 422 0 
z
" transform="scale(0.015625)"/>
       <path id="ArialMT-65" d="M 2694 1069 
L 3275 997 
Q 3138 488 2766 206 
Q 2394 -75 1816 -75 
Q 1088 -75 661 373 
Q 234 822 234 1631 
Q 234 2469 665 2931 
Q 1097 3394 1784 3394 
Q 2450 3394 2872 2941 
Q 3294 2488 3294 1666 
Q 3294 1616 3291 1516 
L 816 1516 
Q 847 969 1125 678 
Q 1403 388 1819 388 
Q 2128 388 2347 550 
Q 2566 713 2694 1069 
z
M 847 1978 
L 2700 1978 
Q 2663 2397 2488 2606 
Q 2219 2931 1791 2931 
Q 1403 2931 1139 2672 
Q 875 2413 847 1978 
z
" transform="scale(0.015625)"/>
       <path id="ArialMT-29" d="M 791 -1347 
L 388 -1347 
Q 1322 153 1322 1656 
Q 1322 2244 1188 2822 
Q 1081 3291 891 3722 
Q 769 4003 388 4659 
L 791 4659 
Q 1378 3875 1659 3084 
Q 1900 2403 1900 1659 
Q 1900 816 1576 28 
Q 1253 -759 791 -1347 
z
" transform="scale(0.015625)"/>
      </defs>
      <use xlink:href="#DejaVuSans-Oblique-74" transform="translate(0 0.203125)"/>
      <use xlink:href="#ArialMT-20" transform="translate(39.208984 0.203125)"/>
      <use xlink:href="#ArialMT-28" transform="translate(66.992188 0.203125)"/>
      <use xlink:href="#ArialMT-74" transform="translate(100.292969 0.203125)"/>
      <use xlink:href="#ArialMT-69" transform="translate(128.076172 0.203125)"/>
      <use xlink:href="#ArialMT-6d" transform="translate(150.292969 0.203125)"/>
      <use xlink:href="#ArialMT-65" transform="translate(233.59375 0.203125)"/>
      <use xlink:href="#ArialMT-29" transform="translate(289.208984 0.203125)"/>
     </g>
    </g>
   </g>
   <g id="matplotlib.axis_2">
    <g id="ytick_1">
     <g id="line2d_7">
      <path d="M 50.680625 375.113995 
L 695.465625 375.113995 
" clip-path="url(#p74d1482b75)" style="fill: none; stroke: #ffffff; stroke-width: 0.8; stroke-linecap: round"/>
     </g>
     <g id="text_8">
      <!-- −1.5 -->
      <g style="fill: #262626" transform="translate(23.94 378.692901)scale(0.1 -0.1)">
       <defs>
        <path id="ArialMT-2212" d="M 3381 1997 
L 356 1997 
L 356 2522 
L 3381 2522 
L 3381 1997 
z
" transform="scale(0.015625)"/>
        <path id="ArialMT-35" d="M 266 1200 
L 856 1250 
Q 922 819 1161 601 
Q 1400 384 1738 384 
Q 2144 384 2425 690 
Q 2706 997 2706 1503 
Q 2706 1984 2436 2262 
Q 2166 2541 1728 2541 
Q 1456 2541 1237 2417 
Q 1019 2294 894 2097 
L 366 2166 
L 809 4519 
L 3088 4519 
L 3088 3981 
L 1259 3981 
L 1013 2750 
Q 1425 3038 1878 3038 
Q 2478 3038 2890 2622 
Q 3303 2206 3303 1553 
Q 3303 931 2941 478 
Q 2500 -78 1738 -78 
Q 1113 -78 717 272 
Q 322 622 266 1200 
z
" transform="scale(0.015625)"/>
       </defs>
       <use xlink:href="#ArialMT-2212"/>
       <use xlink:href="#ArialMT-31" x="58.398438"/>
       <use xlink:href="#ArialMT-2e" x="114.013672"/>
       <use xlink:href="#ArialMT-35" x="141.796875"/>
      </g>
     </g>
    </g>
    <g id="ytick_2">
     <g id="line2d_8">
      <path d="M 50.680625 324.868855 
L 695.465625 324.868855 
" clip-path="url(#p74d1482b75)" style="fill: none; stroke: #ffffff; stroke-width: 0.8; stroke-linecap: round"/>
     </g>
     <g id="text_9">
      <!-- −1.0 -->
      <g style="fill: #262626" transform="translate(23.94 328.447761)scale(0.1 -0.1)">
       <use xlink:href="#ArialMT-2212"/>
       <use xlink:href="#ArialMT-31" x="58.398438"/>
       <use xlink:href="#ArialMT-2e" x="114.013672"/>
       <use xlink:href="#ArialMT-30" x="141.796875"/>
      </g>
     </g>
    </g>
    <g id="ytick_3">
     <g id="line2d_9">
      <path d="M 50.680625 274.623714 
L 695.465625 274.623714 
" clip-path="url(#p74d1482b75)" style="fill: none; stroke: #ffffff; stroke-width: 0.8; stroke-linecap: round"/>
     </g>
     <g id="text_10">
      <!-- −0.5 -->
      <g style="fill: #262626" transform="translate(23.94 278.202621)scale(0.1 -0.1)">
       <use xlink:href="#ArialMT-2212"/>
       <use xlink:href="#ArialMT-30" x="58.398438"/>
       <use xlink:href="#ArialMT-2e" x="114.013672"/>
       <use xlink:href="#ArialMT-35" x="141.796875"/>
      </g>
     </g>
    </g>
    <g id="ytick_4">
     <g id="line2d_10">
      <path d="M 50.680625 224.378574 
L 695.465625 224.378574 
" clip-path="url(#p74d1482b75)" style="fill: none; stroke: #ffffff; stroke-width: 0.8; stroke-linecap: round"/>
     </g>
     <g id="text_11">
      <!-- 0.0 -->
      <g style="fill: #262626" transform="translate(29.780625 227.95748)scale(0.1 -0.1)">
       <use xlink:href="#ArialMT-30"/>
       <use xlink:href="#ArialMT-2e" x="55.615234"/>
       <use xlink:href="#ArialMT-30" x="83.398438"/>
      </g>
     </g>
    </g>
    <g id="ytick_5">
     <g id="line2d_11">
      <path d="M 50.680625 174.133434 
L 695.465625 174.133434 
" clip-path="url(#p74d1482b75)" style="fill: none; stroke: #ffffff; stroke-width: 0.8; stroke-linecap: round"/>
     </g>
     <g id="text_12">
      <!-- 0.5 -->
      <g style="fill: #262626" transform="translate(29.780625 177.71234)scale(0.1 -0.1)">
       <use xlink:href="#ArialMT-30"/>
       <use xlink:href="#ArialMT-2e" x="55.615234"/>
       <use xlink:href="#ArialMT-35" x="83.398438"/>
      </g>
     </g>
    </g>
    <g id="ytick_6">
     <g id="line2d_12">
      <path d="M 50.680625 123.888293 
L 695.465625 123.888293 
" clip-path="url(#p74d1482b75)" style="fill: none; stroke: #ffffff; stroke-width: 0.8; stroke-linecap: round"/>
     </g>
     <g id="text_13">
      <!-- 1.0 -->
      <g style="fill: #262626" transform="translate(29.780625 127.4672)scale(0.1 -0.1)">
       <use xlink:href="#ArialMT-31"/>
       <use xlink:href="#ArialMT-2e" x="55.615234"/>
       <use xlink:href="#ArialMT-30" x="83.398438"/>
      </g>
     </g>
    </g>
    <g id="ytick_7">
     <g id="line2d_13">
      <path d="M 50.680625 73.643153 
L 695.465625 73.643153 
" clip-path="url(#p74d1482b75)" style="fill: none; stroke: #ffffff; stroke-width: 0.8; stroke-linecap: round"/>
     </g>
     <g id="text_14">
      <!-- 1.5 -->
      <g style="fill: #262626" transform="translate(29.780625 77.222059)scale(0.1 -0.1)">
       <use xlink:href="#ArialMT-31"/>
       <use xlink:href="#ArialMT-2e" x="55.615234"/>
       <use xlink:href="#ArialMT-35" x="83.398438"/>
      </g>
     </g>
    </g>
    <g id="text_15">
     <!-- $d$ (position) -->
     <g style="fill: #262626" transform="translate(17.08 241.16625)rotate(-90)scale(0.13 -0.13)">
      <defs>
       <path id="DejaVuSans-Oblique-64" d="M 2675 525 
Q 2444 222 2128 65 
Q 1813 -91 1428 -91 
Q 903 -91 598 267 
Q 294 625 294 1247 
Q 294 1766 478 2236 
Q 663 2706 1013 3078 
Q 1244 3325 1534 3454 
Q 1825 3584 2144 3584 
Q 2481 3584 2739 3421 
Q 2997 3259 3138 2956 
L 3513 4863 
L 4091 4863 
L 3144 0 
L 2566 0 
L 2675 525 
z
M 891 1350 
Q 891 897 1095 644 
Q 1300 391 1663 391 
Q 1931 391 2161 520 
Q 2391 650 2566 903 
Q 2750 1166 2856 1509 
Q 2963 1853 2963 2188 
Q 2963 2622 2758 2865 
Q 2553 3109 2194 3109 
Q 1922 3109 1687 2981 
Q 1453 2853 1288 2613 
Q 1106 2353 998 2009 
Q 891 1666 891 1350 
z
" transform="scale(0.015625)"/>
       <path id="ArialMT-70" d="M 422 -1272 
L 422 3319 
L 934 3319 
L 934 2888 
Q 1116 3141 1344 3267 
Q 1572 3394 1897 3394 
Q 2322 3394 2647 3175 
Q 2972 2956 3137 2557 
Q 3303 2159 3303 1684 
Q 3303 1175 3120 767 
Q 2938 359 2589 142 
Q 2241 -75 1856 -75 
Q 1575 -75 1351 44 
Q 1128 163 984 344 
L 984 -1272 
L 422 -1272 
z
M 931 1641 
Q 931 1000 1190 694 
Q 1450 388 1819 388 
Q 2194 388 2461 705 
Q 2728 1022 2728 1688 
Q 2728 2322 2467 2637 
Q 2206 2953 1844 2953 
Q 1484 2953 1207 2617 
Q 931 2281 931 1641 
z
" transform="scale(0.015625)"/>
       <path id="ArialMT-6f" d="M 213 1659 
Q 213 2581 725 3025 
Q 1153 3394 1769 3394 
Q 2453 3394 2887 2945 
Q 3322 2497 3322 1706 
Q 3322 1066 3130 698 
Q 2938 331 2570 128 
Q 2203 -75 1769 -75 
Q 1072 -75 642 372 
Q 213 819 213 1659 
z
M 791 1659 
Q 791 1022 1069 705 
Q 1347 388 1769 388 
Q 2188 388 2466 706 
Q 2744 1025 2744 1678 
Q 2744 2294 2464 2611 
Q 2184 2928 1769 2928 
Q 1347 2928 1069 2612 
Q 791 2297 791 1659 
z
" transform="scale(0.015625)"/>
       <path id="ArialMT-73" d="M 197 991 
L 753 1078 
Q 800 744 1014 566 
Q 1228 388 1613 388 
Q 2000 388 2187 545 
Q 2375 703 2375 916 
Q 2375 1106 2209 1216 
Q 2094 1291 1634 1406 
Q 1016 1563 777 1677 
Q 538 1791 414 1992 
Q 291 2194 291 2438 
Q 291 2659 392 2848 
Q 494 3038 669 3163 
Q 800 3259 1026 3326 
Q 1253 3394 1513 3394 
Q 1903 3394 2198 3281 
Q 2494 3169 2634 2976 
Q 2775 2784 2828 2463 
L 2278 2388 
Q 2241 2644 2061 2787 
Q 1881 2931 1553 2931 
Q 1166 2931 1000 2803 
Q 834 2675 834 2503 
Q 834 2394 903 2306 
Q 972 2216 1119 2156 
Q 1203 2125 1616 2013 
Q 2213 1853 2448 1751 
Q 2684 1650 2818 1456 
Q 2953 1263 2953 975 
Q 2953 694 2789 445 
Q 2625 197 2315 61 
Q 2006 -75 1616 -75 
Q 969 -75 630 194 
Q 291 463 197 991 
z
" transform="scale(0.015625)"/>
       <path id="ArialMT-6e" d="M 422 0 
L 422 3319 
L 928 3319 
L 928 2847 
Q 1294 3394 1984 3394 
Q 2284 3394 2536 3286 
Q 2788 3178 2913 3003 
Q 3038 2828 3088 2588 
Q 3119 2431 3119 2041 
L 3119 0 
L 2556 0 
L 2556 2019 
Q 2556 2363 2490 2533 
Q 2425 2703 2258 2804 
Q 2091 2906 1866 2906 
Q 1506 2906 1245 2678 
Q 984 2450 984 1813 
L 984 0 
L 422 0 
z
" transform="scale(0.015625)"/>
      </defs>
      <use xlink:href="#DejaVuSans-Oblique-64" transform="translate(0 0.015625)"/>
      <use xlink:href="#ArialMT-20" transform="translate(63.476562 0.015625)"/>
      <use xlink:href="#ArialMT-28" transform="translate(91.259766 0.015625)"/>
      <use xlink:href="#ArialMT-70" transform="translate(124.560547 0.015625)"/>
      <use xlink:href="#ArialMT-6f" transform="translate(180.175781 0.015625)"/>
      <use xlink:href="#ArialMT-73" transform="translate(235.791016 0.015625)"/>
      <use xlink:href="#ArialMT-69" transform="translate(285.791016 0.015625)"/>
      <use xlink:href="#ArialMT-74" transform="translate(308.007812 0.015625)"/>
      <use xlink:href="#ArialMT-69" transform="translate(335.791016 0.015625)"/>
      <use xlink:href="#ArialMT-6f" transform="translate(358.007812 0.015625)"/>
      <use xlink:href="#ArialMT-6e" transform="translate(413.623047 0.015625)"/>
      <use xlink:href="#ArialMT-29" transform="translate(469.238281 0.015625)"/>
     </g>
    </g>
   </g>
   <g id="line2d_14">
    <path d="M 50.680625 218.614893 
L 59.277758 220.219259 
L 67.874892 212.703728 
L 76.472025 195.031072 
L 85.069158 197.748098 
L 93.666292 200.464934 
L 102.263425 182.140351 
L 110.860558 173.235332 
L 119.457692 178.682933 
L 128.054825 172.387274 
L 136.651958 177.764596 
L 145.249092 183.168746 
L 153.846225 180.361108 
L 162.443358 202.562081 
L 171.040492 222.577369 
L 179.637625 229.101939 
L 188.234758 240.854444 
L 196.831892 237.208038 
L 205.429025 247.744403 
L 214.026158 264.132236 
L 222.623292 247.125407 
L 231.220425 249.745229 
L 239.817558 248.961658 
L 248.414692 265.493891 
L 257.011825 271.810701 
L 265.608958 270.523597 
L 274.206092 283.879287 
L 282.803225 279.519831 
L 291.400358 286.489413 
L 299.997492 289.874116 
L 308.594625 296.85609 
L 317.191758 275.362961 
L 325.788892 275.519578 
L 334.386025 287.792851 
L 342.983158 278.248354 
L 351.580292 292.414558 
L 360.177425 289.990984 
L 368.774558 312.730248 
L 377.371692 328.142012 
L 385.968825 325.857709 
L 394.565958 317.288825 
L 403.163092 315.300333 
L 411.760225 316.642271 
L 420.357358 320.136164 
L 428.954492 337.292368 
L 437.551625 345.645165 
L 446.148758 350.990242 
L 454.745892 338.723799 
L 463.343025 334.736584 
L 471.940158 355.194228 
L 480.537292 351.433682 
L 489.134425 355.90203 
L 497.731558 363.756774 
L 506.328692 356.659116 
L 514.925825 344.695791 
L 523.522958 333.889572 
L 532.120092 343.627532 
L 540.717225 347.215514 
L 549.314358 343.37166 
L 557.911492 332.051807 
L 566.508625 337.611962 
L 575.105758 339.766278 
L 583.702892 352.603766 
L 592.300025 366.484091 
L 600.897158 357.055852 
L 609.494292 341.31856 
L 618.091425 342.154138 
L 626.688558 330.509526 
L 635.285692 326.313239 
L 643.882825 333.798963 
L 652.479958 329.605466 
L 661.077092 311.758677 
L 669.674225 312.174389 
L 678.271358 294.018861 
L 686.868492 324.417383 
" clip-path="url(#p74d1482b75)" style="fill: none; stroke: #1f77b4; stroke-width: 1.5; stroke-linecap: round"/>
   </g>
   <g id="line2d_15">
    <path d="M 50.680625 214.841531 
L 59.277758 213.83147 
L 67.874892 217.301037 
L 76.472025 216.23628 
L 85.069158 239.299271 
L 93.666292 241.84826 
L 102.263425 237.704462 
L 110.860558 220.555544 
L 119.457692 226.569353 
L 128.054825 235.950804 
L 136.651958 241.773002 
L 145.249092 231.151025 
L 153.846225 227.336323 
L 162.443358 233.483458 
L 171.040492 227.527698 
L 179.637625 226.401248 
L 188.234758 215.161461 
L 196.831892 223.307817 
L 205.429025 227.109883 
L 214.026158 231.659757 
L 222.623292 248.641825 
L 231.220425 245.205759 
L 239.817558 242.176573 
L 248.414692 242.117238 
L 257.011825 244.839298 
L 265.608958 261.262719 
L 274.206092 266.143727 
L 282.803225 270.120456 
L 291.400358 279.429775 
L 299.997492 281.301272 
L 308.594625 276.612821 
L 317.191758 254.72624 
L 325.788892 252.700505 
L 334.386025 249.711989 
L 342.983158 250.575831 
L 351.580292 272.840519 
L 360.177425 273.148176 
L 368.774558 272.449288 
L 377.371692 243.866767 
L 385.968825 246.09885 
L 394.565958 242.59981 
L 403.163092 243.002592 
L 411.760225 256.563486 
L 420.357358 243.302606 
L 428.954492 234.577463 
L 437.551625 225.39863 
L 446.148758 235.950815 
L 454.745892 219.673325 
L 463.343025 235.93987 
L 471.940158 229.130204 
L 480.537292 203.712994 
L 489.134425 215.206799 
L 497.731558 221.777901 
L 506.328692 220.621585 
L 514.925825 226.463724 
L 523.522958 244.45703 
L 532.120092 243.661452 
L 540.717225 255.988018 
L 549.314358 250.492633 
L 557.911492 261.16128 
L 566.508625 243.176434 
L 575.105758 252.265006 
L 583.702892 256.002084 
L 592.300025 246.562341 
L 600.897158 260.844821 
L 609.494292 258.205463 
L 618.091425 243.037877 
L 626.688558 261.690499 
L 635.285692 259.548078 
L 643.882825 256.532497 
L 652.479958 247.460523 
L 661.077092 261.813627 
L 669.674225 277.135701 
L 678.271358 271.079291 
L 686.868492 267.633194 
" clip-path="url(#p74d1482b75)" style="fill: none; stroke: #ff7f0e; stroke-width: 1.5; stroke-linecap: round"/>
   </g>
   <g id="line2d_16">
    <path d="M 50.680625 221.471951 
L 59.277758 217.451898 
L 67.874892 225.342645 
L 76.472025 222.647662 
L 85.069158 219.246961 
L 93.666292 227.536022 
L 102.263425 205.886287 
L 110.860558 200.388111 
L 119.457692 214.211542 
L 128.054825 206.593144 
L 136.651958 217.902978 
L 145.249092 208.769949 
L 153.846225 195.326048 
L 162.443358 204.848932 
L 171.040492 193.670284 
L 179.637625 188.880532 
L 188.234758 179.341659 
L 196.831892 157.331998 
L 205.429025 160.179388 
L 214.026158 168.925455 
L 222.623292 179.24704 
L 231.220425 188.713391 
L 239.817558 189.60805 
L 248.414692 185.649453 
L 257.011825 182.438839 
L 265.608958 172.84052 
L 274.206092 172.689651 
L 282.803225 155.823397 
L 291.400358 158.894373 
L 299.997492 127.330569 
L 308.594625 120.070564 
L 317.191758 130.016693 
L 325.788892 142.442921 
L 334.386025 136.844495 
L 342.983158 139.437472 
L 351.580292 131.152483 
L 360.177425 125.661214 
L 368.774558 126.506293 
L 377.371692 136.332164 
L 385.968825 153.909873 
L 394.565958 159.091062 
L 403.163092 149.153737 
L 411.760225 146.669475 
L 420.357358 161.124552 
L 428.954492 159.115027 
L 437.551625 154.643951 
L 446.148758 164.899895 
L 454.745892 163.116128 
L 463.343025 162.440696 
L 471.940158 175.703287 
L 480.537292 171.551659 
L 489.134425 165.04453 
L 497.731558 152.477217 
L 506.328692 140.2493 
L 514.925825 156.235249 
L 523.522958 167.117413 
L 532.120092 161.14114 
L 540.717225 155.179364 
L 549.314358 149.202948 
L 557.911492 104.497323 
L 566.508625 97.872927 
L 575.105758 84.696257 
L 583.702892 73.626385 
L 592.300025 66.06789 
L 600.897158 69.726154 
L 609.494292 60.919365 
L 618.091425 69.886933 
L 626.688558 72.634886 
L 635.285692 78.266859 
L 643.882825 77.316823 
L 652.479958 50.458409 
L 661.077092 72.125441 
L 669.674225 64.16234 
L 678.271358 82.875679 
L 686.868492 88.351796 
" clip-path="url(#p74d1482b75)" style="fill: none; stroke: #2ca02c; stroke-width: 1.5; stroke-linecap: round"/>
   </g>
   <g id="line2d_17">
    <path d="M 50.680625 211.742807 
L 59.277758 210.996926 
L 67.874892 223.502665 
L 76.472025 231.802776 
L 85.069158 223.916983 
L 93.666292 232.391879 
L 102.263425 229.880176 
L 110.860558 229.351378 
L 119.457692 236.9123 
L 128.054825 212.034791 
L 136.651958 204.679037 
L 145.249092 228.178018 
L 153.846225 226.014473 
L 162.443358 233.693591 
L 171.040492 223.80228 
L 179.637625 232.998388 
L 188.234758 234.329746 
L 196.831892 228.470066 
L 205.429025 218.424174 
L 214.026158 232.351955 
L 222.623292 236.233379 
L 231.220425 241.744463 
L 239.817558 249.325446 
L 248.414692 228.839789 
L 257.011825 224.140536 
L 265.608958 238.771352 
L 274.206092 228.120833 
L 282.803225 203.496143 
L 291.400358 191.51581 
L 299.997492 209.145999 
L 308.594625 214.764866 
L 317.191758 200.064113 
L 325.788892 208.275639 
L 334.386025 203.125728 
L 342.983158 194.13717 
L 351.580292 204.892917 
L 360.177425 205.583627 
L 368.774558 243.194055 
L 377.371692 255.080658 
L 385.968825 258.011363 
L 394.565958 272.490162 
L 403.163092 253.548285 
L 411.760225 270.143099 
L 420.357358 275.249207 
L 428.954492 273.732144 
L 437.551625 257.008159 
L 446.148758 273.669355 
L 454.745892 260.172447 
L 463.343025 260.053706 
L 471.940158 271.442758 
L 480.537292 266.080686 
L 489.134425 263.770873 
L 497.731558 270.73556 
L 506.328692 269.925604 
L 514.925825 274.396636 
L 523.522958 273.079424 
L 532.120092 265.396312 
L 540.717225 246.992779 
L 549.314358 261.355917 
L 557.911492 236.605012 
L 566.508625 259.256294 
L 575.105758 261.01755 
L 583.702892 254.190942 
L 592.300025 250.930419 
L 600.897158 258.155987 
L 609.494292 260.570958 
L 618.091425 266.291553 
L 626.688558 273.130316 
L 635.285692 263.271858 
L 643.882825 259.129186 
L 652.479958 267.169445 
L 661.077092 256.730831 
L 669.674225 253.165045 
L 678.271358 243.732904 
L 686.868492 236.426931 
" clip-path="url(#p74d1482b75)" style="fill: none; stroke: #d62728; stroke-width: 1.5; stroke-linecap: round"/>
   </g>
   <g id="line2d_18">
    <path d="M 50.680625 233.997916 
L 59.277758 240.498042 
L 67.874892 231.826733 
L 76.472025 224.744229 
L 85.069158 224.986763 
L 93.666292 223.625341 
L 102.263425 208.799806 
L 110.860558 215.664174 
L 119.457692 209.315865 
L 128.054825 211.662031 
L 136.651958 214.187921 
L 145.249092 201.438134 
L 153.846225 191.860318 
L 162.443358 182.420663 
L 171.040492 167.272385 
L 179.637625 167.028665 
L 188.234758 159.115543 
L 196.831892 162.71576 
L 205.429025 158.954257 
L 214.026158 160.464388 
L 222.623292 159.338883 
L 231.220425 152.432909 
L 239.817558 161.927229 
L 248.414692 137.647966 
L 257.011825 149.321408 
L 265.608958 163.410389 
L 274.206092 149.972112 
L 282.803225 140.785961 
L 291.400358 133.543913 
L 299.997492 126.252831 
L 308.594625 126.394938 
L 317.191758 136.806335 
L 325.788892 135.926728 
L 334.386025 143.784254 
L 342.983158 132.469337 
L 351.580292 134.175735 
L 360.177425 143.754489 
L 368.774558 147.483728 
L 377.371692 142.692229 
L 385.968825 149.233473 
L 394.565958 158.774205 
L 403.163092 155.946551 
L 411.760225 153.104053 
L 420.357358 158.986428 
L 428.954492 164.452176 
L 437.551625 161.759557 
L 446.148758 178.562575 
L 454.745892 194.894247 
L 463.343025 203.2308 
L 471.940158 205.707559 
L 480.537292 202.099906 
L 489.134425 184.980436 
L 497.731558 175.028481 
L 506.328692 176.884347 
L 514.925825 177.105004 
L 523.522958 188.737972 
L 532.120092 188.952791 
L 540.717225 192.302276 
L 549.314358 188.557573 
L 557.911492 198.156445 
L 566.508625 192.130146 
L 575.105758 174.344829 
L 583.702892 175.60684 
L 592.300025 170.945531 
L 600.897158 162.937364 
L 609.494292 167.592973 
L 618.091425 164.992689 
L 626.688558 164.846572 
L 635.285692 163.713176 
L 643.882825 172.682886 
L 652.479958 172.398479 
L 661.077092 166.619897 
L 669.674225 149.781381 
L 678.271358 138.650369 
L 686.868492 113.665662 
" clip-path="url(#p74d1482b75)" style="fill: none; stroke: #9467bd; stroke-width: 1.5; stroke-linecap: round"/>
   </g>
   <g id="patch_3">
    <path d="M 50.680625 382.285375 
L 50.680625 34.657125 
" style="fill: none; stroke: #ffffff; stroke-width: 0.8; stroke-linejoin: miter; stroke-linecap: square"/>
   </g>
   <g id="patch_4">
    <path d="M 695.465625 382.285375 
L 695.465625 34.657125 
" style="fill: none; stroke: #ffffff; stroke-width: 0.8; stroke-linejoin: miter; stroke-linecap: square"/>
   </g>
   <g id="patch_5">
    <path d="M 50.680625 382.285375 
L 695.465625 382.285375 
" style="fill: none; stroke: #ffffff; stroke-width: 0.8; stroke-linejoin: miter; stroke-linecap: square"/>
   </g>
   <g id="patch_6">
    <path d="M 50.680625 34.657125 
L 695.465625 34.657125 
" style="fill: none; stroke: #ffffff; stroke-width: 0.8; stroke-linejoin: miter; stroke-linecap: square"/>
   </g>
   <g id="text_16">
    <!-- Brownian motion process -->
    <g style="fill: #262626" transform="translate(305.711875 15.789375)scale(0.12 -0.12)">
     <defs>
      <path id="ArialMT-42" d="M 469 0 
L 469 4581 
L 2188 4581 
Q 2713 4581 3030 4442 
Q 3347 4303 3526 4014 
Q 3706 3725 3706 3409 
Q 3706 3116 3547 2856 
Q 3388 2597 3066 2438 
Q 3481 2316 3704 2022 
Q 3928 1728 3928 1328 
Q 3928 1006 3792 729 
Q 3656 453 3456 303 
Q 3256 153 2954 76 
Q 2653 0 2216 0 
L 469 0 
z
M 1075 2656 
L 2066 2656 
Q 2469 2656 2644 2709 
Q 2875 2778 2992 2937 
Q 3109 3097 3109 3338 
Q 3109 3566 3000 3739 
Q 2891 3913 2687 3977 
Q 2484 4041 1991 4041 
L 1075 4041 
L 1075 2656 
z
M 1075 541 
L 2216 541 
Q 2509 541 2628 563 
Q 2838 600 2978 687 
Q 3119 775 3209 942 
Q 3300 1109 3300 1328 
Q 3300 1584 3169 1773 
Q 3038 1963 2805 2039 
Q 2572 2116 2134 2116 
L 1075 2116 
L 1075 541 
z
" transform="scale(0.015625)"/>
      <path id="ArialMT-72" d="M 416 0 
L 416 3319 
L 922 3319 
L 922 2816 
Q 1116 3169 1280 3281 
Q 1444 3394 1641 3394 
Q 1925 3394 2219 3213 
L 2025 2691 
Q 1819 2813 1613 2813 
Q 1428 2813 1281 2702 
Q 1134 2591 1072 2394 
Q 978 2094 978 1738 
L 978 0 
L 416 0 
z
" transform="scale(0.015625)"/>
      <path id="ArialMT-77" d="M 1034 0 
L 19 3319 
L 600 3319 
L 1128 1403 
L 1325 691 
Q 1338 744 1497 1375 
L 2025 3319 
L 2603 3319 
L 3100 1394 
L 3266 759 
L 3456 1400 
L 4025 3319 
L 4572 3319 
L 3534 0 
L 2950 0 
L 2422 1988 
L 2294 2553 
L 1622 0 
L 1034 0 
z
" transform="scale(0.015625)"/>
      <path id="ArialMT-61" d="M 2588 409 
Q 2275 144 1986 34 
Q 1697 -75 1366 -75 
Q 819 -75 525 192 
Q 231 459 231 875 
Q 231 1119 342 1320 
Q 453 1522 633 1644 
Q 813 1766 1038 1828 
Q 1203 1872 1538 1913 
Q 2219 1994 2541 2106 
Q 2544 2222 2544 2253 
Q 2544 2597 2384 2738 
Q 2169 2928 1744 2928 
Q 1347 2928 1158 2789 
Q 969 2650 878 2297 
L 328 2372 
Q 403 2725 575 2942 
Q 747 3159 1072 3276 
Q 1397 3394 1825 3394 
Q 2250 3394 2515 3294 
Q 2781 3194 2906 3042 
Q 3031 2891 3081 2659 
Q 3109 2516 3109 2141 
L 3109 1391 
Q 3109 606 3145 398 
Q 3181 191 3288 0 
L 2700 0 
Q 2613 175 2588 409 
z
M 2541 1666 
Q 2234 1541 1622 1453 
Q 1275 1403 1131 1340 
Q 988 1278 909 1158 
Q 831 1038 831 891 
Q 831 666 1001 516 
Q 1172 366 1500 366 
Q 1825 366 2078 508 
Q 2331 650 2450 897 
Q 2541 1088 2541 1459 
L 2541 1666 
z
" transform="scale(0.015625)"/>
      <path id="ArialMT-63" d="M 2588 1216 
L 3141 1144 
Q 3050 572 2676 248 
Q 2303 -75 1759 -75 
Q 1078 -75 664 370 
Q 250 816 250 1647 
Q 250 2184 428 2587 
Q 606 2991 970 3192 
Q 1334 3394 1763 3394 
Q 2303 3394 2647 3120 
Q 2991 2847 3088 2344 
L 2541 2259 
Q 2463 2594 2264 2762 
Q 2066 2931 1784 2931 
Q 1359 2931 1093 2626 
Q 828 2322 828 1663 
Q 828 994 1084 691 
Q 1341 388 1753 388 
Q 2084 388 2306 591 
Q 2528 794 2588 1216 
z
" transform="scale(0.015625)"/>
     </defs>
     <use xlink:href="#ArialMT-42"/>
     <use xlink:href="#ArialMT-72" x="66.699219"/>
     <use xlink:href="#ArialMT-6f" x="100"/>
     <use xlink:href="#ArialMT-77" x="155.615234"/>
     <use xlink:href="#ArialMT-6e" x="227.832031"/>
     <use xlink:href="#ArialMT-69" x="283.447266"/>
     <use xlink:href="#ArialMT-61" x="305.664062"/>
     <use xlink:href="#ArialMT-6e" x="361.279297"/>
     <use xlink:href="#ArialMT-20" x="416.894531"/>
     <use xlink:href="#ArialMT-6d" x="444.677734"/>
     <use xlink:href="#ArialMT-6f" x="527.978516"/>
     <use xlink:href="#ArialMT-74" x="583.59375"/>
     <use xlink:href="#ArialMT-69" x="611.376953"/>
     <use xlink:href="#ArialMT-6f" x="633.59375"/>
     <use xlink:href="#ArialMT-6e" x="689.208984"/>
     <use xlink:href="#ArialMT-20" x="744.824219"/>
     <use xlink:href="#ArialMT-70" x="772.607422"/>
     <use xlink:href="#ArialMT-72" x="828.222656"/>
     <use xlink:href="#ArialMT-6f" x="861.523438"/>
     <use xlink:href="#ArialMT-63" x="917.138672"/>
     <use xlink:href="#ArialMT-65" x="967.138672"/>
     <use xlink:href="#ArialMT-73" x="1022.753906"/>
     <use xlink:href="#ArialMT-73" x="1072.753906"/>
    </g>
    <!--  Position over time for 5 independent realizations -->
    <g style="fill: #262626" transform="translate(243.340938 28.657125)scale(0.12 -0.12)">
     <defs>
      <path id="ArialMT-50" d="M 494 0 
L 494 4581 
L 2222 4581 
Q 2678 4581 2919 4538 
Q 3256 4481 3484 4323 
Q 3713 4166 3852 3881 
Q 3991 3597 3991 3256 
Q 3991 2672 3619 2267 
Q 3247 1863 2275 1863 
L 1100 1863 
L 1100 0 
L 494 0 
z
M 1100 2403 
L 2284 2403 
Q 2872 2403 3119 2622 
Q 3366 2841 3366 3238 
Q 3366 3525 3220 3729 
Q 3075 3934 2838 4000 
Q 2684 4041 2272 4041 
L 1100 4041 
L 1100 2403 
z
" transform="scale(0.015625)"/>
      <path id="ArialMT-76" d="M 1344 0 
L 81 3319 
L 675 3319 
L 1388 1331 
Q 1503 1009 1600 663 
Q 1675 925 1809 1294 
L 2547 3319 
L 3125 3319 
L 1869 0 
L 1344 0 
z
" transform="scale(0.015625)"/>
      <path id="ArialMT-66" d="M 556 0 
L 556 2881 
L 59 2881 
L 59 3319 
L 556 3319 
L 556 3672 
Q 556 4006 616 4169 
Q 697 4388 901 4523 
Q 1106 4659 1475 4659 
Q 1713 4659 2000 4603 
L 1916 4113 
Q 1741 4144 1584 4144 
Q 1328 4144 1222 4034 
Q 1116 3925 1116 3625 
L 1116 3319 
L 1763 3319 
L 1763 2881 
L 1116 2881 
L 1116 0 
L 556 0 
z
" transform="scale(0.015625)"/>
      <path id="ArialMT-64" d="M 2575 0 
L 2575 419 
Q 2259 -75 1647 -75 
Q 1250 -75 917 144 
Q 584 363 401 755 
Q 219 1147 219 1656 
Q 219 2153 384 2558 
Q 550 2963 881 3178 
Q 1213 3394 1622 3394 
Q 1922 3394 2156 3267 
Q 2391 3141 2538 2938 
L 2538 4581 
L 3097 4581 
L 3097 0 
L 2575 0 
z
M 797 1656 
Q 797 1019 1065 703 
Q 1334 388 1700 388 
Q 2069 388 2326 689 
Q 2584 991 2584 1609 
Q 2584 2291 2321 2609 
Q 2059 2928 1675 2928 
Q 1300 2928 1048 2622 
Q 797 2316 797 1656 
z
" transform="scale(0.015625)"/>
      <path id="ArialMT-6c" d="M 409 0 
L 409 4581 
L 972 4581 
L 972 0 
L 409 0 
z
" transform="scale(0.015625)"/>
      <path id="ArialMT-7a" d="M 125 0 
L 125 456 
L 2238 2881 
Q 1878 2863 1603 2863 
L 250 2863 
L 250 3319 
L 2963 3319 
L 2963 2947 
L 1166 841 
L 819 456 
Q 1197 484 1528 484 
L 3063 484 
L 3063 0 
L 125 0 
z
" transform="scale(0.015625)"/>
     </defs>
     <use xlink:href="#ArialMT-20"/>
     <use xlink:href="#ArialMT-50" x="27.783203"/>
     <use xlink:href="#ArialMT-6f" x="94.482422"/>
     <use xlink:href="#ArialMT-73" x="150.097656"/>
     <use xlink:href="#ArialMT-69" x="200.097656"/>
     <use xlink:href="#ArialMT-74" x="222.314453"/>
     <use xlink:href="#ArialMT-69" x="250.097656"/>
     <use xlink:href="#ArialMT-6f" x="272.314453"/>
     <use xlink:href="#ArialMT-6e" x="327.929688"/>
     <use xlink:href="#ArialMT-20" x="383.544922"/>
     <use xlink:href="#ArialMT-6f" x="411.328125"/>
     <use xlink:href="#ArialMT-76" x="466.943359"/>
     <use xlink:href="#ArialMT-65" x="516.943359"/>
     <use xlink:href="#ArialMT-72" x="572.558594"/>
     <use xlink:href="#ArialMT-20" x="605.859375"/>
     <use xlink:href="#ArialMT-74" x="633.642578"/>
     <use xlink:href="#ArialMT-69" x="661.425781"/>
     <use xlink:href="#ArialMT-6d" x="683.642578"/>
     <use xlink:href="#ArialMT-65" x="766.943359"/>
     <use xlink:href="#ArialMT-20" x="822.558594"/>
     <use xlink:href="#ArialMT-66" x="850.341797"/>
     <use xlink:href="#ArialMT-6f" x="878.125"/>
     <use xlink:href="#ArialMT-72" x="933.740234"/>
     <use xlink:href="#ArialMT-20" x="967.041016"/>
     <use xlink:href="#ArialMT-35" x="994.824219"/>
     <use xlink:href="#ArialMT-20" x="1050.439453"/>
     <use xlink:href="#ArialMT-69" x="1078.222656"/>
     <use xlink:href="#ArialMT-6e" x="1100.439453"/>
     <use xlink:href="#ArialMT-64" x="1156.054688"/>
     <use xlink:href="#ArialMT-65" x="1211.669922"/>
     <use xlink:href="#ArialMT-70" x="1267.285156"/>
     <use xlink:href="#ArialMT-65" x="1322.900391"/>
     <use xlink:href="#ArialMT-6e" x="1378.515625"/>
     <use xlink:href="#ArialMT-64" x="1434.130859"/>
     <use xlink:href="#ArialMT-65" x="1489.746094"/>
     <use xlink:href="#ArialMT-6e" x="1545.361328"/>
     <use xlink:href="#ArialMT-74" x="1600.976562"/>
     <use xlink:href="#ArialMT-20" x="1628.759766"/>
     <use xlink:href="#ArialMT-72" x="1656.542969"/>
     <use xlink:href="#ArialMT-65" x="1689.84375"/>
     <use xlink:href="#ArialMT-61" x="1745.458984"/>
     <use xlink:href="#ArialMT-6c" x="1801.074219"/>
     <use xlink:href="#ArialMT-69" x="1823.291016"/>
     <use xlink:href="#ArialMT-7a" x="1845.507812"/>
     <use xlink:href="#ArialMT-61" x="1895.507812"/>
     <use xlink:href="#ArialMT-74" x="1951.123047"/>
     <use xlink:href="#ArialMT-69" x="1978.90625"/>
     <use xlink:href="#ArialMT-6f" x="2001.123047"/>
     <use xlink:href="#ArialMT-6e" x="2056.738281"/>
     <use xlink:href="#ArialMT-73" x="2112.353516"/>
    </g>
   </g>
  </g>
 </g>
 <defs>
  <clipPath id="p74d1482b75">
   <rect x="50.680625" y="34.657125" width="644.785" height="347.62825"/>
  </clipPath>
 </defs>
</svg>